<?xml version="1.0" encoding="UTF-8" standalone="no"?>
<!-- Created with Inkscape (http://www.inkscape.org/) -->

<svg
   width="160mm"
   height="120mm"
   viewBox="0 0 160 119.99998"
   version="1.1"
   id="svg1"
   inkscape:version="1.3.2 (091e20ef0f, 2023-11-25, custom)"
   sodipodi:docname="diffusion_mechanisms.svg"
   xmlns:inkscape="http://www.inkscape.org/namespaces/inkscape"
   xmlns:sodipodi="http://sodipodi.sourceforge.net/DTD/sodipodi-0.dtd"
   xmlns="http://www.w3.org/2000/svg"
   xmlns:svg="http://www.w3.org/2000/svg"
   xmlns:rdf="http://www.w3.org/1999/02/22-rdf-syntax-ns#"
   xmlns:cc="http://creativecommons.org/ns#">
  <sodipodi:namedview
     id="namedview1"
     pagecolor="#ffffff"
     bordercolor="#000000"
     borderopacity="0.25"
     inkscape:showpageshadow="2"
     inkscape:pageopacity="0.0"
     inkscape:pagecheckerboard="0"
     inkscape:deskcolor="#d1d1d1"
     inkscape:document-units="mm"
     showgrid="true"
     inkscape:zoom="1.688175"
     inkscape:cx="265.37533"
     inkscape:cy="186.88821"
     inkscape:window-width="1920"
     inkscape:window-height="1011"
     inkscape:window-x="0"
     inkscape:window-y="0"
     inkscape:window-maximized="1"
     inkscape:current-layer="svg1">
    <inkscape:grid
       id="grid4"
       units="mm"
       originx="0"
       originy="0"
       spacingx="0.99999991"
       spacingy="0.99999991"
       empcolor="#0099e5"
       empopacity="0.30196078"
       color="#0099e5"
       opacity="0.14901961"
       empspacing="5"
       dotted="false"
       gridanglex="30"
       gridanglez="30"
       visible="true" />
    <sodipodi:guide
       position="0,119.99999"
       orientation="0,604.72441"
       id="guide4"
       inkscape:locked="false" />
    <sodipodi:guide
       position="159.99998,119.99999"
       orientation="453.54331,0"
       id="guide5"
       inkscape:locked="false" />
    <sodipodi:guide
       position="159.99998,0"
       orientation="0,-604.72441"
       id="guide6"
       inkscape:locked="false" />
    <sodipodi:guide
       position="0,0"
       orientation="-453.54331,0"
       id="guide7"
       inkscape:locked="false" />
    <sodipodi:guide
       position="0,59.999992"
       orientation="0,170.07873"
       id="guide8"
       inkscape:locked="false" />
    <sodipodi:guide
       position="79.999985,119.99999"
       orientation="170.07874,0"
       id="guide9"
       inkscape:locked="false" />
  </sodipodi:namedview>
  <defs
     id="defs1">
    <marker
       style="overflow:visible"
       id="ArrowWide"
       refX="0"
       refY="0"
       orient="auto-start-reverse"
       inkscape:stockid="Wide arrow"
       markerWidth="1"
       markerHeight="1"
       viewBox="0 0 1 1"
       inkscape:isstock="true"
       inkscape:collect="always"
       preserveAspectRatio="xMidYMid">
      <path
         style="fill:none;stroke:context-stroke;stroke-width:1;stroke-linecap:butt"
         d="M 3,-3 0,0 3,3"
         transform="rotate(180,0.125,0)"
         sodipodi:nodetypes="ccc"
         id="path1" />
    </marker>
    <inkscape:path-effect
       effect="powerstroke"
       id="path-effect9"
       is_visible="true"
       lpeversion="1.3"
       scale_width="1"
       interpolator_type="CubicBezierJohan"
       interpolator_beta="0.2"
       start_linecap_type="zerowidth"
       end_linecap_type="zerowidth"
       offset_points="0.11108974,0.82098078"
       linejoin_type="extrp_arc"
       miter_limit="4"
       not_jump="false"
       sort_points="true"
       message="&lt;b&gt;Strg + Klick&lt;/b&gt; und Verschieben eines Anfassers" />
    <inkscape:path-effect
       effect="skeletal"
       id="path-effect8"
       is_visible="true"
       lpeversion="1"
       pattern="M 0,4.9921382 C 0,2.2364779 2.2364779,0 4.9921382,0 c 2.7556603,0 4.9921383,2.2364779 4.9921383,4.9921382 0,2.7556603 -2.236478,4.9921383 -4.9921383,4.9921383 C 2.2364779,9.9842765 0,7.7477985 0,4.9921382 Z"
       copytype="single_stretched"
       prop_scale="0.080535668"
       scale_y_rel="false"
       spacing="0"
       normal_offset="0"
       tang_offset="0"
       prop_units="false"
       vertical_pattern="false"
       hide_knot="false"
       fuse_tolerance="0" />
    <marker
       id="Arrow2Sstart"
       inkscape:isstock="true"
       inkscape:stockid="Arrow2Sstart"
       orient="auto"
       refX="0"
       refY="0"
       style="overflow:visible">
      <path
         d="M 8.72,4.03 -2.21,0.02 8.72,-4 c -1.75,2.37 -1.74,5.62 0,8.03 z"
         id="Arrow2SstartPath"
         style="fill:#000000;fill-opacity:1;stroke:none"
         transform="matrix(0.3,0,0,0.3,-0.69,0)" />
    </marker>
    <marker
       id="Arrow2Send"
       inkscape:isstock="true"
       inkscape:stockid="Arrow2Send"
       orient="auto"
       refX="0"
       refY="0"
       style="overflow:visible">
      <path
         d="M 8.72,4.03 -2.21,0.02 8.72,-4 c -1.75,2.37 -1.74,5.62 0,8.03 z"
         id="Arrow2SendPath"
         style="fill:#000000;fill-opacity:1;stroke:none"
         transform="matrix(-0.3,0,0,-0.3,0.69,0)" />
    </marker>
    <clipPath
       id="id-c5200447-c525-49cf-936f-2afeedc30a9b-7">
      <path
         clip-rule="nonzero"
         d="m 9,4 h 5 V 9.554688 H 9 Z m 0,0"
         id="id-900d2770-9ca1-492d-9070-b852f01df429-5" />
    </clipPath>
    <g
       id="id-f93406ad-b092-45f5-a4ef-f720b6cf6b9c-2">
      <g
         id="id-5d74c64a-b847-401a-8884-b6790b925087-9">
        <path
           d="m 4.015625,-1.8125 c 0,-0.34375 -0.03125,-0.6875 -0.125,-1.015625 -0.03125,-0.15625 -0.078125,-0.3125 -0.125,-0.46875 C 3.546875,-3.765625 3.234375,-4.15625 2.875,-4.5 2.296875,-5.078125 1.46875,-5.859375 1.359375,-6.3125 c -0.03125,-0.0625 -0.03125,-0.125 0,-0.171875 C 1.375,-6.5625 1.4375,-6.65625 1.515625,-6.703125 c 0.09375,-0.0625 0.1875,-0.0625 0.296875,-0.0625 0.453125,0.015625 0.8125,0.328125 1.234375,0.5 0.046875,0 0.078125,0.015625 0.109375,0.015625 0.140625,0 0.265625,-0.09375 0.3125,-0.21875 0.015625,-0.0625 0.015625,-0.125 0,-0.1875 -0.03125,-0.125 -0.125,-0.21875 -0.265625,-0.25 C 2.8125,-7 2.359375,-7.09375 2,-7.09375 c -0.09375,0 -0.171875,0 -0.25,0.015625 -0.140625,0.03125 -0.28125,0.0625 -0.390625,0.15625 -0.109375,0.078125 -0.1875,0.203125 -0.21875,0.34375 -0.046875,0.140625 -0.046875,0.3125 0,0.5 C 1.28125,-5.546875 1.75,-4.90625 2.1875,-4.34375 1.796875,-4.25 1.453125,-4.046875 1.171875,-3.75 c -0.390625,0.4375 -0.578125,1 -0.578125,1.578125 0,0.203125 0.03125,0.40625 0.078125,0.609375 0.078125,0.359375 0.265625,0.703125 0.53125,1 0.359375,0.40625 0.90625,0.671875 1.453125,0.671875 0.875,0 1.359375,-0.953125 1.359375,-1.921875 z M 3.40625,-1.625 c 0,0.734375 -0.171875,1.515625 -0.796875,1.515625 -0.40625,0 -0.75,-0.234375 -1,-0.5625 C 1.5,-0.859375 1.390625,-1.0625 1.34375,-1.28125 1.28125,-1.5625 1.265625,-1.84375 1.265625,-2.125 c 0,-0.515625 0.0625,-1.046875 0.359375,-1.46875 0.171875,-0.25 0.4375,-0.453125 0.71875,-0.546875 l 0.046875,0.046875 c 0.296875,0.359375 0.5625,0.75 0.75,1.15625 0.078125,0.171875 0.125,0.328125 0.171875,0.5 0.0625,0.265625 0.109375,0.546875 0.09375,0.8125 z m 0,0"
           id="id-c6f1081e-b9ab-47f4-83a4-8a417110e03c-1" />
      </g>
      <g
         id="id-7de32c5d-2fe2-4e4f-9962-fa309edb9afd-2">
        <path
           d="M 4.1875,-3.546875 C 4.1875,-4 3.765625,-4.40625 3,-4.40625 c -1.3125,0 -1.6875,1.015625 -1.6875,1.453125 0,0.78125 0.734375,0.921875 1.03125,0.984375 0.515625,0.109375 1.03125,0.21875 1.03125,0.765625 0,0.25 -0.21875,1.09375 -1.421875,1.09375 -0.140625,0 -0.90625,0 -1.140625,-0.53125 0.390625,0.046875 0.640625,-0.25 0.640625,-0.53125 0,-0.21875 -0.171875,-0.34375 -0.375,-0.34375 -0.265625,0 -0.5625,0.203125 -0.5625,0.65625 0,0.5625 0.578125,0.96875 1.421875,0.96875 1.625,0 2.015625,-1.203125 2.015625,-1.65625 0,-0.359375 -0.1875,-0.609375 -0.3125,-0.71875 -0.265625,-0.28125 -0.5625,-0.34375 -1,-0.421875 -0.359375,-0.078125 -0.75,-0.15625 -0.75,-0.609375 C 1.890625,-3.578125 2.125,-4.1875 3,-4.1875 c 0.25,0 0.75,0.078125 0.890625,0.453125 C 3.625,-3.71875 3.421875,-3.5 3.421875,-3.28125 c 0,0.140625 0.09375,0.296875 0.3125,0.296875 0.21875,0 0.453125,-0.171875 0.453125,-0.5625 z m 0,0"
           id="id-a66fe8fd-71cc-4a1a-a4cc-1c02ed69df88-7" />
      </g>
      <g
         id="id-3db7f47d-9763-4b3e-b23b-fb8630d3de74-0">
        <path
           d="m 5.03125,-0.140625 c 0,-0.078125 -0.0625,-0.140625 -0.140625,-0.140625 H 2.84375 V -4.625 c 0,-0.078125 -0.0625,-0.140625 -0.140625,-0.140625 -0.0625,0 -0.125,0.0625 -0.125,0.140625 v 4.34375 H 0.53125 c -0.078125,0 -0.140625,0.0625 -0.140625,0.140625 C 0.390625,-0.0625 0.453125,0 0.53125,0 H 4.890625 C 4.96875,0 5.03125,-0.0625 5.03125,-0.140625 Z m 0,0"
           id="id-bd0eb616-cb6f-4b14-9530-7fd1c66f7ed8-9" />
      </g>
    </g>
    <clipPath
       id="clipPath1">
      <path
         clip-rule="nonzero"
         d="m 9,4 h 5 V 9.554688 H 9 Z m 0,0"
         id="path1-3" />
    </clipPath>
    <g
       id="id-57dc55fd-4cc5-4c72-9ee2-d5ddb87342d4-5">
      <g
         id="id-61b99b63-5e09-4b0c-b67b-f2ddc7fb5559-6">
        <path
           d="m 4.34375,-3.765625 c 0,-0.34375 -0.3125,-0.640625 -0.828125,-0.640625 C 2.875,-4.40625 2.4375,-3.921875 2.25,-3.640625 2.15625,-4.09375 1.796875,-4.40625 1.328125,-4.40625 0.875,-4.40625 0.6875,-4.015625 0.59375,-3.84375 0.421875,-3.5 0.296875,-2.90625 0.296875,-2.875 c 0,0.109375 0.109375,0.109375 0.109375,0.109375 0.109375,0 0.109375,-0.015625 0.171875,-0.234375 0.171875,-0.703125 0.375,-1.1875 0.734375,-1.1875 0.15625,0 0.296875,0.078125 0.296875,0.453125 0,0.21875 -0.03125,0.328125 -0.15625,0.84375 L 0.875,-0.59375 c -0.03125,0.15625 -0.09375,0.390625 -0.09375,0.4375 0,0.171875 0.140625,0.265625 0.296875,0.265625 0.125,0 0.296875,-0.078125 0.375,-0.28125 C 1.46875,-0.203125 1.796875,-1.5625 1.84375,-1.75 l 0.3125,-1.296875 c 0.046875,-0.125 0.328125,-0.59375 0.5625,-0.8125 0.078125,-0.0625 0.375,-0.328125 0.796875,-0.328125 0.265625,0 0.421875,0.125 0.421875,0.125 -0.296875,0.046875 -0.515625,0.28125 -0.515625,0.546875 0,0.15625 0.109375,0.34375 0.375,0.34375 0.265625,0 0.546875,-0.234375 0.546875,-0.59375 z m 0,0"
           id="id-d06ee36a-eaf4-47c8-b1b0-8658193c5b73-3" />
      </g>
      <g
         id="id-e019b610-eba1-4f72-8793-9d425089dd64-9">
        <path
           d="m 4.859375,-3.453125 c 0,-0.6875 -0.78125,-1.3125 -1.8125,-1.3125 H 0.40625 v 0.25 h 0.171875 c 0.53125,0 0.546875,0.078125 0.546875,0.328125 v 3.625 c 0,0.234375 -0.015625,0.3125 -0.546875,0.3125 H 0.40625 V 0 L 1.453125,-0.03125 2.5,0 V -0.25 H 2.328125 c -0.53125,0 -0.546875,-0.078125 -0.546875,-0.3125 v -1.59375 h 1.265625 c 1.015625,0 1.8125,-0.59375 1.8125,-1.296875 z m -0.75,0 c 0,0.3125 0,1.0625 -1.234375,1.0625 H 1.75 v -1.84375 c 0,-0.21875 0.015625,-0.28125 0.34375,-0.28125 H 2.875 c 1.171875,0 1.234375,0.65625 1.234375,1.0625 z m 0,0"
           id="id-02be743c-d793-4ecc-8443-50acb8ee639f-4" />
      </g>
    </g>
    <g
       id="id-08058419-1a47-47ee-884d-e5bdb8f8da85-1"
       style="fill:#008000;stroke-width:0">
      <g
         id="id-5746a27a-48c2-4b2b-bef8-87e2af2c5001-2"
         style="fill:#008000;stroke-width:0">
        <path
           d="m 4.015625,-1.8125 c 0,-0.34375 -0.03125,-0.6875 -0.125,-1.015625 -0.03125,-0.15625 -0.078125,-0.3125 -0.125,-0.46875 C 3.546875,-3.765625 3.234375,-4.15625 2.875,-4.5 2.296875,-5.078125 1.46875,-5.859375 1.359375,-6.3125 c -0.03125,-0.0625 -0.03125,-0.125 0,-0.171875 C 1.375,-6.5625 1.4375,-6.65625 1.515625,-6.703125 c 0.09375,-0.0625 0.1875,-0.0625 0.296875,-0.0625 0.453125,0.015625 0.8125,0.328125 1.234375,0.5 0.046875,0 0.078125,0.015625 0.109375,0.015625 0.140625,0 0.265625,-0.09375 0.3125,-0.21875 0.015625,-0.0625 0.015625,-0.125 0,-0.1875 -0.03125,-0.125 -0.125,-0.21875 -0.265625,-0.25 C 2.8125,-7 2.359375,-7.09375 2,-7.09375 c -0.09375,0 -0.171875,0 -0.25,0.015625 -0.140625,0.03125 -0.28125,0.0625 -0.390625,0.15625 -0.109375,0.078125 -0.1875,0.203125 -0.21875,0.34375 -0.046875,0.140625 -0.046875,0.3125 0,0.5 C 1.28125,-5.546875 1.75,-4.90625 2.1875,-4.34375 1.796875,-4.25 1.453125,-4.046875 1.171875,-3.75 c -0.390625,0.4375 -0.578125,1 -0.578125,1.578125 0,0.203125 0.03125,0.40625 0.078125,0.609375 0.078125,0.359375 0.265625,0.703125 0.53125,1 0.359375,0.40625 0.90625,0.671875 1.453125,0.671875 0.875,0 1.359375,-0.953125 1.359375,-1.921875 z M 3.40625,-1.625 c 0,0.734375 -0.171875,1.515625 -0.796875,1.515625 -0.40625,0 -0.75,-0.234375 -1,-0.5625 C 1.5,-0.859375 1.390625,-1.0625 1.34375,-1.28125 1.28125,-1.5625 1.265625,-1.84375 1.265625,-2.125 c 0,-0.515625 0.0625,-1.046875 0.359375,-1.46875 0.171875,-0.25 0.4375,-0.453125 0.71875,-0.546875 l 0.046875,0.046875 c 0.296875,0.359375 0.5625,0.75 0.75,1.15625 0.078125,0.171875 0.125,0.328125 0.171875,0.5 0.0625,0.265625 0.109375,0.546875 0.09375,0.8125 z m 0,0"
           id="id-7bad0f2c-f945-4a0d-9c5b-1d4891e9f0a0-7"
           style="fill:#008000;stroke-width:0" />
      </g>
      <g
         id="id-2f0a61b0-f16b-4fd7-80af-e460ffe44e1d-0"
         style="fill:#008000;stroke-width:0">
        <path
           d="M 4.1875,-3.546875 C 4.1875,-4 3.765625,-4.40625 3,-4.40625 c -1.3125,0 -1.6875,1.015625 -1.6875,1.453125 0,0.78125 0.734375,0.921875 1.03125,0.984375 0.515625,0.109375 1.03125,0.21875 1.03125,0.765625 0,0.25 -0.21875,1.09375 -1.421875,1.09375 -0.140625,0 -0.90625,0 -1.140625,-0.53125 0.390625,0.046875 0.640625,-0.25 0.640625,-0.53125 0,-0.21875 -0.171875,-0.34375 -0.375,-0.34375 -0.265625,0 -0.5625,0.203125 -0.5625,0.65625 0,0.5625 0.578125,0.96875 1.421875,0.96875 1.625,0 2.015625,-1.203125 2.015625,-1.65625 0,-0.359375 -0.1875,-0.609375 -0.3125,-0.71875 -0.265625,-0.28125 -0.5625,-0.34375 -1,-0.421875 -0.359375,-0.078125 -0.75,-0.15625 -0.75,-0.609375 C 1.890625,-3.578125 2.125,-4.1875 3,-4.1875 c 0.25,0 0.75,0.078125 0.890625,0.453125 C 3.625,-3.71875 3.421875,-3.5 3.421875,-3.28125 c 0,0.140625 0.09375,0.296875 0.3125,0.296875 0.21875,0 0.453125,-0.171875 0.453125,-0.5625 z m 0,0"
           id="id-7ab9142b-f5b0-4192-8fec-5f25a573fb53-9"
           style="fill:#008000;stroke-width:0" />
      </g>
      <g
         id="id-de8faa35-db89-45de-abbb-e52f853d835c-3"
         style="fill:#008000;stroke-width:0">
        <path
           d="m 5.03125,-0.140625 c 0,-0.078125 -0.0625,-0.140625 -0.140625,-0.140625 H 2.84375 V -4.625 c 0,-0.078125 -0.0625,-0.140625 -0.140625,-0.140625 -0.0625,0 -0.125,0.0625 -0.125,0.140625 v 4.34375 H 0.53125 c -0.078125,0 -0.140625,0.0625 -0.140625,0.140625 C 0.390625,-0.0625 0.453125,0 0.53125,0 H 4.890625 C 4.96875,0 5.03125,-0.0625 5.03125,-0.140625 Z m 0,0"
           id="id-bd321dd8-e0db-419a-8a63-765b33abae08-6"
           style="fill:#008000;stroke-width:0" />
      </g>
      <g
         id="id-846c698d-5be4-45f8-bf82-5ae717b90a6c-0"
         style="fill:#008000;stroke-width:0">
        <path
           d="M 4.53125,-1.828125 H 4.296875 C 4.21875,-1.15625 4.125,-0.25 2.796875,-0.25 h -0.6875 c -0.328125,0 -0.34375,-0.0625 -0.34375,-0.265625 V -4.1875 c 0,-0.234375 0,-0.328125 0.65625,-0.328125 h 0.25 v -0.25 l -1.21875,0.03125 -1.0625,-0.03125 v 0.25 H 0.5625 c 0.53125,0 0.546875,0.078125 0.546875,0.328125 v 3.625 c 0,0.234375 -0.015625,0.3125 -0.546875,0.3125 H 0.390625 V 0 h 3.9375 z m 0,0"
           id="id-4ec9e476-d57c-42ee-b4ab-fbf0084d5203-6"
           style="fill:#008000;stroke-width:0" />
      </g>
    </g>
    <g
       id="id-08058419-1a47-47ee-884d-e5bdb8f8da85-2"
       style="fill:#008000;stroke-width:0">
      <g
         id="id-5746a27a-48c2-4b2b-bef8-87e2af2c5001-8"
         style="fill:#008000;stroke-width:0">
        <path
           d="m 4.015625,-1.8125 c 0,-0.34375 -0.03125,-0.6875 -0.125,-1.015625 -0.03125,-0.15625 -0.078125,-0.3125 -0.125,-0.46875 C 3.546875,-3.765625 3.234375,-4.15625 2.875,-4.5 2.296875,-5.078125 1.46875,-5.859375 1.359375,-6.3125 c -0.03125,-0.0625 -0.03125,-0.125 0,-0.171875 C 1.375,-6.5625 1.4375,-6.65625 1.515625,-6.703125 c 0.09375,-0.0625 0.1875,-0.0625 0.296875,-0.0625 0.453125,0.015625 0.8125,0.328125 1.234375,0.5 0.046875,0 0.078125,0.015625 0.109375,0.015625 0.140625,0 0.265625,-0.09375 0.3125,-0.21875 0.015625,-0.0625 0.015625,-0.125 0,-0.1875 -0.03125,-0.125 -0.125,-0.21875 -0.265625,-0.25 C 2.8125,-7 2.359375,-7.09375 2,-7.09375 c -0.09375,0 -0.171875,0 -0.25,0.015625 -0.140625,0.03125 -0.28125,0.0625 -0.390625,0.15625 -0.109375,0.078125 -0.1875,0.203125 -0.21875,0.34375 -0.046875,0.140625 -0.046875,0.3125 0,0.5 C 1.28125,-5.546875 1.75,-4.90625 2.1875,-4.34375 1.796875,-4.25 1.453125,-4.046875 1.171875,-3.75 c -0.390625,0.4375 -0.578125,1 -0.578125,1.578125 0,0.203125 0.03125,0.40625 0.078125,0.609375 0.078125,0.359375 0.265625,0.703125 0.53125,1 0.359375,0.40625 0.90625,0.671875 1.453125,0.671875 0.875,0 1.359375,-0.953125 1.359375,-1.921875 z M 3.40625,-1.625 c 0,0.734375 -0.171875,1.515625 -0.796875,1.515625 -0.40625,0 -0.75,-0.234375 -1,-0.5625 C 1.5,-0.859375 1.390625,-1.0625 1.34375,-1.28125 1.28125,-1.5625 1.265625,-1.84375 1.265625,-2.125 c 0,-0.515625 0.0625,-1.046875 0.359375,-1.46875 0.171875,-0.25 0.4375,-0.453125 0.71875,-0.546875 l 0.046875,0.046875 c 0.296875,0.359375 0.5625,0.75 0.75,1.15625 0.078125,0.171875 0.125,0.328125 0.171875,0.5 0.0625,0.265625 0.109375,0.546875 0.09375,0.8125 z m 0,0"
           id="id-7bad0f2c-f945-4a0d-9c5b-1d4891e9f0a0-9"
           style="fill:#008000;stroke-width:0" />
      </g>
      <g
         id="id-2f0a61b0-f16b-4fd7-80af-e460ffe44e1d-7"
         style="fill:#008000;stroke-width:0">
        <path
           d="M 4.1875,-3.546875 C 4.1875,-4 3.765625,-4.40625 3,-4.40625 c -1.3125,0 -1.6875,1.015625 -1.6875,1.453125 0,0.78125 0.734375,0.921875 1.03125,0.984375 0.515625,0.109375 1.03125,0.21875 1.03125,0.765625 0,0.25 -0.21875,1.09375 -1.421875,1.09375 -0.140625,0 -0.90625,0 -1.140625,-0.53125 0.390625,0.046875 0.640625,-0.25 0.640625,-0.53125 0,-0.21875 -0.171875,-0.34375 -0.375,-0.34375 -0.265625,0 -0.5625,0.203125 -0.5625,0.65625 0,0.5625 0.578125,0.96875 1.421875,0.96875 1.625,0 2.015625,-1.203125 2.015625,-1.65625 0,-0.359375 -0.1875,-0.609375 -0.3125,-0.71875 -0.265625,-0.28125 -0.5625,-0.34375 -1,-0.421875 -0.359375,-0.078125 -0.75,-0.15625 -0.75,-0.609375 C 1.890625,-3.578125 2.125,-4.1875 3,-4.1875 c 0.25,0 0.75,0.078125 0.890625,0.453125 C 3.625,-3.71875 3.421875,-3.5 3.421875,-3.28125 c 0,0.140625 0.09375,0.296875 0.3125,0.296875 0.21875,0 0.453125,-0.171875 0.453125,-0.5625 z m 0,0"
           id="id-7ab9142b-f5b0-4192-8fec-5f25a573fb53-3"
           style="fill:#008000;stroke-width:0" />
      </g>
      <g
         id="id-de8faa35-db89-45de-abbb-e52f853d835c-6"
         style="fill:#008000;stroke-width:0">
        <path
           d="m 5.03125,-0.140625 c 0,-0.078125 -0.0625,-0.140625 -0.140625,-0.140625 H 2.84375 V -4.625 c 0,-0.078125 -0.0625,-0.140625 -0.140625,-0.140625 -0.0625,0 -0.125,0.0625 -0.125,0.140625 v 4.34375 H 0.53125 c -0.078125,0 -0.140625,0.0625 -0.140625,0.140625 C 0.390625,-0.0625 0.453125,0 0.53125,0 H 4.890625 C 4.96875,0 5.03125,-0.0625 5.03125,-0.140625 Z m 0,0"
           id="id-bd321dd8-e0db-419a-8a63-765b33abae08-1"
           style="fill:#008000;stroke-width:0" />
      </g>
      <g
         id="id-846c698d-5be4-45f8-bf82-5ae717b90a6c-2"
         style="fill:#008000;stroke-width:0">
        <path
           d="M 4.53125,-1.828125 H 4.296875 C 4.21875,-1.15625 4.125,-0.25 2.796875,-0.25 h -0.6875 c -0.328125,0 -0.34375,-0.0625 -0.34375,-0.265625 V -4.1875 c 0,-0.234375 0,-0.328125 0.65625,-0.328125 h 0.25 v -0.25 l -1.21875,0.03125 -1.0625,-0.03125 v 0.25 H 0.5625 c 0.53125,0 0.546875,0.078125 0.546875,0.328125 v 3.625 c 0,0.234375 -0.015625,0.3125 -0.546875,0.3125 H 0.390625 V 0 h 3.9375 z m 0,0"
           id="id-4ec9e476-d57c-42ee-b4ab-fbf0084d5203-9"
           style="fill:#008000;stroke-width:0" />
      </g>
    </g>
    <g
       id="id-08058419-1a47-47ee-884d-e5bdb8f8da85-15"
       style="fill:#008000;stroke-width:0">
      <g
         id="id-5746a27a-48c2-4b2b-bef8-87e2af2c5001-5"
         style="fill:#008000;stroke-width:0">
        <path
           d="m 4.015625,-1.8125 c 0,-0.34375 -0.03125,-0.6875 -0.125,-1.015625 -0.03125,-0.15625 -0.078125,-0.3125 -0.125,-0.46875 C 3.546875,-3.765625 3.234375,-4.15625 2.875,-4.5 2.296875,-5.078125 1.46875,-5.859375 1.359375,-6.3125 c -0.03125,-0.0625 -0.03125,-0.125 0,-0.171875 C 1.375,-6.5625 1.4375,-6.65625 1.515625,-6.703125 c 0.09375,-0.0625 0.1875,-0.0625 0.296875,-0.0625 0.453125,0.015625 0.8125,0.328125 1.234375,0.5 0.046875,0 0.078125,0.015625 0.109375,0.015625 0.140625,0 0.265625,-0.09375 0.3125,-0.21875 0.015625,-0.0625 0.015625,-0.125 0,-0.1875 -0.03125,-0.125 -0.125,-0.21875 -0.265625,-0.25 C 2.8125,-7 2.359375,-7.09375 2,-7.09375 c -0.09375,0 -0.171875,0 -0.25,0.015625 -0.140625,0.03125 -0.28125,0.0625 -0.390625,0.15625 -0.109375,0.078125 -0.1875,0.203125 -0.21875,0.34375 -0.046875,0.140625 -0.046875,0.3125 0,0.5 C 1.28125,-5.546875 1.75,-4.90625 2.1875,-4.34375 1.796875,-4.25 1.453125,-4.046875 1.171875,-3.75 c -0.390625,0.4375 -0.578125,1 -0.578125,1.578125 0,0.203125 0.03125,0.40625 0.078125,0.609375 0.078125,0.359375 0.265625,0.703125 0.53125,1 0.359375,0.40625 0.90625,0.671875 1.453125,0.671875 0.875,0 1.359375,-0.953125 1.359375,-1.921875 z M 3.40625,-1.625 c 0,0.734375 -0.171875,1.515625 -0.796875,1.515625 -0.40625,0 -0.75,-0.234375 -1,-0.5625 C 1.5,-0.859375 1.390625,-1.0625 1.34375,-1.28125 1.28125,-1.5625 1.265625,-1.84375 1.265625,-2.125 c 0,-0.515625 0.0625,-1.046875 0.359375,-1.46875 0.171875,-0.25 0.4375,-0.453125 0.71875,-0.546875 l 0.046875,0.046875 c 0.296875,0.359375 0.5625,0.75 0.75,1.15625 0.078125,0.171875 0.125,0.328125 0.171875,0.5 0.0625,0.265625 0.109375,0.546875 0.09375,0.8125 z m 0,0"
           id="id-7bad0f2c-f945-4a0d-9c5b-1d4891e9f0a0-4"
           style="fill:#008000;stroke-width:0" />
      </g>
      <g
         id="id-2f0a61b0-f16b-4fd7-80af-e460ffe44e1d-76"
         style="fill:#008000;stroke-width:0">
        <path
           d="M 4.1875,-3.546875 C 4.1875,-4 3.765625,-4.40625 3,-4.40625 c -1.3125,0 -1.6875,1.015625 -1.6875,1.453125 0,0.78125 0.734375,0.921875 1.03125,0.984375 0.515625,0.109375 1.03125,0.21875 1.03125,0.765625 0,0.25 -0.21875,1.09375 -1.421875,1.09375 -0.140625,0 -0.90625,0 -1.140625,-0.53125 0.390625,0.046875 0.640625,-0.25 0.640625,-0.53125 0,-0.21875 -0.171875,-0.34375 -0.375,-0.34375 -0.265625,0 -0.5625,0.203125 -0.5625,0.65625 0,0.5625 0.578125,0.96875 1.421875,0.96875 1.625,0 2.015625,-1.203125 2.015625,-1.65625 0,-0.359375 -0.1875,-0.609375 -0.3125,-0.71875 -0.265625,-0.28125 -0.5625,-0.34375 -1,-0.421875 -0.359375,-0.078125 -0.75,-0.15625 -0.75,-0.609375 C 1.890625,-3.578125 2.125,-4.1875 3,-4.1875 c 0.25,0 0.75,0.078125 0.890625,0.453125 C 3.625,-3.71875 3.421875,-3.5 3.421875,-3.28125 c 0,0.140625 0.09375,0.296875 0.3125,0.296875 0.21875,0 0.453125,-0.171875 0.453125,-0.5625 z m 0,0"
           id="id-7ab9142b-f5b0-4192-8fec-5f25a573fb53-5"
           style="fill:#008000;stroke-width:0" />
      </g>
      <g
         id="id-de8faa35-db89-45de-abbb-e52f853d835c-69"
         style="fill:#008000;stroke-width:0">
        <path
           d="m 5.03125,-0.140625 c 0,-0.078125 -0.0625,-0.140625 -0.140625,-0.140625 H 2.84375 V -4.625 c 0,-0.078125 -0.0625,-0.140625 -0.140625,-0.140625 -0.0625,0 -0.125,0.0625 -0.125,0.140625 v 4.34375 H 0.53125 c -0.078125,0 -0.140625,0.0625 -0.140625,0.140625 C 0.390625,-0.0625 0.453125,0 0.53125,0 H 4.890625 C 4.96875,0 5.03125,-0.0625 5.03125,-0.140625 Z m 0,0"
           id="id-bd321dd8-e0db-419a-8a63-765b33abae08-3"
           style="fill:#008000;stroke-width:0" />
      </g>
      <g
         id="id-846c698d-5be4-45f8-bf82-5ae717b90a6c-7"
         style="fill:#008000;stroke-width:0">
        <path
           d="M 4.53125,-1.828125 H 4.296875 C 4.21875,-1.15625 4.125,-0.25 2.796875,-0.25 h -0.6875 c -0.328125,0 -0.34375,-0.0625 -0.34375,-0.265625 V -4.1875 c 0,-0.234375 0,-0.328125 0.65625,-0.328125 h 0.25 v -0.25 l -1.21875,0.03125 -1.0625,-0.03125 v 0.25 H 0.5625 c 0.53125,0 0.546875,0.078125 0.546875,0.328125 v 3.625 c 0,0.234375 -0.015625,0.3125 -0.546875,0.3125 H 0.390625 V 0 h 3.9375 z m 0,0"
           id="id-4ec9e476-d57c-42ee-b4ab-fbf0084d5203-4"
           style="fill:#008000;stroke-width:0" />
      </g>
    </g>
    <g
       id="id-5cd727ea-8e0e-4aa9-8ac8-6d5ec5ae0603">
      <g
         id="id-3446fbf0-7bb8-4b66-80de-2b0cd3b6b208">
        <path
           d="m 6,-3.8125 c 0,0 -0.015625,-0.109375 -0.125,-0.109375 -0.09375,0 -0.09375,0.03125 -0.140625,0.21875 -0.1875,0.625 -0.515625,1.375 -0.984375,1.96875 v -0.625 c 0,-1.5625 -0.921875,-2.046875 -1.65625,-2.046875 -1.375,0 -2.6875,1.421875 -2.6875,2.828125 0,0.9375 0.59375,1.6875 1.625,1.6875 0.625,0 1.34375,-0.234375 2.09375,-0.84375 0.125,0.53125 0.453125,0.84375 0.90625,0.84375 0.53125,0 0.84375,-0.546875 0.84375,-0.703125 0,-0.078125 -0.0625,-0.109375 -0.125,-0.109375 -0.0625,0 -0.09375,0.03125 -0.125,0.109375 -0.1875,0.484375 -0.5625,0.484375 -0.5625,0.484375 -0.3125,0 -0.3125,-0.78125 -0.3125,-1.015625 0,-0.203125 0,-0.234375 0.109375,-0.34375 C 5.796875,-2.65625 6,-3.8125 6,-3.8125 Z m -1.90625,2.828125 c -0.890625,0.765625 -1.65625,0.875 -2.046875,0.875 -0.59375,0 -0.90625,-0.453125 -0.90625,-1.09375 0,-0.484375 0.265625,-1.5625 0.578125,-2.0625 C 2.1875,-4 2.734375,-4.1875 3.078125,-4.1875 c 0.984375,0 0.984375,1.3125 0.984375,2.078125 0,0.375 0,0.953125 0.03125,1.125 z m 0,0"
           id="id-95ca2d07-e18c-44bc-be4e-8681c7fe7319" />
      </g>
      <g
         id="id-9633c564-3220-4600-b114-31f07c2b3102">
        <path
           d="M 1.953125,0 V -0.25 C 1.5,-0.25 1.4375,-0.25 1.4375,-0.546875 V -4.84375 l -1.046875,0.078125 v 0.25 c 0.46875,0 0.515625,0.0625 0.515625,0.390625 v 3.578125 C 0.90625,-0.25 0.84375,-0.25 0.390625,-0.25 V 0 c 0,0 0.5,-0.03125 0.78125,-0.03125 0.265625,0 0.515625,0.015625 0.78125,0.03125 z m 0,0"
           id="id-946eff3a-1d9a-4391-b9d8-29cc65fa0899" />
      </g>
    </g>
    <g
       id="id-21333164-46b6-4ab9-99b7-ec5a79c05731">
      <g
         id="id-97cad460-6cc9-486a-9d1a-ab5f651cfd04">
        <path
           d="m 4.5,-6.65625 c 0,-0.125 -0.078125,-0.21875 -0.203125,-0.25 -0.375,-0.09375 -0.78125,-0.1875 -1.140625,-0.1875 -0.09375,0 -0.1875,0 -0.265625,0.015625 -0.140625,0.03125 -0.28125,0.0625 -0.421875,0.15625 -0.140625,0.078125 -0.25,0.203125 -0.3125,0.34375 -0.09375,0.140625 -0.125,0.3125 -0.125,0.5 0,0.53125 0.3125,1.171875 0.609375,1.734375 -0.40625,0.09375 -0.8125,0.296875 -1.15625,0.59375 -0.5,0.4375 -0.84375,1 -0.96875,1.578125 -0.0625,0.203125 -0.09375,0.40625 -0.09375,0.609375 0,0.359375 0.09375,0.703125 0.28125,1 0.28125,0.40625 0.75,0.671875 1.296875,0.671875 0.875,0 1.59375,-0.953125 1.84375,-1.921875 0.078125,-0.34375 0.140625,-0.6875 0.140625,-1.015625 0,-0.15625 -0.015625,-0.3125 -0.03125,-0.46875 C 3.859375,-3.765625 3.65625,-4.15625 3.375,-4.5 2.9375,-5.078125 2.296875,-5.859375 2.296875,-6.3125 c 0,-0.0625 0.015625,-0.125 0.046875,-0.171875 0.046875,-0.078125 0.125,-0.171875 0.21875,-0.21875 0.109375,-0.0625 0.203125,-0.0625 0.3125,-0.0625 0.453125,0.015625 0.734375,0.328125 1.109375,0.5 0.046875,0 0.078125,0.015625 0.109375,0.015625 0.140625,0 0.296875,-0.09375 0.359375,-0.21875 C 4.484375,-6.53125 4.5,-6.59375 4.5,-6.65625 Z M 3.296875,-2.4375 c 0,0.265625 -0.03125,0.546875 -0.109375,0.8125 C 3,-0.890625 2.640625,-0.109375 2.015625,-0.109375 c -0.40625,0 -0.703125,-0.234375 -0.859375,-0.5625 -0.078125,-0.1875 -0.125,-0.390625 -0.125,-0.609375 0,-0.28125 0.0625,-0.5625 0.140625,-0.84375 0.125,-0.515625 0.328125,-1.046875 0.71875,-1.46875 0.25,-0.25 0.546875,-0.453125 0.859375,-0.546875 l 0.03125,0.046875 c 0.203125,0.359375 0.375,0.75 0.453125,1.15625 0.046875,0.171875 0.0625,0.328125 0.0625,0.5 z m 0,0"
           id="id-33975106-b591-4be9-90f3-7a17c9fa537d" />
      </g>
      <g
         id="id-e5005d06-9914-4514-bf8d-53de30ea247d">
        <path
           d="m 5.03125,-0.140625 c 0,-0.078125 -0.0625,-0.140625 -0.140625,-0.140625 H 2.84375 V -4.625 c 0,-0.078125 -0.0625,-0.140625 -0.140625,-0.140625 -0.0625,0 -0.125,0.0625 -0.125,0.140625 v 4.34375 H 0.53125 c -0.078125,0 -0.140625,0.0625 -0.140625,0.140625 C 0.390625,-0.0625 0.453125,0 0.53125,0 H 4.890625 C 4.96875,0 5.03125,-0.0625 5.03125,-0.140625 Z m 0,0"
           id="id-b0213623-541d-494e-92ad-b0352fe6e00d" />
      </g>
    </g>
    <g
       id="id-93b869a5-c60d-400a-a48c-f8b3d0d68dfb">
      <g
         id="id-22d18ae0-b70f-4ae7-a851-80176b5205c2">
        <path
           d="M 1.5,2.296875 V -7.28125 c 0,-0.109375 -0.078125,-0.203125 -0.1875,-0.203125 -0.109375,0 -0.203125,0.09375 -0.203125,0.203125 V 2.296875 C 1.109375,2.40625 1.203125,2.5 1.3125,2.5 1.421875,2.5 1.5,2.40625 1.5,2.296875 Z m 1.359375,0 V -7.28125 c 0,-0.109375 -0.09375,-0.203125 -0.203125,-0.203125 -0.109375,0 -0.1875,0.09375 -0.1875,0.203125 V 2.296875 C 2.46875,2.40625 2.546875,2.5 2.65625,2.5 2.765625,2.5 2.859375,2.40625 2.859375,2.296875 Z m 0,0"
           id="id-18eed5d1-dc64-4b8c-a758-74bb7acf823f" />
      </g>
    </g>
    <g
       id="id-9016a867-2200-4585-a2d8-07d6a88cda3e">
      <g
         id="id-856c3978-8222-4e8e-89ea-15ef52909cee">
        <path
           d="m 4.015625,-1.8125 c 0,-0.34375 -0.03125,-0.6875 -0.125,-1.015625 -0.03125,-0.15625 -0.078125,-0.3125 -0.125,-0.46875 C 3.546875,-3.765625 3.234375,-4.15625 2.875,-4.5 2.296875,-5.078125 1.46875,-5.859375 1.359375,-6.3125 c -0.03125,-0.0625 -0.03125,-0.125 0,-0.171875 C 1.375,-6.5625 1.4375,-6.65625 1.515625,-6.703125 c 0.09375,-0.0625 0.1875,-0.0625 0.296875,-0.0625 0.453125,0.015625 0.8125,0.328125 1.234375,0.5 0.046875,0 0.078125,0.015625 0.109375,0.015625 0.140625,0 0.265625,-0.09375 0.3125,-0.21875 0.015625,-0.0625 0.015625,-0.125 0,-0.1875 -0.03125,-0.125 -0.125,-0.21875 -0.265625,-0.25 C 2.8125,-7 2.359375,-7.09375 2,-7.09375 c -0.09375,0 -0.171875,0 -0.25,0.015625 -0.140625,0.03125 -0.28125,0.0625 -0.390625,0.15625 -0.109375,0.078125 -0.1875,0.203125 -0.21875,0.34375 -0.046875,0.140625 -0.046875,0.3125 0,0.5 C 1.28125,-5.546875 1.75,-4.90625 2.1875,-4.34375 1.796875,-4.25 1.453125,-4.046875 1.171875,-3.75 c -0.390625,0.4375 -0.578125,1 -0.578125,1.578125 0,0.203125 0.03125,0.40625 0.078125,0.609375 0.078125,0.359375 0.265625,0.703125 0.53125,1 0.359375,0.40625 0.90625,0.671875 1.453125,0.671875 0.875,0 1.359375,-0.953125 1.359375,-1.921875 z M 3.40625,-1.625 c 0,0.734375 -0.171875,1.515625 -0.796875,1.515625 -0.40625,0 -0.75,-0.234375 -1,-0.5625 C 1.5,-0.859375 1.390625,-1.0625 1.34375,-1.28125 1.28125,-1.5625 1.265625,-1.84375 1.265625,-2.125 c 0,-0.515625 0.0625,-1.046875 0.359375,-1.46875 0.171875,-0.25 0.4375,-0.453125 0.71875,-0.546875 l 0.046875,0.046875 c 0.296875,0.359375 0.5625,0.75 0.75,1.15625 0.078125,0.171875 0.125,0.328125 0.171875,0.5 0.0625,0.265625 0.109375,0.546875 0.09375,0.8125 z m 0,0"
           id="id-1a6bb11f-feda-4253-97d8-28de573ad939" />
      </g>
      <g
         id="id-808a2fb9-28cb-4eeb-9ede-6c214b42c0e6">
        <path
           d="m 6.171875,-3.03125 c 0,-0.78125 -0.390625,-1.375 -1.140625,-1.375 -1.4375,0 -2.046875,1.9375 -2.640625,3.875 C 1.3125,-0.734375 0.75,-1.28125 0.75,-2 c 0,-0.28125 0.234375,-1.375 0.828125,-2.0625 0.09375,-0.09375 0.09375,-0.140625 0.09375,-0.140625 0,-0.03125 -0.03125,-0.09375 -0.125,-0.09375 -0.28125,0 -1.046875,1.453125 -1.046875,2.40625 0,0.9375 0.65625,1.65625 1.71875,1.90625 L 1.6875,1.6875 C 1.65625,1.828125 1.640625,1.84375 1.640625,1.890625 c 0,0.21875 0.1875,0.28125 0.296875,0.28125 0.046875,0 0.265625,-0.03125 0.359375,-0.265625 C 2.328125,1.828125 2.375,1.5 2.65625,0.09375 c 0.078125,0 0.15625,0.015625 0.328125,0.015625 1.65625,0 3.1875,-1.5625 3.1875,-3.140625 z m -0.28125,0.21875 c 0,1.125 -1.28125,2.34375 -2.8125,2.34375 -0.09375,0 -0.109375,0 -0.1875,-0.015625 -0.125,0 -0.125,0 -0.125,-0.03125 l 0.1875,-1.078125 c 0.3125,-1.28125 1.09375,-2.234375 1.984375,-2.234375 0.6875,0 0.953125,0.53125 0.953125,1.015625 z m 0,0"
           id="id-cac8ec06-6ac5-49c1-a697-2ccf3c160ddf" />
      </g>
      <g
         id="id-7b9207bb-a09b-4630-a4ea-19d0a906c3f4">
        <path
           d="m 4.859375,-3.453125 c 0,-0.6875 -0.78125,-1.3125 -1.8125,-1.3125 H 0.40625 v 0.25 h 0.171875 c 0.53125,0 0.546875,0.078125 0.546875,0.328125 v 3.625 c 0,0.234375 -0.015625,0.3125 -0.546875,0.3125 H 0.40625 V 0 L 1.453125,-0.03125 2.5,0 V -0.25 H 2.328125 c -0.53125,0 -0.546875,-0.078125 -0.546875,-0.3125 v -1.59375 h 1.265625 c 1.015625,0 1.8125,-0.59375 1.8125,-1.296875 z m -0.75,0 c 0,0.3125 0,1.0625 -1.234375,1.0625 H 1.75 v -1.84375 c 0,-0.21875 0.015625,-0.28125 0.34375,-0.28125 H 2.875 c 1.171875,0 1.234375,0.65625 1.234375,1.0625 z m 0,0"
           id="id-7809f7c3-41af-49d6-801f-e7d551786541" />
      </g>
    </g>
    <g
       id="id-82805912-ae13-48b7-ab79-d851d2cccae3">
      <g
         id="id-07593468-073f-4fbf-83dd-5664b46fa2cb">
        <path
           d="m 4.34375,-3.765625 c 0,-0.34375 -0.3125,-0.640625 -0.828125,-0.640625 C 2.875,-4.40625 2.4375,-3.921875 2.25,-3.640625 2.15625,-4.09375 1.796875,-4.40625 1.328125,-4.40625 0.875,-4.40625 0.6875,-4.015625 0.59375,-3.84375 0.421875,-3.5 0.296875,-2.90625 0.296875,-2.875 c 0,0.109375 0.109375,0.109375 0.109375,0.109375 0.109375,0 0.109375,-0.015625 0.171875,-0.234375 0.171875,-0.703125 0.375,-1.1875 0.734375,-1.1875 0.15625,0 0.296875,0.078125 0.296875,0.453125 0,0.21875 -0.03125,0.328125 -0.15625,0.84375 L 0.875,-0.59375 c -0.03125,0.15625 -0.09375,0.390625 -0.09375,0.4375 0,0.171875 0.140625,0.265625 0.296875,0.265625 0.125,0 0.296875,-0.078125 0.375,-0.28125 C 1.46875,-0.203125 1.796875,-1.5625 1.84375,-1.75 l 0.3125,-1.296875 c 0.046875,-0.125 0.328125,-0.59375 0.5625,-0.8125 0.078125,-0.0625 0.375,-0.328125 0.796875,-0.328125 0.265625,0 0.421875,0.125 0.421875,0.125 -0.296875,0.046875 -0.515625,0.28125 -0.515625,0.546875 0,0.15625 0.109375,0.34375 0.375,0.34375 0.265625,0 0.546875,-0.234375 0.546875,-0.59375 z m 0,0"
           id="id-d9c8a32c-a1ec-4ab5-8c27-bf75bedd723d" />
      </g>
      <g
         id="id-be585500-6278-4767-88e8-dc39cf904587">
        <path
           d="m 2.375,-3.453125 c 0,-0.203125 -0.171875,-0.375 -0.375,-0.375 -0.15625,0 -0.296875,0.09375 -0.34375,0.203125 l -1.1875,2.953125 H 0.734375 L 2.3125,-3.265625 c 0.03125,-0.046875 0.0625,-0.125 0.0625,-0.1875 z m 0,0"
           id="id-a902f485-987e-424e-a436-45db43ab0433" />
      </g>
      <g
         id="id-5894b657-4b31-4ad0-a018-f5a61815ef20">
        <path
           d="m 4.859375,-3.453125 c 0,-0.6875 -0.78125,-1.3125 -1.8125,-1.3125 H 0.40625 v 0.25 h 0.171875 c 0.53125,0 0.546875,0.078125 0.546875,0.328125 v 3.625 c 0,0.234375 -0.015625,0.3125 -0.546875,0.3125 H 0.40625 V 0 L 1.453125,-0.03125 2.5,0 V -0.25 H 2.328125 c -0.53125,0 -0.546875,-0.078125 -0.546875,-0.3125 v -1.59375 h 1.265625 c 1.015625,0 1.8125,-0.59375 1.8125,-1.296875 z m -0.75,0 c 0,0.3125 0,1.0625 -1.234375,1.0625 H 1.75 v -1.84375 c 0,-0.21875 0.015625,-0.28125 0.34375,-0.28125 H 2.875 c 1.171875,0 1.234375,0.65625 1.234375,1.0625 z m 0,0"
           id="id-bc8bd4c6-3486-4864-b488-f8ef8cdc8d54" />
      </g>
    </g>
  </defs>
  <metadata
     id="metadata7">
    <rdf:RDF>
      <cc:Work
         rdf:about="">
        <cc:license
           rdf:resource="http://creativecommons.org/publicdomain/zero/1.0/" />
      </cc:Work>
      <cc:License
         rdf:about="http://creativecommons.org/publicdomain/zero/1.0/">
        <cc:permits
           rdf:resource="http://creativecommons.org/ns#Reproduction" />
        <cc:permits
           rdf:resource="http://creativecommons.org/ns#Distribution" />
        <cc:permits
           rdf:resource="http://creativecommons.org/ns#DerivativeWorks" />
      </cc:License>
    </rdf:RDF>
  </metadata>
  <g
     id="g5"
     transform="translate(1.5875)"
     style="stroke-width:0.5;stroke-dasharray:none">
    <path
       id="path4"
       style="fill:#0063a6;fill-opacity:0.5;stroke:#000000;stroke-width:0.5;stroke-linecap:square;stroke-dasharray:none"
       d="M 41.917855,24.97677 C 23.22974,24.97677 6.2452037,44.5604 5.0038289,59.946212 3.3606306,80.312299 23.690914,96.504286 44.994153,94.915653 61.583456,93.67855 79.067277,78.758456 83.823824,63.155318 L 82.111267,44.752307 C 75.152718,33.34775 57.13951,24.97677 41.917855,24.97677 Z" />
    <path
       id="path5"
       style="fill:#0063a6;fill-opacity:0.5;stroke:#000000;stroke-width:0.5;stroke-linecap:square;stroke-dasharray:none"
       d="m 119.98596,23.549467 c -15.56556,0.145102 -34.287038,5.35447 -37.873659,21.214209 l 1.706872,18.34255 c 0.07692,0.229036 0.132904,0.445483 0.213941,0.676961 12.881967,36.796883 24.712506,34.634707 44.327526,30.423983 17.10719,-3.672377 15.57542,-9.55773 18.99729,-30.423983 3.42187,-20.866253 -0.271,-37.665619 -18.99729,-39.809973 -2.59553,-0.297216 -5.42861,-0.45121 -8.37468,-0.423747 z" />
  </g>
  <path
     style="fill:#0063a6;fill-opacity:0.5;stroke:#000000;stroke-width:0.2;stroke-linecap:square;stroke-dasharray:none"
     d="m 49.999995,24.000001 2.53246,-9"
     id="path6"
     sodipodi:nodetypes="cc" />
  <path
     style="fill:#0063a6;fill-opacity:0.5;stroke:#000000;stroke-width:0.2;stroke-linecap:square;stroke-dasharray:none"
     d="m 85.999991,54.000002 14,-14"
     id="path7"
     sodipodi:nodetypes="cc" />
  <path
     style="fill:#0063a6;fill-opacity:0.5;stroke:#000000;stroke-width:0.2;stroke-linecap:square;stroke-dasharray:none"
     d="M 86.999992,63.000003 110.99999,57.000002"
     id="path8"
     sodipodi:nodetypes="cc" />
  <text
     xml:space="preserve"
     style="font-size:3.88056px;font-family:'Noto Sans';-inkscape-font-specification:'Noto Sans';text-align:center;text-anchor:middle;fill:#002137;fill-opacity:1;stroke:#ff00ff;stroke-width:0.499999;stroke-linecap:square"
     x="52.532455"
     y="13.941669"
     id="text8"><tspan
       sodipodi:role="line"
       id="tspan8"
       style="font-size:3.88056px;fill:#002137;fill-opacity:1;stroke:none;stroke-width:0.5"
       x="52.532455"
       y="13.941669">free surface</tspan></text>
  <text
     xml:space="preserve"
     style="font-size:3.88056px;font-family:'Noto Sans';-inkscape-font-specification:'Noto Sans';text-align:center;text-anchor:middle;fill:#002137;fill-opacity:1;stroke:none;stroke-width:0.499999;stroke-linecap:square"
     x="114.99999"
     y="40"
     id="text9"><tspan
       sodipodi:role="line"
       id="tspan9"
       style="font-size:3.88056px;text-align:center;text-anchor:middle;fill:#002137;fill-opacity:1;stroke-width:0.5"
       x="114.99999"
       y="40">grain boundary</tspan><tspan
       sodipodi:role="line"
       style="font-size:3.88056px;text-align:center;text-anchor:middle;fill:#002137;fill-opacity:1;stroke-width:0.5"
       x="114.99999"
       y="44.850697"
       id="tspan10" /></text>
  <text
     xml:space="preserve"
     style="font-size:3.88056px;font-family:'Noto Sans';-inkscape-font-specification:'Noto Sans';text-align:center;text-anchor:middle;fill:#002137;fill-opacity:1;stroke:none;stroke-width:0.499999;stroke-linecap:square"
     x="121.99999"
     y="58.000004"
     id="text11"><tspan
       sodipodi:role="line"
       style="font-size:3.88056px;fill:#002137;fill-opacity:1;stroke-width:0.5"
       x="121.99999"
       y="58.000004"
       id="tspan12">sinter neck</tspan></text>
  <path
     style="fill:none;fill-opacity:1;stroke:#000000;stroke-width:0.3;stroke-linecap:square;stroke-dasharray:none;marker-end:url(#ArrowWide)"
     d="M 39.470829,24.360833 C 29.083724,25.784428 22.359268,30.634786 16.879324,36.781813"
     id="path13"
     sodipodi:nodetypes="cc" />
  <path
     style="fill:none;fill-opacity:1;stroke:#000000;stroke-width:0.3;stroke-linecap:square;stroke-dasharray:none;marker-end:url(#ArrowWide)"
     d="m 65.999994,29.000001 c 5.626323,2.037662 11.940342,6.394216 17.169606,13.106471"
     id="path14"
     sodipodi:nodetypes="cc" />
  <path
     style="fill:none;fill-opacity:1;stroke:#000000;stroke-width:0.3;stroke-linecap:square;stroke-dasharray:none;marker-end:url(#ArrowWide)"
     d="m 83.496709,53.953811 0.856279,9.201505"
     id="path15"
     sodipodi:nodetypes="cc" />
  <path
     style="fill:none;fill-opacity:1;stroke:#000000;stroke-width:0.3;stroke-linecap:square;stroke-dasharray:none;marker-end:url(#ArrowWide)"
     d="m 64.119871,31.153878 c 1.035113,10.149326 8.113114,13.879803 17.169606,13.106471"
     id="path16"
     sodipodi:nodetypes="cc" />
  <path
     style="fill:none;fill-opacity:1;stroke:#000000;stroke-width:0.3;stroke-linecap:square;stroke-dasharray:none;marker-end:url(#ArrowWide)"
     d="M 41.132809,26.563429 C 37.241757,34.943137 30.224888,39.382601 18.541304,38.984409"
     id="path17"
     sodipodi:nodetypes="cc" />
  <path
     style="fill:none;fill-opacity:1;stroke:#000000;stroke-width:0.3;stroke-linecap:square;stroke-dasharray:none;marker-end:url(#ArrowWide)"
     d="m 93.999991,85.000004 c -2.130391,-1.873305 -4.437168,-3.366641 -9.000001,0"
     id="path18"
     sodipodi:nodetypes="cc" />
  <path
     style="fill:none;fill-opacity:1;stroke:#000000;stroke-width:0.3;stroke-linecap:square;stroke-dasharray:none;marker-end:url(#ArrowWide)"
     d="m 83.584481,84.000003 c 2.453295,-4.467763 3.565767,-10.523213 2,-16"
     id="path19"
     sodipodi:nodetypes="cc" />
  <text
     xml:space="preserve"
     style="font-size:3.88056px;font-family:'Noto Sans';-inkscape-font-specification:'Noto Sans';text-align:center;text-anchor:middle;fill:none;fill-opacity:1;stroke:#000000;stroke-width:0.3;stroke-linecap:square;stroke-dasharray:none"
     x="17.999998"
     y="23.000002"
     id="text19"><tspan
       sodipodi:role="line"
       id="tspan19"
       style="fill:#000000;stroke:none;stroke-width:0.3"
       x="17.999998"
       y="23.000002">surface</tspan><tspan
       sodipodi:role="line"
       style="fill:#000000;stroke:none;stroke-width:0.3"
       x="17.999998"
       y="27.850702"
       id="tspan26">diffusion</tspan></text>
  <text
     xml:space="preserve"
     style="font-size:3.88056px;font-family:'Noto Sans';-inkscape-font-specification:'Noto Sans';text-align:center;text-anchor:middle;fill:#000000;fill-opacity:1;stroke:none;stroke-width:0.3;stroke-linecap:square;stroke-dasharray:none"
     x="39.999996"
     y="39"
     id="text20"><tspan
       sodipodi:role="line"
       id="tspan20"
       style="stroke-width:0.3"
       x="39.999996"
       y="39">volume</tspan><tspan
       sodipodi:role="line"
       style="stroke-width:0.3"
       x="39.999996"
       y="43.8507"
       id="tspan25">diffusion</tspan></text>
  <text
     xml:space="preserve"
     style="font-size:3.88056px;font-family:'Noto Sans';-inkscape-font-specification:'Noto Sans';text-align:center;text-anchor:middle;fill:#000000;fill-opacity:1;stroke:none;stroke-width:0.3;stroke-linecap:square;stroke-dasharray:none"
     x="82.999992"
     y="89"
     id="text21"><tspan
       sodipodi:role="line"
       id="tspan21"
       style="stroke-width:0.3"
       x="82.999992"
       y="89">evaporation /</tspan><tspan
       sodipodi:role="line"
       style="stroke-width:0.3"
       x="82.999992"
       y="93.8507"
       id="tspan24">condensation</tspan></text>
  <text
     xml:space="preserve"
     style="font-size:3.88056px;font-family:'Noto Sans';-inkscape-font-specification:'Noto Sans';text-align:center;text-anchor:middle;fill:#000000;fill-opacity:1;stroke:none;stroke-width:0.3;stroke-linecap:square;stroke-dasharray:none"
     x="68.475258"
     y="54.691616"
     id="text22"><tspan
       sodipodi:role="line"
       id="tspan22"
       style="stroke-width:0.3"
       x="68.475258"
       y="54.691616">grain boundary</tspan><tspan
       sodipodi:role="line"
       style="stroke-width:0.3"
       x="68.475258"
       y="59.542313"
       id="tspan23">diffusion</tspan></text>
  <text
     xml:space="preserve"
     style="font-size:3.88056px;font-family:'Noto Sans';-inkscape-font-specification:'Noto Sans';text-align:center;text-anchor:middle;fill:none;fill-opacity:1;stroke:#000000;stroke-width:0.3;stroke-linecap:square;stroke-dasharray:none"
     x="78.357422"
     y="25.403513"
     id="text28"><tspan
       sodipodi:role="line"
       id="tspan27"
       style="fill:#000000;stroke:none;stroke-width:0.3"
       x="78.357422"
       y="25.403513">surface</tspan><tspan
       sodipodi:role="line"
       style="fill:#000000;stroke:none;stroke-width:0.3"
       x="78.357422"
       y="30.254213"
       id="tspan28">diffusion</tspan></text>
  <text
     xml:space="preserve"
     style="font-size:3.88056px;font-family:'Noto Sans';-inkscape-font-specification:'Noto Sans';text-align:center;text-anchor:middle;fill:#000000;fill-opacity:1;stroke:none;stroke-width:0.3;stroke-linecap:square;stroke-dasharray:none"
     x="61.999996"
     y="43.674873"
     id="text30"><tspan
       sodipodi:role="line"
       id="tspan29"
       style="stroke-width:0.3"
       x="61.999996"
       y="43.674873">volume</tspan><tspan
       sodipodi:role="line"
       style="stroke-width:0.3"
       x="61.999996"
       y="48.525574"
       id="tspan30">diffusion</tspan></text>
  <path
     style="fill:#000000;fill-opacity:1;stroke:#000000;stroke-width:0.3;stroke-linecap:square;stroke-dasharray:none;marker-end:url(#ArrowWide);stroke-opacity:1"
     d="m 83.385799,53.000002 -0.7092,-8"
     id="path30" />
</svg>
