<?xml version="1.0" encoding="UTF-8" standalone="no"?>
<!-- Created with Inkscape (http://www.inkscape.org/) -->

<svg
   width="160mm"
   height="120mm"
   viewBox="0 0 160 119.99998"
   version="1.1"
   id="svg1"
   inkscape:version="1.3 (0e150ed6c4, 2023-07-21)"
   sodipodi:docname="neck_shift_tangential.svg"
   xmlns:inkscape="http://www.inkscape.org/namespaces/inkscape"
   xmlns:sodipodi="http://sodipodi.sourceforge.net/DTD/sodipodi-0.dtd"
   xmlns="http://www.w3.org/2000/svg"
   xmlns:svg="http://www.w3.org/2000/svg"
   xmlns:rdf="http://www.w3.org/1999/02/22-rdf-syntax-ns#"
   xmlns:cc="http://creativecommons.org/ns#">
  <style
     id="style93">&#10;.measure-arrow&#10;{&#10;}&#10;.measure-label&#10;{&#10;&#10;}&#10;.measure-line&#10;{&#10;}</style>
  <sodipodi:namedview
     id="namedview1"
     pagecolor="#ffffff"
     bordercolor="#000000"
     borderopacity="0.25"
     inkscape:showpageshadow="2"
     inkscape:pageopacity="0.0"
     inkscape:pagecheckerboard="0"
     inkscape:deskcolor="#d1d1d1"
     inkscape:document-units="mm"
     inkscape:zoom="3.2712121"
     inkscape:cx="276.65586"
     inkscape:cy="218.26772"
     inkscape:window-width="3840"
     inkscape:window-height="2082"
     inkscape:window-x="0"
     inkscape:window-y="0"
     inkscape:window-maximized="1"
     inkscape:current-layer="layer2"
     showgrid="true">
    <inkscape:grid
       id="grid1"
       units="mm"
       originx="0"
       originy="0"
       spacingx="0.99999991"
       spacingy="0.99999991"
       empcolor="#0099e5"
       empopacity="0.30196078"
       color="#0099e5"
       opacity="0.14902"
       empspacing="5"
       dotted="false"
       gridanglex="30"
       gridanglez="30"
       visible="true" />
  </sodipodi:namedview>
  <defs
     id="defs1">
    <inkscape:path-effect
       effect="measure_segments"
       linked_items=""
       id="path-effect93"
       is_visible="true"
       lpeversion="1"
       unit="mm"
       orientation="parallel"
       coloropacity="#000000ff"
       fontbutton="Sans 10"
       precision="2"
       fix_overlaps="0"
       position="5"
       text_top_bottom="0"
       helpline_distance="0"
       helpline_overlap="2"
       line_width="0.25"
       scale="1"
       format=""
       blacklist=""
       active_projection="false"
       whitelist="false"
       showindex="false"
       arrows_outside="false"
       flip_side="false"
       scale_sensitive="true"
       local_locale="true"
       rotate_anotation="true"
       hide_back="true"
       hide_arrows="false"
       smallx100="false"
       distance_projection="20"
       angle_projection="0"
       avoid_overlapping="true"
       onbbox="false"
       bboxonly="false"
       centers="false"
       maxmin="false"
       helpdata="&lt;b&gt;&lt;big&gt;Allgemeines&lt;/big&gt;&lt;/b&gt;&#10;Der Effekt zeichnet und positioniert Bemaßungslinien und Beschriftungen.&#10;&#10;&lt;b&gt;&lt;big&gt;Projektion&lt;/big&gt;&lt;/b&gt;&#10;Zeichnet eine Linie mit Bemaßungen für die gewählten Objekte.&#10;&#10;&lt;b&gt;&lt;big&gt;Optionen&lt;/big&gt;&lt;/b&gt;&#10;Optionen für Farbe, Genauigkeit, Formatierung der Beschriftungen und die Anzeige&#10;&#10;&lt;b&gt;&lt;big&gt;Tipps&lt;/big&gt;&lt;/b&gt;&#10;&lt;b&gt;&lt;i&gt;Benutzerdefinierter Stil:&lt;/i&gt;&lt;/b&gt; Um den Stil noch weiter anzupassen, kann der XML-Editor verwendet werden. Dort kann die Klasse oder ID des Objektes bestimmt werden, um dieser dann im Stildialog einen neuen Stil zuzuweisen.&#10;&lt;b&gt;&lt;i&gt;Ausschlussliste:&lt;/i&gt;&lt;/b&gt; Die Liste ermöglicht es, Bemaßungen für einige Segmente oder Projektionsschritte nicht anzuzeigen.&#10;&lt;b&gt;&lt;i&gt;Mehrere Bemaßungs-LPEs:&lt;/i&gt;&lt;/b&gt; Auf dasselbe Objekt angewendet können so mittels Ausschlusslisten unterschiedlich ausgerichtete Beschriftungen oder weitere Projektionen gezeichnet werden.&#10;&lt;b&gt;&lt;i&gt;Standardwerte setzen:&lt;/i&gt;&lt;/b&gt; Unten können für jeden LPE Standardwerte festgelegt werden." />
    <marker
       style="overflow:visible"
       id="marker60"
       refX="3"
       refY="0"
       orient="auto-start-reverse"
       inkscape:stockid="Triangle arrow"
       markerWidth="1"
       markerHeight="1"
       viewBox="0 0 1 1"
       inkscape:isstock="true"
       inkscape:collect="always"
       preserveAspectRatio="xMidYMid">
      <path
         transform="scale(0.5)"
         style="fill:context-stroke;fill-rule:evenodd;stroke:context-stroke;stroke-width:1pt"
         d="M 5.77,0 -2.88,5 V -5 Z"
         id="path60" />
    </marker>
    <marker
       style="overflow:visible"
       id="marker57"
       refX="3"
       refY="0"
       orient="auto-start-reverse"
       inkscape:stockid="Triangle arrow"
       markerWidth="1"
       markerHeight="1"
       viewBox="0 0 1 1"
       inkscape:isstock="true"
       inkscape:collect="always"
       preserveAspectRatio="xMidYMid">
      <path
         transform="scale(0.5)"
         style="fill:context-stroke;fill-rule:evenodd;stroke:context-stroke;stroke-width:1pt"
         d="M 5.77,0 -2.88,5 V -5 Z"
         id="path57" />
    </marker>
    <marker
       style="overflow:visible"
       id="Triangle"
       refX="3"
       refY="0"
       orient="auto-start-reverse"
       inkscape:stockid="Triangle arrow"
       markerWidth="1"
       markerHeight="1"
       viewBox="0 0 1 1"
       inkscape:isstock="true"
       inkscape:collect="always"
       preserveAspectRatio="xMidYMid">
      <path
         transform="scale(0.5)"
         style="fill:context-stroke;fill-rule:evenodd;stroke:context-stroke;stroke-width:1pt"
         d="M 5.77,0 -2.88,5 V -5 Z"
         id="path135" />
    </marker>
    <marker
       style="overflow:visible"
       id="DartArrow"
       refX="5.5"
       refY="0"
       orient="auto-start-reverse"
       inkscape:stockid="Dart arrow"
       markerWidth="1"
       markerHeight="1"
       viewBox="0 0 1 1"
       inkscape:isstock="true"
       inkscape:collect="always"
       preserveAspectRatio="xMidYMid">
      <path
         style="fill:context-stroke;fill-rule:evenodd;stroke:none"
         d="M 0,0 5,-5 -12.5,0 5,5 Z"
         transform="scale(-0.5)"
         id="path11" />
    </marker>
    <marker
       style="overflow:visible"
       id="Dot"
       refX="0"
       refY="0"
       orient="auto"
       inkscape:stockid="Dot"
       markerWidth="1"
       markerHeight="1"
       viewBox="0 0 1 1"
       inkscape:isstock="true"
       inkscape:collect="always"
       preserveAspectRatio="xMidYMid">
      <path
         transform="scale(0.5)"
         style="fill:context-stroke;fill-rule:evenodd;stroke:none"
         d="M 5,0 C 5,2.76 2.76,5 0,5 -2.76,5 -5,2.76 -5,0 c 0,-2.76 2.3,-5 5,-5 2.76,0 5,2.24 5,5 z"
         sodipodi:nodetypes="sssss"
         id="path17" />
    </marker>
    <marker
       orient="auto-start-reverse"
       refY="0"
       refX="0"
       id="marker9"
       inkscape:stockid="Ellipsis"
       style="overflow:visible"
       markerWidth="1"
       markerHeight="1"
       viewBox="0 0 1 1"
       inkscape:isstock="true"
       inkscape:collect="always"
       preserveAspectRatio="xMidYMid">
      <g
         transform="scale(0.5)"
         id="g9">
        <circle
           cx="4"
           cy="0"
           r="1"
           style="fill:context-stroke;stroke:context-stroke"
           id="circle7" />
        <circle
           cx="8"
           cy="0"
           r="1"
           style="fill:context-stroke;stroke:context-stroke"
           id="circle8" />
        <circle
           cx="12"
           cy="0"
           r="1"
           style="fill:context-stroke;stroke:context-stroke"
           id="circle9" />
      </g>
    </marker>
    <marker
       orient="auto-start-reverse"
       refY="0"
       refX="0"
       id="ThreeDots"
       inkscape:stockid="Ellipsis"
       style="overflow:visible"
       markerWidth="1"
       markerHeight="1"
       viewBox="0 0 1 1"
       inkscape:isstock="true"
       inkscape:collect="always"
       preserveAspectRatio="xMidYMid">
      <g
         transform="scale(0.5)"
         id="g33">
        <circle
           cx="4"
           cy="0"
           r="1"
           style="fill:context-stroke;stroke:context-stroke"
           id="circle31" />
        <circle
           cx="8"
           cy="0"
           r="1"
           style="fill:context-stroke;stroke:context-stroke"
           id="circle32" />
        <circle
           cx="12"
           cy="0"
           r="1"
           style="fill:context-stroke;stroke:context-stroke"
           id="circle33" />
      </g>
    </marker>
  </defs>
  <g
     inkscape:groupmode="layer"
     id="layer2"
     inkscape:label="script"
     style="display:inline">
    <g
       inkscape:label="ds"
       transform="translate(69.865857,35.632326)"
       id="g16"
       style="fill:#008000">
      <g
         fill="#000000"
         fill-opacity="1"
         id="g76"
         transform="matrix(0.352778,0,0,0.352778,-0.896011,-0.575292)"
         style="fill:#008000">
        <g
           id="g75"
           transform="translate(1.993,10.162)"
           style="fill:#008000">
          <path
             d="M 5.15625,-8.3125 C 5.0625,-8.484375 5.046875,-8.53125 4.875,-8.53125 c -0.171875,0 -0.203125,0.046875 -0.28125,0.21875 l -4,8.078125 C 0.578125,-0.203125 0.546875,-0.125 0.546875,-0.078125 0.546875,-0.015625 0.5625,0 0.796875,0 H 8.9375 c 0.25,0 0.25,-0.015625 0.25,-0.078125 0,-0.046875 -0.015625,-0.125 -0.046875,-0.15625 z M 4.5,-7.4375 7.765625,-0.828125 H 1.25 Z m 0,0"
             id="path13"
             style="fill:#008000" />
        </g>
      </g>
      <g
         fill="#000000"
         fill-opacity="1"
         id="g87"
         transform="matrix(0.352778,0,0,0.352778,-0.896011,-0.575292)"
         style="fill:#008000">
        <g
           id="g86"
           transform="translate(11.083,10.162)"
           style="fill:#008000">
          <path
             d="m 2.71875,-2.390625 c 0.203125,0.03125 0.53125,0.109375 0.609375,0.125 0.15625,0.046875 0.6875,0.234375 0.6875,0.8125 0,0.359375 -0.328125,1.328125 -1.71875,1.328125 -0.25,0 -1.15625,-0.03125 -1.390625,-0.6875 C 1.390625,-0.75 1.625,-1.125 1.625,-1.390625 c 0,-0.25 -0.171875,-0.375 -0.40625,-0.375 -0.265625,0 -0.609375,0.203125 -0.609375,0.734375 0,0.703125 0.71875,1.15625 1.671875,1.15625 1.8125,0 2.359375,-1.34375 2.359375,-1.96875 0,-0.171875 0,-0.515625 -0.390625,-0.890625 C 3.953125,-3.03125 3.671875,-3.078125 3.03125,-3.21875 2.703125,-3.28125 2.1875,-3.390625 2.1875,-3.9375 c 0,-0.234375 0.21875,-1.09375 1.34375,-1.09375 0.515625,0 1,0.1875 1.125,0.625 -0.53125,0 -0.5625,0.453125 -0.5625,0.46875 0,0.25 0.234375,0.3125 0.34375,0.3125 0.171875,0 0.5,-0.125 0.5,-0.625 0,-0.5 -0.453125,-1.015625 -1.390625,-1.015625 -1.5625,0 -1.984375,1.21875 -1.984375,1.71875 0,0.90625 0.890625,1.09375 1.15625,1.15625 z m 0,0"
             id="path15"
             style="fill:#008000" />
        </g>
      </g>
      <g
         fill="#000000"
         fill-opacity="1"
         id="g6"
         transform="matrix(0.352778,0,0,0.352778,-0.896011,-0.575292)"
         style="fill:#008000">
        <g
           id="g88"
           transform="translate(16.597,11.955)"
           style="fill:#008000">
          <path
             d="m 3.46875,-5.234375 c 0,-0.125 0,-0.296875 -0.171875,-0.296875 -0.1875,0 -0.1875,0.171875 -0.1875,0.3125 v 4.859375 H 0.78125 c -0.140625,0 -0.3125,0 -0.3125,0.171875 C 0.46875,0 0.640625,0 0.78125,0 H 5.8125 c 0.125,0 0.296875,0 0.296875,-0.1875 0,-0.171875 -0.171875,-0.171875 -0.296875,-0.171875 H 3.46875 Z m 0,0"
             id="path16"
             style="fill:#008000" />
        </g>
      </g>
    </g>
    <g
       inkscape:label="aL"
       transform="translate(50.462681,35.835603)"
       id="g21">
      <g
         fill="#000000"
         fill-opacity="1"
         id="g89"
         transform="matrix(0.352778,0,0,0.352778,-0.873963,-0.661238)">
        <g
           id="g77"
           transform="translate(1.993,7.1399999)">
          <path
             d="M 3.59375,-1.421875 C 3.53125,-1.21875 3.53125,-1.1875 3.375,-0.96875 3.109375,-0.640625 2.578125,-0.125 2.015625,-0.125 1.53125,-0.125 1.25,-0.5625 1.25,-1.265625 c 0,-0.65625 0.375,-2 0.609375,-2.5 0.40625,-0.84375 0.96875,-1.265625 1.421875,-1.265625 0.796875,0 0.953125,0.984375 0.953125,1.078125 0,0.015625 -0.03125,0.15625 -0.046875,0.1875 z m 0.765625,-3.0625 c -0.125,-0.3125 -0.453125,-0.78125 -1.078125,-0.78125 -1.34375,0 -2.796875,1.734375 -2.796875,3.515625 0,1.171875 0.6875,1.875 1.5,1.875 0.65625,0 1.21875,-0.515625 1.546875,-0.90625 0.125,0.703125 0.6875,0.90625 1.046875,0.90625 0.359375,0 0.640625,-0.21875 0.859375,-0.65625 0.1875,-0.40625 0.359375,-1.125 0.359375,-1.171875 0,-0.0625 -0.046875,-0.109375 -0.125,-0.109375 C 5.5625,-1.8125 5.5625,-1.75 5.515625,-1.578125 5.328125,-0.875 5.109375,-0.125 4.609375,-0.125 4.265625,-0.125 4.25,-0.4375 4.25,-0.671875 c 0,-0.265625 0.03125,-0.40625 0.140625,-0.875 C 4.46875,-1.84375 4.53125,-2.109375 4.625,-2.453125 5.0625,-4.25 5.171875,-4.671875 5.171875,-4.75 c 0,-0.15625 -0.125,-0.296875 -0.3125,-0.296875 -0.375,0 -0.46875,0.421875 -0.5,0.5625 z m 0,0"
             id="path18" />
        </g>
      </g>
      <g
         fill="#000000"
         fill-opacity="1"
         id="g20"
         transform="matrix(0.352778,0,0,0.352778,-0.873963,-0.661238)">
        <g
           id="g19"
           transform="translate(8.1370001,8.9329996)">
          <path
             d="m 4.9375,-2.078125 h -0.25 c -0.09375,0.828125 -0.21875,1.8125 -1.671875,1.8125 h -0.75 c -0.359375,0 -0.375,-0.046875 -0.375,-0.328125 v -4.203125 c 0,-0.265625 0,-0.375 0.75,-0.375 h 0.25 V -5.4375 c -0.359375,0.015625 -0.9375,0.015625 -1.3125,0.015625 -0.53125,0 -0.546875,0 -1.234375,-0.015625 v 0.265625 h 0.1875 c 0.609375,0 0.625,0.078125 0.625,0.375 v 4.15625 c 0,0.296875 -0.015625,0.375 -0.625,0.375 H 0.34375 V 0 h 4.359375 z m 0,0"
             id="path19" />
        </g>
      </g>
    </g>
    <g
       inkscape:label="aR"
       transform="translate(108.37445,35.269426)"
       id="g26">
      <g
         fill="#000000"
         fill-opacity="1"
         id="g23"
         transform="matrix(0.352778,0,0,0.352778,-0.873963,-0.661238)">
        <g
           id="g22"
           transform="translate(1.993,7.1399999)">
          <path
             d="M 3.59375,-1.421875 C 3.53125,-1.21875 3.53125,-1.1875 3.375,-0.96875 3.109375,-0.640625 2.578125,-0.125 2.015625,-0.125 1.53125,-0.125 1.25,-0.5625 1.25,-1.265625 c 0,-0.65625 0.375,-2 0.609375,-2.5 0.40625,-0.84375 0.96875,-1.265625 1.421875,-1.265625 0.796875,0 0.953125,0.984375 0.953125,1.078125 0,0.015625 -0.03125,0.15625 -0.046875,0.1875 z m 0.765625,-3.0625 c -0.125,-0.3125 -0.453125,-0.78125 -1.078125,-0.78125 -1.34375,0 -2.796875,1.734375 -2.796875,3.515625 0,1.171875 0.6875,1.875 1.5,1.875 0.65625,0 1.21875,-0.515625 1.546875,-0.90625 0.125,0.703125 0.6875,0.90625 1.046875,0.90625 0.359375,0 0.640625,-0.21875 0.859375,-0.65625 0.1875,-0.40625 0.359375,-1.125 0.359375,-1.171875 0,-0.0625 -0.046875,-0.109375 -0.125,-0.109375 C 5.5625,-1.8125 5.5625,-1.75 5.515625,-1.578125 5.328125,-0.875 5.109375,-0.125 4.609375,-0.125 4.265625,-0.125 4.25,-0.4375 4.25,-0.671875 c 0,-0.265625 0.03125,-0.40625 0.140625,-0.875 C 4.46875,-1.84375 4.53125,-2.109375 4.625,-2.453125 5.0625,-4.25 5.171875,-4.671875 5.171875,-4.75 c 0,-0.15625 -0.125,-0.296875 -0.3125,-0.296875 -0.375,0 -0.46875,0.421875 -0.5,0.5625 z m 0,0"
             id="path21" />
        </g>
      </g>
      <g
         fill="#000000"
         fill-opacity="1"
         id="g25"
         transform="matrix(0.352778,0,0,0.352778,-0.873963,-0.661238)">
        <g
           id="g24"
           transform="translate(8.1370001,8.9329996)">
          <path
             d="m 3.78125,-2.703125 c 0.625,-0.171875 1.375,-0.625 1.375,-1.3125 0,-0.78125 -1,-1.421875 -2.1875,-1.421875 H 0.359375 v 0.265625 h 0.1875 c 0.609375,0 0.625,0.078125 0.625,0.375 v 4.15625 c 0,0.296875 -0.015625,0.375 -0.625,0.375 h -0.1875 V 0 c 0.6875,-0.03125 0.703125,-0.03125 1.15625,-0.03125 0.46875,0 0.5,0 1.171875,0.03125 V -0.265625 H 2.515625 c -0.625,0 -0.640625,-0.078125 -0.640625,-0.375 v -1.96875 h 1.015625 c 0.578125,0 0.84375,0.296875 0.90625,0.359375 0.234375,0.25 0.234375,0.40625 0.234375,0.9375 0,0.5 0,0.84375 0.328125,1.140625 0.34375,0.296875 0.78125,0.34375 1.015625,0.34375 0.671875,0 0.828125,-0.65625 0.828125,-0.890625 0,-0.046875 0,-0.15625 -0.125,-0.15625 -0.125,0 -0.125,0.09375 -0.125,0.140625 -0.046875,0.5 -0.3125,0.671875 -0.546875,0.671875 -0.421875,0 -0.46875,-0.359375 -0.609375,-1.375 -0.0625,-0.453125 -0.140625,-1 -1.015625,-1.265625 z M 2.859375,-2.84375 H 1.875 v -2.015625 c 0,-0.203125 0.015625,-0.28125 0.203125,-0.3125 0.078125,0 0.328125,0 0.484375,0 0.71875,0 1.765625,0 1.765625,1.15625 0,0.890625 -0.625,1.171875 -1.46875,1.171875 z m 0,0"
             id="path23" />
        </g>
      </g>
    </g>
    <g
       inkscape:label="aGB"
       transform="translate(67.210644,78.253142)"
       id="g32">
      <g
         fill="#000000"
         fill-opacity="1"
         id="g28"
         transform="matrix(0.352778,0,0,0.352778,-0.873963,-0.661238)">
        <g
           id="g27"
           transform="translate(1.993,7.1399999)">
          <path
             d="M 3.59375,-1.421875 C 3.53125,-1.21875 3.53125,-1.1875 3.375,-0.96875 3.109375,-0.640625 2.578125,-0.125 2.015625,-0.125 1.53125,-0.125 1.25,-0.5625 1.25,-1.265625 c 0,-0.65625 0.375,-2 0.609375,-2.5 0.40625,-0.84375 0.96875,-1.265625 1.421875,-1.265625 0.796875,0 0.953125,0.984375 0.953125,1.078125 0,0.015625 -0.03125,0.15625 -0.046875,0.1875 z m 0.765625,-3.0625 c -0.125,-0.3125 -0.453125,-0.78125 -1.078125,-0.78125 -1.34375,0 -2.796875,1.734375 -2.796875,3.515625 0,1.171875 0.6875,1.875 1.5,1.875 0.65625,0 1.21875,-0.515625 1.546875,-0.90625 0.125,0.703125 0.6875,0.90625 1.046875,0.90625 0.359375,0 0.640625,-0.21875 0.859375,-0.65625 0.1875,-0.40625 0.359375,-1.125 0.359375,-1.171875 0,-0.0625 -0.046875,-0.109375 -0.125,-0.109375 C 5.5625,-1.8125 5.5625,-1.75 5.515625,-1.578125 5.328125,-0.875 5.109375,-0.125 4.609375,-0.125 4.265625,-0.125 4.25,-0.4375 4.25,-0.671875 c 0,-0.265625 0.03125,-0.40625 0.140625,-0.875 C 4.46875,-1.84375 4.53125,-2.109375 4.625,-2.453125 5.0625,-4.25 5.171875,-4.671875 5.171875,-4.75 c 0,-0.15625 -0.125,-0.296875 -0.3125,-0.296875 -0.375,0 -0.46875,0.421875 -0.5,0.5625 z m 0,0"
             id="path26" />
        </g>
      </g>
      <g
         fill="#000000"
         fill-opacity="1"
         id="g31"
         transform="matrix(0.352778,0,0,0.352778,-0.873963,-0.661238)">
        <g
           id="g29"
           transform="translate(8.1370001,8.9329996)">
          <path
             d="m 5.640625,-1.578125 c 0,-0.3125 0.03125,-0.359375 0.59375,-0.359375 v -0.265625 c -0.40625,0.03125 -0.625,0.03125 -1.09375,0.03125 -0.328125,0 -0.984375,0 -1.296875,-0.03125 V -1.9375 H 4.125 c 0.765625,0 0.78125,0.09375 0.78125,0.390625 v 0.515625 c 0,0.15625 0,0.484375 -0.421875,0.71875 -0.390625,0.21875 -0.84375,0.21875 -0.9375,0.21875 -0.8125,0 -2.25,-0.5 -2.25,-2.625 0,-2.171875 1.453125,-2.625 2.1875,-2.625 0.796875,0 1.6875,0.578125 1.890625,1.890625 0.015625,0.078125 0.015625,0.125 0.125,0.125 0.140625,0 0.140625,-0.046875 0.140625,-0.203125 v -1.875 c 0,-0.125 0,-0.203125 -0.109375,-0.203125 -0.046875,0 -0.0625,0 -0.125,0.109375 L 5,-4.90625 c -0.34375,-0.375 -0.875,-0.703125 -1.59375,-0.703125 -1.59375,0 -2.9375,1.28125 -2.9375,2.890625 0,1.578125 1.3125,2.890625 2.96875,2.890625 0.609375,0 1.296875,-0.1875 1.609375,-0.65625 C 5.203125,-0.265625 5.46875,0 5.546875,0 c 0.09375,0 0.09375,-0.09375 0.09375,-0.203125 z m 0,0"
             id="path28" />
        </g>
        <g
           id="g30"
           transform="translate(14.780078,8.9329996)">
          <path
             d="m 0.375,-5.4375 v 0.265625 h 0.1875 c 0.609375,0 0.625,0.078125 0.625,0.375 v 4.15625 c 0,0.296875 -0.015625,0.375 -0.625,0.375 H 0.375 V 0 h 3.265625 c 1.09375,0 1.875,-0.703125 1.875,-1.453125 0,-0.65625 -0.609375,-1.28125 -1.609375,-1.390625 0.859375,-0.1875 1.375,-0.703125 1.375,-1.25 0,-0.71875 -0.796875,-1.34375 -1.875,-1.34375 z m 1.484375,2.5 v -1.921875 c 0,-0.265625 0.015625,-0.3125 0.390625,-0.3125 H 3.359375 C 4.140625,-5.171875 4.5,-4.5625 4.5,-4.09375 4.5,-3.546875 4.03125,-2.9375 3.109375,-2.9375 Z M 2.25,-0.265625 c -0.375,0 -0.390625,-0.046875 -0.390625,-0.328125 v -2.125 h 1.625 c 0.765625,0 1.21875,0.625 1.21875,1.25 0,0.640625 -0.53125,1.203125 -1.34375,1.203125 z m 0,0"
             id="path29" />
        </g>
      </g>
    </g>
    <g
       inkscape:label="a'GB"
       transform="translate(86.881868,57.994817)"
       id="g38"
       style="fill:#008000">
      <g
         fill="#000000"
         fill-opacity="1"
         id="g35"
         transform="matrix(0.352778,0,0,0.352778,-0.873963,-0.69387)"
         style="fill:#008000">
        <g
           id="g34"
           transform="translate(1.993,10.759)"
           style="fill:#008000">
          <path
             d="M 3.59375,-1.421875 C 3.53125,-1.21875 3.53125,-1.1875 3.375,-0.96875 3.109375,-0.640625 2.578125,-0.125 2.015625,-0.125 1.53125,-0.125 1.25,-0.5625 1.25,-1.265625 c 0,-0.65625 0.375,-2 0.609375,-2.5 0.40625,-0.84375 0.96875,-1.265625 1.421875,-1.265625 0.796875,0 0.953125,0.984375 0.953125,1.078125 0,0.015625 -0.03125,0.15625 -0.046875,0.1875 z m 0.765625,-3.0625 c -0.125,-0.3125 -0.453125,-0.78125 -1.078125,-0.78125 -1.34375,0 -2.796875,1.734375 -2.796875,3.515625 0,1.171875 0.6875,1.875 1.5,1.875 0.65625,0 1.21875,-0.515625 1.546875,-0.90625 0.125,0.703125 0.6875,0.90625 1.046875,0.90625 0.359375,0 0.640625,-0.21875 0.859375,-0.65625 0.1875,-0.40625 0.359375,-1.125 0.359375,-1.171875 0,-0.0625 -0.046875,-0.109375 -0.125,-0.109375 C 5.5625,-1.8125 5.5625,-1.75 5.515625,-1.578125 5.328125,-0.875 5.109375,-0.125 4.609375,-0.125 4.265625,-0.125 4.25,-0.4375 4.25,-0.671875 c 0,-0.265625 0.03125,-0.40625 0.140625,-0.875 C 4.46875,-1.84375 4.53125,-2.109375 4.625,-2.453125 5.0625,-4.25 5.171875,-4.671875 5.171875,-4.75 c 0,-0.15625 -0.125,-0.296875 -0.3125,-0.296875 -0.375,0 -0.46875,0.421875 -0.5,0.5625 z m 0,0"
             id="path32"
             style="fill:#008000" />
        </g>
      </g>
      <g
         fill="#000000"
         fill-opacity="1"
         id="g37"
         transform="matrix(0.352778,0,0,0.352778,-0.873963,-0.69387)"
         style="fill:#008000">
        <g
           id="g36"
           transform="translate(8.1370001,6.4200001)"
           style="fill:#008000">
          <path
             d="M 2.109375,-3.78125 C 2.15625,-3.875 2.1875,-3.9375 2.1875,-4.015625 c 0,-0.265625 -0.25,-0.4375 -0.46875,-0.4375 -0.3125,0 -0.40625,0.28125 -0.4375,0.390625 L 0.265625,-0.625 c -0.03125,0.09375 -0.03125,0.109375 -0.03125,0.125 0,0.0625 0.046875,0.078125 0.125,0.109375 0.15625,0.0625 0.171875,0.0625 0.1875,0.0625 0.015625,0 0.0625,0 0.125,-0.140625 z m 0,0"
             id="path35"
             style="fill:#008000" />
        </g>
      </g>
      <g
         fill="#000000"
         fill-opacity="1"
         id="g7"
         transform="matrix(0.352778,0,0,0.352778,-0.873963,-0.69387)"
         style="fill:#008000">
        <g
           id="use6"
           transform="translate(8.1370001,13.779)"
           style="fill:#008000">
          <path
             d="m 5.640625,-1.578125 c 0,-0.3125 0.03125,-0.359375 0.59375,-0.359375 v -0.265625 c -0.40625,0.03125 -0.625,0.03125 -1.09375,0.03125 -0.328125,0 -0.984375,0 -1.296875,-0.03125 V -1.9375 H 4.125 c 0.765625,0 0.78125,0.09375 0.78125,0.390625 v 0.515625 c 0,0.15625 0,0.484375 -0.421875,0.71875 -0.390625,0.21875 -0.84375,0.21875 -0.9375,0.21875 -0.8125,0 -2.25,-0.5 -2.25,-2.625 0,-2.171875 1.453125,-2.625 2.1875,-2.625 0.796875,0 1.6875,0.578125 1.890625,1.890625 0.015625,0.078125 0.015625,0.125 0.125,0.125 0.140625,0 0.140625,-0.046875 0.140625,-0.203125 v -1.875 c 0,-0.125 0,-0.203125 -0.109375,-0.203125 -0.046875,0 -0.0625,0 -0.125,0.109375 L 5,-4.90625 c -0.34375,-0.375 -0.875,-0.703125 -1.59375,-0.703125 -1.59375,0 -2.9375,1.28125 -2.9375,2.890625 0,1.578125 1.3125,2.890625 2.96875,2.890625 0.609375,0 1.296875,-0.1875 1.609375,-0.65625 C 5.203125,-0.265625 5.46875,0 5.546875,0 c 0.09375,0 0.09375,-0.09375 0.09375,-0.203125 z m 0,0"
             id="path37"
             style="fill:#008000" />
        </g>
        <g
           id="use7"
           transform="translate(14.780078,13.779)"
           style="fill:#008000">
          <path
             d="m 0.375,-5.4375 v 0.265625 h 0.1875 c 0.609375,0 0.625,0.078125 0.625,0.375 v 4.15625 c 0,0.296875 -0.015625,0.375 -0.625,0.375 H 0.375 V 0 h 3.265625 c 1.09375,0 1.875,-0.703125 1.875,-1.453125 0,-0.65625 -0.609375,-1.28125 -1.609375,-1.390625 0.859375,-0.1875 1.375,-0.703125 1.375,-1.25 0,-0.71875 -0.796875,-1.34375 -1.875,-1.34375 z m 1.484375,2.5 v -1.921875 c 0,-0.265625 0.015625,-0.3125 0.390625,-0.3125 H 3.359375 C 4.140625,-5.171875 4.5,-4.5625 4.5,-4.09375 4.5,-3.546875 4.03125,-2.9375 3.109375,-2.9375 Z M 2.25,-0.265625 c -0.375,0 -0.390625,-0.046875 -0.390625,-0.328125 v -2.125 h 1.625 c 0.765625,0 1.21875,0.625 1.21875,1.25 0,0.640625 -0.53125,1.203125 -1.34375,1.203125 z m 0,0"
             id="path38"
             style="fill:#008000" />
        </g>
      </g>
    </g>
    <g
       inkscape:label="a'R"
       transform="translate(103.16114,11.437397)"
       id="g45"
       style="fill:#008000">
      <g
         fill="#000000"
         fill-opacity="1"
         id="g40"
         transform="matrix(0.352778,0,0,0.352778,-0.873963,-0.69387)"
         style="fill:#008000">
        <g
           id="g39"
           transform="translate(1.993,10.759)"
           style="fill:#008000">
          <path
             d="M 3.59375,-1.421875 C 3.53125,-1.21875 3.53125,-1.1875 3.375,-0.96875 3.109375,-0.640625 2.578125,-0.125 2.015625,-0.125 1.53125,-0.125 1.25,-0.5625 1.25,-1.265625 c 0,-0.65625 0.375,-2 0.609375,-2.5 0.40625,-0.84375 0.96875,-1.265625 1.421875,-1.265625 0.796875,0 0.953125,0.984375 0.953125,1.078125 0,0.015625 -0.03125,0.15625 -0.046875,0.1875 z m 0.765625,-3.0625 c -0.125,-0.3125 -0.453125,-0.78125 -1.078125,-0.78125 -1.34375,0 -2.796875,1.734375 -2.796875,3.515625 0,1.171875 0.6875,1.875 1.5,1.875 0.65625,0 1.21875,-0.515625 1.546875,-0.90625 0.125,0.703125 0.6875,0.90625 1.046875,0.90625 0.359375,0 0.640625,-0.21875 0.859375,-0.65625 0.1875,-0.40625 0.359375,-1.125 0.359375,-1.171875 0,-0.0625 -0.046875,-0.109375 -0.125,-0.109375 C 5.5625,-1.8125 5.5625,-1.75 5.515625,-1.578125 5.328125,-0.875 5.109375,-0.125 4.609375,-0.125 4.265625,-0.125 4.25,-0.4375 4.25,-0.671875 c 0,-0.265625 0.03125,-0.40625 0.140625,-0.875 C 4.46875,-1.84375 4.53125,-2.109375 4.625,-2.453125 5.0625,-4.25 5.171875,-4.671875 5.171875,-4.75 c 0,-0.15625 -0.125,-0.296875 -0.3125,-0.296875 -0.375,0 -0.46875,0.421875 -0.5,0.5625 z m 0,0"
             id="path39"
             style="fill:#008000" />
        </g>
      </g>
      <g
         fill="#000000"
         fill-opacity="1"
         id="g42"
         transform="matrix(0.352778,0,0,0.352778,-0.873963,-0.69387)"
         style="fill:#008000">
        <g
           id="g41"
           transform="translate(8.1370001,6.4200001)"
           style="fill:#008000">
          <path
             d="M 2.109375,-3.78125 C 2.15625,-3.875 2.1875,-3.9375 2.1875,-4.015625 c 0,-0.265625 -0.25,-0.4375 -0.46875,-0.4375 -0.3125,0 -0.40625,0.28125 -0.4375,0.390625 L 0.265625,-0.625 c -0.03125,0.09375 -0.03125,0.109375 -0.03125,0.125 0,0.0625 0.046875,0.078125 0.125,0.109375 0.15625,0.0625 0.171875,0.0625 0.1875,0.0625 0.015625,0 0.0625,0 0.125,-0.140625 z m 0,0"
             id="path40"
             style="fill:#008000" />
        </g>
      </g>
      <g
         fill="#000000"
         fill-opacity="1"
         id="g44"
         transform="matrix(0.352778,0,0,0.352778,-0.873963,-0.69387)"
         style="fill:#008000">
        <g
           id="g43"
           transform="translate(8.1370001,13.779)"
           style="fill:#008000">
          <path
             d="m 3.78125,-2.703125 c 0.625,-0.171875 1.375,-0.625 1.375,-1.3125 0,-0.78125 -1,-1.421875 -2.1875,-1.421875 H 0.359375 v 0.265625 h 0.1875 c 0.609375,0 0.625,0.078125 0.625,0.375 v 4.15625 c 0,0.296875 -0.015625,0.375 -0.625,0.375 h -0.1875 V 0 c 0.6875,-0.03125 0.703125,-0.03125 1.15625,-0.03125 0.46875,0 0.5,0 1.171875,0.03125 V -0.265625 H 2.515625 c -0.625,0 -0.640625,-0.078125 -0.640625,-0.375 v -1.96875 h 1.015625 c 0.578125,0 0.84375,0.296875 0.90625,0.359375 0.234375,0.25 0.234375,0.40625 0.234375,0.9375 0,0.5 0,0.84375 0.328125,1.140625 0.34375,0.296875 0.78125,0.34375 1.015625,0.34375 0.671875,0 0.828125,-0.65625 0.828125,-0.890625 0,-0.046875 0,-0.15625 -0.125,-0.15625 -0.125,0 -0.125,0.09375 -0.125,0.140625 -0.046875,0.5 -0.3125,0.671875 -0.546875,0.671875 -0.421875,0 -0.46875,-0.359375 -0.609375,-1.375 -0.0625,-0.453125 -0.140625,-1 -1.015625,-1.265625 z M 2.859375,-2.84375 H 1.875 v -2.015625 c 0,-0.203125 0.015625,-0.28125 0.203125,-0.3125 0.078125,0 0.328125,0 0.484375,0 0.71875,0 1.765625,0 1.765625,1.15625 0,0.890625 -0.625,1.171875 -1.46875,1.171875 z m 0,0"
             id="path42"
             style="fill:#008000" />
        </g>
      </g>
    </g>
    <g
       inkscape:label="a'L"
       transform="translate(50.479754,9.8358566)"
       id="g52"
       style="fill:#008000">
      <g
         fill="#000000"
         fill-opacity="1"
         id="g47"
         transform="matrix(0.352778,0,0,0.352778,-0.873963,-0.69387)"
         style="fill:#008000">
        <g
           id="g46"
           transform="translate(1.993,10.759)"
           style="fill:#008000">
          <path
             d="M 3.59375,-1.421875 C 3.53125,-1.21875 3.53125,-1.1875 3.375,-0.96875 3.109375,-0.640625 2.578125,-0.125 2.015625,-0.125 1.53125,-0.125 1.25,-0.5625 1.25,-1.265625 c 0,-0.65625 0.375,-2 0.609375,-2.5 0.40625,-0.84375 0.96875,-1.265625 1.421875,-1.265625 0.796875,0 0.953125,0.984375 0.953125,1.078125 0,0.015625 -0.03125,0.15625 -0.046875,0.1875 z m 0.765625,-3.0625 c -0.125,-0.3125 -0.453125,-0.78125 -1.078125,-0.78125 -1.34375,0 -2.796875,1.734375 -2.796875,3.515625 0,1.171875 0.6875,1.875 1.5,1.875 0.65625,0 1.21875,-0.515625 1.546875,-0.90625 0.125,0.703125 0.6875,0.90625 1.046875,0.90625 0.359375,0 0.640625,-0.21875 0.859375,-0.65625 0.1875,-0.40625 0.359375,-1.125 0.359375,-1.171875 0,-0.0625 -0.046875,-0.109375 -0.125,-0.109375 C 5.5625,-1.8125 5.5625,-1.75 5.515625,-1.578125 5.328125,-0.875 5.109375,-0.125 4.609375,-0.125 4.265625,-0.125 4.25,-0.4375 4.25,-0.671875 c 0,-0.265625 0.03125,-0.40625 0.140625,-0.875 C 4.46875,-1.84375 4.53125,-2.109375 4.625,-2.453125 5.0625,-4.25 5.171875,-4.671875 5.171875,-4.75 c 0,-0.15625 -0.125,-0.296875 -0.3125,-0.296875 -0.375,0 -0.46875,0.421875 -0.5,0.5625 z m 0,0"
             id="path45"
             style="fill:#008000" />
        </g>
      </g>
      <g
         fill="#000000"
         fill-opacity="1"
         id="g49"
         transform="matrix(0.352778,0,0,0.352778,-0.873963,-0.69387)"
         style="fill:#008000">
        <g
           id="g48"
           transform="translate(8.1370001,6.4200001)"
           style="fill:#008000">
          <path
             d="M 2.109375,-3.78125 C 2.15625,-3.875 2.1875,-3.9375 2.1875,-4.015625 c 0,-0.265625 -0.25,-0.4375 -0.46875,-0.4375 -0.3125,0 -0.40625,0.28125 -0.4375,0.390625 L 0.265625,-0.625 c -0.03125,0.09375 -0.03125,0.109375 -0.03125,0.125 0,0.0625 0.046875,0.078125 0.125,0.109375 0.15625,0.0625 0.171875,0.0625 0.1875,0.0625 0.015625,0 0.0625,0 0.125,-0.140625 z m 0,0"
             id="path47"
             style="fill:#008000" />
        </g>
      </g>
      <g
         fill="#000000"
         fill-opacity="1"
         id="g51"
         transform="matrix(0.352778,0,0,0.352778,-0.873963,-0.69387)"
         style="fill:#008000">
        <g
           id="g50"
           transform="translate(8.1370001,13.779)"
           style="fill:#008000">
          <path
             d="m 4.9375,-2.078125 h -0.25 c -0.09375,0.828125 -0.21875,1.8125 -1.671875,1.8125 h -0.75 c -0.359375,0 -0.375,-0.046875 -0.375,-0.328125 v -4.203125 c 0,-0.265625 0,-0.375 0.75,-0.375 h 0.25 V -5.4375 c -0.359375,0.015625 -0.9375,0.015625 -1.3125,0.015625 -0.53125,0 -0.546875,0 -1.234375,-0.015625 v 0.265625 h 0.1875 c 0.609375,0 0.625,0.078125 0.625,0.375 v 4.15625 c 0,0.296875 -0.015625,0.375 -0.625,0.375 H 0.34375 V 0 h 4.359375 z m 0,0"
             id="path49"
             style="fill:#008000" />
        </g>
      </g>
    </g>
    <g
       inkscape:label="gammaL"
       transform="translate(45.690698,32.438538)"
       id="g74">
      <g
         fill="#000000"
         fill-opacity="1"
         id="g3"
         transform="matrix(0.352778,0,0,0.352778,-0.785768,-0.661238)">
        <g
           id="use2"
           transform="translate(1.993,7.1399999)">
          <path
             d="M 4.515625,-1.453125 C 4.5,-2.046875 4.46875,-2.96875 4.015625,-4.046875 3.78125,-4.640625 3.375,-5.265625 2.5,-5.265625 c -1.46875,0 -2.265625,1.875 -2.265625,2.1875 0,0.109375 0.078125,0.109375 0.109375,0.109375 0.109375,0 0.109375,-0.03125 0.171875,-0.1875 0.25,-0.734375 1.015625,-1.328125 1.84375,-1.328125 1.65625,0 1.890625,1.859375 1.890625,3.03125 0,0.765625 -0.078125,1.015625 -0.15625,1.25 -0.21875,0.734375 -0.609375,2.21875 -0.609375,2.5625 0,0.09375 0.03125,0.203125 0.125,0.203125 0.1875,0 0.28125,-0.40625 0.421875,-0.875 0.28125,-1.046875 0.359375,-1.578125 0.421875,-2.0625 0.03125,-0.28125 0.703125,-2.25 1.65625,-4.125 0.078125,-0.203125 0.25,-0.515625 0.25,-0.5625 0,0 -0.015625,-0.09375 -0.125,-0.09375 -0.015625,0 -0.078125,0 -0.109375,0.046875 -0.015625,0.03125 -0.4375,0.84375 -0.796875,1.65625 -0.171875,0.40625 -0.421875,0.9375 -0.8125,2 z m 0,0"
             id="path4" />
        </g>
      </g>
      <g
         fill="#000000"
         fill-opacity="1"
         id="g4"
         transform="matrix(0.352778,0,0,0.352778,-0.785768,-0.661238)">
        <g
           id="use3"
           transform="translate(8.0640001,8.9329996)">
          <path
             d="m 4.9375,-2.078125 h -0.25 c -0.09375,0.828125 -0.21875,1.8125 -1.671875,1.8125 h -0.75 c -0.359375,0 -0.375,-0.046875 -0.375,-0.328125 v -4.203125 c 0,-0.265625 0,-0.375 0.75,-0.375 h 0.25 V -5.4375 c -0.359375,0.015625 -0.9375,0.015625 -1.3125,0.015625 -0.53125,0 -0.546875,0 -1.234375,-0.015625 v 0.265625 h 0.1875 c 0.609375,0 0.625,0.078125 0.625,0.375 v 4.15625 c 0,0.296875 -0.015625,0.375 -0.625,0.375 H 0.34375 V 0 h 4.359375 z m 0,0"
             id="path74" />
        </g>
      </g>
    </g>
    <g
       inkscape:label="gammaR"
       transform="translate(113.30834,31.872361)"
       id="g82">
      <g
         fill="#000000"
         fill-opacity="1"
         id="g79"
         transform="matrix(0.352778,0,0,0.352778,-0.785768,-0.661238)">
        <g
           id="g78"
           transform="translate(1.993,7.1399999)">
          <path
             d="M 4.515625,-1.453125 C 4.5,-2.046875 4.46875,-2.96875 4.015625,-4.046875 3.78125,-4.640625 3.375,-5.265625 2.5,-5.265625 c -1.46875,0 -2.265625,1.875 -2.265625,2.1875 0,0.109375 0.078125,0.109375 0.109375,0.109375 0.109375,0 0.109375,-0.03125 0.171875,-0.1875 0.25,-0.734375 1.015625,-1.328125 1.84375,-1.328125 1.65625,0 1.890625,1.859375 1.890625,3.03125 0,0.765625 -0.078125,1.015625 -0.15625,1.25 -0.21875,0.734375 -0.609375,2.21875 -0.609375,2.5625 0,0.09375 0.03125,0.203125 0.125,0.203125 0.1875,0 0.28125,-0.40625 0.421875,-0.875 0.28125,-1.046875 0.359375,-1.578125 0.421875,-2.0625 0.03125,-0.28125 0.703125,-2.25 1.65625,-4.125 0.078125,-0.203125 0.25,-0.515625 0.25,-0.5625 0,0 -0.015625,-0.09375 -0.125,-0.09375 -0.015625,0 -0.078125,0 -0.109375,0.046875 -0.015625,0.03125 -0.4375,0.84375 -0.796875,1.65625 -0.171875,0.40625 -0.421875,0.9375 -0.8125,2 z m 0,0"
             id="path78" />
        </g>
      </g>
      <g
         fill="#000000"
         fill-opacity="1"
         id="g81"
         transform="matrix(0.352778,0,0,0.352778,-0.785768,-0.661238)">
        <g
           id="g80"
           transform="translate(8.0640001,8.9329996)">
          <path
             d="m 3.78125,-2.703125 c 0.625,-0.171875 1.375,-0.625 1.375,-1.3125 0,-0.78125 -1,-1.421875 -2.1875,-1.421875 H 0.359375 v 0.265625 h 0.1875 c 0.609375,0 0.625,0.078125 0.625,0.375 v 4.15625 c 0,0.296875 -0.015625,0.375 -0.625,0.375 h -0.1875 V 0 c 0.6875,-0.03125 0.703125,-0.03125 1.15625,-0.03125 0.46875,0 0.5,0 1.171875,0.03125 V -0.265625 H 2.515625 c -0.625,0 -0.640625,-0.078125 -0.640625,-0.375 v -1.96875 h 1.015625 c 0.578125,0 0.84375,0.296875 0.90625,0.359375 0.234375,0.25 0.234375,0.40625 0.234375,0.9375 0,0.5 0,0.84375 0.328125,1.140625 0.34375,0.296875 0.78125,0.34375 1.015625,0.34375 0.671875,0 0.828125,-0.65625 0.828125,-0.890625 0,-0.046875 0,-0.15625 -0.125,-0.15625 -0.125,0 -0.125,0.09375 -0.125,0.140625 -0.046875,0.5 -0.3125,0.671875 -0.546875,0.671875 -0.421875,0 -0.46875,-0.359375 -0.609375,-1.375 -0.0625,-0.453125 -0.140625,-1 -1.015625,-1.265625 z M 2.859375,-2.84375 H 1.875 v -2.015625 c 0,-0.203125 0.015625,-0.28125 0.203125,-0.3125 0.078125,0 0.328125,0 0.484375,0 0.71875,0 1.765625,0 1.765625,1.15625 0,0.890625 -0.625,1.171875 -1.46875,1.171875 z m 0,0"
             id="path79" />
        </g>
      </g>
    </g>
    <g
       inkscape:label="gammaGB"
       transform="translate(75.443152,78.862377)"
       id="g85">
      <g
         fill="#000000"
         fill-opacity="1"
         id="g84"
         transform="matrix(0.352778,0,0,0.352778,-0.785768,-0.661238)">
        <g
           id="g83"
           transform="translate(1.993,7.1399999)">
          <path
             d="M 4.515625,-1.453125 C 4.5,-2.046875 4.46875,-2.96875 4.015625,-4.046875 3.78125,-4.640625 3.375,-5.265625 2.5,-5.265625 c -1.46875,0 -2.265625,1.875 -2.265625,2.1875 0,0.109375 0.078125,0.109375 0.109375,0.109375 0.109375,0 0.109375,-0.03125 0.171875,-0.1875 0.25,-0.734375 1.015625,-1.328125 1.84375,-1.328125 1.65625,0 1.890625,1.859375 1.890625,3.03125 0,0.765625 -0.078125,1.015625 -0.15625,1.25 -0.21875,0.734375 -0.609375,2.21875 -0.609375,2.5625 0,0.09375 0.03125,0.203125 0.125,0.203125 0.1875,0 0.28125,-0.40625 0.421875,-0.875 0.28125,-1.046875 0.359375,-1.578125 0.421875,-2.0625 0.03125,-0.28125 0.703125,-2.25 1.65625,-4.125 0.078125,-0.203125 0.25,-0.515625 0.25,-0.5625 0,0 -0.015625,-0.09375 -0.125,-0.09375 -0.015625,0 -0.078125,0 -0.109375,0.046875 -0.015625,0.03125 -0.4375,0.84375 -0.796875,1.65625 -0.171875,0.40625 -0.421875,0.9375 -0.8125,2 z m 0,0"
             id="path83" />
        </g>
      </g>
      <g
         fill="#000000"
         fill-opacity="1"
         id="g5"
         transform="matrix(0.352778,0,0,0.352778,-0.785768,-0.661238)">
        <g
           id="use4"
           transform="translate(8.0640001,8.9329996)">
          <path
             d="m 5.640625,-1.578125 c 0,-0.3125 0.03125,-0.359375 0.59375,-0.359375 v -0.265625 c -0.40625,0.03125 -0.625,0.03125 -1.09375,0.03125 -0.328125,0 -0.984375,0 -1.296875,-0.03125 V -1.9375 H 4.125 c 0.765625,0 0.78125,0.09375 0.78125,0.390625 v 0.515625 c 0,0.15625 0,0.484375 -0.421875,0.71875 -0.390625,0.21875 -0.84375,0.21875 -0.9375,0.21875 -0.8125,0 -2.25,-0.5 -2.25,-2.625 0,-2.171875 1.453125,-2.625 2.1875,-2.625 0.796875,0 1.6875,0.578125 1.890625,1.890625 0.015625,0.078125 0.015625,0.125 0.125,0.125 0.140625,0 0.140625,-0.046875 0.140625,-0.203125 v -1.875 c 0,-0.125 0,-0.203125 -0.109375,-0.203125 -0.046875,0 -0.0625,0 -0.125,0.109375 L 5,-4.90625 c -0.34375,-0.375 -0.875,-0.703125 -1.59375,-0.703125 -1.59375,0 -2.9375,1.28125 -2.9375,2.890625 0,1.578125 1.3125,2.890625 2.96875,2.890625 0.609375,0 1.296875,-0.1875 1.609375,-0.65625 C 5.203125,-0.265625 5.46875,0 5.546875,0 c 0.09375,0 0.09375,-0.09375 0.09375,-0.203125 z m 0,0"
             id="path84" />
        </g>
        <g
           id="use5"
           transform="translate(14.707078,8.9329996)">
          <path
             d="m 0.375,-5.4375 v 0.265625 h 0.1875 c 0.609375,0 0.625,0.078125 0.625,0.375 v 4.15625 c 0,0.296875 -0.015625,0.375 -0.625,0.375 H 0.375 V 0 h 3.265625 c 1.09375,0 1.875,-0.703125 1.875,-1.453125 0,-0.65625 -0.609375,-1.28125 -1.609375,-1.390625 0.859375,-0.1875 1.375,-0.703125 1.375,-1.25 0,-0.71875 -0.796875,-1.34375 -1.875,-1.34375 z m 1.484375,2.5 v -1.921875 c 0,-0.265625 0.015625,-0.3125 0.390625,-0.3125 H 3.359375 C 4.140625,-5.171875 4.5,-4.5625 4.5,-4.09375 4.5,-3.546875 4.03125,-2.9375 3.109375,-2.9375 Z M 2.25,-0.265625 c -0.375,0 -0.390625,-0.046875 -0.390625,-0.328125 v -2.125 h 1.625 c 0.765625,0 1.21875,0.625 1.21875,1.25 0,0.640625 -0.53125,1.203125 -1.34375,1.203125 z m 0,0"
             id="path85" />
        </g>
      </g>
    </g>
    <path
       style="fill:#000000;stroke:#008000;stroke-width:0.3;stroke-dasharray:none"
       d="m 84.840154,99.268289 6.62261,-0.7324"
       id="path54" />
    <path
       style="display:inline;fill:#000000;stroke:#008000;stroke-width:0.3;stroke-dasharray:none"
       d="m 76.062768,19.899779 6.62261,-0.7324"
       id="path54-5" />
    <path
       style="fill:#000000;stroke:#000000;stroke-width:0.3;stroke-dasharray:none"
       d="m 75.143992,100.34059 9.696165,-1.072301"
       id="path54-4" />
    <path
       style="fill:#000000;stroke:#000000;stroke-width:0.3;stroke-linecap:butt;stroke-dasharray:none"
       d="m 70.281846,56.375217 9.696165,-1.072306"
       id="path54-4-3" />
    <path
       style="fill:#000000;stroke:#008000;stroke-width:0.3;stroke-dasharray:none;marker-start:url(#marker60);marker-end:url(#marker57)"
       d="m 81.174182,19.328191 8.778076,79.374748"
       id="path55" />
    <path
       style="fill:#000000;stroke:#000000;stroke-width:0.3;stroke-dasharray:none;marker-start:url(#Triangle);marker-end:url(#marker57)"
       d="M 76.826795,100.15449 71.96463,56.189113"
       id="path56" />
    <path
       style="fill:#000000;stroke:#008000;stroke-width:0.3;stroke-dasharray:none;marker-end:url(#DartArrow)"
       d="M 79.978009,55.302911 76.062768,19.899779"
       id="path52"
       inkscape:label="path52" />
  </g>
  <g
     inkscape:label="Ebene 1"
     inkscape:groupmode="layer"
     id="layer1">
    <g
       id="g1"
       inkscape:label="radii"
       sodipodi:insensitive="true"
       transform="translate(-1.3019904,-5.6570914)">
      <path
         style="display:inline;fill:#000000;stroke:#000000;stroke-width:0.3;stroke-dasharray:none;marker-end:url(#ThreeDots)"
         d="M 21.481206,13.060387 4.6658662,24.474397"
         id="path68" />
      <path
         style="display:inline;fill:#000000;stroke:#000000;stroke-width:0.3;stroke-dasharray:none;marker-end:url(#ThreeDots)"
         d="M 81.279999,60.960002 23.517807,77.923447"
         id="path69" />
      <path
         style="display:inline;fill:#000000;stroke:#000000;stroke-width:0.3;stroke-dasharray:none;marker-end:url(#ThreeDots)"
         d="m 86.142144,104.92538 -59.828069,5.99596"
         id="path70" />
      <path
         style="display:inline;fill:#000000;stroke:#000000;stroke-width:0.3;stroke-dasharray:none;marker-end:url(#ThreeDots)"
         d="m 138.50802,18.719483 16.37991,5.97544"
         id="path71" />
      <path
         style="display:inline;fill:#000000;stroke:#000000;stroke-width:0.3;stroke-dasharray:none;marker-end:url(#ThreeDots)"
         d="M 81.279999,60.960002 144.30674,69.30164"
         id="path72" />
      <path
         style="display:inline;fill:#000000;stroke:#000000;stroke-width:0.3;stroke-dasharray:none;marker-end:url(#ThreeDots)"
         d="m 86.142144,104.92538 64.126036,-1.93059"
         id="path73" />
    </g>
    <path
       style="fill:none;stroke:#008000;stroke-width:0.499999"
       d="M 76.062768,19.899779 137.20603,13.062392"
       id="path5"
       sodipodi:nodetypes="cc"
       inkscape:label="surface_R'" />
    <path
       style="fill:none;stroke:#008000;stroke-width:0.499999"
       d="M 76.062768,19.899779 20.179221,7.4032966"
       id="path9"
       sodipodi:nodetypes="cc"
       inkscape:label="surface_L'" />
    <path
       style="fill:none;stroke:#008000;stroke-width:0.499999;marker-start:url(#Dot)"
       d="m 76.062768,19.899779 8.777386,79.36851"
       id="path10"
       sodipodi:nodetypes="cc"
       inkscape:label="grain_boundary'" />
    <path
       style="fill:none;stroke:#000000;stroke-width:0.5;stroke-dasharray:none;marker-mid:url(#Dot);marker-end:url(#marker9)"
       d="M 79.978011,55.302911 20.179221,7.4032966 5.737333,6.0451336"
       id="path6"
       inkscape:label="surface_L"
       sodipodi:nodetypes="ccc" />
    <path
       style="fill:none;stroke:#000000;stroke-width:0.5;stroke-dasharray:none;marker-mid:url(#Dot);marker-end:url(#marker9)"
       d="M 79.978011,55.302911 137.20603,13.062392 155.03743,9.3701356"
       id="path8"
       inkscape:label="surface_R"
       sodipodi:nodetypes="ccc" />
    <path
       style="fill:none;stroke:#000000;stroke-width:0.5;stroke-dasharray:none;marker-mid:url(#Dot);marker-end:url(#ThreeDots)"
       d="m 79.978011,55.302911 4.862145,43.965378 -2.911768,12.051471"
       id="path7"
       inkscape:label="grain_boundary"
       sodipodi:nodetypes="ccc" />
    <path
       style="fill:none;stroke:#800000;stroke-width:0.5;stroke-dasharray:none;marker-start:url(#Dot)"
       d="M 79.978011,55.302911"
       id="path14"
       inkscape:label="neck_node" />
  </g>
  <metadata
     id="metadata1">
    <rdf:RDF>
      <cc:Work
         rdf:about="">
        <cc:license
           rdf:resource="http://creativecommons.org/publicdomain/zero/1.0/" />
      </cc:Work>
      <cc:License
         rdf:about="http://creativecommons.org/publicdomain/zero/1.0/">
        <cc:permits
           rdf:resource="http://creativecommons.org/ns#Reproduction" />
        <cc:permits
           rdf:resource="http://creativecommons.org/ns#Distribution" />
        <cc:permits
           rdf:resource="http://creativecommons.org/ns#DerivativeWorks" />
      </cc:License>
    </rdf:RDF>
  </metadata>
</svg>
