<?xml version="1.0" encoding="UTF-8" standalone="no"?>
<!-- Created with Inkscape (http://www.inkscape.org/) -->

<svg
   xml:space="preserve"
   sodipodi:docname="node-distance-overview.svg"
   inkscape:version="1.3-dev (e874e6c23a, 2022-08-17, custom)"
   id="svg1"
   version="1.1"
   viewBox="0 0 85 35"
   height="35mm"
   width="85mm"
   xmlns:inkscape="http://www.inkscape.org/namespaces/inkscape"
   xmlns:sodipodi="http://sodipodi.sourceforge.net/DTD/sodipodi-0.dtd"
   xmlns="http://www.w3.org/2000/svg"
   xmlns:svg="http://www.w3.org/2000/svg"><style
     id="style16">
.measure-arrow
{
}
.measure-label
{

}
.measure-line
{
}</style><sodipodi:namedview
     id="namedview1"
     pagecolor="#ffffff"
     bordercolor="#666666"
     borderopacity="1.0"
     inkscape:showpageshadow="2"
     inkscape:pageopacity="0.0"
     inkscape:pagecheckerboard="0"
     inkscape:deskcolor="#d1d1d1"
     inkscape:document-units="mm"
     showgrid="false"
     inkscape:zoom="6.3849521"
     inkscape:cx="271.88928"
     inkscape:cy="128.19203"
     inkscape:window-width="3840"
     inkscape:window-height="2091"
     inkscape:window-x="0"
     inkscape:window-y="0"
     inkscape:window-maximized="1"
     inkscape:current-layer="layer4" /><defs
     id="defs1"><inkscape:path-effect
   effect="angle_bisector"
   id="path-effect1"
   is_visible="true"
   lpeversion="1"
   length-left="7"
   length-right="0" /><inkscape:path-effect
   effect="angle_bisector"
   id="path-effect5"
   is_visible="true"
   lpeversion="1"
   length-left="7"
   length-right="0" /><marker
   style="overflow:visible"
   id="Dot"
   refX="0"
   refY="0"
   orient="auto"
   inkscape:stockid="Dot"
   markerWidth="5"
   markerHeight="5"
   viewBox="0 0 5 5"
   inkscape:isstock="true"
   inkscape:collect="always"
   preserveAspectRatio="xMidYMid"><path
     transform="scale(0.5)"
     style="fill:context-stroke;fill-rule:evenodd;stroke:none"
     d="M 5,0 C 5,2.76 2.76,5 0,5 -2.76,5 -5,2.76 -5,0 c 0,-2.76 2.3,-5 5,-5 2.76,0 5,2.24 5,5 z"
     sodipodi:nodetypes="sssss"
     id="path17" /></marker><marker
   orient="auto-start-reverse"
   refY="0"
   refX="0"
   id="marker3"
   inkscape:stockid="Ellipsis"
   style="overflow:visible"
   markerWidth="5.5"
   markerHeight="1.5"
   viewBox="0 0 5.5 1.5"
   inkscape:isstock="true"
   inkscape:collect="always"
   preserveAspectRatio="xMidYMid"><g
     transform="scale(0.5)"
     id="g3"><circle
       cx="4"
       cy="0"
       r="1"
       style="fill:context-stroke;stroke:context-stroke"
       id="circle1" /><circle
       cx="8"
       cy="0"
       r="1"
       style="fill:context-stroke;stroke:context-stroke"
       id="circle2" /><circle
       cx="12"
       cy="0"
       r="1"
       style="fill:context-stroke;stroke:context-stroke"
       id="circle3" /></g></marker><marker
   orient="auto-start-reverse"
   refY="0"
   refX="0"
   id="ThreeDots"
   inkscape:stockid="Ellipsis"
   style="overflow:visible"
   markerWidth="5.5"
   markerHeight="1.5"
   viewBox="0 0 5.5 1.5"
   inkscape:isstock="true"
   inkscape:collect="always"
   preserveAspectRatio="xMidYMid"><g
     transform="scale(0.5)"
     id="g33"><circle
       cx="4"
       cy="0"
       r="1"
       style="fill:context-stroke;stroke:context-stroke"
       id="circle31" /><circle
       cx="8"
       cy="0"
       r="1"
       style="fill:context-stroke;stroke:context-stroke"
       id="circle32" /><circle
       cx="12"
       cy="0"
       r="1"
       style="fill:context-stroke;stroke:context-stroke"
       id="circle33" /></g></marker><marker
   style="overflow:visible"
   id="marker32"
   refX="2.5"
   refY="0"
   orient="auto-start-reverse"
   inkscape:stockid="Triangle arrow"
   markerWidth="5.3244081"
   markerHeight="6.155385"
   viewBox="0 0 5.3244081 6.1553851"
   inkscape:isstock="true"
   inkscape:collect="always"
   preserveAspectRatio="xMidYMid"><path
     style="fill:context-stroke;fill-rule:evenodd;stroke:context-stroke;stroke-width:0.5pt"
     d="M 2.885,0 -1.44,2.5 v -5 z"
     id="path32" /></marker><inkscape:path-effect
   effect="angle_bisector"
   id="path-effect26"
   is_visible="true"
   lpeversion="1"
   length-left="10"
   length-right="0" /><inkscape:path-effect
   effect="angle_bisector"
   id="path-effect23"
   is_visible="true"
   lpeversion="1"
   length-left="10"
   length-right="0" /><marker
   style="overflow:visible"
   id="marker19"
   refX="3"
   refY="0"
   orient="auto-start-reverse"
   inkscape:stockid="Triangle arrow"
   markerWidth="3.594075"
   markerHeight="4.1550002"
   viewBox="0 0 5.3244081 6.1553851"
   inkscape:isstock="true"
   inkscape:collect="always"
   preserveAspectRatio="xMidYMid"><path
     transform="scale(0.5)"
     style="fill:context-stroke;fill-rule:evenodd;stroke:context-stroke;stroke-width:1pt"
     d="M 5.77,0 -2.88,5 V -5 Z"
     id="path19" /></marker><marker
   style="overflow:visible"
   id="Triangle"
   refX="3"
   refY="0"
   orient="auto-start-reverse"
   inkscape:stockid="Triangle arrow"
   markerWidth="3.594075"
   markerHeight="4.1550002"
   viewBox="0 0 5.3244081 6.1553851"
   inkscape:isstock="true"
   inkscape:collect="always"
   preserveAspectRatio="xMidYMid"><path
     transform="scale(0.5)"
     style="fill:context-stroke;fill-rule:evenodd;stroke:context-stroke;stroke-width:1pt"
     d="M 5.77,0 -2.88,5 V -5 Z"
     id="path135" /></marker><clipPath
   id="clipPath9356"><path
     clip-rule="nonzero"
     d="m 12,4 h 6 v 6.09375 h -6 z m 0,0"
     id="path703" /></clipPath><clipPath
   id="clipPath497"><path
     clip-rule="nonzero"
     d="M 0,0 H 7 V 8.300781 H 0 Z m 0,0"
     id="path4531" /></clipPath><clipPath
   id="clipPath2342"><path
     clip-rule="nonzero"
     d="m 7,3 h 5 V 8.300781 H 7 Z m 0,0"
     id="path2280" /></clipPath><clipPath
   id="clipPath571"><path
     clip-rule="nonzero"
     d="m 12,4 h 7 v 6.09375 h -7 z m 0,0"
     id="path5282" /></clipPath><clipPath
   id="clipPath3021"><path
     clip-rule="nonzero"
     d="m 13,4 h 3 v 8.152344 h -3 z m 0,0"
     id="path1505" /></clipPath><clipPath
   id="clipPath8061"><path
     clip-rule="nonzero"
     d="m 12,3 h 3 v 8.789062 h -3 z m 0,0"
     id="path4015" /></clipPath><clipPath
   id="clipPath5574"><path
     clip-rule="nonzero"
     d="m 11,3 h 3 v 7.460938 h -3 z m 0,0"
     id="path7215" /></clipPath><clipPath
   id="clipPath2215"><path
     clip-rule="nonzero"
     d="m 10,3 h 6 v 5.414062 h -6 z m 0,0"
     id="path182" /></clipPath><clipPath
   id="clipPath3789"><path
     clip-rule="nonzero"
     d="m 10,3 h 5 v 5.414062 h -5 z m 0,0"
     id="path214" /></clipPath><clipPath
   id="clipPath9796"><path
     clip-rule="nonzero"
     d="M 0,0 H 6 V 6.917969 H 0 Z m 0,0"
     id="path8148" /></clipPath><clipPath
   id="clipPath2990"><path
     clip-rule="nonzero"
     d="m 6,2 h 4 V 6.917969 H 6 Z m 0,0"
     id="path1352" /></clipPath><clipPath
   id="clipPath6807">
      <path
   clip-rule="nonzero"
   d="m 8,0 h 7 V 8.855469 H 8 Z m 0,0"
   id="path294" />
    </clipPath>
    <clipPath
   id="clipPath7599">
      <path
   clip-rule="nonzero"
   d="m 14,3 h 5 v 5.855469 h -5 z m 0,0"
   id="path4569" />
    </clipPath>
  <clipPath
   id="clipPath1400">
      <path
   clip-rule="nonzero"
   d="m 8,0 h 7 V 8.855469 H 8 Z m 0,0"
   id="path6698" />
    </clipPath>
    <clipPath
   id="clipPath3206">
      <path
   clip-rule="nonzero"
   d="m 14,3 h 6 v 5.855469 h -6 z m 0,0"
   id="path9457" />
    </clipPath>
  <clipPath
   id="clipPath3774">
      <path
   clip-rule="nonzero"
   d="m 8,2 h 7 V 8.746094 H 8 Z m 0,0"
   id="path8293" />
    </clipPath>
    <clipPath
   id="clipPath4251">
      <path
   clip-rule="nonzero"
   d="m 15,3 h 6 v 5.746094 h -6 z m 0,0"
   id="path9917" />
    </clipPath>
  <clipPath
   id="clipPath7030">
      <path
   clip-rule="nonzero"
   d="m 8,2 h 7 V 8.746094 H 8 Z m 0,0"
   id="path2591" />
    </clipPath>
    <clipPath
   id="clipPath589">
      <path
   clip-rule="nonzero"
   d="m 15,3 h 5 v 5.746094 h -5 z m 0,0"
   id="path7194" />
    </clipPath>
  <clipPath
   id="clipPath7030-6">
      <path
   clip-rule="nonzero"
   d="m 8,2 h 7 V 8.746094 H 8 Z m 0,0"
   id="path2591-9" />
    </clipPath><clipPath
   id="clipPath589-3">
      <path
   clip-rule="nonzero"
   d="m 15,3 h 5 v 5.746094 h -5 z m 0,0"
   id="path7194-7" />
    </clipPath><clipPath
   id="clipPath4336">
      <path
   clip-rule="nonzero"
   d="M 0,0 H 4.804688 V 6.917969 H 0 Z m 0,0"
   id="path6075" />
    </clipPath>
  <clipPath
   id="clipPath4459">
      <path
   clip-rule="nonzero"
   d="m 18,3 h 5 v 5.414062 h -5 z m 0,0"
   id="path5137" />
    </clipPath>
  </defs><g
     inkscape:groupmode="layer"
     id="layer2"
     inkscape:label="future"
     style="display:inline"><path
       style="display:inline;fill:none;stroke:#008000;stroke-width:0.129999;stroke-linecap:butt;stroke-linejoin:miter;stroke-dasharray:none;stroke-opacity:1"
       d="M 21.66521,12.624026 58.561683,26.474542"
       id="path3"
       sodipodi:nodetypes="cc" /><path
       style="display:inline;fill:none;stroke:#008000;stroke-width:0.129999;stroke-linecap:butt;stroke-linejoin:miter;stroke-dasharray:none;stroke-opacity:1"
       d="M 21.66521,12.624027 H 44.675704"
       id="path6" /><path
       style="display:inline;fill:none;stroke:#008000;stroke-width:0.129999;stroke-linecap:butt;stroke-linejoin:miter;stroke-dasharray:none;stroke-opacity:1"
       d="M 26.709528,22.164814 44.697565,12.654349"
       id="path7"
       sodipodi:nodetypes="cc" /><path
       style="display:inline;fill:none;stroke:#008000;stroke-width:0.129999;stroke-linecap:butt;stroke-linejoin:miter;stroke-dasharray:none;stroke-opacity:1"
       d="m 21.665213,12.624027 5.044315,9.540787"
       id="path8"
       sodipodi:nodetypes="cc" /><path
       style="display:inline;fill:none;stroke:#008000;stroke-width:0.129999;stroke-linecap:butt;stroke-linejoin:miter;stroke-dasharray:none;stroke-opacity:1"
       d="m 25.264713,19.4321 c 1.527719,-0.672703 3.181649,-0.416192 4.207406,1.272103"
       id="path11"
       sodipodi:nodetypes="cc" /><ellipse
       style="display:inline;fill:#008000;stroke:#008000;stroke-width:0.129999;stroke-linejoin:round;stroke-dasharray:none"
       id="path12"
       cx="27.271008"
       cy="20.363203"
       rx="0.18512383"
       ry="0.18500033" /><g
       inkscape:label=""
       transform="translate(66.220019,29.468275)"
       id="g2"
       style="fill:#0000ff"><g
   fill="#000000"
   fill-opacity="1"
   id="g5"
   transform="matrix(0.352778,0,0,0.352778,-0.292144,0.00101418)"
   style="fill:#0000ff">
    <g
   id="use5"
   transform="translate(0,6.9190001)"
   style="fill:#0000ff">
      <path
   d="m 6.5625,-2.296875 c 0.171875,0 0.359375,0 0.359375,-0.203125 0,-0.1875 -0.1875,-0.1875 -0.359375,-0.1875 H 1.171875 c -0.171875,0 -0.34375,0 -0.34375,0.1875 0,0.203125 0.171875,0.203125 0.34375,0.203125 z m 0,0"
   id="path9"
   style="fill:#0000ff" />
    </g>
  </g>
  <g
   fill="#000000"
   fill-opacity="1"
   id="g6"
   transform="matrix(0.352778,0,0,0.352778,-0.292144,0.00101418)"
   style="fill:#0000ff">
    <g
   id="use6"
   transform="translate(7.7490001,6.9190001)"
   style="fill:#0000ff">
      <path
   d="m 3.78125,-0.546875 v 0.65625 L 5.25,0 v -0.3125 c -0.6875,0 -0.78125,-0.0625 -0.78125,-0.5625 V -6.921875 L 3.046875,-6.8125 V -6.5 c 0.6875,0 0.765625,0.0625 0.765625,0.5625 v 2.15625 c -0.28125,-0.359375 -0.71875,-0.625 -1.25,-0.625 -1.171875,0 -2.21875,0.984375 -2.21875,2.265625 0,1.265625 0.96875,2.25 2.109375,2.25 0.640625,0 1.078125,-0.34375 1.328125,-0.65625 z m 0,-2.671875 v 2.046875 c 0,0.171875 0,0.1875 -0.109375,0.359375 C 3.375,-0.328125 2.9375,-0.109375 2.5,-0.109375 2.046875,-0.109375 1.6875,-0.375 1.453125,-0.75 1.203125,-1.15625 1.171875,-1.71875 1.171875,-2.140625 1.171875,-2.5 1.1875,-3.09375 1.46875,-3.546875 1.6875,-3.859375 2.0625,-4.1875 2.609375,-4.1875 c 0.34375,0 0.765625,0.15625 1.0625,0.59375 0.109375,0.171875 0.109375,0.1875 0.109375,0.375 z m 0,0"
   id="path10"
   style="fill:#0000ff" />
    </g>
  </g>
  <g
   fill="#000000"
   fill-opacity="1"
   id="g7"
   transform="matrix(0.352778,0,0,0.352778,-0.292144,0.00101418)"
   style="fill:#0000ff">
    <g
   id="use7"
   transform="translate(13.284,6.9190001)"
   style="fill:#0000ff">
      <path
   d="m 0.875,-0.59375 c -0.03125,0.15625 -0.09375,0.390625 -0.09375,0.4375 0,0.171875 0.140625,0.265625 0.296875,0.265625 0.125,0 0.296875,-0.078125 0.375,-0.28125 C 1.46875,-0.203125 1.796875,-1.5625 1.84375,-1.75 c 0.078125,-0.328125 0.265625,-1.015625 0.3125,-1.296875 0.046875,-0.125 0.328125,-0.59375 0.5625,-0.8125 0.078125,-0.0625 0.375,-0.328125 0.796875,-0.328125 0.265625,0 0.40625,0.125 0.421875,0.125 -0.296875,0.046875 -0.515625,0.28125 -0.515625,0.546875 0,0.15625 0.109375,0.34375 0.375,0.34375 0.265625,0 0.546875,-0.234375 0.546875,-0.59375 0,-0.34375 -0.3125,-0.640625 -0.828125,-0.640625 C 2.875,-4.40625 2.4375,-3.921875 2.25,-3.640625 2.15625,-4.09375 1.796875,-4.40625 1.328125,-4.40625 0.875,-4.40625 0.6875,-4.015625 0.59375,-3.84375 0.421875,-3.5 0.296875,-2.90625 0.296875,-2.875 c 0,0.109375 0.09375,0.109375 0.109375,0.109375 0.109375,0 0.109375,-0.015625 0.171875,-0.234375 0.171875,-0.703125 0.375,-1.1875 0.734375,-1.1875 0.15625,0 0.296875,0.078125 0.296875,0.453125 0,0.21875 -0.03125,0.328125 -0.15625,0.84375 z m 0,0"
   id="path1"
   style="fill:#0000ff" />
    </g>
  </g>
  <g
   clip-path="url(#clipPath4459)"
   id="g9"
   transform="matrix(0.352778,0,0,0.352778,-0.292144,0.00101418)"
   style="fill:#0000ff">
    <g
   fill="#000000"
   fill-opacity="1"
   id="g8"
   style="fill:#0000ff">
      <g
   id="use8"
   transform="translate(17.778,8.4130001)"
   style="fill:#0000ff">
        <path
   d="m 1.78125,-2.15625 h 1.265625 c 1.015625,0 1.8125,-0.59375 1.8125,-1.296875 0,-0.6875 -0.78125,-1.3125 -1.8125,-1.3125 H 0.40625 v 0.25 h 0.171875 c 0.53125,0 0.546875,0.078125 0.546875,0.328125 v 3.625 c 0,0.234375 -0.015625,0.3125 -0.546875,0.3125 H 0.40625 V 0 C 0.75,-0.015625 1.203125,-0.03125 1.453125,-0.03125 1.703125,-0.03125 2.15625,-0.015625 2.5,0 V -0.25 H 2.328125 C 1.796875,-0.25 1.78125,-0.328125 1.78125,-0.5625 Z M 2.875,-4.515625 c 1.171875,0 1.234375,0.65625 1.234375,1.0625 0,0.3125 0,1.0625 -1.234375,1.0625 H 1.75 v -1.84375 c 0,-0.21875 0.015625,-0.28125 0.34375,-0.28125 z m 0,0"
   id="path2"
   style="fill:#0000ff" />
      </g>
    </g>
  </g>
</g></g><g
     inkscape:label="Layer 1"
     inkscape:groupmode="layer"
     id="layer1"><g
       inkscape:label="delta phi R"
       transform="translate(64.921577,22.411772)"
       id="g31"
       style="display:inline">
  
  
<g
   id="g4"><g
     fill="#000000"
     fill-opacity="1"
     id="g22"
     transform="matrix(0.352778,0,0,0.352778,-0.165365,0.117343)">
    <g
   id="g21"
   transform="translate(0,6.8080001)">
      <path
   d="m 4.40625,-6.953125 c -0.0625,-0.140625 -0.09375,-0.1875 -0.265625,-0.1875 -0.15625,0 -0.1875,0.046875 -0.25,0.1875 l -3.375,6.75 C 0.46875,-0.109375 0.46875,-0.09375 0.46875,-0.078125 0.46875,0 0.53125,0 0.6875,0 h 6.921875 c 0.15625,0 0.21875,0 0.21875,-0.078125 0,-0.015625 0,-0.03125 -0.046875,-0.125 z m -0.578125,0.8125 2.6875,5.390625 h -5.375 z m 0,0"
   id="path20" />
    </g>
  </g><g
     fill="#000000"
     fill-opacity="1"
     id="g25"
     style="display:inline"
     transform="matrix(0.35277801,0,0,0.35277801,-0.16536583,0.117344)">
      <g
   id="g24"
   transform="translate(8.302,6.8080001)">
        <path
   d="M 1.6875,1.6875 C 1.65625,1.828125 1.640625,1.84375 1.640625,1.890625 c 0,0.21875 0.1875,0.28125 0.296875,0.28125 0.046875,0 0.265625,-0.03125 0.359375,-0.265625 C 2.328125,1.828125 2.375,1.5 2.65625,0.09375 c 0.078125,0 0.15625,0.015625 0.328125,0.015625 1.65625,0 3.1875,-1.5625 3.1875,-3.140625 0,-0.78125 -0.390625,-1.375 -1.140625,-1.375 -1.4375,0 -2.046875,1.9375 -2.640625,3.875 C 1.3125,-0.734375 0.75,-1.28125 0.75,-2 c 0,-0.28125 0.234375,-1.375 0.828125,-2.0625 0.09375,-0.09375 0.09375,-0.109375 0.09375,-0.140625 0,-0.03125 -0.03125,-0.09375 -0.125,-0.09375 -0.28125,0 -1.046875,1.453125 -1.046875,2.40625 0,0.9375 0.65625,1.65625 1.71875,1.90625 z m 1.390625,-2.15625 c -0.09375,0 -0.109375,0 -0.1875,-0.015625 -0.125,0 -0.125,0 -0.125,-0.03125 0,-0.015625 0.171875,-0.9375 0.1875,-1.078125 0.3125,-1.28125 1.09375,-2.234375 1.984375,-2.234375 0.6875,0 0.953125,0.53125 0.953125,1.015625 0,1.125 -1.28125,2.34375 -2.8125,2.34375 z m 0,0"
   id="path22" />
      </g>
    </g><g
     fill="#000000"
     fill-opacity="1"
     id="g29"
     style="display:inline"
     transform="matrix(0.35277801,0,0,0.35277801,-0.16536583,0.117344)">
      <g
   id="g27"
   transform="translate(14.819,8.302)">
        <path
   d="m 3.5,-2.375 c 0.625,-0.140625 1.25,-0.5625 1.25,-1.125 0,-0.6875 -0.921875,-1.265625 -2,-1.265625 H 0.40625 v 0.25 h 0.171875 c 0.53125,0 0.546875,0.078125 0.546875,0.328125 v 3.625 c 0,0.234375 -0.015625,0.3125 -0.546875,0.3125 H 0.40625 V 0 c 0,0 0.75,-0.03125 1.03125,-0.03125 0.296875,0 0.6875,0.015625 1.03125,0.03125 V -0.25 H 2.3125 C 1.765625,-0.25 1.75,-0.328125 1.75,-0.5625 v -1.71875 h 0.9375 c 0.125,0 0.484375,0 0.796875,0.28125 0.234375,0.21875 0.234375,0.390625 0.234375,0.859375 0,0.453125 0,0.734375 0.328125,1 0.296875,0.25 0.703125,0.28125 0.90625,0.28125 0.59375,0 0.734375,-0.5625 0.734375,-0.78125 0,-0.046875 0,-0.125 -0.109375,-0.125 -0.109375,0 -0.109375,0.0625 -0.125,0.125 C 5.421875,-0.234375 5.1875,-0.0625 4.96875,-0.0625 4.578125,-0.0625 4.515625,-0.46875 4.4375,-1.09375 4.359375,-1.65625 4.34375,-1.765625 4.140625,-2 4.0625,-2.078125 3.875,-2.265625 3.5,-2.375 Z M 2.65625,-2.484375 H 1.75 v -1.75 C 1.75,-4.4375 1.765625,-4.484375 1.9375,-4.5 2,-4.515625 2.234375,-4.515625 2.390625,-4.515625 3.046875,-4.515625 4,-4.515625 4,-3.5 4,-2.71875 3.40625,-2.484375 2.65625,-2.484375 Z m 0,0"
   id="path26" />
      </g>
    </g></g><path
   style="display:inline;fill:none;stroke:#000000;stroke-width:0.129999;stroke-linecap:butt;stroke-linejoin:miter;stroke-dasharray:none;stroke-opacity:1"
   d="m 65.738298,20.530683 c -1.5329,1.155607 -2.32256,3.773544 -0.88681,5.943859"
   id="path21-7"
   sodipodi:nodetypes="cc"
   transform="translate(-64.921577,-22.411772)" /></g><g
       inkscape:label="delta phi L"
       transform="translate(15.406462,22.675262)"
       id="g42"
       style="display:inline">
  
  
<path
   style="display:inline;fill:none;stroke:#000000;stroke-width:0.129999;stroke-linecap:butt;stroke-linejoin:miter;stroke-dasharray:none;stroke-opacity:1"
   d="m 21.605099,20.362536 c 1.5329,1.155607 2.352516,3.941691 0.916766,6.112006"
   id="path21"
   sodipodi:nodetypes="cc"
   transform="translate(-15.406462,-22.675262)" /><g
   id="g1"><g
     fill="#000000"
     fill-opacity="1"
     id="g34"
     transform="matrix(0.352778,0,0,0.352778,-0.165365,0.117343)">
    <g
   id="g32"
   transform="translate(0,6.8080001)">
      <path
   d="m 4.40625,-6.953125 c -0.0625,-0.140625 -0.09375,-0.1875 -0.265625,-0.1875 -0.15625,0 -0.1875,0.046875 -0.25,0.1875 l -3.375,6.75 C 0.46875,-0.109375 0.46875,-0.09375 0.46875,-0.078125 0.46875,0 0.53125,0 0.6875,0 h 6.921875 c 0.15625,0 0.21875,0 0.21875,-0.078125 0,-0.015625 0,-0.03125 -0.046875,-0.125 z m -0.578125,0.8125 2.6875,5.390625 h -5.375 z m 0,0"
   id="path23" />
    </g>
  </g><g
     fill="#000000"
     fill-opacity="1"
     id="g40"
     style="display:inline"
     transform="matrix(0.35277801,0,0,0.35277801,-0.16536504,0.11734307)">
      <g
   id="g39"
   transform="translate(14.819,8.302)">
        <path
   d="M 4.53125,-1.828125 H 4.296875 C 4.21875,-1.15625 4.125,-0.25 2.796875,-0.25 h -0.6875 c -0.328125,0 -0.34375,-0.0625 -0.34375,-0.265625 V -4.1875 c 0,-0.234375 0,-0.328125 0.65625,-0.328125 h 0.25 v -0.25 C 2.515625,-4.75 1.625,-4.734375 1.453125,-4.734375 c -0.265625,0 -1.0625,-0.03125 -1.0625,-0.03125 v 0.25 H 0.5625 c 0.53125,0 0.546875,0.078125 0.546875,0.328125 v 3.625 c 0,0.234375 -0.015625,0.3125 -0.546875,0.3125 H 0.390625 V 0 h 3.9375 z m 0,0"
   id="path38" />
      </g>
    </g><g
     fill="#000000"
     fill-opacity="1"
     id="g37"
     style="display:inline"
     transform="matrix(0.35277801,0,0,0.35277801,-0.16536504,0.11734307)">
      <g
   id="g35"
   transform="translate(8.302,6.8080001)">
        <path
   d="M 1.6875,1.6875 C 1.65625,1.828125 1.640625,1.84375 1.640625,1.890625 c 0,0.21875 0.1875,0.28125 0.296875,0.28125 0.046875,0 0.265625,-0.03125 0.359375,-0.265625 C 2.328125,1.828125 2.375,1.5 2.65625,0.09375 c 0.078125,0 0.15625,0.015625 0.328125,0.015625 1.65625,0 3.1875,-1.5625 3.1875,-3.140625 0,-0.78125 -0.390625,-1.375 -1.140625,-1.375 -1.4375,0 -2.046875,1.9375 -2.640625,3.875 C 1.3125,-0.734375 0.75,-1.28125 0.75,-2 c 0,-0.28125 0.234375,-1.375 0.828125,-2.0625 0.09375,-0.09375 0.09375,-0.109375 0.09375,-0.140625 0,-0.03125 -0.03125,-0.09375 -0.125,-0.09375 -0.28125,0 -1.046875,1.453125 -1.046875,2.40625 0,0.9375 0.65625,1.65625 1.71875,1.90625 z m 1.390625,-2.15625 c -0.09375,0 -0.109375,0 -0.1875,-0.015625 -0.125,0 -0.125,0 -0.125,-0.03125 0,-0.015625 0.171875,-0.9375 0.1875,-1.078125 0.3125,-1.28125 1.09375,-2.234375 1.984375,-2.234375 0.6875,0 0.953125,0.53125 0.953125,1.015625 0,1.125 -1.28125,2.34375 -2.8125,2.34375 z m 0,0"
   id="path34" />
      </g>
    </g></g></g></g><g
     inkscape:groupmode="layer"
     id="layer4"
     inkscape:label="zoom"
     style="display:inline"><path
       style="display:inline;fill:none;stroke:#ff0000;stroke-width:0.129999;stroke-linecap:butt;stroke-linejoin:miter;stroke-dasharray:none;stroke-opacity:1;marker-start:url(#marker32)"
       d="M 50.918531,9.4574582 44.675707,12.624026"
       id="path5"
       sodipodi:nodetypes="ccc"
       inkscape:path-effect="#path-effect1"
       inkscape:original-d="m 37.988156,3.6131186 6.687551,9.0109074 3.47118,11.206725" /><g
       id="g20"
       inkscape:label="dr"
       transform="matrix(1.1916298,0,0,1.1935505,1.3902775,-5.5167736)"
       style="stroke-width:0.838511"><path
         style="fill:none;stroke:#0000ff;stroke-width:0.109006;stroke-linecap:butt;stroke-linejoin:miter;stroke-dasharray:none;stroke-opacity:1"
         d="m 47.977489,26.803487 v 2.619785"
         id="path16" /><path
         style="fill:none;stroke:#0000ff;stroke-width:0.109006;stroke-linecap:butt;stroke-linejoin:miter;stroke-dasharray:none;stroke-opacity:1"
         d="m 67.287594,26.803487 v 2.619785"
         id="path16-5" /><path
         style="fill:none;stroke:#0000ff;stroke-width:0.109006;stroke-linecap:butt;stroke-linejoin:miter;stroke-dasharray:none;stroke-opacity:1;marker-start:url(#Triangle);marker-end:url(#marker19)"
         d="M 47.977489,28.852145 H 67.287594"
         id="path18"
         sodipodi:nodetypes="cc" /></g><path
       style="fill:none;stroke:#000000;stroke-width:0.129999;stroke-linecap:butt;stroke-linejoin:miter;stroke-dasharray:none;stroke-opacity:1"
       d="M 44.675707,12.624026 3.3835436,26.474542"
       id="path4"
       sodipodi:nodetypes="cc" /><path
       style="fill:none;stroke:#0000ff;stroke-width:0.129999;stroke-linecap:butt;stroke-linejoin:miter;stroke-dasharray:none;stroke-opacity:1"
       d="M 3.3835436,26.474542 H 81.572179"
       id="path13"
       sodipodi:nodetypes="cc" /><path
       style="fill:none;stroke:#000000;stroke-width:0.129999;stroke-linecap:butt;stroke-linejoin:miter;stroke-dasharray:none;stroke-opacity:1"
       d="M 44.675707,12.624026 81.572179,26.474542"
       id="path14"
       sodipodi:nodetypes="cc" /><path
       style="fill:none;stroke:#000000;stroke-width:0.264583px;stroke-linecap:butt;stroke-linejoin:miter;stroke-opacity:1;marker-start:url(#ThreeDots);marker-mid:url(#Dot);marker-end:url(#marker3)"
       d="m 37.988156,3.6131186 6.687551,9.0109074 3.47118,11.206725"
       id="path15"
       sodipodi:nodetypes="ccc" /></g><g
     inkscape:groupmode="layer"
     id="layer3"
     inkscape:label="principles"
     style="stroke:#00ffff;stroke-width:0.13;stroke-dasharray:none" /></svg>
