<?xml version="1.0" encoding="UTF-8" standalone="no"?>
<!-- Created with Inkscape (http://www.inkscape.org/) -->

<svg
   width="6.4000001in"
   height="2.5in"
   viewBox="0 0 162.56001 63.500003"
   version="1.1"
   id="svg1"
   inkscape:version="1.3 (0e150ed6c4, 2023-07-21)"
   sodipodi:docname="node_shift_normal.svg"
   xmlns:inkscape="http://www.inkscape.org/namespaces/inkscape"
   xmlns:sodipodi="http://sodipodi.sourceforge.net/DTD/sodipodi-0.dtd"
   xmlns="http://www.w3.org/2000/svg"
   xmlns:svg="http://www.w3.org/2000/svg">
  <sodipodi:namedview
     id="namedview1"
     pagecolor="#ffffff"
     bordercolor="#666666"
     borderopacity="1.0"
     inkscape:showpageshadow="2"
     inkscape:pageopacity="0.0"
     inkscape:pagecheckerboard="0"
     inkscape:deskcolor="#d1d1d1"
     inkscape:document-units="mm"
     showgrid="false"
     inkscape:zoom="2.8284271"
     inkscape:cx="200.81833"
     inkscape:cy="42.072853"
     inkscape:window-width="3840"
     inkscape:window-height="2082"
     inkscape:window-x="0"
     inkscape:window-y="0"
     inkscape:window-maximized="1"
     inkscape:current-layer="g42">
    <sodipodi:guide
       position="143.62674,22.54331"
       orientation="55.385262,-15.797966"
       id="guide11"
       inkscape:locked="false" />
    <sodipodi:guide
       position="18.744729,19.429776"
       orientation="40.532456,8.1132721"
       id="guide12"
       inkscape:locked="false" />
    <sodipodi:guide
       position="76.111403,38.408669"
       orientation="103.06774,-2.3095898"
       id="guide13"
       inkscape:locked="false" />
  </sodipodi:namedview>
  <defs
     id="defs1">
    <marker
       style="overflow:visible"
       id="marker3"
       refX="5"
       refY="0"
       orient="auto-start-reverse"
       inkscape:stockid="Dart arrow"
       markerWidth="1.5"
       markerHeight="1.5"
       viewBox="0 0 1 1"
       inkscape:isstock="true"
       inkscape:collect="always"
       preserveAspectRatio="xMidYMid">
      <path
         style="fill:context-stroke;fill-rule:evenodd;stroke:none"
         d="M 0,0 5,-5 -12.5,0 5,5 Z"
         transform="scale(-0.5)"
         id="path3" />
    </marker>
    <marker
       style="overflow:visible"
       id="Triangle"
       refX="3"
       refY="0"
       orient="auto-start-reverse"
       inkscape:stockid="Triangle arrow"
       markerWidth="0.5"
       markerHeight="0.5"
       viewBox="0 0 1 1"
       inkscape:isstock="true"
       inkscape:collect="always"
       preserveAspectRatio="xMidYMid">
      <path
         transform="scale(0.5)"
         style="fill:context-stroke;fill-rule:evenodd;stroke:context-stroke;stroke-width:1pt"
         d="M 5.77,0 -2.88,5 V -5 Z"
         id="path135" />
    </marker>
    <inkscape:path-effect
       effect="angle_bisector"
       id="path-effect21"
       is_visible="true"
       lpeversion="1"
       length-left="10"
       length-right="0" />
    <marker
       style="overflow:visible"
       id="marker7"
       refX="0"
       refY="0"
       orient="auto"
       inkscape:stockid="Dot"
       markerWidth="5"
       markerHeight="5"
       viewBox="0 0 5 5"
       inkscape:isstock="true"
       inkscape:collect="always"
       preserveAspectRatio="xMidYMid">
      <path
         transform="scale(0.5)"
         style="fill:context-stroke;fill-rule:evenodd;stroke:none"
         d="M 5,0 C 5,2.76 2.76,5 0,5 -2.76,5 -5,2.76 -5,0 c 0,-2.76 2.3,-5 5,-5 2.76,0 5,2.24 5,5 z"
         sodipodi:nodetypes="sssss"
         id="path7" />
    </marker>
    <marker
       style="overflow:visible"
       id="Dot"
       refX="0"
       refY="0"
       orient="auto"
       inkscape:stockid="Dot"
       markerWidth="5"
       markerHeight="5"
       viewBox="0 0 5 5"
       inkscape:isstock="true"
       inkscape:collect="always"
       preserveAspectRatio="xMidYMid">
      <path
         transform="scale(0.5)"
         style="fill:context-stroke;fill-rule:evenodd;stroke:none"
         d="M 5,0 C 5,2.76 2.76,5 0,5 -2.76,5 -5,2.76 -5,0 c 0,-2.76 2.3,-5 5,-5 2.76,0 5,2.24 5,5 z"
         sodipodi:nodetypes="sssss"
         id="path4" />
    </marker>
    <marker
       orient="auto-start-reverse"
       refY="0"
       refX="0"
       id="ThreeDots"
       inkscape:stockid="Ellipsis"
       style="overflow:visible"
       markerWidth="5.5"
       markerHeight="1.5"
       viewBox="0 0 5.5 1.5"
       inkscape:isstock="true"
       inkscape:collect="always"
       preserveAspectRatio="xMidYMid">
      <g
         transform="scale(0.5)"
         id="g4">
        <circle
           cx="4"
           cy="0"
           r="1"
           style="fill:context-stroke;stroke:context-stroke"
           id="circle31" />
        <circle
           cx="8"
           cy="0"
           r="1"
           style="fill:context-stroke;stroke:context-stroke"
           id="circle32" />
        <circle
           cx="12"
           cy="0"
           r="1"
           style="fill:context-stroke;stroke:context-stroke"
           id="circle33" />
      </g>
    </marker>
    <inkscape:path-effect
       effect="bspline"
       id="path-effect16"
       is_visible="true"
       lpeversion="1"
       weight="33.333333"
       steps="2"
       helper_size="0"
       apply_no_weight="true"
       apply_with_weight="true"
       only_selected="false"
       uniform="false" />
    <inkscape:path-effect
       effect="bspline"
       id="path-effect15"
       is_visible="true"
       lpeversion="1"
       weight="33.333333"
       steps="2"
       helper_size="0"
       apply_no_weight="true"
       apply_with_weight="true"
       only_selected="false"
       uniform="false" />
    <inkscape:path-effect
       effect="angle_bisector"
       id="path-effect3"
       is_visible="true"
       lpeversion="1"
       length-left="20"
       length-right="0" />
    <clipPath
       id="clipPath2891">
      <path
         clip-rule="nonzero"
         d="M 0,0 H 7 V 8.300781 H 0 Z m 0,0"
         id="path1889" />
    </clipPath>
    <clipPath
       id="clipPath3977">
      <path
         clip-rule="nonzero"
         d="m 7,3 h 5 V 8.300781 H 7 Z m 0,0"
         id="path7406" />
    </clipPath>
    <clipPath
       id="clipPath252">
      <path
         clip-rule="nonzero"
         d="m 7,3 h 5 V 6.941406 H 7 Z m 0,0"
         id="path4850" />
    </clipPath>
    <clipPath
       id="clipPath1756">
      <path
         clip-rule="nonzero"
         d="m 7,1 h 3 V 6.941406 H 7 Z m 0,0"
         id="path4462" />
    </clipPath>
    <clipPath
       id="clipPath4472">
      <path
         clip-rule="nonzero"
         d="M 6,1 H 8.996094 V 6.941406 H 6 Z m 0,0"
         id="path408" />
    </clipPath>
    <clipPath
       id="clipPath1948">
      <path
         clip-rule="nonzero"
         d="m 6,3 h 5 V 6.941406 H 6 Z m 0,0"
         id="path7895" />
    </clipPath>
    <clipPath
       id="clipPath9987">
      <path
         clip-rule="nonzero"
         d="m 6,8 h 5 v 3.722656 H 6 Z m 0,0"
         id="path3844" />
    </clipPath>
    <clipPath
       id="clipPath287">
      <path
         clip-rule="nonzero"
         d="M 6,0 H 8.996094 V 5 H 6 Z m 0,0"
         id="path9744" />
    </clipPath>
    <clipPath
       id="clipPath1054">
      <path
         clip-rule="nonzero"
         d="m 6,6 h 2.996094 v 5.875 H 6 Z m 0,0"
         id="path7667" />
    </clipPath>
    <clipPath
       id="clipPath8707">
      <path
         clip-rule="nonzero"
         d="M 6,0 H 8.996094 V 5 H 6 Z m 0,0"
         id="path2960" />
    </clipPath>
    <clipPath
       id="clipPath741">
      <path
         clip-rule="nonzero"
         d="m 6,6 h 2.996094 v 5.875 H 6 Z m 0,0"
         id="path2931" />
    </clipPath>
    <clipPath
       id="clipPath4006">
      <path
         clip-rule="nonzero"
         d="m 1,9 h 4 v 5.363281 H 1 Z m 0,0"
         id="path2563" />
    </clipPath>
    <clipPath
       id="clipPath5987">
      <path
         clip-rule="nonzero"
         d="M 0,0 H 7 V 7.472656 H 0 Z m 0,0"
         id="path1924" />
    </clipPath>
    <clipPath
       id="clipPath4076">
      <path
         clip-rule="nonzero"
         d="m 6,1 h 5 V 7.472656 H 6 Z m 0,0"
         id="path3905" />
    </clipPath>
    <clipPath
       id="clipPath5987-7">
      <path
         clip-rule="nonzero"
         d="M 0,0 H 7 V 7.472656 H 0 Z m 0,0"
         id="path1924-5" />
    </clipPath>
    <clipPath
       id="clipPath4076-3">
      <path
         clip-rule="nonzero"
         d="m 6,1 h 5 V 7.472656 H 6 Z m 0,0"
         id="path3905-5" />
    </clipPath>
    <clipPath
       id="clipPath6893">
      <path
         clip-rule="nonzero"
         d="M 0,0 H 7 V 8.300781 H 0 Z m 0,0"
         id="path4647" />
    </clipPath>
    <clipPath
       id="clipPath2231">
      <path
         clip-rule="nonzero"
         d="m 7,3 h 5 V 8.300781 H 7 Z m 0,0"
         id="path7573" />
    </clipPath>
    <marker
       orient="auto-start-reverse"
       refY="0"
       refX="0"
       id="marker59"
       inkscape:stockid="Ellipsis"
       style="overflow:visible"
       markerWidth="5.5"
       markerHeight="1.5"
       viewBox="0 0 5.5 1.5"
       inkscape:isstock="true"
       inkscape:collect="always"
       preserveAspectRatio="xMidYMid">
      <g
         transform="scale(0.5)"
         id="g59">
        <circle
           cx="4"
           cy="0"
           r="1"
           style="fill:context-stroke;stroke:context-stroke"
           id="circle56" />
        <circle
           cx="8"
           cy="0"
           r="1"
           style="fill:context-stroke;stroke:context-stroke"
           id="circle57" />
        <circle
           cx="12"
           cy="0"
           r="1"
           style="fill:context-stroke;stroke:context-stroke"
           id="circle58" />
      </g>
    </marker>
    <marker
       orient="auto-start-reverse"
       refY="0"
       refX="0"
       id="marker61"
       inkscape:stockid="Ellipsis"
       style="overflow:visible"
       markerWidth="5.5"
       markerHeight="1.5"
       viewBox="0 0 5.5 1.5"
       inkscape:isstock="true"
       inkscape:collect="always"
       preserveAspectRatio="xMidYMid">
      <g
         transform="scale(0.5)"
         id="g61">
        <circle
           cx="4"
           cy="0"
           r="1"
           style="fill:context-stroke;stroke:context-stroke"
           id="circle59" />
        <circle
           cx="8"
           cy="0"
           r="1"
           style="fill:context-stroke;stroke:context-stroke"
           id="circle60" />
        <circle
           cx="12"
           cy="0"
           r="1"
           style="fill:context-stroke;stroke:context-stroke"
           id="circle61" />
      </g>
    </marker>
    <clipPath
       id="clipPath181">
      <path
         clip-rule="nonzero"
         d="m 4,3 h 7 V 8.414062 H 4 Z m 0,0"
         id="path3269" />
    </clipPath>
    <clipPath
       id="clipPath3909">
      <path
         clip-rule="nonzero"
         d="m 18,5 h 7 v 6.953125 h -7 z m 0,0"
         id="path4155" />
    </clipPath>
    <clipPath
       id="clipPath7108">
      <path
         clip-rule="nonzero"
         d="m 15,4 h 6 v 5.964844 h -6 z m 0,0"
         id="path3273" />
    </clipPath>
    <clipPath
       id="clipPath914">
      <path
         clip-rule="nonzero"
         d="m 15,4 h 6 v 5.964844 h -6 z m 0,0"
         id="path4290" />
    </clipPath>
  </defs>
  <g
     inkscape:groupmode="layer"
     id="layer4"
     inkscape:label="mass"
     transform="translate(1.31563,-2.39706)">
    <path
       style="fill:none;stroke:#008000;stroke-width:0.3;marker-start:url(#Triangle);marker-end:url(#Triangle)"
       id="path109"
       sodipodi:type="arc"
       sodipodi:cx="74.795769"
       sodipodi:cy="27.488394"
       sodipodi:rx="10"
       sodipodi:ry="10"
       sodipodi:start="2.8260633"
       sodipodi:end="4.6709133"
       sodipodi:open="true"
       sodipodi:arc-type="arc"
       d="m 65.289446,30.591591 a 10,10 0 0 1 1.292098,-8.806399 10,10 0 0 1 7.799587,-4.288198" />
    <path
       style="fill:none;stroke:#000000;stroke-width:0.3;marker-start:url(#Triangle);marker-end:url(#Triangle)"
       id="path21"
       sodipodi:type="arc"
       sodipodi:cx="74.795769"
       sodipodi:cy="27.488394"
       sodipodi:rx="10"
       sodipodi:ry="10"
       sodipodi:start="0.23019957"
       sodipodi:end="1.5931027"
       sodipodi:open="true"
       sodipodi:arc-type="arc"
       d="m 84.531978,29.770112 a 10,10 0 0 1 -9.959254,7.715794" />
    <path
       style="fill:none;stroke:#000000;stroke-width:0.3;marker-start:url(#Triangle);marker-end:url(#Triangle)"
       id="path77"
       sodipodi:type="arc"
       sodipodi:cx="74.795769"
       sodipodi:cy="27.488394"
       sodipodi:rx="12"
       sodipodi:ry="12"
       sodipodi:start="1.5939993"
       sodipodi:end="2.8279113"
       sodipodi:open="true"
       sodipodi:arc-type="arc"
       d="M 74.517358,39.485164 A 12,12 0 0 1 63.38132,31.191143" />
    <g
       inkscape:label="gammau"
       transform="matrix(1.0000016,0,0,1.0000016,47.962985,37.037902)"
       id="g58">
      <g
         fill="#000000"
         fill-opacity="1"
         id="g3"
         transform="matrix(0.352778,0,0,0.352778,-0.785768,-0.661238)">
        <g
           id="use2"
           transform="translate(1.993,7.1399999)">
          <path
             d="M 4.515625,-1.453125 C 4.5,-2.046875 4.46875,-2.96875 4.015625,-4.046875 3.78125,-4.640625 3.375,-5.265625 2.5,-5.265625 c -1.46875,0 -2.265625,1.875 -2.265625,2.1875 0,0.109375 0.078125,0.109375 0.109375,0.109375 0.109375,0 0.109375,-0.03125 0.171875,-0.1875 0.25,-0.734375 1.015625,-1.328125 1.84375,-1.328125 1.65625,0 1.890625,1.859375 1.890625,3.03125 0,0.765625 -0.078125,1.015625 -0.15625,1.25 -0.21875,0.734375 -0.609375,2.21875 -0.609375,2.5625 0,0.09375 0.03125,0.203125 0.125,0.203125 0.1875,0 0.28125,-0.40625 0.421875,-0.875 0.28125,-1.046875 0.359375,-1.578125 0.421875,-2.0625 0.03125,-0.28125 0.703125,-2.25 1.65625,-4.125 0.078125,-0.203125 0.25,-0.515625 0.25,-0.5625 0,0 -0.015625,-0.09375 -0.125,-0.09375 -0.015625,0 -0.078125,0 -0.109375,0.046875 -0.015625,0.03125 -0.4375,0.84375 -0.796875,1.65625 -0.171875,0.40625 -0.421875,0.9375 -0.8125,2 z m 0,0"
             id="path57" />
        </g>
      </g>
      <g
         fill="#000000"
         fill-opacity="1"
         id="g57"
         transform="matrix(0.352778,0,0,0.352778,-0.785768,-0.661238)">
        <g
           id="use3"
           transform="translate(8.0640001,8.9329996)">
          <path
             d="m 2.65625,-3.421875 v 0.265625 c 0.546875,0 0.609375,0.046875 0.609375,0.4375 v 1.390625 c 0,0.6875 -0.40625,1.1875 -1.015625,1.1875 -0.6875,0 -0.71875,-0.34375 -0.71875,-0.75 v -2.625 l -1.203125,0.09375 v 0.265625 c 0.609375,0 0.609375,0.015625 0.609375,0.71875 v 1.203125 c 0,0.578125 0,1.3125 1.265625,1.3125 0.75,0 1.046875,-0.578125 1.078125,-0.640625 H 3.296875 V 0.078125 L 4.484375,0 V -0.265625 C 3.9375,-0.265625 3.875,-0.3125 3.875,-0.703125 v -2.8125 z m 0,0"
             id="path5" />
        </g>
      </g>
    </g>
    <g
       inkscape:label="gammal"
       transform="translate(101.40864,35.450223)"
       id="g66">
      <g
         fill="#000000"
         fill-opacity="1"
         id="g63"
         transform="matrix(0.352778,0,0,0.352778,-0.785768,-0.661238)">
        <g
           id="g62"
           transform="translate(1.993,7.1399999)">
          <path
             d="M 4.515625,-1.453125 C 4.5,-2.046875 4.46875,-2.96875 4.015625,-4.046875 3.78125,-4.640625 3.375,-5.265625 2.5,-5.265625 c -1.46875,0 -2.265625,1.875 -2.265625,2.1875 0,0.109375 0.078125,0.109375 0.109375,0.109375 0.109375,0 0.109375,-0.03125 0.171875,-0.1875 0.25,-0.734375 1.015625,-1.328125 1.84375,-1.328125 1.65625,0 1.890625,1.859375 1.890625,3.03125 0,0.765625 -0.078125,1.015625 -0.15625,1.25 -0.21875,0.734375 -0.609375,2.21875 -0.609375,2.5625 0,0.09375 0.03125,0.203125 0.125,0.203125 0.1875,0 0.28125,-0.40625 0.421875,-0.875 0.28125,-1.046875 0.359375,-1.578125 0.421875,-2.0625 0.03125,-0.28125 0.703125,-2.25 1.65625,-4.125 0.078125,-0.203125 0.25,-0.515625 0.25,-0.5625 0,0 -0.015625,-0.09375 -0.125,-0.09375 -0.015625,0 -0.078125,0 -0.109375,0.046875 -0.015625,0.03125 -0.4375,0.84375 -0.796875,1.65625 -0.171875,0.40625 -0.421875,0.9375 -0.8125,2 z m 0,0"
             id="path62" />
        </g>
      </g>
      <g
         fill="#000000"
         fill-opacity="1"
         id="g65"
         transform="matrix(0.352778,0,0,0.352778,-0.785768,-0.661238)">
        <g
           id="g64"
           transform="translate(8.0640001,8.9329996)">
          <path
             d="m 1.515625,-5.53125 -1.1875,0.09375 v 0.265625 c 0.546875,0 0.609375,0.046875 0.609375,0.4375 V -0.625 c 0,0.359375 -0.09375,0.359375 -0.609375,0.359375 V 0 c 0.3125,-0.03125 0.765625,-0.03125 0.90625,-0.03125 0.15625,0 0.578125,0 0.890625,0.03125 v -0.265625 c -0.5,0 -0.609375,0 -0.609375,-0.359375 z m 0,0"
             id="path63" />
        </g>
      </g>
    </g>
    <g
       inkscape:label="al"
       transform="translate(106.17114,36.706994)"
       id="g71">
      <g
         fill="#000000"
         fill-opacity="1"
         id="g68"
         transform="matrix(0.352778,0,0,0.352778,-0.873963,-0.661238)">
        <g
           id="g67"
           transform="translate(1.993,7.1399999)">
          <path
             d="M 3.59375,-1.421875 C 3.53125,-1.21875 3.53125,-1.1875 3.375,-0.96875 3.109375,-0.640625 2.578125,-0.125 2.015625,-0.125 1.53125,-0.125 1.25,-0.5625 1.25,-1.265625 c 0,-0.65625 0.375,-2 0.609375,-2.5 0.40625,-0.84375 0.96875,-1.265625 1.421875,-1.265625 0.796875,0 0.953125,0.984375 0.953125,1.078125 0,0.015625 -0.03125,0.15625 -0.046875,0.1875 z m 0.765625,-3.0625 c -0.125,-0.3125 -0.453125,-0.78125 -1.078125,-0.78125 -1.34375,0 -2.796875,1.734375 -2.796875,3.515625 0,1.171875 0.6875,1.875 1.5,1.875 0.65625,0 1.21875,-0.515625 1.546875,-0.90625 0.125,0.703125 0.6875,0.90625 1.046875,0.90625 0.359375,0 0.640625,-0.21875 0.859375,-0.65625 0.1875,-0.40625 0.359375,-1.125 0.359375,-1.171875 0,-0.0625 -0.046875,-0.109375 -0.125,-0.109375 C 5.5625,-1.8125 5.5625,-1.75 5.515625,-1.578125 5.328125,-0.875 5.109375,-0.125 4.609375,-0.125 4.265625,-0.125 4.25,-0.4375 4.25,-0.671875 c 0,-0.265625 0.03125,-0.40625 0.140625,-0.875 C 4.46875,-1.84375 4.53125,-2.109375 4.625,-2.453125 5.0625,-4.25 5.171875,-4.671875 5.171875,-4.75 c 0,-0.15625 -0.125,-0.296875 -0.3125,-0.296875 -0.375,0 -0.46875,0.421875 -0.5,0.5625 z m 0,0"
             id="path67" />
        </g>
      </g>
      <g
         fill="#000000"
         fill-opacity="1"
         id="g70"
         transform="matrix(0.352778,0,0,0.352778,-0.873963,-0.661238)">
        <g
           id="g69"
           transform="translate(8.1370001,8.9329996)">
          <path
             d="m 1.515625,-5.53125 -1.1875,0.09375 v 0.265625 c 0.546875,0 0.609375,0.046875 0.609375,0.4375 V -0.625 c 0,0.359375 -0.09375,0.359375 -0.609375,0.359375 V 0 c 0.3125,-0.03125 0.765625,-0.03125 0.90625,-0.03125 0.15625,0 0.578125,0 0.890625,0.03125 v -0.265625 c -0.5,0 -0.609375,0 -0.609375,-0.359375 z m 0,0"
             id="path68" />
        </g>
      </g>
    </g>
    <g
       inkscape:label="au"
       transform="translate(42.737284,39.15439)"
       id="g76">
      <g
         fill="#000000"
         fill-opacity="1"
         id="g73"
         transform="matrix(0.352778,0,0,0.352778,-0.873963,-0.661238)">
        <g
           id="g72"
           transform="translate(1.993,7.1399999)">
          <path
             d="M 3.59375,-1.421875 C 3.53125,-1.21875 3.53125,-1.1875 3.375,-0.96875 3.109375,-0.640625 2.578125,-0.125 2.015625,-0.125 1.53125,-0.125 1.25,-0.5625 1.25,-1.265625 c 0,-0.65625 0.375,-2 0.609375,-2.5 0.40625,-0.84375 0.96875,-1.265625 1.421875,-1.265625 0.796875,0 0.953125,0.984375 0.953125,1.078125 0,0.015625 -0.03125,0.15625 -0.046875,0.1875 z m 0.765625,-3.0625 c -0.125,-0.3125 -0.453125,-0.78125 -1.078125,-0.78125 -1.34375,0 -2.796875,1.734375 -2.796875,3.515625 0,1.171875 0.6875,1.875 1.5,1.875 0.65625,0 1.21875,-0.515625 1.546875,-0.90625 0.125,0.703125 0.6875,0.90625 1.046875,0.90625 0.359375,0 0.640625,-0.21875 0.859375,-0.65625 0.1875,-0.40625 0.359375,-1.125 0.359375,-1.171875 0,-0.0625 -0.046875,-0.109375 -0.125,-0.109375 C 5.5625,-1.8125 5.5625,-1.75 5.515625,-1.578125 5.328125,-0.875 5.109375,-0.125 4.609375,-0.125 4.265625,-0.125 4.25,-0.4375 4.25,-0.671875 c 0,-0.265625 0.03125,-0.40625 0.140625,-0.875 C 4.46875,-1.84375 4.53125,-2.109375 4.625,-2.453125 5.0625,-4.25 5.171875,-4.671875 5.171875,-4.75 c 0,-0.15625 -0.125,-0.296875 -0.3125,-0.296875 -0.375,0 -0.46875,0.421875 -0.5,0.5625 z m 0,0"
             id="path72" />
        </g>
      </g>
      <g
         fill="#000000"
         fill-opacity="1"
         id="g75"
         transform="matrix(0.352778,0,0,0.352778,-0.873963,-0.661238)">
        <g
           id="g74"
           transform="translate(8.1370001,8.9329996)">
          <path
             d="m 2.65625,-3.421875 v 0.265625 c 0.546875,0 0.609375,0.046875 0.609375,0.4375 v 1.390625 c 0,0.6875 -0.40625,1.1875 -1.015625,1.1875 -0.6875,0 -0.71875,-0.34375 -0.71875,-0.75 v -2.625 l -1.203125,0.09375 v 0.265625 c 0.609375,0 0.609375,0.015625 0.609375,0.71875 v 1.203125 c 0,0.578125 0,1.3125 1.265625,1.3125 0.75,0 1.046875,-0.578125 1.078125,-0.640625 H 3.296875 V 0.078125 L 4.484375,0 V -0.265625 C 3.9375,-0.265625 3.875,-0.3125 3.875,-0.703125 v -2.8125 z m 0,0"
             id="path73" />
        </g>
      </g>
    </g>
    <g
       inkscape:label="au'"
       transform="translate(43.332596,21.361161)"
       id="g79"
       style="fill:#008000">
      <g
         fill="#000000"
         fill-opacity="1"
         id="g78"
         transform="matrix(0.352778,0,0,0.352778,-0.873963,-0.694223)"
         style="fill:#008000">
        <g
           id="g77"
           transform="translate(1.993,10.759)"
           style="fill:#008000">
          <path
             d="M 3.59375,-1.421875 C 3.53125,-1.21875 3.53125,-1.1875 3.375,-0.96875 3.109375,-0.640625 2.578125,-0.125 2.015625,-0.125 1.53125,-0.125 1.25,-0.5625 1.25,-1.265625 c 0,-0.65625 0.375,-2 0.609375,-2.5 0.40625,-0.84375 0.96875,-1.265625 1.421875,-1.265625 0.796875,0 0.953125,0.984375 0.953125,1.078125 0,0.015625 -0.03125,0.15625 -0.046875,0.1875 z m 0.765625,-3.0625 c -0.125,-0.3125 -0.453125,-0.78125 -1.078125,-0.78125 -1.34375,0 -2.796875,1.734375 -2.796875,3.515625 0,1.171875 0.6875,1.875 1.5,1.875 0.65625,0 1.21875,-0.515625 1.546875,-0.90625 0.125,0.703125 0.6875,0.90625 1.046875,0.90625 0.359375,0 0.640625,-0.21875 0.859375,-0.65625 0.1875,-0.40625 0.359375,-1.125 0.359375,-1.171875 0,-0.0625 -0.046875,-0.109375 -0.125,-0.109375 C 5.5625,-1.8125 5.5625,-1.75 5.515625,-1.578125 5.328125,-0.875 5.109375,-0.125 4.609375,-0.125 4.265625,-0.125 4.25,-0.4375 4.25,-0.671875 c 0,-0.265625 0.03125,-0.40625 0.140625,-0.875 C 4.46875,-1.84375 4.53125,-2.109375 4.625,-2.453125 5.0625,-4.25 5.171875,-4.671875 5.171875,-4.75 c 0,-0.15625 -0.125,-0.296875 -0.3125,-0.296875 -0.375,0 -0.46875,0.421875 -0.5,0.5625 z m 0,0"
             id="path6"
             style="fill:#008000" />
        </g>
      </g>
      <g
         fill="#000000"
         fill-opacity="1"
         id="g5"
         transform="matrix(0.352778,0,0,0.352778,-0.873963,-0.694223)"
         style="fill:#008000">
        <g
           id="use4"
           transform="translate(8.1370001,6.421)"
           style="fill:#008000">
          <path
             d="M 2.109375,-3.78125 C 2.15625,-3.875 2.1875,-3.9375 2.1875,-4.015625 c 0,-0.265625 -0.25,-0.4375 -0.46875,-0.4375 -0.3125,0 -0.40625,0.28125 -0.4375,0.390625 L 0.265625,-0.625 c -0.03125,0.09375 -0.03125,0.109375 -0.03125,0.125 0,0.0625 0.046875,0.078125 0.125,0.109375 0.15625,0.0625 0.171875,0.0625 0.1875,0.0625 0.015625,0 0.0625,0 0.125,-0.140625 z m 0,0"
             id="path78"
             style="fill:#008000" />
        </g>
      </g>
      <g
         fill="#000000"
         fill-opacity="1"
         id="g6"
         transform="matrix(0.352778,0,0,0.352778,-0.873963,-0.694223)"
         style="fill:#008000">
        <g
           id="use5"
           transform="translate(8.1370001,13.714)"
           style="fill:#008000">
          <path
             d="m 2.65625,-3.421875 v 0.265625 c 0.546875,0 0.609375,0.046875 0.609375,0.4375 v 1.390625 c 0,0.6875 -0.40625,1.1875 -1.015625,1.1875 -0.6875,0 -0.71875,-0.34375 -0.71875,-0.75 v -2.625 l -1.203125,0.09375 v 0.265625 c 0.609375,0 0.609375,0.015625 0.609375,0.71875 v 1.203125 c 0,0.578125 0,1.3125 1.265625,1.3125 0.75,0 1.046875,-0.578125 1.078125,-0.640625 H 3.296875 V 0.078125 L 4.484375,0 V -0.265625 C 3.9375,-0.265625 3.875,-0.3125 3.875,-0.703125 v -2.8125 z m 0,0"
             id="path8"
             style="fill:#008000" />
        </g>
      </g>
    </g>
    <g
       inkscape:label="al'"
       transform="translate(103.78989,19.310639)"
       id="g86"
       style="fill:#008000">
      <g
         fill="#000000"
         fill-opacity="1"
         id="g81"
         transform="matrix(0.352778,0,0,0.352778,-0.873963,-0.69387)"
         style="fill:#008000">
        <g
           id="g80"
           transform="translate(1.993,10.758)"
           style="fill:#008000">
          <path
             d="M 3.59375,-1.421875 C 3.53125,-1.21875 3.53125,-1.1875 3.375,-0.96875 3.109375,-0.640625 2.578125,-0.125 2.015625,-0.125 1.53125,-0.125 1.25,-0.5625 1.25,-1.265625 c 0,-0.65625 0.375,-2 0.609375,-2.5 0.40625,-0.84375 0.96875,-1.265625 1.421875,-1.265625 0.796875,0 0.953125,0.984375 0.953125,1.078125 0,0.015625 -0.03125,0.15625 -0.046875,0.1875 z m 0.765625,-3.0625 c -0.125,-0.3125 -0.453125,-0.78125 -1.078125,-0.78125 -1.34375,0 -2.796875,1.734375 -2.796875,3.515625 0,1.171875 0.6875,1.875 1.5,1.875 0.65625,0 1.21875,-0.515625 1.546875,-0.90625 0.125,0.703125 0.6875,0.90625 1.046875,0.90625 0.359375,0 0.640625,-0.21875 0.859375,-0.65625 0.1875,-0.40625 0.359375,-1.125 0.359375,-1.171875 0,-0.0625 -0.046875,-0.109375 -0.125,-0.109375 C 5.5625,-1.8125 5.5625,-1.75 5.515625,-1.578125 5.328125,-0.875 5.109375,-0.125 4.609375,-0.125 4.265625,-0.125 4.25,-0.4375 4.25,-0.671875 c 0,-0.265625 0.03125,-0.40625 0.140625,-0.875 C 4.46875,-1.84375 4.53125,-2.109375 4.625,-2.453125 5.0625,-4.25 5.171875,-4.671875 5.171875,-4.75 c 0,-0.15625 -0.125,-0.296875 -0.3125,-0.296875 -0.375,0 -0.46875,0.421875 -0.5,0.5625 z m 0,0"
             id="path80"
             style="fill:#008000" />
        </g>
      </g>
      <g
         fill="#000000"
         fill-opacity="1"
         id="g83"
         transform="matrix(0.352778,0,0,0.352778,-0.873963,-0.69387)"
         style="fill:#008000">
        <g
           id="g82"
           transform="translate(8.1370001,6.4200001)"
           style="fill:#008000">
          <path
             d="M 2.109375,-3.78125 C 2.15625,-3.875 2.1875,-3.9375 2.1875,-4.015625 c 0,-0.265625 -0.25,-0.4375 -0.46875,-0.4375 -0.3125,0 -0.40625,0.28125 -0.4375,0.390625 L 0.265625,-0.625 c -0.03125,0.09375 -0.03125,0.109375 -0.03125,0.125 0,0.0625 0.046875,0.078125 0.125,0.109375 0.15625,0.0625 0.171875,0.0625 0.1875,0.0625 0.015625,0 0.0625,0 0.125,-0.140625 z m 0,0"
             id="path81"
             style="fill:#008000" />
        </g>
      </g>
      <g
         fill="#000000"
         fill-opacity="1"
         id="g85"
         transform="matrix(0.352778,0,0,0.352778,-0.873963,-0.69387)"
         style="fill:#008000">
        <g
           id="g84"
           transform="translate(8.1370001,13.867)"
           style="fill:#008000">
          <path
             d="m 1.515625,-5.53125 -1.1875,0.09375 v 0.265625 c 0.546875,0 0.609375,0.046875 0.609375,0.4375 V -0.625 c 0,0.359375 -0.09375,0.359375 -0.609375,0.359375 V 0 c 0.3125,-0.03125 0.765625,-0.03125 0.90625,-0.03125 0.15625,0 0.578125,0 0.890625,0.03125 v -0.265625 c -0.5,0 -0.609375,0 -0.609375,-0.359375 z m 0,0"
             id="path83"
             style="fill:#008000" />
        </g>
      </g>
    </g>
    <g
       inkscape:label="alphal"
       transform="translate(76.802388,31.249962)"
       id="g91">
      <g
         fill="#000000"
         fill-opacity="1"
         id="g88"
         transform="matrix(0.352778,0,0,0.352778,-0.873963,-0.661238)">
        <g
           id="g87"
           transform="translate(1.993,7.1399999)">
          <path
             d="m 5.53125,-3.03125 c 0,-1.15625 -0.65625,-2.234375 -1.921875,-2.234375 -1.5625,0 -3.125,1.703125 -3.125,3.40625 0,1.03125 0.640625,1.984375 1.859375,1.984375 0.734375,0 1.625,-0.296875 2.46875,-1.015625 C 4.984375,-0.21875 5.359375,0.125 5.875,0.125 c 0.640625,0 0.96875,-0.671875 0.96875,-0.828125 0,-0.109375 -0.09375,-0.109375 -0.125,-0.109375 -0.09375,0 -0.109375,0.03125 -0.140625,0.125 C 6.46875,-0.375 6.1875,-0.125 5.90625,-0.125 c -0.375,0 -0.375,-0.765625 -0.375,-1.484375 1.21875,-1.46875 1.515625,-2.96875 1.515625,-2.984375 0,-0.109375 -0.109375,-0.109375 -0.140625,-0.109375 -0.109375,0 -0.109375,0.046875 -0.171875,0.25 -0.140625,0.53125 -0.453125,1.46875 -1.203125,2.4375 z m -0.75,1.859375 c -1.046875,0.9375 -2,1.046875 -2.421875,1.046875 -0.84375,0 -1.078125,-0.75 -1.078125,-1.3125 0,-0.515625 0.265625,-1.734375 0.625,-2.390625 0.5,-0.828125 1.171875,-1.203125 1.703125,-1.203125 1.15625,0 1.15625,1.515625 1.15625,2.515625 0,0.296875 -0.015625,0.609375 -0.015625,0.90625 0,0.25 0.015625,0.3125 0.03125,0.4375 z m 0,0"
             id="path87" />
        </g>
      </g>
      <g
         fill="#000000"
         fill-opacity="1"
         id="g90"
         transform="matrix(0.352778,0,0,0.352778,-0.873963,-0.661238)">
        <g
           id="g89"
           transform="translate(9.4379997,8.9329996)">
          <path
             d="m 1.515625,-5.53125 -1.1875,0.09375 v 0.265625 c 0.546875,0 0.609375,0.046875 0.609375,0.4375 V -0.625 c 0,0.359375 -0.09375,0.359375 -0.609375,0.359375 V 0 c 0.3125,-0.03125 0.765625,-0.03125 0.90625,-0.03125 0.15625,0 0.578125,0 0.890625,0.03125 v -0.265625 c -0.5,0 -0.609375,0 -0.609375,-0.359375 z m 0,0"
             id="path88" />
        </g>
      </g>
    </g>
    <g
       inkscape:label="alphau"
       transform="translate(67.8727,32.242151)"
       id="g96">
      <g
         fill="#000000"
         fill-opacity="1"
         id="g93"
         transform="matrix(0.352778,0,0,0.352778,-0.873963,-0.661238)">
        <g
           id="g92"
           transform="translate(1.993,7.1399999)">
          <path
             d="m 5.53125,-3.03125 c 0,-1.15625 -0.65625,-2.234375 -1.921875,-2.234375 -1.5625,0 -3.125,1.703125 -3.125,3.40625 0,1.03125 0.640625,1.984375 1.859375,1.984375 0.734375,0 1.625,-0.296875 2.46875,-1.015625 C 4.984375,-0.21875 5.359375,0.125 5.875,0.125 c 0.640625,0 0.96875,-0.671875 0.96875,-0.828125 0,-0.109375 -0.09375,-0.109375 -0.125,-0.109375 -0.09375,0 -0.109375,0.03125 -0.140625,0.125 C 6.46875,-0.375 6.1875,-0.125 5.90625,-0.125 c -0.375,0 -0.375,-0.765625 -0.375,-1.484375 1.21875,-1.46875 1.515625,-2.96875 1.515625,-2.984375 0,-0.109375 -0.109375,-0.109375 -0.140625,-0.109375 -0.109375,0 -0.109375,0.046875 -0.171875,0.25 -0.140625,0.53125 -0.453125,1.46875 -1.203125,2.4375 z m -0.75,1.859375 c -1.046875,0.9375 -2,1.046875 -2.421875,1.046875 -0.84375,0 -1.078125,-0.75 -1.078125,-1.3125 0,-0.515625 0.265625,-1.734375 0.625,-2.390625 0.5,-0.828125 1.171875,-1.203125 1.703125,-1.203125 1.15625,0 1.15625,1.515625 1.15625,2.515625 0,0.296875 -0.015625,0.609375 -0.015625,0.90625 0,0.25 0.015625,0.3125 0.03125,0.4375 z m 0,0"
             id="path92" />
        </g>
      </g>
      <g
         fill="#000000"
         fill-opacity="1"
         id="g95"
         transform="matrix(0.352778,0,0,0.352778,-0.873963,-0.661238)">
        <g
           id="g94"
           transform="translate(9.4379997,8.9329996)">
          <path
             d="m 2.65625,-3.421875 v 0.265625 c 0.546875,0 0.609375,0.046875 0.609375,0.4375 v 1.390625 c 0,0.6875 -0.40625,1.1875 -1.015625,1.1875 -0.6875,0 -0.71875,-0.34375 -0.71875,-0.75 v -2.625 l -1.203125,0.09375 v 0.265625 c 0.609375,0 0.609375,0.015625 0.609375,0.71875 v 1.203125 c 0,0.578125 0,1.3125 1.265625,1.3125 0.75,0 1.046875,-0.578125 1.078125,-0.640625 H 3.296875 V 0.078125 L 4.484375,0 V -0.265625 C 3.9375,-0.265625 3.875,-0.3125 3.875,-0.703125 v -2.8125 z m 0,0"
             id="path93" />
        </g>
      </g>
    </g>
    <g
       inkscape:label="delta"
       transform="translate(68.501086,22.419495)"
       id="g101"
       style="fill:#008000">
      <g
         fill="#000000"
         fill-opacity="1"
         id="g98"
         transform="matrix(0.352778,0,0,0.352778,-0.873963,-0.638395)"
         style="fill:#008000">
        <g
           id="g97"
           transform="translate(1.993,10.294)"
           style="fill:#008000">
          <path
             d="m 3.109375,-5.21875 c -1.53125,0.375 -2.625,1.96875 -2.625,3.359375 0,1.28125 0.859375,2 1.8125,2 1.40625,0 2.359375,-1.9375 2.359375,-3.515625 0,-1.078125 -0.5,-1.734375 -0.796875,-2.140625 C 3.421875,-6.078125 2.703125,-7 2.703125,-7.5625 c 0,-0.203125 0.15625,-0.5625 0.671875,-0.5625 0.375,0 0.609375,0.125 0.96875,0.328125 0.109375,0.078125 0.375,0.234375 0.53125,0.234375 0.25,0 0.4375,-0.25 0.4375,-0.453125 0,-0.21875 -0.1875,-0.25 -0.609375,-0.34375 -0.5625,-0.125 -0.71875,-0.125 -0.921875,-0.125 -0.203125,0 -1.375,0 -1.375,1.21875 0,0.578125 0.296875,1.265625 0.703125,2.046875 z m 0.125,0.234375 C 3.6875,-4.046875 3.875,-3.6875 3.875,-2.90625 c 0,0.9375 -0.5,2.8125 -1.5625,2.8125 -0.46875,0 -1.140625,-0.3125 -1.140625,-1.421875 0,-0.78125 0.4375,-3.03125 2.0625,-3.46875 z m 0,0"
             id="path97"
             style="fill:#008000" />
        </g>
      </g>
      <g
         fill="#000000"
         fill-opacity="1"
         id="g100"
         transform="matrix(0.352778,0,0,0.352778,-0.873963,-0.638395)"
         style="fill:#008000">
        <g
           id="g99"
           transform="translate(7.177,12.087)"
           style="fill:#008000">
          <path
             d="m 3.46875,-5.234375 c 0,-0.125 0,-0.296875 -0.171875,-0.296875 -0.1875,0 -0.1875,0.171875 -0.1875,0.3125 v 4.859375 H 0.78125 c -0.140625,0 -0.3125,0 -0.3125,0.171875 C 0.46875,0 0.640625,0 0.78125,0 H 5.8125 c 0.125,0 0.296875,0 0.296875,-0.1875 0,-0.171875 -0.171875,-0.171875 -0.296875,-0.171875 H 3.46875 Z m 0,0"
             id="path98"
             style="fill:#008000" />
        </g>
      </g>
    </g>
    <g
       inkscape:label="deltas"
       transform="translate(75.363715,17.838894)"
       id="g108"
       style="fill:#008000">
      <g
         fill="#000000"
         fill-opacity="1"
         id="g103"
         transform="matrix(0.352778,0,0,0.352778,-0.896011,-0.575292)"
         style="fill:#008000">
        <g
           id="g102"
           transform="translate(1.993,10.162)"
           style="fill:#008000">
          <path
             d="M 5.15625,-8.3125 C 5.0625,-8.484375 5.046875,-8.53125 4.875,-8.53125 c -0.171875,0 -0.203125,0.046875 -0.28125,0.21875 l -4,8.078125 C 0.578125,-0.203125 0.546875,-0.125 0.546875,-0.078125 0.546875,-0.015625 0.5625,0 0.796875,0 H 8.9375 c 0.25,0 0.25,-0.015625 0.25,-0.078125 0,-0.046875 -0.015625,-0.125 -0.046875,-0.15625 z M 4.5,-7.4375 7.765625,-0.828125 H 1.25 Z m 0,0"
             id="path102"
             style="fill:#008000" />
        </g>
      </g>
      <g
         fill="#000000"
         fill-opacity="1"
         id="g105"
         transform="matrix(0.352778,0,0,0.352778,-0.896011,-0.575292)"
         style="fill:#008000">
        <g
           id="g104"
           transform="translate(11.083,10.162)"
           style="fill:#008000">
          <path
             d="m 2.71875,-2.390625 c 0.203125,0.03125 0.53125,0.109375 0.609375,0.125 0.15625,0.046875 0.6875,0.234375 0.6875,0.8125 0,0.359375 -0.328125,1.328125 -1.71875,1.328125 -0.25,0 -1.15625,-0.03125 -1.390625,-0.6875 C 1.390625,-0.75 1.625,-1.125 1.625,-1.390625 c 0,-0.25 -0.171875,-0.375 -0.40625,-0.375 -0.265625,0 -0.609375,0.203125 -0.609375,0.734375 0,0.703125 0.71875,1.15625 1.671875,1.15625 1.8125,0 2.359375,-1.34375 2.359375,-1.96875 0,-0.171875 0,-0.515625 -0.390625,-0.890625 C 3.953125,-3.03125 3.671875,-3.078125 3.03125,-3.21875 2.703125,-3.28125 2.1875,-3.390625 2.1875,-3.9375 c 0,-0.234375 0.21875,-1.09375 1.34375,-1.09375 0.515625,0 1,0.1875 1.125,0.625 -0.53125,0 -0.5625,0.453125 -0.5625,0.46875 0,0.25 0.234375,0.3125 0.34375,0.3125 0.171875,0 0.5,-0.125 0.5,-0.625 0,-0.5 -0.453125,-1.015625 -1.390625,-1.015625 -1.5625,0 -1.984375,1.21875 -1.984375,1.71875 0,0.90625 0.890625,1.09375 1.15625,1.15625 z m 0,0"
             id="path103"
             style="fill:#008000" />
        </g>
      </g>
      <g
         fill="#000000"
         fill-opacity="1"
         id="g107"
         transform="matrix(0.352778,0,0,0.352778,-0.896011,-0.575292)"
         style="fill:#008000">
        <g
           id="g106"
           transform="translate(16.597,11.955)"
           style="fill:#008000">
          <path
             d="m 3.46875,-5.234375 c 0,-0.125 0,-0.296875 -0.171875,-0.296875 -0.1875,0 -0.1875,0.171875 -0.1875,0.3125 v 4.859375 H 0.78125 c -0.140625,0 -0.3125,0 -0.3125,0.171875 C 0.46875,0 0.640625,0 0.78125,0 H 5.8125 c 0.125,0 0.296875,0 0.296875,-0.1875 0,-0.171875 -0.171875,-0.171875 -0.296875,-0.171875 H 3.46875 Z m 0,0"
             id="path105"
             style="fill:#008000" />
        </g>
      </g>
    </g>
  </g>
  <g
     id="g48"
     inkscape:label="future"
     transform="matrix(1.7923173,0,0,1.7923173,-37.003747,-54.492354)"
     inkscape:groupmode="layer">
    <path
       style="fill:none;stroke:#008000;stroke-width:0.278968;stroke-linecap:butt;stroke-linejoin:miter;stroke-dasharray:none;stroke-opacity:1;marker-mid:url(#Dot)"
       d="M 31.063798,54.809917 62.695089,34.411209 100.78024,53.254412"
       id="path22" />
    <path
       style="fill:none;stroke:#008000;stroke-width:0.167381;stroke-linecap:butt;stroke-linejoin:miter;stroke-dasharray:none;stroke-opacity:1;marker-start:url(#marker3)"
       d="m 62.695089,34.411209 0.415907,9.991347"
       id="path23" />
  </g>
  <g
     id="g42"
     inkscape:label="current"
     transform="matrix(1.79232,0,0,1.79232,-37.0037,-54.4923)"
     inkscape:groupmode="layer">
    <path
       style="fill:none;stroke:#000000;stroke-width:0.278968;stroke-linecap:butt;stroke-linejoin:miter;stroke-dasharray:none;stroke-opacity:1;marker-start:url(#ThreeDots);marker-mid:url(#marker7);marker-end:url(#ThreeDots)"
       d="m 28.008683,56.01478 3.055115,-1.204839 32.047198,-10.407361 37.669244,8.851856 3.21621,1.360981"
       id="path1"
       sodipodi:nodetypes="ccccc" />
    <path
       style="fill:none;stroke:#000000;stroke-width:0.167381;stroke-linecap:butt;stroke-linejoin:miter;stroke-dasharray:none;stroke-opacity:1;marker-end:url(#ThreeDots)"
       d="M 63.110996,44.40258 62.770053,59.617501"
       id="path2"
       sodipodi:nodetypes="cc" />
    <path
       style="fill:none;stroke:#000000;stroke-width:0.167381;stroke-linecap:butt;stroke-linejoin:miter;stroke-dasharray:none;stroke-opacity:1;marker-end:url(#marker61)"
       d="m 31.10406,54.991589 1.197686,5.983425"
       id="path55"
       sodipodi:nodetypes="cc" />
    <path
       style="fill:none;stroke:#000000;stroke-width:0.167381;stroke-linecap:butt;stroke-linejoin:miter;stroke-dasharray:none;stroke-opacity:1;marker-end:url(#marker59)"
       d="m 100.78024,53.254436 -2.332105,8.176005"
       id="path56"
       sodipodi:nodetypes="cc" />
  </g>
</svg>
