<?xml version="1.0" encoding="UTF-8" standalone="no"?>
<!-- Created with Inkscape (http://www.inkscape.org/) -->

<svg
   width="160mm"
   height="120mm"
   viewBox="0 0 160 120"
   version="1.1"
   id="svg5"
   inkscape:version="1.3 (0e150ed6c4, 2023-07-21)"
   sodipodi:docname="particle_graph_depth_first.svg"
   xmlns:inkscape="http://www.inkscape.org/namespaces/inkscape"
   xmlns:sodipodi="http://sodipodi.sourceforge.net/DTD/sodipodi-0.dtd"
   xmlns="http://www.w3.org/2000/svg"
   xmlns:svg="http://www.w3.org/2000/svg"
   xmlns:rdf="http://www.w3.org/1999/02/22-rdf-syntax-ns#"
   xmlns:cc="http://creativecommons.org/ns#">
  <sodipodi:namedview
     id="namedview7"
     pagecolor="#ffffff"
     bordercolor="#666666"
     borderopacity="1.0"
     inkscape:showpageshadow="2"
     inkscape:pageopacity="0.0"
     inkscape:pagecheckerboard="0"
     inkscape:deskcolor="#d1d1d1"
     inkscape:document-units="mm"
     showgrid="true"
     inkscape:zoom="3.3037845"
     inkscape:cx="218.23458"
     inkscape:cy="246.68679"
     inkscape:window-width="3840"
     inkscape:window-height="2082"
     inkscape:window-x="0"
     inkscape:window-y="0"
     inkscape:window-maximized="1"
     inkscape:current-layer="layer5">
    <inkscape:grid
       type="xygrid"
       id="grid132"
       units="mm"
       spacingx="0.99999999"
       spacingy="0.99999999"
       dotted="false"
       originx="0"
       originy="0"
       visible="true" />
  </sodipodi:namedview>
  <defs
     id="defs2">
    <marker
       style="overflow:visible"
       id="Arrow1L"
       refX="5"
       refY="0"
       orient="auto-start-reverse"
       inkscape:stockid="Arrow1L"
       markerWidth="8.75"
       markerHeight="5"
       viewBox="0 0 8.75 5"
       inkscape:isstock="true"
       inkscape:collect="always"
       preserveAspectRatio="xMidYMid">
      <path
         style="fill:context-stroke;fill-rule:evenodd;stroke:none"
         d="M 0,0 5,-5 -12.5,0 5,5 Z"
         id="arrow1L"
         transform="scale(-0.5)" />
    </marker>
  </defs>
  <g
     inkscape:label="Ebene 1"
     inkscape:groupmode="layer"
     id="layer1" />
  <metadata
     id="metadata136">
    <rdf:RDF>
      <cc:License
         rdf:about="http://creativecommons.org/publicdomain/zero/1.0/">
        <cc:permits
           rdf:resource="http://creativecommons.org/ns#Reproduction" />
        <cc:permits
           rdf:resource="http://creativecommons.org/ns#Distribution" />
        <cc:permits
           rdf:resource="http://creativecommons.org/ns#DerivativeWorks" />
      </cc:License>
      <cc:Work
         rdf:about="">
        <cc:license
           rdf:resource="http://creativecommons.org/publicdomain/zero/1.0/" />
      </cc:Work>
    </rdf:RDF>
  </metadata>
  <g
     inkscape:groupmode="layer"
     id="layer3"
     inkscape:label="particles"
     style="stroke:#000000;fill:#e3e2db">
    <path
       id="path9103"
       style="fill:#e3e2db;stroke:#000000;stroke-width:0.5;stroke-dasharray:none"
       d="m 92.458411,34.340958 c -5.092998,0.01385 -10.696237,3.76475 -14.299385,8.361246 l -3.765145,8.331275 c -0.04429,0.490009 -0.0493,0.970734 -0.01189,1.438155 0.23296,2.910595 1.497051,5.62083 3.47524,7.95662 l 9.277471,6.3469 c 1.369717,0.525883 2.802396,0.946819 4.273641,1.24902 3.737894,0.76778 7.590018,0.82631 10.687717,-0.13126 L 108.3303,61.2866 c 0.20754,-1.182831 0.21473,-2.527321 -0.016,-4.046782 -0.36938,-2.432357 -0.93491,-4.960217 -1.6955,-7.409883 -0.37747,-0.76313 -0.75403,-1.524105 -1.14308,-2.308903 -0.38924,-0.785153 -0.79106,-1.594572 -1.22009,-2.454114 -0.42899,-0.859542 -0.88481,-1.769258 -1.38182,-2.755904 -0.49669,-0.986014 -1.03455,-2.04869 -1.62729,-3.214274 -2.282594,-2.794295 -5.076856,-4.625483 -8.379332,-4.748548 -0.13582,-0.0051 -0.272157,-0.0076 -0.408761,-0.0072 z" />
    <path
       id="path8989"
       style="fill:#e3e2db;stroke:#000000;stroke-width:0.5;stroke-dasharray:none"
       d="m 135.52555,2.721699 c -6.04996,0.01966 -11.3642,6.465301 -13.31081,11.442712 -2.16667,5.540076 -0.73426,8.62641 0.56999,11.823051 l 8.15247,6.577377 c 3.47429,1.862418 7.37582,3.302125 10.29395,3.302124 6.28763,-2e-6 12.73514,-11.62985 12.73514,-18.994707 0,-7.364857 -9.48317,-12.191862 -16.3649,-13.899409 -0.69892,-0.173423 -1.39193,-0.25337 -2.07584,-0.251148 z" />
    <path
       id="path8992"
       style="fill:#e3e2db;stroke:#000000;stroke-width:0.5;stroke-dasharray:none"
       d="m 111.64484,23.386071 c -8.86934,-0.04623 -13.179805,6.183101 -10.97194,13.77952 0.19807,0.681494 0.38829,1.321286 0.5736,1.930632 0.59284,1.165762 1.13054,2.228648 1.6273,3.214791 0.49701,0.986648 0.95281,1.89636 1.38182,2.755904 0.42903,0.859544 0.83085,1.668961 1.22009,2.454114 0.38905,0.7848 0.76561,1.545773 1.14308,2.308903 0.46041,0.387273 0.95878,0.737802 1.5105,1.082104 3.34203,2.085578 6.41753,4.123701 11.33109,4.080371 4.91358,-0.04333 12.98804,-5.967186 12.99404,-13.335103 0.003,-3.355604 -0.11914,-6.399393 -1.51619,-9.091952 l -8.15144,-6.575826 c -1.26177,-0.530074 -2.68592,-1.033399 -4.29741,-1.508435 -2.50825,-0.739379 -4.79777,-1.084355 -6.84454,-1.095023 z" />
    <path
       id="path9116"
       style="fill:#e3e2db;stroke:#000000;stroke-width:0.5;stroke-dasharray:none"
       d="m 62.700538,28.018863 c -7.176427,0 -15.528252,5.229727 -15.528252,12.59458 0,0.04306 7.35e-4,0.08963 10e-4,0.133842 0.08272,0.172804 0.163735,0.345169 0.242879,0.517281 0.07937,0.172601 0.157202,0.344865 0.233061,0.516764 0.07586,0.1719 0.14977,0.343505 0.222209,0.514698 0.07244,0.171192 0.143282,0.341633 0.21239,0.512113 0.06911,0.17048 0.136704,0.340802 0.202571,0.510563 0.06587,0.169761 0.130037,0.338943 0.192753,0.50798 0.06272,0.169037 0.123796,0.338121 0.183452,0.506429 0.05965,0.168307 0.117982,0.336273 0.174666,0.503845 0.05668,0.167571 0.111562,0.334431 0.165365,0.501261 0.0538,0.166831 0.106085,0.333628 0.157096,0.499711 0.05101,0.166084 0.101035,0.331796 0.149345,0.497128 0.04831,0.165331 0.09538,0.32997 0.141077,0.494543 0.0457,0.164573 0.08963,0.328667 0.132808,0.492476 0.04318,0.16381 0.08535,0.32737 0.126091,0.49041 0.04074,0.16304 0.08045,0.325561 0.118855,0.487825 0.0384,0.162265 0.07547,0.324275 0.111621,0.485759 0.0723,0.322968 0.140295,0.644471 0.204122,0.964282 0.06383,0.319811 0.123759,0.637855 0.179834,0.954464 0.05608,0.316608 0.108054,0.631801 0.157097,0.945162 0.04904,0.31336 0.09473,0.625275 0.137459,0.935343 0.04273,0.310068 0.08276,0.618279 0.119889,0.925008 0.03713,0.30673 0.07162,0.611844 0.10387,0.91519 0.03225,0.303346 0.06234,0.604937 0.09043,0.904854 0.02806,0.299573 0.05392,0.597378 0.07855,0.893486 0.0394,0.0571 0.07878,0.113542 0.118856,0.168982 2.744448,3.796474 9.12208,1.923913 12.654007,1.923913 3.83536,0 7.774472,-3.18969 10.610722,-7.283793 l 3.765661,-8.332825 c 0.220737,-1.011652 0.338998,-1.993199 0.338998,-2.915067 10e-7,-7.364853 -8.622094,-11.766207 -15.798519,-11.766207 z" />
    <path
       id="path9133"
       style="fill:#e3e2db;stroke:#000000;stroke-width:0.5;stroke-dasharray:none"
       d="m 42.683672,39.815042 c -2.20796,-0.0074 -4.434956,0.573432 -6.794418,0.960148 l -13.670483,4.628658 c -3.313534,2.535954 -5.766054,5.962299 -6.012036,9.670728 -0.481446,7.258264 7.780098,14.735428 15.414046,15.210438 l 8.89403,-1.75906 c 4.397429,-1.510438 7.895266,-3.890978 9.512082,-8.855793 0.395033,-1.213048 0.720983,-2.360586 0.983919,-3.446301 -0.02463,-0.296108 -0.05048,-0.593913 -0.07855,-0.893486 -0.0281,-0.299917 -0.05818,-0.60151 -0.09043,-0.904854 -0.03225,-0.303346 -0.06674,-0.60846 -0.10387,-0.91519 -0.03713,-0.306729 -0.07716,-0.61494 -0.119889,-0.925008 -0.04273,-0.310068 -0.08842,-0.621985 -0.137459,-0.935343 -0.04904,-0.313361 -0.101021,-0.628556 -0.157097,-0.945162 -0.05607,-0.316609 -0.116006,-0.634653 -0.179834,-0.954464 -0.06383,-0.319811 -0.131823,-0.641316 -0.204122,-0.964282 -0.0723,-0.322968 -0.148991,-0.647507 -0.230476,-0.973584 -0.08149,-0.32608 -0.167504,-0.65374 -0.258899,-0.982886 -0.0914,-0.329146 -0.188399,-0.659503 -0.290422,-0.991671 -0.05101,-0.166083 -0.103293,-0.33288 -0.157096,-0.499711 -0.0538,-0.16683 -0.108681,-0.33369 -0.165365,-0.501261 -0.05668,-0.167572 -0.115011,-0.33554 -0.174666,-0.503845 -0.05966,-0.168308 -0.120735,-0.337394 -0.183452,-0.506429 -0.06272,-0.169037 -0.126885,-0.338219 -0.192753,-0.50798 -0.06587,-0.169761 -0.133463,-0.340083 -0.202571,-0.510563 -0.06911,-0.17048 -0.139952,-0.340923 -0.21239,-0.512113 -0.07244,-0.171193 -0.14635,-0.342798 -0.222209,-0.514698 -0.07586,-0.171899 -0.153692,-0.344163 -0.233061,-0.516764 -0.07937,-0.172601 -0.160426,-0.345536 -0.243396,-0.518831 -1.329662,-0.633708 -2.86181,-0.925218 -4.489131,-0.930693 z" />
    <path
       id="path9126"
       style="fill:#e3e2db;stroke:#000000;stroke-width:0.5;stroke-dasharray:none"
       d="m 23.040426,13.389782 c -8.587606,0 -13.8229295,4.407704 -13.8229285,13.571781 0,9.164077 3.1256455,15.388886 11.3176555,17.965312 0.579764,0.182339 1.139954,0.340486 1.682068,0.47749 L 35.889254,40.77519 c 2.0309,-4.041554 2.180508,-9.644496 2.180229,-14.049788 -5.8e-4,-9.164078 -6.441454,-13.33562 -15.029057,-13.33562 z" />
    <path
       id="path9143"
       style="fill:#e3e2db;stroke:#000000;stroke-width:0.5;stroke-dasharray:none"
       d="m 40.514812,68.525954 -8.896615,1.75958 c -3.740324,2.34123 -6.237862,6.56797 -6.237862,11.3931 2e-6,7.36485 5.817613,16.38143 12.994039,16.38143 2.309191,0 5.073586,-0.82395 7.761283,-2.18694 l 9.373588,-8.10752 c 1.013829,-1.63933 1.615405,-3.3491 1.615406,-5.02812 0,-6.66845 -9.488324,-13.06204 -16.609839,-14.21153 z" />
    <path
       id="path9146"
       style="fill:#e3e2db;stroke:#000000;stroke-width:0.5;stroke-dasharray:none"
       d="m 64.048259,85.752804 c -2.547474,0 -5.627237,0.73616 -8.540564,2.01435 l -9.371004,8.10493 c -0.428445,0.98679 -0.666626,2.01849 -0.666626,3.08198 1e-6,7.364846 5.817612,13.335106 12.994039,13.335106 7.176427,0 20.991998,2.19358 20.992,-5.17126 0,-0.42477 -0.02764,-0.87192 -0.08062,-1.33687 L 75.542131,95.429734 c -3.05304,-5.21262 -7.4415,-9.67693 -11.493872,-9.67693 z" />
    <path
       id="path9086"
       style="fill:#e3e2db;stroke:#000000;stroke-width:0.5;stroke-dasharray:none"
       d="m 88.590429,81.023384 c -0.533434,0 -1.055822,0.0333 -1.566311,0.0977 l -7.615556,4.06538 c -2.143562,2.39414 -3.512025,5.6263 -3.812171,9.17205 -0.03052,0.36053 -0.04792,0.718 -0.05374,1.07229 l 3.833358,10.351816 c 3.150246,3.51853 7.785623,5.29669 12.134659,4.04368 6.895919,-1.9868 11.501102,-13.845236 11.501102,-21.210066 1e-5,-7.36486 -7.244909,-7.59282 -14.421337,-7.59282 z" />
    <path
       id="path9096"
       style="fill:#e3e2db;stroke:#000000;stroke-width:0.5;stroke-dasharray:none"
       d="m 74.925114,60.015876 c -0.469065,0.0037 -0.886662,0.04786 -1.241784,0.125057 -9.212555,2.002626 -13.840303,8.054981 -10.928015,14.820281 2.912025,6.7647 7.771666,11.8096 14.856974,10.66964 0.528758,-0.0851 1.136781,-0.23571 1.795756,-0.44442 l 7.616073,-4.06539 c 3.059133,-2.43759 5.135638,-5.5925 3.58221,-8.8253 -1.047716,-2.18037 -2.227943,-4.00401 -3.471623,-5.52059 l -9.27747,-6.347417 C 76.758757,60.131598 75.76036,60.00924 74.925114,60.015876 Z" />
    <path
       id="path9274"
       style="fill:#e3e2db;stroke:#000000;stroke-width:0.5;stroke-dasharray:none"
       d="m 115.9407,59.487743 c -2.82334,0.02089 -5.41928,0.681019 -7.61142,1.79989 l -6.23321,6.605281 c -0.67513,1.76739 -0.86339,3.69898 -0.44804,5.67666 1.51378,7.2076 11.60229,15.04766 18.7787,15.04766 0.80904,0 1.60074,-0.076 2.36885,-0.22118 0.24496,-0.1799 0.48839,-0.36262 0.73019,-0.54777 0.24209,-0.18538 0.48254,-0.37356 0.7214,-0.5643 0.23886,-0.19075 0.47602,-0.38412 0.71158,-0.58033 0.23557,-0.19621 0.46956,-0.39509 0.70177,-0.59686 0.23221,-0.20177 0.46264,-0.40648 0.69143,-0.61392 0.22879,-0.20744 0.45579,-0.41776 0.6811,-0.63097 0.22531,-0.21321 0.44899,-0.42946 0.67076,-0.64854 0.22176,-0.21908 0.44174,-0.44105 0.6599,-0.66611 0.21817,-0.22505 0.43456,-0.45307 0.64906,-0.68419 0.2145,-0.23113 0.42692,-0.4655 0.63769,-0.7028 0.21077,-0.23731 0.41985,-0.47782 0.62683,-0.72141 0.20699,-0.24358 0.41182,-0.49004 0.61495,-0.74 0.20313,-0.24997 0.40436,-0.5032 0.60358,-0.75965 0.19922,-0.25644 0.39645,-0.51624 0.5917,-0.77928 0.19525,-0.26303 0.38859,-0.52919 0.57981,-0.79891 0.19121,-0.26973 0.38029,-0.54308 0.5674,-0.81959 0.12217,-0.73452 0.18604,-1.48956 0.18604,-2.25981 0,-1.43199 -0.23249,-2.8293 -0.65836,-4.16254 L 125.63985,62.1713 c -1.66065,-1.047549 -3.48752,-1.816077 -5.37745,-2.226737 -1.48158,-0.321929 -2.92923,-0.467123 -4.3217,-0.45682 z" />
    <path
       id="path9063"
       style="fill:#e3e2db;stroke:#000000;stroke-width:0.5;stroke-dasharray:none"
       d="m 138.4184,76.254164 c -1.78222,0.0139 -3.52279,0.48064 -5.1847,1.28881 -0.18677,0.27598 -0.37552,0.54882 -0.56637,0.81804 -0.19122,0.26972 -0.38456,0.53588 -0.57981,0.79891 -0.19525,0.26304 -0.39248,0.52284 -0.5917,0.77928 -0.19922,0.25645 -0.40045,0.50968 -0.60358,0.75965 -0.20313,0.24996 -0.40796,0.49642 -0.61495,0.74 -0.20698,0.24359 -0.41606,0.4841 -0.62683,0.72141 -0.21077,0.2373 -0.42319,0.47167 -0.63769,0.7028 -0.2145,0.23112 -0.43089,0.45914 -0.64906,0.68419 -0.21816,0.22506 -0.43814,0.44703 -0.6599,0.66611 -0.22177,0.21908 -0.44545,0.43533 -0.67076,0.64854 -0.22531,0.21321 -0.45231,0.42353 -0.6811,0.63097 -0.22879,0.20744 -0.45922,0.41215 -0.69143,0.61392 -0.23221,0.20177 -0.4662,0.40065 -0.70177,0.59686 -0.23556,0.19621 -0.47272,0.38958 -0.71158,0.58033 -0.23886,0.19074 -0.47931,0.37892 -0.7214,0.5643 -0.24191,0.18524 -0.48563,0.36779 -0.73071,0.54777 -2.918,5.23134 -4.42355,11.00344 -3.64319,14.787206 1.48761,7.21305 9.03395,11.96516 16.21038,11.96516 7.17644,0 12.99404,-5.97025 12.99404,-13.3351 0,-7.364826 1.94881,-20.443546 -4.27932,-24.008866 -1.90241,-1.08904 -3.8029,-1.56479 -5.65857,-1.55029 z" />
    <path
       id="path9281"
       style="stroke-width:0.5"
       d="m 20.066964,81.092624 c -8.733541,0 -17.4030715,13.39105 -17.4030715,21.501006 10e-7,8.10998 7.080134,14.73878 15.8135045,14.68438 9.3769,-0.0584 17.613959,-6.73793 15.813505,-14.68438 -0.438566,-1.93564 -0.991511,-4.212106 -1.70429,-6.545846 l -7.13548,-12.93616 c -1.541701,-1.26132 -3.322435,-2.019 -5.384168,-2.019 z" />
    <path
       id="path9271"
       style="stroke-width:0.5"
       d="m 145.47533,44.059744 c -7.54803,-1e-6 -19.83651,11.456241 -19.83651,18.110523 l 7.12308,8.948287 c 3.41775,1.83331 7.51193,2.93368 10.97452,2.93368 7.54803,0 13.59969,-6.458102 13.59969,-13.112383 0,-6.654282 -4.31275,-16.880108 -11.86078,-16.880107 z" />
  </g>
  <g
     id="g7956"
     inkscape:label="skeleton"
     inkscape:groupmode="layer">
    <path
       style="fill:none;stroke:#000000;stroke-width:0.264583px;stroke-linecap:butt;stroke-linejoin:miter;stroke-opacity:1"
       d="m 91.421821,51.473695 26.003019,22.578538 16.37034,21.648899"
       id="path7867"
       sodipodi:nodetypes="ccc" />
    <path
       style="fill:none;stroke:#000000;stroke-width:0.264583px;stroke-linecap:butt;stroke-linejoin:miter;stroke-opacity:1"
       d="M 137.53632,19.294309 116.27881,39.189451 91.421821,51.473695"
       id="path7498"
       sodipodi:nodetypes="ccc" />
    <path
       style="fill:none;stroke:#000000;stroke-width:0.264583px;stroke-linecap:butt;stroke-linejoin:miter;stroke-opacity:1"
       d="M 91.421821,51.473695 62.835653,43.398703 33.59993,55.050756 23.64349,29.402303"
       id="path7871"
       sodipodi:nodetypes="cccc" />
    <path
       style="fill:none;stroke:#000000;stroke-width:0.264583px;stroke-linecap:butt;stroke-linejoin:miter;stroke-opacity:1"
       d="M 41.252493,83.29103 62.463084,99.174141 89.276791,95.626249 76.512299,72.903425 91.42177,51.474696"
       id="path7500"
       sodipodi:nodetypes="ccccc" />
    <path
       style="fill:none;stroke:#000000;stroke-width:0.264583px;stroke-linecap:butt;stroke-linejoin:miter;stroke-opacity:1"
       d="M 41.252493,83.29103 33.59993,55.050756"
       id="path7873"
       sodipodi:nodetypes="cc" />
    <path
       style="fill:#e3e2db;stroke:#000000;stroke-width:0.3;stroke-dasharray:none"
       d="M 117.42484,74.052233 141.48747,59.055989"
       id="path9203"
       sodipodi:nodetypes="cc" />
    <path
       style="fill:#e3e2db;stroke:#000000;stroke-width:0.3;stroke-dasharray:none"
       d="M 41.252493,83.29103 18.601445,99.185483"
       id="path9205"
       sodipodi:nodetypes="cc" />
  </g>
  <g
     inkscape:groupmode="layer"
     id="layer5"
     inkscape:label="graph edges">
    <path
       style="fill:#decd87;stroke:#000000;stroke-width:0.499999;stroke-dasharray:none;marker-end:url(#Arrow1L)"
       d="m 95.197148,54.751829 18.452362,16.02227"
       id="path10036" />
    <path
       style="fill:#decd87;stroke:#000000;stroke-width:0.499999;stroke-dasharray:none;marker-end:url(#Arrow1L)"
       d="m 121.66815,71.407726 15.57601,-9.707235"
       id="path10110" />
    <path
       style="fill:#decd87;stroke:#000000;stroke-width:0.499999;stroke-dasharray:none;marker-end:url(#Arrow1L)"
       d="m 120.44053,78.040327 10.33896,13.672711"
       id="path10112" />
    <path
       style="fill:#decd87;stroke:#000000;stroke-width:0.499999;stroke-dasharray:none;marker-end:url(#Arrow1L)"
       d="M 95.904231,49.2585 111.7964,41.404645"
       id="path10114" />
    <path
       style="fill:#decd87;stroke:#000000;stroke-width:0.499999;stroke-dasharray:none;marker-end:url(#Arrow1L)"
       d="M 119.92933,35.772889 133.8858,22.710874"
       id="path10116" />
    <path
       style="fill:#decd87;stroke:#ff0000;stroke-width:0.499999;stroke-dasharray:none;marker-end:url(#Arrow1L)"
       d="M 79.367945,68.799127 88.566661,55.578218"
       id="path10118" />
    <path
       style="fill:#decd87;stroke:#000000;stroke-width:0.499999;stroke-dasharray:none;marker-end:url(#Arrow1L)"
       d="M 86.610199,50.114512 67.647271,44.757884"
       id="path10120" />
    <path
       style="fill:#decd87;stroke:#000000;stroke-width:0.499999;stroke-dasharray:none;marker-end:url(#Arrow1L)"
       d="M 58.190987,45.249859 38.244594,53.199601"
       id="path10122" />
    <path
       style="fill:#decd87;stroke:#000000;stroke-width:0.499999;stroke-dasharray:none;marker-end:url(#Arrow1L)"
       d="M 31.790552,50.389678 25.452866,34.063379"
       id="path10124" />
    <path
       style="fill:#decd87;stroke:#000000;stroke-width:0.499999;stroke-dasharray:none;marker-end:url(#Arrow1L)"
       d="M 86.828015,91.267041 78.961074,77.262637"
       id="path10126" />
    <path
       style="fill:#decd87;stroke:#000000;stroke-width:0.499999;stroke-dasharray:none;marker-end:url(#Arrow1L)"
       d="M 67.419807,98.518283 84.320072,96.282104"
       id="path10128" />
    <path
       style="fill:#decd87;stroke:#000000;stroke-width:0.499999;stroke-dasharray:none;marker-end:url(#Arrow1L)"
       d="m 34.907643,59.876618 5.037135,18.588548"
       id="path10130" />
    <path
       style="fill:#decd87;stroke:#000000;stroke-width:0.499999;stroke-dasharray:none;marker-end:url(#Arrow1L)"
       d="M 37.15966,86.163009 22.694276,96.313505"
       id="path10132" />
    <path
       style="fill:#decd87;stroke:#000000;stroke-width:0.499999;stroke-dasharray:none;marker-end:url(#Arrow1L)"
       d="m 45.254671,86.287977 13.206235,9.889217"
       id="path10134" />
  </g>
  <g
     inkscape:groupmode="layer"
     id="layer4"
     inkscape:label="graph nodes"
     style="display:inline">
    <circle
       style="fill:#decd87;stroke:#000000;stroke-width:0.499999;stroke-dasharray:none"
       id="path9687"
       cx="91.421822"
       cy="51.473694"
       r="5" />
    <circle
       style="fill:#decd87;stroke:#000000;stroke-width:0.499999;stroke-dasharray:none"
       id="path9687-9"
       cx="116.27881"
       cy="39.189449"
       r="5" />
    <circle
       style="fill:#decd87;stroke:#000000;stroke-width:0.499999;stroke-dasharray:none"
       id="path9687-3"
       cx="137.53632"
       cy="19.29431"
       r="5" />
    <circle
       style="fill:#decd87;stroke:#000000;stroke-width:0.499999;stroke-dasharray:none"
       id="path9687-6"
       cx="141.48747"
       cy="59.055988"
       r="5" />
    <circle
       style="fill:#decd87;stroke:#000000;stroke-width:0.499999;stroke-dasharray:none"
       id="path9687-0"
       cx="117.42484"
       cy="74.052231"
       r="5" />
    <circle
       style="fill:#decd87;stroke:#000000;stroke-width:0.499999;stroke-dasharray:none"
       id="path9687-62"
       cx="133.79518"
       cy="95.701134"
       r="5" />
    <circle
       style="fill:#decd87;stroke:#000000;stroke-width:0.499999;stroke-dasharray:none"
       id="path9687-61"
       cx="89.276794"
       cy="95.626251"
       r="5" />
    <circle
       style="fill:#decd87;stroke:#000000;stroke-width:0.499999;stroke-dasharray:none"
       id="path9687-8"
       cx="76.512299"
       cy="72.903427"
       r="5" />
    <circle
       style="fill:#decd87;stroke:#000000;stroke-width:0.499999;stroke-dasharray:none"
       id="path9687-7"
       cx="62.463085"
       cy="99.174141"
       r="5" />
    <circle
       style="fill:#decd87;stroke:#000000;stroke-width:0.499999;stroke-dasharray:none"
       id="path9687-92"
       cx="41.252495"
       cy="83.291031"
       r="5" />
    <circle
       style="fill:#decd87;stroke:#000000;stroke-width:0.499999;stroke-dasharray:none"
       id="path9687-02"
       cx="18.601444"
       cy="99.185486"
       r="5" />
    <circle
       style="fill:#decd87;stroke:#000000;stroke-width:0.499999;stroke-dasharray:none"
       id="path9687-37"
       cx="33.59993"
       cy="55.050755"
       r="5" />
    <circle
       style="fill:#decd87;stroke:#000000;stroke-width:0.499999;stroke-dasharray:none"
       id="path9687-5"
       cx="23.64349"
       cy="29.402304"
       r="5" />
    <circle
       style="fill:#decd87;stroke:#000000;stroke-width:0.499999;stroke-dasharray:none"
       id="path9687-922"
       cx="62.835651"
       cy="43.398705"
       r="5" />
    <text
       xml:space="preserve"
       style="font-size:4.23333px;line-height:1.25;font-family:sans-serif;stroke-width:0.264583"
       x="90.152649"
       y="52.987812"
       id="text10234"><tspan
         sodipodi:role="line"
         style="font-style:normal;font-variant:normal;font-weight:normal;font-stretch:normal;font-family:'Noto Mono';-inkscape-font-specification:'Noto Mono';stroke-width:0.264583"
         x="90.152649"
         y="52.987812"
         id="tspan10236">0</tspan></text>
    <text
       xml:space="preserve"
       style="font-size:4.23333px;line-height:1.25;font-family:sans-serif;display:inline;stroke-width:0.264583"
       x="115.06596"
       y="40.709213"
       id="text10234-4"><tspan
         sodipodi:role="line"
         style="font-style:normal;font-variant:normal;font-weight:normal;font-stretch:normal;font-family:'Noto Mono';-inkscape-font-specification:'Noto Mono';stroke-width:0.264583"
         x="115.06596"
         y="40.709213"
         id="tspan10236-4">4</tspan></text>
    <text
       xml:space="preserve"
       style="font-size:4.23333px;line-height:1.25;font-family:sans-serif;display:inline;stroke-width:0.264583"
       x="136.31288"
       y="20.784441"
       id="text10234-47"><tspan
         sodipodi:role="line"
         style="font-style:normal;font-variant:normal;font-weight:normal;font-stretch:normal;font-family:'Noto Mono';-inkscape-font-specification:'Noto Mono';stroke-width:0.264583"
         x="136.31288"
         y="20.784441"
         id="tspan10236-6">5</tspan></text>
    <text
       xml:space="preserve"
       style="font-size:4.23333px;line-height:1.25;font-family:sans-serif;display:inline;stroke-width:0.264583"
       x="140.30214"
       y="60.567287"
       id="text10234-3"><tspan
         sodipodi:role="line"
         style="font-style:normal;font-variant:normal;font-weight:normal;font-stretch:normal;font-family:'Noto Mono';-inkscape-font-specification:'Noto Mono';stroke-width:0.264583"
         x="140.30214"
         y="60.567287"
         id="tspan10236-1">3</tspan></text>
    <text
       xml:space="preserve"
       style="font-size:4.23333px;line-height:1.25;font-family:sans-serif;display:inline;stroke-width:0.264583"
       x="132.69844"
       y="97.313385"
       id="text10234-9"><tspan
         sodipodi:role="line"
         style="font-style:normal;font-variant:normal;font-weight:normal;font-stretch:normal;font-family:'Noto Mono';-inkscape-font-specification:'Noto Mono';stroke-width:0.264583"
         x="132.69844"
         y="97.313385"
         id="tspan10236-62">2</tspan></text>
    <text
       xml:space="preserve"
       style="font-size:4.23333px;line-height:1.25;font-family:sans-serif;display:inline;stroke-width:0.264583"
       x="116.4057"
       y="75.690834"
       id="text10234-7"><tspan
         sodipodi:role="line"
         style="font-style:normal;font-variant:normal;font-weight:normal;font-stretch:normal;font-family:'Noto Mono';-inkscape-font-specification:'Noto Mono';stroke-width:0.264583"
         x="116.4057"
         y="75.690834"
         id="tspan10236-5">1</tspan></text>
    <text
       xml:space="preserve"
       style="font-size:4.23333px;line-height:1.25;font-family:sans-serif;display:inline;stroke-width:0.264583"
       x="86.777016"
       y="97.158714"
       id="text10234-1"><tspan
         sodipodi:role="line"
         style="font-style:normal;font-variant:normal;font-weight:normal;font-stretch:normal;font-family:'Noto Mono';-inkscape-font-specification:'Noto Mono';stroke-width:0.264583"
         x="86.777016"
         y="97.158714"
         id="tspan10236-7">12</tspan></text>
    <text
       xml:space="preserve"
       style="font-size:4.23333px;line-height:1.25;font-family:sans-serif;display:inline;stroke-width:0.264583"
       x="74.023102"
       y="74.414726"
       id="text10234-8"><tspan
         sodipodi:role="line"
         style="font-style:normal;font-variant:normal;font-weight:normal;font-stretch:normal;font-family:'Noto Mono';-inkscape-font-specification:'Noto Mono';stroke-width:0.264583"
         x="74.023102"
         y="74.414726"
         id="tspan10236-57">13</tspan></text>
    <text
       xml:space="preserve"
       style="font-size:4.23333px;line-height:1.25;font-family:sans-serif;display:inline;stroke-width:0.264583"
       x="60.312553"
       y="100.68544"
       id="text10234-41"><tspan
         sodipodi:role="line"
         style="font-style:normal;font-variant:normal;font-weight:normal;font-stretch:normal;font-family:'Noto Mono';-inkscape-font-specification:'Noto Mono';stroke-width:0.264583"
         x="60.312553"
         y="100.68544"
         id="tspan10236-8">11</tspan></text>
    <text
       xml:space="preserve"
       style="font-size:4.23333px;line-height:1.25;font-family:sans-serif;display:inline;stroke-width:0.264583"
       x="40.173679"
       y="84.836929"
       id="text10234-5"><tspan
         sodipodi:role="line"
         style="font-style:normal;font-variant:normal;font-weight:normal;font-stretch:normal;font-family:'Noto Mono';-inkscape-font-specification:'Noto Mono';stroke-width:0.264583"
         x="40.173679"
         y="84.836929"
         id="tspan10236-9">9</tspan></text>
    <text
       xml:space="preserve"
       style="font-size:4.23333px;line-height:1.25;font-family:sans-serif;display:inline;stroke-width:0.264583"
       x="16.009153"
       y="100.82169"
       id="text10234-75"><tspan
         sodipodi:role="line"
         style="font-style:normal;font-variant:normal;font-weight:normal;font-stretch:normal;font-family:'Noto Mono';-inkscape-font-specification:'Noto Mono';stroke-width:0.264583"
         x="16.009153"
         y="100.82169"
         id="tspan10236-3">10</tspan></text>
    <text
       xml:space="preserve"
       style="font-size:4.23333px;line-height:1.25;font-family:sans-serif;display:inline;stroke-width:0.264583"
       x="32.272095"
       y="56.527454"
       id="text10234-88"><tspan
         sodipodi:role="line"
         style="font-style:normal;font-variant:normal;font-weight:normal;font-stretch:normal;font-family:'Noto Mono';-inkscape-font-specification:'Noto Mono';stroke-width:0.264583"
         x="32.272095"
         y="56.527454"
         id="tspan10236-31">7</tspan></text>
    <text
       xml:space="preserve"
       style="font-size:4.23333px;line-height:1.25;font-family:sans-serif;display:inline;stroke-width:0.264583"
       x="61.607986"
       y="44.910004"
       id="text10234-89"><tspan
         sodipodi:role="line"
         style="font-style:normal;font-variant:normal;font-weight:normal;font-stretch:normal;font-family:'Noto Mono';-inkscape-font-specification:'Noto Mono';stroke-width:0.264583"
         x="61.607986"
         y="44.910004"
         id="tspan10236-64">6</tspan></text>
    <text
       xml:space="preserve"
       style="font-size:4.23333px;line-height:1.25;font-family:sans-serif;display:inline;stroke-width:0.264583"
       x="22.434875"
       y="30.913601"
       id="text10234-33"><tspan
         sodipodi:role="line"
         style="font-style:normal;font-variant:normal;font-weight:normal;font-stretch:normal;font-family:'Noto Mono';-inkscape-font-specification:'Noto Mono';stroke-width:0.264583"
         x="22.434875"
         y="30.913601"
         id="tspan10236-38">8</tspan></text>
  </g>
</svg>
