<?xml version="1.0" encoding="utf-8" standalone="no"?>
<!DOCTYPE svg PUBLIC "-//W3C//DTD SVG 1.1//EN"
  "http://www.w3.org/Graphics/SVG/1.1/DTD/svg11.dtd">
<svg xmlns:xlink="http://www.w3.org/1999/xlink" width="432pt" height="288pt" viewBox="0 0 432 288" xmlns="http://www.w3.org/2000/svg" version="1.1">
 <metadata>
  <rdf:RDF xmlns:dc="http://purl.org/dc/elements/1.1/" xmlns:cc="http://creativecommons.org/ns#" xmlns:rdf="http://www.w3.org/1999/02/22-rdf-syntax-ns#">
   <cc:Work>
    <dc:type rdf:resource="http://purl.org/dc/dcmitype/StillImage"/>
    <dc:date>2023-10-11T13:28:46.766251</dc:date>
    <dc:format>image/svg+xml</dc:format>
    <dc:creator>
     <cc:Agent>
      <dc:title>Matplotlib v3.7.2, https://matplotlib.org/</dc:title>
     </cc:Agent>
    </dc:creator>
   </cc:Work>
  </rdf:RDF>
 </metadata>
 <defs>
  <style type="text/css">*{stroke-linejoin: round; stroke-linecap: butt}</style>
 </defs>
 <g id="figure_1">
  <g id="patch_1">
   <path d="M 0 288 
L 432 288 
L 432 0 
L 0 0 
z
" style="fill: #ffffff"/>
  </g>
  <g id="axes_1">
   <g id="patch_2">
    <path d="M 56.864158 248.488647 
L 421.2 248.488647 
L 421.2 10.8 
L 56.864158 10.8 
z
" style="fill: #ffffff"/>
   </g>
   <g id="matplotlib.axis_1">
    <g id="xtick_1">
     <g id="line2d_1">
      <path d="M 73.424878 248.488647 
L 73.424878 10.8 
" clip-path="url(#pced17e7787)" style="fill: none; stroke: #b0b0b0; stroke-width: 0.8; stroke-linecap: square"/>
     </g>
     <g id="line2d_2">
      <defs>
       <path id="m4a59b6bad8" d="M 0 0 
L 0 3.5 
" style="stroke: #000000; stroke-width: 0.8"/>
      </defs>
      <g>
       <use xlink:href="#m4a59b6bad8" x="73.424878" y="248.488647" style="stroke: #000000; stroke-width: 0.8"/>
      </g>
     </g>
     <g id="text_1">
      <!-- $\mathdefault{−0.100}$ -->
      <g transform="translate(58.204131 262.407145) scale(0.1 -0.1)">
       <defs>
        <path id="CMSY10-0" d="M 4218 1472 
C 4326 1472 4442 1472 4442 1600 
C 4442 1728 4326 1728 4218 1728 
L 755 1728 
C 646 1728 531 1728 531 1600 
C 531 1472 646 1472 755 1472 
L 4218 1472 
z
" transform="scale(0.015625)"/>
        <path id="CMR17-30" d="M 2688 2025 
C 2688 2416 2682 3080 2413 3591 
C 2176 4039 1798 4198 1466 4198 
C 1158 4198 768 4058 525 3597 
C 269 3118 243 2524 243 2025 
C 243 1661 250 1106 448 619 
C 723 -39 1216 -128 1466 -128 
C 1760 -128 2208 -7 2470 600 
C 2662 1042 2688 1559 2688 2025 
z
M 1466 -26 
C 1056 -26 813 325 723 812 
C 653 1188 653 1738 653 2096 
C 653 2588 653 2997 736 3387 
C 858 3929 1216 4096 1466 4096 
C 1728 4096 2067 3923 2189 3400 
C 2272 3036 2278 2607 2278 2096 
C 2278 1680 2278 1169 2202 792 
C 2067 95 1690 -26 1466 -26 
z
" transform="scale(0.015625)"/>
        <path id="CMMI12-3a" d="M 1178 307 
C 1178 492 1024 619 870 619 
C 685 619 557 466 557 313 
C 557 128 710 0 864 0 
C 1050 0 1178 153 1178 307 
z
" transform="scale(0.015625)"/>
        <path id="CMR17-31" d="M 1702 4058 
C 1702 4192 1696 4192 1606 4192 
C 1357 3916 979 3827 621 3827 
C 602 3827 570 3827 563 3808 
C 557 3795 557 3782 557 3648 
C 755 3648 1088 3686 1344 3839 
L 1344 461 
C 1344 236 1331 160 781 160 
L 589 160 
L 589 0 
C 896 0 1216 0 1523 0 
C 1830 0 2150 0 2458 0 
L 2458 160 
L 2266 160 
C 1715 160 1702 230 1702 458 
L 1702 4058 
z
" transform="scale(0.015625)"/>
       </defs>
       <use xlink:href="#CMSY10-0" transform="scale(0.996264)"/>
       <use xlink:href="#CMR17-30" transform="translate(77.487468 0) scale(0.996264)"/>
       <use xlink:href="#CMMI12-3a" transform="translate(123.177945 0) scale(0.996264)"/>
       <use xlink:href="#CMR17-31" transform="translate(150.275122 0) scale(0.996264)"/>
       <use xlink:href="#CMR17-30" transform="translate(195.965599 0) scale(0.996264)"/>
       <use xlink:href="#CMR17-30" transform="translate(241.656076 0) scale(0.996264)"/>
      </g>
     </g>
    </g>
    <g id="xtick_2">
     <g id="line2d_3">
      <path d="M 114.826678 248.488647 
L 114.826678 10.8 
" clip-path="url(#pced17e7787)" style="fill: none; stroke: #b0b0b0; stroke-width: 0.8; stroke-linecap: square"/>
     </g>
     <g id="line2d_4">
      <g>
       <use xlink:href="#m4a59b6bad8" x="114.826678" y="248.488647" style="stroke: #000000; stroke-width: 0.8"/>
      </g>
     </g>
     <g id="text_2">
      <!-- $\mathdefault{−0.075}$ -->
      <g transform="translate(99.605931 262.407145) scale(0.1 -0.1)">
       <defs>
        <path id="CMR17-37" d="M 2886 3941 
L 2886 4081 
L 1382 4081 
C 634 4081 621 4165 595 4288 
L 480 4288 
L 294 3094 
L 410 3094 
C 429 3215 474 3540 550 3661 
C 589 3712 1062 3712 1171 3712 
L 2579 3712 
L 1869 2661 
C 1395 1954 1069 999 1069 165 
C 1069 89 1069 -128 1299 -128 
C 1530 -128 1530 89 1530 171 
L 1530 465 
C 1530 1508 1709 2196 2003 2636 
L 2886 3941 
z
" transform="scale(0.015625)"/>
        <path id="CMR17-35" d="M 730 3692 
C 794 3666 1056 3584 1325 3584 
C 1920 3584 2246 3911 2432 4100 
C 2432 4157 2432 4192 2394 4192 
C 2387 4192 2374 4192 2323 4163 
C 2099 4058 1837 3973 1517 3973 
C 1325 3973 1037 3999 723 4139 
C 653 4171 640 4171 634 4171 
C 602 4171 595 4164 595 4037 
L 595 2203 
C 595 2089 595 2057 659 2057 
C 691 2057 704 2070 736 2114 
C 941 2401 1222 2522 1542 2522 
C 1766 2522 2246 2382 2246 1289 
C 2246 1085 2246 715 2054 421 
C 1894 159 1645 25 1370 25 
C 947 25 518 320 403 814 
C 429 807 480 795 506 795 
C 589 795 749 840 749 1038 
C 749 1210 627 1280 506 1280 
C 358 1280 262 1190 262 1011 
C 262 454 704 -128 1382 -128 
C 2042 -128 2669 440 2669 1264 
C 2669 2030 2170 2624 1549 2624 
C 1222 2624 947 2503 730 2274 
L 730 3692 
z
" transform="scale(0.015625)"/>
       </defs>
       <use xlink:href="#CMSY10-0" transform="scale(0.996264)"/>
       <use xlink:href="#CMR17-30" transform="translate(77.487468 0) scale(0.996264)"/>
       <use xlink:href="#CMMI12-3a" transform="translate(123.177945 0) scale(0.996264)"/>
       <use xlink:href="#CMR17-30" transform="translate(150.275122 0) scale(0.996264)"/>
       <use xlink:href="#CMR17-37" transform="translate(195.965599 0) scale(0.996264)"/>
       <use xlink:href="#CMR17-35" transform="translate(241.656076 0) scale(0.996264)"/>
      </g>
     </g>
    </g>
    <g id="xtick_3">
     <g id="line2d_5">
      <path d="M 156.228478 248.488647 
L 156.228478 10.8 
" clip-path="url(#pced17e7787)" style="fill: none; stroke: #b0b0b0; stroke-width: 0.8; stroke-linecap: square"/>
     </g>
     <g id="line2d_6">
      <g>
       <use xlink:href="#m4a59b6bad8" x="156.228478" y="248.488647" style="stroke: #000000; stroke-width: 0.8"/>
      </g>
     </g>
     <g id="text_3">
      <!-- $\mathdefault{−0.050}$ -->
      <g transform="translate(141.007732 262.407145) scale(0.1 -0.1)">
       <use xlink:href="#CMSY10-0" transform="scale(0.996264)"/>
       <use xlink:href="#CMR17-30" transform="translate(77.487468 0) scale(0.996264)"/>
       <use xlink:href="#CMMI12-3a" transform="translate(123.177945 0) scale(0.996264)"/>
       <use xlink:href="#CMR17-30" transform="translate(150.275122 0) scale(0.996264)"/>
       <use xlink:href="#CMR17-35" transform="translate(195.965599 0) scale(0.996264)"/>
       <use xlink:href="#CMR17-30" transform="translate(241.656076 0) scale(0.996264)"/>
      </g>
     </g>
    </g>
    <g id="xtick_4">
     <g id="line2d_7">
      <path d="M 197.630279 248.488647 
L 197.630279 10.8 
" clip-path="url(#pced17e7787)" style="fill: none; stroke: #b0b0b0; stroke-width: 0.8; stroke-linecap: square"/>
     </g>
     <g id="line2d_8">
      <g>
       <use xlink:href="#m4a59b6bad8" x="197.630279" y="248.488647" style="stroke: #000000; stroke-width: 0.8"/>
      </g>
     </g>
     <g id="text_4">
      <!-- $\mathdefault{−0.025}$ -->
      <g transform="translate(182.409532 262.407145) scale(0.1 -0.1)">
       <defs>
        <path id="CMR17-32" d="M 2669 989 
L 2554 989 
C 2490 536 2438 459 2413 420 
C 2381 369 1920 369 1830 369 
L 602 369 
C 832 619 1280 1072 1824 1597 
C 2214 1967 2669 2402 2669 3035 
C 2669 3790 2067 4224 1395 4224 
C 691 4224 262 3604 262 3030 
C 262 2780 448 2748 525 2748 
C 589 2748 781 2787 781 3010 
C 781 3207 614 3264 525 3264 
C 486 3264 448 3258 422 3245 
C 544 3790 915 4058 1306 4058 
C 1862 4058 2227 3617 2227 3035 
C 2227 2479 1901 2000 1536 1584 
L 262 146 
L 262 0 
L 2515 0 
L 2669 989 
z
" transform="scale(0.015625)"/>
       </defs>
       <use xlink:href="#CMSY10-0" transform="scale(0.996264)"/>
       <use xlink:href="#CMR17-30" transform="translate(77.487468 0) scale(0.996264)"/>
       <use xlink:href="#CMMI12-3a" transform="translate(123.177945 0) scale(0.996264)"/>
       <use xlink:href="#CMR17-30" transform="translate(150.275122 0) scale(0.996264)"/>
       <use xlink:href="#CMR17-32" transform="translate(195.965599 0) scale(0.996264)"/>
       <use xlink:href="#CMR17-35" transform="translate(241.656076 0) scale(0.996264)"/>
      </g>
     </g>
    </g>
    <g id="xtick_5">
     <g id="line2d_9">
      <path d="M 239.032079 248.488647 
L 239.032079 10.8 
" clip-path="url(#pced17e7787)" style="fill: none; stroke: #b0b0b0; stroke-width: 0.8; stroke-linecap: square"/>
     </g>
     <g id="line2d_10">
      <g>
       <use xlink:href="#m4a59b6bad8" x="239.032079" y="248.488647" style="stroke: #000000; stroke-width: 0.8"/>
      </g>
     </g>
     <g id="text_5">
      <!-- $\mathdefault{0.000}$ -->
      <g transform="translate(227.685704 262.407145) scale(0.1 -0.1)">
       <use xlink:href="#CMR17-30" transform="scale(0.996264)"/>
       <use xlink:href="#CMMI12-3a" transform="translate(45.690477 0) scale(0.996264)"/>
       <use xlink:href="#CMR17-30" transform="translate(72.787654 0) scale(0.996264)"/>
       <use xlink:href="#CMR17-30" transform="translate(118.478131 0) scale(0.996264)"/>
       <use xlink:href="#CMR17-30" transform="translate(164.168608 0) scale(0.996264)"/>
      </g>
     </g>
    </g>
    <g id="xtick_6">
     <g id="line2d_11">
      <path d="M 280.433879 248.488647 
L 280.433879 10.8 
" clip-path="url(#pced17e7787)" style="fill: none; stroke: #b0b0b0; stroke-width: 0.8; stroke-linecap: square"/>
     </g>
     <g id="line2d_12">
      <g>
       <use xlink:href="#m4a59b6bad8" x="280.433879" y="248.488647" style="stroke: #000000; stroke-width: 0.8"/>
      </g>
     </g>
     <g id="text_6">
      <!-- $\mathdefault{0.025}$ -->
      <g transform="translate(269.087504 262.407145) scale(0.1 -0.1)">
       <use xlink:href="#CMR17-30" transform="scale(0.996264)"/>
       <use xlink:href="#CMMI12-3a" transform="translate(45.690477 0) scale(0.996264)"/>
       <use xlink:href="#CMR17-30" transform="translate(72.787654 0) scale(0.996264)"/>
       <use xlink:href="#CMR17-32" transform="translate(118.478131 0) scale(0.996264)"/>
       <use xlink:href="#CMR17-35" transform="translate(164.168608 0) scale(0.996264)"/>
      </g>
     </g>
    </g>
    <g id="xtick_7">
     <g id="line2d_13">
      <path d="M 321.835679 248.488647 
L 321.835679 10.8 
" clip-path="url(#pced17e7787)" style="fill: none; stroke: #b0b0b0; stroke-width: 0.8; stroke-linecap: square"/>
     </g>
     <g id="line2d_14">
      <g>
       <use xlink:href="#m4a59b6bad8" x="321.835679" y="248.488647" style="stroke: #000000; stroke-width: 0.8"/>
      </g>
     </g>
     <g id="text_7">
      <!-- $\mathdefault{0.050}$ -->
      <g transform="translate(310.489305 262.407145) scale(0.1 -0.1)">
       <use xlink:href="#CMR17-30" transform="scale(0.996264)"/>
       <use xlink:href="#CMMI12-3a" transform="translate(45.690477 0) scale(0.996264)"/>
       <use xlink:href="#CMR17-30" transform="translate(72.787654 0) scale(0.996264)"/>
       <use xlink:href="#CMR17-35" transform="translate(118.478131 0) scale(0.996264)"/>
       <use xlink:href="#CMR17-30" transform="translate(164.168608 0) scale(0.996264)"/>
      </g>
     </g>
    </g>
    <g id="xtick_8">
     <g id="line2d_15">
      <path d="M 363.23748 248.488647 
L 363.23748 10.8 
" clip-path="url(#pced17e7787)" style="fill: none; stroke: #b0b0b0; stroke-width: 0.8; stroke-linecap: square"/>
     </g>
     <g id="line2d_16">
      <g>
       <use xlink:href="#m4a59b6bad8" x="363.23748" y="248.488647" style="stroke: #000000; stroke-width: 0.8"/>
      </g>
     </g>
     <g id="text_8">
      <!-- $\mathdefault{0.075}$ -->
      <g transform="translate(351.891105 262.407145) scale(0.1 -0.1)">
       <use xlink:href="#CMR17-30" transform="scale(0.996264)"/>
       <use xlink:href="#CMMI12-3a" transform="translate(45.690477 0) scale(0.996264)"/>
       <use xlink:href="#CMR17-30" transform="translate(72.787654 0) scale(0.996264)"/>
       <use xlink:href="#CMR17-37" transform="translate(118.478131 0) scale(0.996264)"/>
       <use xlink:href="#CMR17-35" transform="translate(164.168608 0) scale(0.996264)"/>
      </g>
     </g>
    </g>
    <g id="xtick_9">
     <g id="line2d_17">
      <path d="M 404.63928 248.488647 
L 404.63928 10.8 
" clip-path="url(#pced17e7787)" style="fill: none; stroke: #b0b0b0; stroke-width: 0.8; stroke-linecap: square"/>
     </g>
     <g id="line2d_18">
      <g>
       <use xlink:href="#m4a59b6bad8" x="404.63928" y="248.488647" style="stroke: #000000; stroke-width: 0.8"/>
      </g>
     </g>
     <g id="text_9">
      <!-- $\mathdefault{0.100}$ -->
      <g transform="translate(393.292905 262.407145) scale(0.1 -0.1)">
       <use xlink:href="#CMR17-30" transform="scale(0.996264)"/>
       <use xlink:href="#CMMI12-3a" transform="translate(45.690477 0) scale(0.996264)"/>
       <use xlink:href="#CMR17-31" transform="translate(72.787654 0) scale(0.996264)"/>
       <use xlink:href="#CMR17-30" transform="translate(118.478131 0) scale(0.996264)"/>
       <use xlink:href="#CMR17-30" transform="translate(164.168608 0) scale(0.996264)"/>
      </g>
     </g>
    </g>
    <g id="text_10">
     <!-- $\Normal\ShiftStep$ in \unit{\meter} -->
     <g transform="translate(217.837207 275.262822) scale(0.1 -0.1)">
      <defs>
       <path id="CMR17-1" d="M 2598 4403 
C 2547 4512 2522 4512 2470 4512 
C 2394 4512 2387 4499 2342 4409 
L 269 109 
C 262 96 237 38 237 32 
C 237 6 243 0 358 0 
L 4576 0 
C 4691 0 4698 6 4698 32 
C 4698 38 4672 96 4666 109 
L 2598 4403 
z
M 2310 4038 
L 4083 358 
L 531 358 
L 2310 4038 
z
" transform="scale(0.015625)"/>
       <path id="CMMI12-73" d="M 1459 1280 
C 1568 1261 1741 1223 1779 1216 
C 1862 1192 2150 1090 2150 783 
C 2150 586 1971 70 1229 70 
C 1094 70 614 70 486 436 
C 742 404 870 603 870 745 
C 870 880 781 950 653 950 
C 512 950 326 841 326 552 
C 326 173 710 -64 1222 -64 
C 2195 -64 2483 651 2483 984 
C 2483 1079 2483 1258 2278 1462 
C 2118 1616 1965 1648 1619 1718 
C 1446 1756 1171 1814 1171 2101 
C 1171 2229 1286 2689 1894 2689 
C 2163 2689 2426 2589 2490 2368 
C 2208 2368 2195 2125 2195 2119 
C 2195 1984 2317 1946 2374 1946 
C 2464 1946 2643 2015 2643 2281 
C 2643 2545 2400 2816 1901 2816 
C 1062 2816 838 2160 838 1899 
C 838 1414 1312 1312 1459 1280 
z
" transform="scale(0.015625)"/>
       <path id="CMSY10-3f" d="M 2618 4045 
C 2618 4160 2618 4275 2490 4275 
C 2362 4275 2362 4141 2362 4045 
L 2362 256 
L 582 256 
C 486 256 352 256 352 128 
C 352 0 486 0 582 0 
L 4403 0 
C 4512 0 4627 0 4627 128 
C 4627 256 4512 256 4403 256 
L 2618 256 
L 2618 4045 
z
" transform="scale(0.015625)"/>
       <path id="CMR17-69" d="M 992 3909 
C 992 4049 877 4170 730 4170 
C 589 4170 467 4056 467 3909 
C 467 3769 582 3648 730 3648 
C 870 3648 992 3763 992 3909 
z
M 243 2706 
L 243 2541 
C 602 2541 653 2502 653 2197 
L 653 427 
C 653 184 627 153 218 153 
L 218 -13 
C 371 0 646 0 806 0 
C 960 0 1222 0 1370 -13 
L 1370 153 
C 992 153 979 191 979 420 
L 979 2776 
L 243 2706 
z
" transform="scale(0.015625)"/>
       <path id="CMR17-6e" d="M 2656 1933 
C 2656 2259 2592 2790 1837 2790 
C 1331 2790 1069 2400 973 2144 
L 966 2144 
L 966 2790 
L 211 2720 
L 211 2554 
C 589 2554 646 2515 646 2208 
L 646 428 
C 646 184 621 153 211 153 
L 211 -13 
C 365 0 646 0 813 0 
C 979 0 1267 0 1421 -13 
L 1421 153 
C 1011 153 986 178 986 428 
L 986 1658 
C 986 2247 1344 2688 1792 2688 
C 2266 2688 2317 2266 2317 1958 
L 2317 428 
C 2317 184 2291 153 1882 153 
L 1882 -13 
C 2035 0 2317 0 2483 0 
C 2650 0 2938 0 3091 -13 
L 3091 153 
C 2682 153 2656 178 2656 428 
L 2656 1933 
z
" transform="scale(0.015625)"/>
       <path id="CMR17-6d" d="M 4326 1933 
C 4326 2252 4269 2790 3507 2790 
C 3072 2790 2771 2496 2656 2151 
L 2650 2151 
C 2573 2676 2195 2790 1837 2790 
C 1331 2790 1069 2400 973 2144 
L 966 2144 
L 966 2790 
L 211 2720 
L 211 2554 
C 589 2554 646 2515 646 2208 
L 646 428 
C 646 184 621 153 211 153 
L 211 -13 
C 365 0 646 0 813 0 
C 979 0 1267 0 1421 -13 
L 1421 153 
C 1011 153 986 178 986 428 
L 986 1658 
C 986 2247 1344 2688 1792 2688 
C 2266 2688 2317 2266 2317 1958 
L 2317 428 
C 2317 184 2291 153 1882 153 
L 1882 -13 
C 2035 0 2317 0 2483 0 
C 2650 0 2938 0 3091 -13 
L 3091 153 
C 2682 153 2656 178 2656 428 
L 2656 1658 
C 2656 2247 3014 2688 3462 2688 
C 3936 2688 3987 2266 3987 1958 
L 3987 428 
C 3987 184 3962 153 3552 153 
L 3552 -13 
C 3706 0 3987 0 4154 0 
C 4320 0 4608 0 4762 -13 
L 4762 153 
C 4352 153 4326 178 4326 428 
L 4326 1933 
z
" transform="scale(0.015625)"/>
      </defs>
      <use xlink:href="#CMR17-1" transform="scale(0.996264)"/>
      <use xlink:href="#CMMI12-73" transform="translate(71.384788 0) scale(0.996264)"/>
      <use xlink:href="#CMSY10-3f" transform="translate(117.334836 -14.943915) scale(0.697382)"/>
      <use xlink:href="#CMR17-69" transform="translate(202.149927 0) scale(0.996264)"/>
      <use xlink:href="#CMR17-6e" transform="translate(227.020986 0) scale(0.996264)"/>
      <use xlink:href="#CMR17-6d" transform="translate(307.992322 0) scale(0.996264)"/>
     </g>
    </g>
   </g>
   <g id="matplotlib.axis_2">
    <g id="ytick_1">
     <g id="line2d_19">
      <path d="M 56.864158 221.445088 
L 421.2 221.445088 
" clip-path="url(#pced17e7787)" style="fill: none; stroke: #b0b0b0; stroke-width: 0.8; stroke-linecap: square"/>
     </g>
     <g id="line2d_20">
      <defs>
       <path id="me2f327cc68" d="M 0 0 
L -3.5 0 
" style="stroke: #000000; stroke-width: 0.8"/>
      </defs>
      <g>
       <use xlink:href="#me2f327cc68" x="56.864158" y="221.445088" style="stroke: #000000; stroke-width: 0.8"/>
      </g>
     </g>
     <g id="text_11">
      <!-- $\mathdefault{−0.20}$ -->
      <g transform="translate(24.404 224.904337) scale(0.1 -0.1)">
       <use xlink:href="#CMSY10-0" transform="scale(0.996264)"/>
       <use xlink:href="#CMR17-30" transform="translate(77.487468 0) scale(0.996264)"/>
       <use xlink:href="#CMMI12-3a" transform="translate(123.177945 0) scale(0.996264)"/>
       <use xlink:href="#CMR17-32" transform="translate(150.275122 0) scale(0.996264)"/>
       <use xlink:href="#CMR17-30" transform="translate(195.965599 0) scale(0.996264)"/>
      </g>
     </g>
    </g>
    <g id="ytick_2">
     <g id="line2d_21">
      <path d="M 56.864158 193.450967 
L 421.2 193.450967 
" clip-path="url(#pced17e7787)" style="fill: none; stroke: #b0b0b0; stroke-width: 0.8; stroke-linecap: square"/>
     </g>
     <g id="line2d_22">
      <g>
       <use xlink:href="#me2f327cc68" x="56.864158" y="193.450967" style="stroke: #000000; stroke-width: 0.8"/>
      </g>
     </g>
     <g id="text_12">
      <!-- $\mathdefault{−0.15}$ -->
      <g transform="translate(24.404 196.910216) scale(0.1 -0.1)">
       <use xlink:href="#CMSY10-0" transform="scale(0.996264)"/>
       <use xlink:href="#CMR17-30" transform="translate(77.487468 0) scale(0.996264)"/>
       <use xlink:href="#CMMI12-3a" transform="translate(123.177945 0) scale(0.996264)"/>
       <use xlink:href="#CMR17-31" transform="translate(150.275122 0) scale(0.996264)"/>
       <use xlink:href="#CMR17-35" transform="translate(195.965599 0) scale(0.996264)"/>
      </g>
     </g>
    </g>
    <g id="ytick_3">
     <g id="line2d_23">
      <path d="M 56.864158 165.456845 
L 421.2 165.456845 
" clip-path="url(#pced17e7787)" style="fill: none; stroke: #b0b0b0; stroke-width: 0.8; stroke-linecap: square"/>
     </g>
     <g id="line2d_24">
      <g>
       <use xlink:href="#me2f327cc68" x="56.864158" y="165.456845" style="stroke: #000000; stroke-width: 0.8"/>
      </g>
     </g>
     <g id="text_13">
      <!-- $\mathdefault{−0.10}$ -->
      <g transform="translate(24.404 168.916094) scale(0.1 -0.1)">
       <use xlink:href="#CMSY10-0" transform="scale(0.996264)"/>
       <use xlink:href="#CMR17-30" transform="translate(77.487468 0) scale(0.996264)"/>
       <use xlink:href="#CMMI12-3a" transform="translate(123.177945 0) scale(0.996264)"/>
       <use xlink:href="#CMR17-31" transform="translate(150.275122 0) scale(0.996264)"/>
       <use xlink:href="#CMR17-30" transform="translate(195.965599 0) scale(0.996264)"/>
      </g>
     </g>
    </g>
    <g id="ytick_4">
     <g id="line2d_25">
      <path d="M 56.864158 137.462724 
L 421.2 137.462724 
" clip-path="url(#pced17e7787)" style="fill: none; stroke: #b0b0b0; stroke-width: 0.8; stroke-linecap: square"/>
     </g>
     <g id="line2d_26">
      <g>
       <use xlink:href="#me2f327cc68" x="56.864158" y="137.462724" style="stroke: #000000; stroke-width: 0.8"/>
      </g>
     </g>
     <g id="text_14">
      <!-- $\mathdefault{−0.05}$ -->
      <g transform="translate(24.404 140.921973) scale(0.1 -0.1)">
       <use xlink:href="#CMSY10-0" transform="scale(0.996264)"/>
       <use xlink:href="#CMR17-30" transform="translate(77.487468 0) scale(0.996264)"/>
       <use xlink:href="#CMMI12-3a" transform="translate(123.177945 0) scale(0.996264)"/>
       <use xlink:href="#CMR17-30" transform="translate(150.275122 0) scale(0.996264)"/>
       <use xlink:href="#CMR17-35" transform="translate(195.965599 0) scale(0.996264)"/>
      </g>
     </g>
    </g>
    <g id="ytick_5">
     <g id="line2d_27">
      <path d="M 56.864158 109.468602 
L 421.2 109.468602 
" clip-path="url(#pced17e7787)" style="fill: none; stroke: #b0b0b0; stroke-width: 0.8; stroke-linecap: square"/>
     </g>
     <g id="line2d_28">
      <g>
       <use xlink:href="#me2f327cc68" x="56.864158" y="109.468602" style="stroke: #000000; stroke-width: 0.8"/>
      </g>
     </g>
     <g id="text_15">
      <!-- $\mathdefault{0.00}$ -->
      <g transform="translate(32.152743 112.927852) scale(0.1 -0.1)">
       <use xlink:href="#CMR17-30" transform="scale(0.996264)"/>
       <use xlink:href="#CMMI12-3a" transform="translate(45.690477 0) scale(0.996264)"/>
       <use xlink:href="#CMR17-30" transform="translate(72.787654 0) scale(0.996264)"/>
       <use xlink:href="#CMR17-30" transform="translate(118.478131 0) scale(0.996264)"/>
      </g>
     </g>
    </g>
    <g id="ytick_6">
     <g id="line2d_29">
      <path d="M 56.864158 81.474481 
L 421.2 81.474481 
" clip-path="url(#pced17e7787)" style="fill: none; stroke: #b0b0b0; stroke-width: 0.8; stroke-linecap: square"/>
     </g>
     <g id="line2d_30">
      <g>
       <use xlink:href="#me2f327cc68" x="56.864158" y="81.474481" style="stroke: #000000; stroke-width: 0.8"/>
      </g>
     </g>
     <g id="text_16">
      <!-- $\mathdefault{0.05}$ -->
      <g transform="translate(32.152743 84.93373) scale(0.1 -0.1)">
       <use xlink:href="#CMR17-30" transform="scale(0.996264)"/>
       <use xlink:href="#CMMI12-3a" transform="translate(45.690477 0) scale(0.996264)"/>
       <use xlink:href="#CMR17-30" transform="translate(72.787654 0) scale(0.996264)"/>
       <use xlink:href="#CMR17-35" transform="translate(118.478131 0) scale(0.996264)"/>
      </g>
     </g>
    </g>
    <g id="ytick_7">
     <g id="line2d_31">
      <path d="M 56.864158 53.480359 
L 421.2 53.480359 
" clip-path="url(#pced17e7787)" style="fill: none; stroke: #b0b0b0; stroke-width: 0.8; stroke-linecap: square"/>
     </g>
     <g id="line2d_32">
      <g>
       <use xlink:href="#me2f327cc68" x="56.864158" y="53.480359" style="stroke: #000000; stroke-width: 0.8"/>
      </g>
     </g>
     <g id="text_17">
      <!-- $\mathdefault{0.10}$ -->
      <g transform="translate(32.152743 56.939609) scale(0.1 -0.1)">
       <use xlink:href="#CMR17-30" transform="scale(0.996264)"/>
       <use xlink:href="#CMMI12-3a" transform="translate(45.690477 0) scale(0.996264)"/>
       <use xlink:href="#CMR17-31" transform="translate(72.787654 0) scale(0.996264)"/>
       <use xlink:href="#CMR17-30" transform="translate(118.478131 0) scale(0.996264)"/>
      </g>
     </g>
    </g>
    <g id="ytick_8">
     <g id="line2d_33">
      <path d="M 56.864158 25.486238 
L 421.2 25.486238 
" clip-path="url(#pced17e7787)" style="fill: none; stroke: #b0b0b0; stroke-width: 0.8; stroke-linecap: square"/>
     </g>
     <g id="line2d_34">
      <g>
       <use xlink:href="#me2f327cc68" x="56.864158" y="25.486238" style="stroke: #000000; stroke-width: 0.8"/>
      </g>
     </g>
     <g id="text_18">
      <!-- $\mathdefault{0.15}$ -->
      <g transform="translate(32.152743 28.945487) scale(0.1 -0.1)">
       <use xlink:href="#CMR17-30" transform="scale(0.996264)"/>
       <use xlink:href="#CMMI12-3a" transform="translate(45.690477 0) scale(0.996264)"/>
       <use xlink:href="#CMR17-31" transform="translate(72.787654 0) scale(0.996264)"/>
       <use xlink:href="#CMR17-35" transform="translate(118.478131 0) scale(0.996264)"/>
      </g>
     </g>
    </g>
    <g id="text_19">
     <!-- $\Normal\GibbsEnergyStep$ in \unit{\joule\per\meter} -->
     <g transform="translate(18.466821 160.909761) rotate(-90) scale(0.1 -0.1)">
      <defs>
       <path id="CMMI12-47" d="M 4774 4423 
C 4774 4480 4730 4480 4717 4480 
C 4704 4480 4678 4480 4627 4416 
L 4186 3889 
C 4154 3940 4026 4163 3776 4309 
C 3501 4480 3226 4480 3130 4480 
C 1760 4480 320 3095 320 1595 
C 320 546 1050 -128 2010 -128 
C 2470 -128 3053 25 3373 427 
C 3443 185 3584 12 3629 12 
C 3661 12 3667 32 3674 32 
C 3680 44 3731 270 3763 385 
L 3866 797 
C 3917 1009 3942 1099 3987 1291 
C 4051 1536 4064 1536 4416 1536 
C 4442 1536 4518 1536 4518 1666 
C 4518 1734 4454 1734 4435 1734 
C 4326 1734 4205 1734 4090 1734 
L 3744 1734 
C 3475 1734 3194 1734 2931 1734 
C 2874 1734 2797 1734 2797 1611 
C 2797 1542 2848 1542 2848 1536 
L 3008 1536 
C 3514 1536 3514 1489 3514 1402 
C 3514 1395 3392 751 3270 561 
C 3027 204 2522 57 2144 57 
C 1651 57 851 312 851 1410 
C 851 1836 1005 2808 1626 3526 
C 2029 3984 2624 4295 3187 4295 
C 3942 4295 4211 3655 4211 3071 
C 4211 2970 4186 2831 4186 2742 
C 4186 2685 4250 2685 4269 2685 
C 4339 2685 4346 2691 4371 2805 
L 4774 4423 
z
" transform="scale(0.015625)"/>
       <path id="CMR17-4a" d="M 1888 910 
C 1888 324 1568 -26 1242 -26 
C 1075 -26 691 49 525 431 
C 550 425 582 418 608 418 
C 730 418 883 501 883 692 
C 883 845 774 960 614 960 
C 461 960 339 865 339 682 
C 339 258 730 -128 1254 -128 
C 1754 -128 2214 229 2291 764 
C 2298 809 2298 821 2298 1038 
L 2298 3715 
C 2298 3823 2298 4001 2310 4039 
C 2336 4160 2483 4160 2682 4160 
L 2682 4320 
C 2669 4320 2214 4320 2054 4320 
C 1786 4320 1491 4320 1222 4320 
L 1222 4160 
L 1376 4160 
C 1875 4160 1888 4090 1888 3861 
L 1888 910 
z
" transform="scale(0.015625)"/>
      </defs>
      <use xlink:href="#CMR17-1" transform="scale(0.996264)"/>
      <use xlink:href="#CMMI12-47" transform="translate(71.384788 0) scale(0.996264)"/>
      <use xlink:href="#CMSY10-3f" transform="translate(148.33165 -14.943915) scale(0.697382)"/>
      <use xlink:href="#CMR17-69" transform="translate(233.146742 0) scale(0.996264)"/>
      <use xlink:href="#CMR17-6e" transform="translate(258.0178 0) scale(0.996264)"/>
      <use xlink:href="#CMR17-4a" transform="translate(338.989136 0) scale(0.996264)"/>
      <use xlink:href="#CMR17-6d" transform="translate(402.565331 0) scale(0.996264)"/>
      <use xlink:href="#CMSY10-0" transform="translate(479.484921 36.153639) scale(0.697382)"/>
      <use xlink:href="#CMR17-31" transform="translate(533.725914 36.153639) scale(0.697382)"/>
     </g>
    </g>
   </g>
   <g id="line2d_35">
    <path d="M 73.424878 49.487978 
L 80.184355 52.084841 
L 86.943833 54.66966 
L 93.70331 57.242357 
L 100.462788 59.802851 
L 107.222266 62.351062 
L 113.981743 64.886909 
L 120.741221 67.410311 
L 127.500698 69.921186 
L 134.260176 72.419454 
L 141.019654 74.905033 
L 147.779131 77.37784 
L 154.538609 79.837792 
L 161.298086 82.284808 
L 168.057564 84.718804 
L 174.817042 87.139697 
L 181.576519 89.547403 
L 188.335997 91.941839 
L 195.095474 94.322921 
L 201.854952 96.690564 
L 208.61443 99.044684 
L 215.373907 101.385197 
L 222.133385 103.712017 
L 228.892862 106.025059 
L 235.65234 108.324238 
L 242.411818 110.609469 
L 249.171295 112.880666 
L 255.930773 115.137742 
L 262.69025 117.380613 
L 269.449728 119.609192 
L 276.209206 121.823393 
L 282.968683 124.023128 
L 289.728161 126.208313 
L 296.487638 128.378859 
L 303.247116 130.534681 
L 310.006594 132.675691 
L 316.766071 134.801803 
L 323.525549 136.912929 
L 330.285026 139.008983 
L 337.044504 141.089877 
L 343.803982 143.155524 
L 350.563459 145.205838 
L 357.322937 147.24073 
L 364.082414 149.260114 
L 370.841892 151.263902 
L 377.60137 153.252008 
L 384.360847 155.224345 
L 391.120325 157.180824 
L 397.879802 159.121361 
L 404.63928 161.045866 
" clip-path="url(#pced17e7787)" style="fill: none; stroke: #1f77b4; stroke-width: 1.5; stroke-linecap: square"/>
   </g>
   <g id="line2d_36">
    <path d="M 73.424878 53.480359 
L 80.184355 55.765594 
L 86.943833 58.050828 
L 93.70331 60.336063 
L 100.462788 62.621297 
L 107.222266 64.906531 
L 113.981743 67.191766 
L 120.741221 69.477 
L 127.500698 71.762235 
L 134.260176 74.047469 
L 141.019654 76.332704 
L 147.779131 78.617938 
L 154.538609 80.903172 
L 161.298086 83.188407 
L 168.057564 85.473641 
L 174.817042 87.758876 
L 181.576519 90.04411 
L 188.335997 92.329344 
L 195.095474 94.614579 
L 201.854952 96.899813 
L 208.61443 99.185048 
L 215.373907 101.470282 
L 222.133385 103.755516 
L 228.892862 106.040751 
L 235.65234 108.325985 
L 242.411818 110.61122 
L 249.171295 112.896454 
L 255.930773 115.181688 
L 262.69025 117.466923 
L 269.449728 119.752157 
L 276.209206 122.037392 
L 282.968683 124.322626 
L 289.728161 126.60786 
L 296.487638 128.893095 
L 303.247116 131.178329 
L 310.006594 133.463564 
L 316.766071 135.748798 
L 323.525549 138.034032 
L 330.285026 140.319267 
L 337.044504 142.604501 
L 343.803982 144.889736 
L 350.563459 147.17497 
L 357.322937 149.460204 
L 364.082414 151.745439 
L 370.841892 154.030673 
L 377.60137 156.315908 
L 384.360847 158.601142 
L 391.120325 160.886376 
L 397.879802 163.171611 
L 404.63928 165.456845 
" clip-path="url(#pced17e7787)" style="fill: none; stroke-dasharray: 5.55,2.4; stroke-dashoffset: 0; stroke: #1f77b4; stroke-width: 1.5"/>
   </g>
   <g id="line2d_37">
    <path d="M 73.424878 19.497665 
L 80.184355 23.39296 
L 86.943833 27.270189 
L 93.70331 31.129235 
L 100.462788 34.969976 
L 107.222266 38.792292 
L 113.981743 42.596062 
L 120.741221 46.381165 
L 127.500698 50.147478 
L 134.260176 53.89488 
L 141.019654 57.623248 
L 147.779131 61.332458 
L 154.538609 65.022387 
L 161.298086 68.692911 
L 168.057564 72.343905 
L 174.817042 75.975244 
L 181.576519 79.586804 
L 188.335997 83.178458 
L 195.095474 86.75008 
L 201.854952 90.301545 
L 208.61443 93.832725 
L 215.373907 97.343494 
L 222.133385 100.833724 
L 228.892862 104.303287 
L 235.65234 107.752056 
L 242.411818 111.179902 
L 249.171295 114.586697 
L 255.930773 117.972312 
L 262.69025 121.336619 
L 269.449728 124.679487 
L 276.209206 128.000788 
L 282.968683 131.300391 
L 289.728161 134.578168 
L 296.487638 137.833988 
L 303.247116 141.06772 
L 310.006594 144.279236 
L 316.766071 147.468403 
L 323.525549 150.635093 
L 330.285026 153.779173 
L 337.044504 156.900514 
L 343.803982 159.998985 
L 350.563459 163.074455 
L 357.322937 166.126794 
L 364.082414 169.15587 
L 370.841892 172.161552 
L 377.60137 175.143711 
L 384.360847 178.102216 
L 391.120325 181.036936 
L 397.879802 183.94774 
L 404.63928 186.834498 
" clip-path="url(#pced17e7787)" style="fill: none; stroke: #ff7f0e; stroke-width: 1.5; stroke-linecap: square"/>
   </g>
   <g id="line2d_38">
    <path d="M 73.424878 25.486238 
L 80.184355 28.91409 
L 86.943833 32.341941 
L 93.70331 35.769793 
L 100.462788 39.197644 
L 107.222266 42.625496 
L 113.981743 46.053348 
L 120.741221 49.481199 
L 127.500698 52.909051 
L 134.260176 56.336902 
L 141.019654 59.764754 
L 147.779131 63.192606 
L 154.538609 66.620457 
L 161.298086 70.048309 
L 168.057564 73.476161 
L 174.817042 76.904012 
L 181.576519 80.331864 
L 188.335997 83.759715 
L 195.095474 87.187567 
L 201.854952 90.615419 
L 208.61443 94.04327 
L 215.373907 97.471122 
L 222.133385 100.898973 
L 228.892862 104.326825 
L 235.65234 107.754677 
L 242.411818 111.182528 
L 249.171295 114.61038 
L 255.930773 118.038231 
L 262.69025 121.466083 
L 269.449728 124.893935 
L 276.209206 128.321786 
L 282.968683 131.749638 
L 289.728161 135.177489 
L 296.487638 138.605341 
L 303.247116 142.033193 
L 310.006594 145.461044 
L 316.766071 148.888896 
L 323.525549 152.316747 
L 330.285026 155.744599 
L 337.044504 159.172451 
L 343.803982 162.600302 
L 350.563459 166.028154 
L 357.322937 169.456006 
L 364.082414 172.883857 
L 370.841892 176.311709 
L 377.60137 179.73956 
L 384.360847 183.167412 
L 391.120325 186.595264 
L 397.879802 190.023115 
L 404.63928 193.450967 
" clip-path="url(#pced17e7787)" style="fill: none; stroke-dasharray: 5.55,2.4; stroke-dashoffset: 0; stroke: #ff7f0e; stroke-width: 1.5"/>
   </g>
   <g id="line2d_39">
    <path d="M 73.424878 161.045866 
L 80.184355 159.121361 
L 86.943833 157.180824 
L 93.70331 155.224345 
L 100.462788 153.252008 
L 107.222266 151.263902 
L 113.981743 149.260114 
L 120.741221 147.24073 
L 127.500698 145.205838 
L 134.260176 143.155524 
L 141.019654 141.089877 
L 147.779131 139.008983 
L 154.538609 136.912929 
L 161.298086 134.801803 
L 168.057564 132.675691 
L 174.817042 130.534681 
L 181.576519 128.378859 
L 188.335997 126.208313 
L 195.095474 124.023128 
L 201.854952 121.823393 
L 208.61443 119.609192 
L 215.373907 117.380613 
L 222.133385 115.137742 
L 228.892862 112.880666 
L 235.65234 110.609469 
L 242.411818 108.324238 
L 249.171295 106.025059 
L 255.930773 103.712017 
L 262.69025 101.385197 
L 269.449728 99.044684 
L 276.209206 96.690564 
L 282.968683 94.322921 
L 289.728161 91.941839 
L 296.487638 89.547403 
L 303.247116 87.139697 
L 310.006594 84.718804 
L 316.766071 82.284808 
L 323.525549 79.837792 
L 330.285026 77.37784 
L 337.044504 74.905033 
L 343.803982 72.419454 
L 350.563459 69.921186 
L 357.322937 67.410311 
L 364.082414 64.886909 
L 370.841892 62.351062 
L 377.60137 59.802851 
L 384.360847 57.242357 
L 391.120325 54.66966 
L 397.879802 52.084841 
L 404.63928 49.487978 
" clip-path="url(#pced17e7787)" style="fill: none; stroke: #2ca02c; stroke-width: 1.5; stroke-linecap: square"/>
   </g>
   <g id="line2d_40">
    <path d="M 73.424878 165.456845 
L 80.184355 163.171611 
L 86.943833 160.886376 
L 93.70331 158.601142 
L 100.462788 156.315908 
L 107.222266 154.030673 
L 113.981743 151.745439 
L 120.741221 149.460204 
L 127.500698 147.17497 
L 134.260176 144.889736 
L 141.019654 142.604501 
L 147.779131 140.319267 
L 154.538609 138.034032 
L 161.298086 135.748798 
L 168.057564 133.463564 
L 174.817042 131.178329 
L 181.576519 128.893095 
L 188.335997 126.60786 
L 195.095474 124.322626 
L 201.854952 122.037392 
L 208.61443 119.752157 
L 215.373907 117.466923 
L 222.133385 115.181688 
L 228.892862 112.896454 
L 235.65234 110.61122 
L 242.411818 108.325985 
L 249.171295 106.040751 
L 255.930773 103.755516 
L 262.69025 101.470282 
L 269.449728 99.185048 
L 276.209206 96.899813 
L 282.968683 94.614579 
L 289.728161 92.329344 
L 296.487638 90.04411 
L 303.247116 87.758876 
L 310.006594 85.473641 
L 316.766071 83.188407 
L 323.525549 80.903172 
L 330.285026 78.617938 
L 337.044504 76.332704 
L 343.803982 74.047469 
L 350.563459 71.762235 
L 357.322937 69.477 
L 364.082414 67.191766 
L 370.841892 64.906531 
L 377.60137 62.621297 
L 384.360847 60.336063 
L 391.120325 58.050828 
L 397.879802 55.765594 
L 404.63928 53.480359 
" clip-path="url(#pced17e7787)" style="fill: none; stroke-dasharray: 5.55,2.4; stroke-dashoffset: 0; stroke: #2ca02c; stroke-width: 1.5"/>
   </g>
   <g id="line2d_41">
    <path d="M 73.424878 103.883706 
L 80.184355 104.329291 
L 86.943833 104.756477 
L 93.70331 105.16524 
L 100.462788 105.555563 
L 107.222266 105.927425 
L 113.981743 106.280807 
L 120.741221 106.615694 
L 127.500698 106.932067 
L 134.260176 107.229911 
L 141.019654 107.509212 
L 147.779131 107.769956 
L 154.538609 108.01213 
L 161.298086 108.235721 
L 168.057564 108.440719 
L 174.817042 108.627113 
L 181.576519 108.794894 
L 188.335997 108.944054 
L 195.095474 109.074585 
L 201.854952 109.186481 
L 208.61443 109.279737 
L 215.373907 109.354346 
L 222.133385 109.410307 
L 228.892862 109.447616 
L 235.65234 109.466271 
L 242.411818 109.466271 
L 249.171295 109.447616 
L 255.930773 109.410307 
L 262.69025 109.354346 
L 269.449728 109.279737 
L 276.209206 109.186481 
L 282.968683 109.074585 
L 289.728161 108.944054 
L 296.487638 108.794894 
L 303.247116 108.627113 
L 310.006594 108.440719 
L 316.766071 108.235721 
L 323.525549 108.01213 
L 330.285026 107.769956 
L 337.044504 107.509212 
L 343.803982 107.229911 
L 350.563459 106.932067 
L 357.322937 106.615694 
L 364.082414 106.280807 
L 370.841892 105.927425 
L 377.60137 105.555563 
L 384.360847 105.16524 
L 391.120325 104.756477 
L 397.879802 104.329291 
L 404.63928 103.883706 
" clip-path="url(#pced17e7787)" style="fill: none; stroke: #d62728; stroke-width: 1.5; stroke-linecap: square"/>
   </g>
   <g id="line2d_42">
    <path d="M 73.424878 109.468602 
L 80.184355 109.468602 
L 86.943833 109.468602 
L 93.70331 109.468602 
L 100.462788 109.468602 
L 107.222266 109.468602 
L 113.981743 109.468602 
L 120.741221 109.468602 
L 127.500698 109.468602 
L 134.260176 109.468602 
L 141.019654 109.468602 
L 147.779131 109.468602 
L 154.538609 109.468602 
L 161.298086 109.468602 
L 168.057564 109.468602 
L 174.817042 109.468602 
L 181.576519 109.468602 
L 188.335997 109.468602 
L 195.095474 109.468602 
L 201.854952 109.468602 
L 208.61443 109.468602 
L 215.373907 109.468602 
L 222.133385 109.468602 
L 228.892862 109.468602 
L 235.65234 109.468602 
L 242.411818 109.468602 
L 249.171295 109.468602 
L 255.930773 109.468602 
L 262.69025 109.468602 
L 269.449728 109.468602 
L 276.209206 109.468602 
L 282.968683 109.468602 
L 289.728161 109.468602 
L 296.487638 109.468602 
L 303.247116 109.468602 
L 310.006594 109.468602 
L 316.766071 109.468602 
L 323.525549 109.468602 
L 330.285026 109.468602 
L 337.044504 109.468602 
L 343.803982 109.468602 
L 350.563459 109.468602 
L 357.322937 109.468602 
L 364.082414 109.468602 
L 370.841892 109.468602 
L 377.60137 109.468602 
L 384.360847 109.468602 
L 391.120325 109.468602 
L 397.879802 109.468602 
L 404.63928 109.468602 
" clip-path="url(#pced17e7787)" style="fill: none; stroke-dasharray: 5.55,2.4; stroke-dashoffset: 0; stroke: #d62728; stroke-width: 1.5"/>
   </g>
   <g id="patch_3">
    <path d="M 56.864158 248.488647 
L 56.864158 10.8 
" style="fill: none; stroke: #000000; stroke-width: 0.8; stroke-linejoin: miter; stroke-linecap: square"/>
   </g>
   <g id="patch_4">
    <path d="M 421.2 248.488647 
L 421.2 10.8 
" style="fill: none; stroke: #000000; stroke-width: 0.8; stroke-linejoin: miter; stroke-linecap: square"/>
   </g>
   <g id="patch_5">
    <path d="M 56.864158 248.488647 
L 421.2 248.488647 
" style="fill: none; stroke: #000000; stroke-width: 0.8; stroke-linejoin: miter; stroke-linecap: square"/>
   </g>
   <g id="patch_6">
    <path d="M 56.864158 10.8 
L 421.2 10.8 
" style="fill: none; stroke: #000000; stroke-width: 0.8; stroke-linejoin: miter; stroke-linecap: square"/>
   </g>
   <g id="legend_1">
    <g id="patch_7">
     <path d="M 63.864158 243.488647 
L 259.501859 243.488647 
Q 261.501859 243.488647 261.501859 241.488647 
L 261.501859 182.301458 
Q 261.501859 180.301458 259.501859 180.301458 
L 63.864158 180.301458 
Q 61.864158 180.301458 61.864158 182.301458 
L 61.864158 241.488647 
Q 61.864158 243.488647 63.864158 243.488647 
z
" style="fill: #ffffff; opacity: 0.8; stroke: #cccccc; stroke-linejoin: miter"/>
    </g>
    <g id="line2d_43">
     <path d="M 65.864158 188.911077 
L 75.864158 188.911077 
L 85.864158 188.911077 
" style="fill: none; stroke: #1f77b4; stroke-width: 1.5; stroke-linecap: square"/>
    </g>
    <g id="text_20">
     <!-- $\Upper\InterfaceEnergy=\qty{1}{\joule\per\square\meter}, \Lower\InterfaceEnergy=\qty{1}{\joule\per\square\meter}, \Normal\SurfaceRadiusAngle=\qty{60}{\degree}$ -->
     <g transform="translate(93.864158 192.411077) scale(0.1 -0.1)">
      <defs>
       <path id="CMMI12-d" d="M 2419 760 
C 2406 1071 2394 1561 2150 2133 
C 2022 2452 1805 2788 1338 2788 
C 550 2788 122 1790 122 1625 
C 122 1567 166 1567 186 1567 
C 243 1567 243 1580 275 1663 
C 410 2057 819 2368 1261 2368 
C 2150 2368 2278 1383 2278 754 
C 2278 352 2234 220 2195 92 
C 2074 -302 1862 -1090 1862 -1268 
C 1862 -1319 1882 -1376 1933 -1376 
C 2029 -1376 2086 -1166 2157 -912 
C 2310 -353 2349 -73 2381 181 
C 2400 334 2765 1384 3270 2382 
C 3315 2483 3405 2655 3405 2674 
C 3405 2680 3398 2725 3341 2725 
C 3328 2725 3296 2725 3283 2699 
C 3270 2687 3046 2254 2854 1822 
C 2758 1606 2630 1320 2419 760 
z
" transform="scale(0.015625)"/>
       <path id="CMR17-75" d="M 1882 2693 
L 1882 2528 
C 2259 2528 2317 2489 2317 2186 
L 2317 1032 
C 2317 500 2029 38 1555 38 
C 1030 38 986 348 986 678 
L 986 2763 
L 211 2693 
L 211 2528 
C 467 2528 640 2528 646 2274 
L 646 1058 
C 646 633 646 361 813 183 
C 896 101 1056 -64 1517 -64 
C 2061 -64 2272 377 2323 506 
L 2330 506 
L 2330 -63 
L 3091 -63 
L 3091 128 
C 2714 128 2656 166 2656 473 
L 2656 2763 
L 1882 2693 
z
" transform="scale(0.015625)"/>
       <path id="CMR17-3d" d="M 4115 2017 
C 4211 2017 4307 2017 4307 2125 
C 4307 2240 4198 2240 4090 2240 
L 512 2240 
C 403 2240 294 2240 294 2125 
C 294 2017 390 2017 486 2017 
L 4115 2017 
z
M 4090 896 
C 4198 896 4307 896 4307 1011 
C 4307 1119 4211 1119 4115 1119 
L 486 1119 
C 390 1119 294 1119 294 1011 
C 294 896 403 896 512 896 
L 4090 896 
z
" transform="scale(0.015625)"/>
       <path id="CMMI12-3b" d="M 1248 -31 
C 1248 343 1126 619 864 619 
C 659 619 557 453 557 313 
C 557 172 653 0 870 0 
C 954 0 1024 26 1082 83 
C 1094 96 1101 96 1107 96 
C 1120 96 1120 5 1120 -27 
C 1120 -240 1082 -659 710 -1080 
C 640 -1157 640 -1170 640 -1183 
C 640 -1216 672 -1248 704 -1248 
C 755 -1248 1248 -771 1248 -31 
z
" transform="scale(0.015625)"/>
       <path id="CMR17-6c" d="M 979 4396 
L 218 4326 
L 218 4160 
C 595 4160 653 4122 653 3817 
L 653 426 
C 653 184 627 153 218 153 
L 218 -13 
C 371 0 653 0 813 0 
C 979 0 1261 0 1414 -13 
L 1414 153 
C 1005 153 979 178 979 426 
L 979 4396 
z
" transform="scale(0.015625)"/>
       <path id="CMMI12-b" d="M 2963 1616 
C 2963 2235 2611 2815 1933 2815 
C 1094 2815 256 1902 256 996 
C 256 441 602 -64 1254 -64 
C 1651 -64 2125 89 2579 472 
C 2669 115 2867 -64 3142 -64 
C 3488 -64 3661 294 3661 377 
C 3661 434 3616 434 3597 434 
C 3546 434 3539 415 3520 364 
C 3462 204 3315 64 3162 64 
C 2963 64 2963 472 2963 862 
C 3616 1641 3770 2446 3770 2452 
C 3770 2510 3718 2510 3699 2510 
C 3642 2510 3635 2491 3610 2376 
C 3526 2095 3360 1597 2963 1073 
L 2963 1616 
z
M 2560 626 
C 1997 121 1491 64 1267 64 
C 813 64 685 466 685 766 
C 685 1040 826 1692 1024 2044 
C 1286 2491 1645 2688 1933 2688 
C 2554 2688 2554 1877 2554 1341 
C 2554 1182 2547 1016 2547 856 
C 2547 728 2554 696 2560 626 
z
" transform="scale(0.015625)"/>
       <path id="CMR17-36" d="M 678 2176 
C 678 3690 1395 4032 1811 4032 
C 1946 4032 2272 4009 2400 3776 
C 2298 3776 2106 3776 2106 3553 
C 2106 3381 2246 3323 2336 3323 
C 2394 3323 2566 3348 2566 3560 
C 2566 3954 2246 4179 1805 4179 
C 1043 4179 243 3390 243 1984 
C 243 253 966 -128 1478 -128 
C 2099 -128 2688 427 2688 1283 
C 2688 2081 2170 2662 1517 2662 
C 1126 2662 838 2407 678 1960 
L 678 2176 
z
M 1478 25 
C 691 25 691 1200 691 1436 
C 691 1896 909 2560 1504 2560 
C 1613 2560 1926 2560 2138 2120 
C 2253 1870 2253 1609 2253 1289 
C 2253 944 2253 690 2118 434 
C 1978 171 1773 25 1478 25 
z
" transform="scale(0.015625)"/>
       <path id="CMSY10-e" d="M 2842 1600 
C 2842 2277 2272 2828 1600 2828 
C 909 2828 352 2264 352 1600 
C 352 930 909 372 1600 372 
C 2272 372 2842 923 2842 1600 
z
M 1600 628 
C 1043 628 608 1070 608 1600 
C 608 2130 1050 2572 1600 2572 
C 2131 2572 2586 2142 2586 1600 
C 2586 1058 2131 628 1600 628 
z
" transform="scale(0.015625)"/>
      </defs>
      <use xlink:href="#CMMI12-d" transform="scale(0.996264)"/>
      <use xlink:href="#CMR17-75" transform="translate(50.599133 -14.943915) scale(0.697382)"/>
      <use xlink:href="#CMR17-3d" transform="translate(114.397882 0) scale(0.996264)"/>
      <use xlink:href="#CMR17-31" transform="translate(213.786679 0) scale(0.996264)"/>
      <use xlink:href="#CMR17-4a" transform="translate(276.081561 0) scale(0.996264)"/>
      <use xlink:href="#CMR17-6d" transform="translate(339.657756 0) scale(0.996264)"/>
      <use xlink:href="#CMSY10-0" transform="translate(416.577346 36.153639) scale(0.697382)"/>
      <use xlink:href="#CMR17-32" transform="translate(470.818339 36.153639) scale(0.697382)"/>
      <use xlink:href="#CMMI12-3b" transform="translate(503.299653 0) scale(0.996264)"/>
      <use xlink:href="#CMMI12-d" transform="translate(547.001236 0) scale(0.996264)"/>
      <use xlink:href="#CMR17-6c" transform="translate(597.600368 -14.943915) scale(0.697382)"/>
      <use xlink:href="#CMR17-3d" transform="translate(643.182168 0) scale(0.996264)"/>
      <use xlink:href="#CMR17-31" transform="translate(742.570965 0) scale(0.996264)"/>
      <use xlink:href="#CMR17-4a" transform="translate(804.865847 0) scale(0.996264)"/>
      <use xlink:href="#CMR17-6d" transform="translate(868.442042 0) scale(0.996264)"/>
      <use xlink:href="#CMSY10-0" transform="translate(945.361632 36.153639) scale(0.697382)"/>
      <use xlink:href="#CMR17-32" transform="translate(999.602625 36.153639) scale(0.697382)"/>
      <use xlink:href="#CMMI12-3b" transform="translate(1032.083939 0) scale(0.996264)"/>
      <use xlink:href="#CMMI12-b" transform="translate(1075.785522 0) scale(0.996264)"/>
      <use xlink:href="#CMSY10-3f" transform="translate(1137.83225 -14.943915) scale(0.697382)"/>
      <use xlink:href="#CMR17-3d" transform="translate(1220.245384 0) scale(0.996264)"/>
      <use xlink:href="#CMR17-36" transform="translate(1319.634181 0) scale(0.996264)"/>
      <use xlink:href="#CMR17-30" transform="translate(1365.324658 0) scale(0.996264)"/>
      <use xlink:href="#CMSY10-e" transform="translate(1411.015136 36.153639) scale(0.697382)"/>
     </g>
    </g>
    <g id="line2d_44">
     <path d="M 65.864158 203.957874 
L 75.864158 203.957874 
L 85.864158 203.957874 
" style="fill: none; stroke: #ff7f0e; stroke-width: 1.5; stroke-linecap: square"/>
    </g>
    <g id="text_21">
     <!-- $\Upper\InterfaceEnergy=\qty{2}{\joule\per\square\meter}, \Lower\InterfaceEnergy=\qty{1}{\joule\per\square\meter}, \Normal\SurfaceRadiusAngle=\qty{60}{\degree}$ -->
     <g transform="translate(93.864158 207.457874) scale(0.1 -0.1)">
      <use xlink:href="#CMMI12-d" transform="scale(0.996264)"/>
      <use xlink:href="#CMR17-75" transform="translate(50.599133 -14.943915) scale(0.697382)"/>
      <use xlink:href="#CMR17-3d" transform="translate(114.397882 0) scale(0.996264)"/>
      <use xlink:href="#CMR17-32" transform="translate(213.786679 0) scale(0.996264)"/>
      <use xlink:href="#CMR17-4a" transform="translate(276.081561 0) scale(0.996264)"/>
      <use xlink:href="#CMR17-6d" transform="translate(339.657756 0) scale(0.996264)"/>
      <use xlink:href="#CMSY10-0" transform="translate(416.577346 36.153639) scale(0.697382)"/>
      <use xlink:href="#CMR17-32" transform="translate(470.818339 36.153639) scale(0.697382)"/>
      <use xlink:href="#CMMI12-3b" transform="translate(503.299653 0) scale(0.996264)"/>
      <use xlink:href="#CMMI12-d" transform="translate(547.001236 0) scale(0.996264)"/>
      <use xlink:href="#CMR17-6c" transform="translate(597.600368 -14.943915) scale(0.697382)"/>
      <use xlink:href="#CMR17-3d" transform="translate(643.182168 0) scale(0.996264)"/>
      <use xlink:href="#CMR17-31" transform="translate(742.570965 0) scale(0.996264)"/>
      <use xlink:href="#CMR17-4a" transform="translate(804.865847 0) scale(0.996264)"/>
      <use xlink:href="#CMR17-6d" transform="translate(868.442042 0) scale(0.996264)"/>
      <use xlink:href="#CMSY10-0" transform="translate(945.361632 36.153639) scale(0.697382)"/>
      <use xlink:href="#CMR17-32" transform="translate(999.602625 36.153639) scale(0.697382)"/>
      <use xlink:href="#CMMI12-3b" transform="translate(1032.083939 0) scale(0.996264)"/>
      <use xlink:href="#CMMI12-b" transform="translate(1075.785522 0) scale(0.996264)"/>
      <use xlink:href="#CMSY10-3f" transform="translate(1137.83225 -14.943915) scale(0.697382)"/>
      <use xlink:href="#CMR17-3d" transform="translate(1220.245384 0) scale(0.996264)"/>
      <use xlink:href="#CMR17-36" transform="translate(1319.634181 0) scale(0.996264)"/>
      <use xlink:href="#CMR17-30" transform="translate(1365.324658 0) scale(0.996264)"/>
      <use xlink:href="#CMSY10-e" transform="translate(1411.015136 36.153639) scale(0.697382)"/>
     </g>
    </g>
    <g id="line2d_45">
     <path d="M 65.864158 219.004671 
L 75.864158 219.004671 
L 85.864158 219.004671 
" style="fill: none; stroke: #2ca02c; stroke-width: 1.5; stroke-linecap: square"/>
    </g>
    <g id="text_22">
     <!-- $\Upper\InterfaceEnergy=\qty{1}{\joule\per\square\meter}, \Lower\InterfaceEnergy=\qty{1}{\joule\per\square\meter}, \Normal\SurfaceRadiusAngle=\qty{120}{\degree}$ -->
     <g transform="translate(93.864158 222.504671) scale(0.1 -0.1)">
      <use xlink:href="#CMMI12-d" transform="scale(0.996264)"/>
      <use xlink:href="#CMR17-75" transform="translate(50.599133 -14.943915) scale(0.697382)"/>
      <use xlink:href="#CMR17-3d" transform="translate(114.397882 0) scale(0.996264)"/>
      <use xlink:href="#CMR17-31" transform="translate(213.786679 0) scale(0.996264)"/>
      <use xlink:href="#CMR17-4a" transform="translate(276.081561 0) scale(0.996264)"/>
      <use xlink:href="#CMR17-6d" transform="translate(339.657756 0) scale(0.996264)"/>
      <use xlink:href="#CMSY10-0" transform="translate(416.577346 36.153639) scale(0.697382)"/>
      <use xlink:href="#CMR17-32" transform="translate(470.818339 36.153639) scale(0.697382)"/>
      <use xlink:href="#CMMI12-3b" transform="translate(503.299653 0) scale(0.996264)"/>
      <use xlink:href="#CMMI12-d" transform="translate(547.001236 0) scale(0.996264)"/>
      <use xlink:href="#CMR17-6c" transform="translate(597.600368 -14.943915) scale(0.697382)"/>
      <use xlink:href="#CMR17-3d" transform="translate(643.182168 0) scale(0.996264)"/>
      <use xlink:href="#CMR17-31" transform="translate(742.570965 0) scale(0.996264)"/>
      <use xlink:href="#CMR17-4a" transform="translate(804.865847 0) scale(0.996264)"/>
      <use xlink:href="#CMR17-6d" transform="translate(868.442042 0) scale(0.996264)"/>
      <use xlink:href="#CMSY10-0" transform="translate(945.361632 36.153639) scale(0.697382)"/>
      <use xlink:href="#CMR17-32" transform="translate(999.602625 36.153639) scale(0.697382)"/>
      <use xlink:href="#CMMI12-3b" transform="translate(1032.083939 0) scale(0.996264)"/>
      <use xlink:href="#CMMI12-b" transform="translate(1075.785522 0) scale(0.996264)"/>
      <use xlink:href="#CMSY10-3f" transform="translate(1137.83225 -14.943915) scale(0.697382)"/>
      <use xlink:href="#CMR17-3d" transform="translate(1220.245384 0) scale(0.996264)"/>
      <use xlink:href="#CMR17-31" transform="translate(1319.634181 0) scale(0.996264)"/>
      <use xlink:href="#CMR17-32" transform="translate(1365.324658 0) scale(0.996264)"/>
      <use xlink:href="#CMR17-30" transform="translate(1411.015136 0) scale(0.996264)"/>
      <use xlink:href="#CMSY10-e" transform="translate(1456.705613 36.153639) scale(0.697382)"/>
     </g>
    </g>
    <g id="line2d_46">
     <path d="M 65.864158 234.051468 
L 75.864158 234.051468 
L 85.864158 234.051468 
" style="fill: none; stroke: #d62728; stroke-width: 1.5; stroke-linecap: square"/>
    </g>
    <g id="text_23">
     <!-- $\Upper\InterfaceEnergy=\qty{1}{\joule\per\square\meter}, \Lower\InterfaceEnergy=\qty{1}{\joule\per\square\meter}, \Normal\SurfaceRadiusAngle=\qty{90}{\degree}$ -->
     <g transform="translate(93.864158 237.551468) scale(0.1 -0.1)">
      <defs>
       <path id="CMR17-39" d="M 2253 1864 
C 2253 464 1670 31 1190 31 
C 1043 31 685 31 538 294 
C 704 268 826 357 826 518 
C 826 692 685 749 595 749 
C 538 749 365 723 365 506 
C 365 71 742 -128 1203 -128 
C 1939 -128 2688 674 2688 2073 
C 2688 3817 1971 4179 1485 4179 
C 851 4179 243 3628 243 2778 
C 243 1991 762 1408 1414 1408 
C 1952 1408 2189 1903 2253 2112 
L 2253 1864 
z
M 1427 1510 
C 1254 1510 1011 1542 813 1922 
C 678 2169 678 2461 678 2771 
C 678 3146 678 3405 858 3684 
C 947 3817 1114 4032 1485 4032 
C 2240 4032 2240 2885 2240 2632 
C 2240 2182 2035 1510 1427 1510 
z
" transform="scale(0.015625)"/>
      </defs>
      <use xlink:href="#CMMI12-d" transform="scale(0.996264)"/>
      <use xlink:href="#CMR17-75" transform="translate(50.599133 -14.943915) scale(0.697382)"/>
      <use xlink:href="#CMR17-3d" transform="translate(114.397882 0) scale(0.996264)"/>
      <use xlink:href="#CMR17-31" transform="translate(213.786679 0) scale(0.996264)"/>
      <use xlink:href="#CMR17-4a" transform="translate(276.081561 0) scale(0.996264)"/>
      <use xlink:href="#CMR17-6d" transform="translate(339.657756 0) scale(0.996264)"/>
      <use xlink:href="#CMSY10-0" transform="translate(416.577346 36.153639) scale(0.697382)"/>
      <use xlink:href="#CMR17-32" transform="translate(470.818339 36.153639) scale(0.697382)"/>
      <use xlink:href="#CMMI12-3b" transform="translate(503.299653 0) scale(0.996264)"/>
      <use xlink:href="#CMMI12-d" transform="translate(547.001236 0) scale(0.996264)"/>
      <use xlink:href="#CMR17-6c" transform="translate(597.600368 -14.943915) scale(0.697382)"/>
      <use xlink:href="#CMR17-3d" transform="translate(643.182168 0) scale(0.996264)"/>
      <use xlink:href="#CMR17-31" transform="translate(742.570965 0) scale(0.996264)"/>
      <use xlink:href="#CMR17-4a" transform="translate(804.865847 0) scale(0.996264)"/>
      <use xlink:href="#CMR17-6d" transform="translate(868.442042 0) scale(0.996264)"/>
      <use xlink:href="#CMSY10-0" transform="translate(945.361632 36.153639) scale(0.697382)"/>
      <use xlink:href="#CMR17-32" transform="translate(999.602625 36.153639) scale(0.697382)"/>
      <use xlink:href="#CMMI12-3b" transform="translate(1032.083939 0) scale(0.996264)"/>
      <use xlink:href="#CMMI12-b" transform="translate(1075.785522 0) scale(0.996264)"/>
      <use xlink:href="#CMSY10-3f" transform="translate(1137.83225 -14.943915) scale(0.697382)"/>
      <use xlink:href="#CMR17-3d" transform="translate(1220.245384 0) scale(0.996264)"/>
      <use xlink:href="#CMR17-39" transform="translate(1319.634181 0) scale(0.996264)"/>
      <use xlink:href="#CMR17-30" transform="translate(1365.324658 0) scale(0.996264)"/>
      <use xlink:href="#CMSY10-e" transform="translate(1411.015136 36.153639) scale(0.697382)"/>
     </g>
    </g>
   </g>
  </g>
 </g>
 <defs>
  <clipPath id="pced17e7787">
   <rect x="56.864158" y="10.8" width="364.335842" height="237.688647"/>
  </clipPath>
 </defs>
</svg>
