<?xml version="1.0" encoding="utf-8" standalone="no"?>
<!DOCTYPE svg PUBLIC "-//W3C//DTD SVG 1.1//EN"
  "http://www.w3.org/Graphics/SVG/1.1/DTD/svg11.dtd">
<svg xmlns:xlink="http://www.w3.org/1999/xlink" width="460.8pt" height="345.6pt" viewBox="0 0 460.8 345.6" xmlns="http://www.w3.org/2000/svg" version="1.1">
 <metadata>
  <rdf:RDF xmlns:dc="http://purl.org/dc/elements/1.1/" xmlns:cc="http://creativecommons.org/ns#" xmlns:rdf="http://www.w3.org/1999/02/22-rdf-syntax-ns#">
   <cc:Work>
    <dc:type rdf:resource="http://purl.org/dc/dcmitype/StillImage"/>
    <dc:date>2023-10-11T11:03:52.033076</dc:date>
    <dc:format>image/svg+xml</dc:format>
    <dc:creator>
     <cc:Agent>
      <dc:title>Matplotlib v3.7.2, https://matplotlib.org/</dc:title>
     </cc:Agent>
    </dc:creator>
   </cc:Work>
  </rdf:RDF>
 </metadata>
 <defs>
  <style type="text/css">*{stroke-linejoin: round; stroke-linecap: butt}</style>
 </defs>
 <g id="figure_1">
  <g id="patch_1">
   <path d="M 0 345.6 
L 460.8 345.6 
L 460.8 0 
L 0 0 
z
" style="fill: #ffffff"/>
  </g>
  <g id="axes_1">
   <g id="patch_2">
    <path d="M 58.912066 304.594251 
L 450 304.594251 
L 450 10.8 
L 58.912066 10.8 
z
" style="fill: #ffffff"/>
   </g>
   <g id="matplotlib.axis_1">
    <g id="xtick_1">
     <g id="line2d_1">
      <path d="M 76.68879 304.594251 
L 76.68879 10.8 
" clip-path="url(#p8e53dbb111)" style="fill: none; stroke: #b0b0b0; stroke-width: 0.8; stroke-linecap: square"/>
     </g>
     <g id="line2d_2">
      <defs>
       <path id="m68bb6fc8ad" d="M 0 0 
L 0 3.5 
" style="stroke: #000000; stroke-width: 0.8"/>
      </defs>
      <g>
       <use xlink:href="#m68bb6fc8ad" x="76.68879" y="304.594251" style="stroke: #000000; stroke-width: 0.8"/>
      </g>
     </g>
     <g id="text_1">
      <!-- $\mathdefault{−0.100}$ -->
      <g transform="translate(61.468043 318.512749) scale(0.1 -0.1)">
       <defs>
        <path id="CMSY10-0" d="M 4218 1472 
C 4326 1472 4442 1472 4442 1600 
C 4442 1728 4326 1728 4218 1728 
L 755 1728 
C 646 1728 531 1728 531 1600 
C 531 1472 646 1472 755 1472 
L 4218 1472 
z
" transform="scale(0.015625)"/>
        <path id="CMR17-30" d="M 2688 2025 
C 2688 2416 2682 3080 2413 3591 
C 2176 4039 1798 4198 1466 4198 
C 1158 4198 768 4058 525 3597 
C 269 3118 243 2524 243 2025 
C 243 1661 250 1106 448 619 
C 723 -39 1216 -128 1466 -128 
C 1760 -128 2208 -7 2470 600 
C 2662 1042 2688 1559 2688 2025 
z
M 1466 -26 
C 1056 -26 813 325 723 812 
C 653 1188 653 1738 653 2096 
C 653 2588 653 2997 736 3387 
C 858 3929 1216 4096 1466 4096 
C 1728 4096 2067 3923 2189 3400 
C 2272 3036 2278 2607 2278 2096 
C 2278 1680 2278 1169 2202 792 
C 2067 95 1690 -26 1466 -26 
z
" transform="scale(0.015625)"/>
        <path id="CMMI12-3a" d="M 1178 307 
C 1178 492 1024 619 870 619 
C 685 619 557 466 557 313 
C 557 128 710 0 864 0 
C 1050 0 1178 153 1178 307 
z
" transform="scale(0.015625)"/>
        <path id="CMR17-31" d="M 1702 4058 
C 1702 4192 1696 4192 1606 4192 
C 1357 3916 979 3827 621 3827 
C 602 3827 570 3827 563 3808 
C 557 3795 557 3782 557 3648 
C 755 3648 1088 3686 1344 3839 
L 1344 461 
C 1344 236 1331 160 781 160 
L 589 160 
L 589 0 
C 896 0 1216 0 1523 0 
C 1830 0 2150 0 2458 0 
L 2458 160 
L 2266 160 
C 1715 160 1702 230 1702 458 
L 1702 4058 
z
" transform="scale(0.015625)"/>
       </defs>
       <use xlink:href="#CMSY10-0" transform="scale(0.996264)"/>
       <use xlink:href="#CMR17-30" transform="translate(77.487468 0) scale(0.996264)"/>
       <use xlink:href="#CMMI12-3a" transform="translate(123.177945 0) scale(0.996264)"/>
       <use xlink:href="#CMR17-31" transform="translate(150.275122 0) scale(0.996264)"/>
       <use xlink:href="#CMR17-30" transform="translate(195.965599 0) scale(0.996264)"/>
       <use xlink:href="#CMR17-30" transform="translate(241.656076 0) scale(0.996264)"/>
      </g>
     </g>
    </g>
    <g id="xtick_2">
     <g id="line2d_3">
      <path d="M 121.130601 304.594251 
L 121.130601 10.8 
" clip-path="url(#p8e53dbb111)" style="fill: none; stroke: #b0b0b0; stroke-width: 0.8; stroke-linecap: square"/>
     </g>
     <g id="line2d_4">
      <g>
       <use xlink:href="#m68bb6fc8ad" x="121.130601" y="304.594251" style="stroke: #000000; stroke-width: 0.8"/>
      </g>
     </g>
     <g id="text_2">
      <!-- $\mathdefault{−0.075}$ -->
      <g transform="translate(105.909854 318.512749) scale(0.1 -0.1)">
       <defs>
        <path id="CMR17-37" d="M 2886 3941 
L 2886 4081 
L 1382 4081 
C 634 4081 621 4165 595 4288 
L 480 4288 
L 294 3094 
L 410 3094 
C 429 3215 474 3540 550 3661 
C 589 3712 1062 3712 1171 3712 
L 2579 3712 
L 1869 2661 
C 1395 1954 1069 999 1069 165 
C 1069 89 1069 -128 1299 -128 
C 1530 -128 1530 89 1530 171 
L 1530 465 
C 1530 1508 1709 2196 2003 2636 
L 2886 3941 
z
" transform="scale(0.015625)"/>
        <path id="CMR17-35" d="M 730 3692 
C 794 3666 1056 3584 1325 3584 
C 1920 3584 2246 3911 2432 4100 
C 2432 4157 2432 4192 2394 4192 
C 2387 4192 2374 4192 2323 4163 
C 2099 4058 1837 3973 1517 3973 
C 1325 3973 1037 3999 723 4139 
C 653 4171 640 4171 634 4171 
C 602 4171 595 4164 595 4037 
L 595 2203 
C 595 2089 595 2057 659 2057 
C 691 2057 704 2070 736 2114 
C 941 2401 1222 2522 1542 2522 
C 1766 2522 2246 2382 2246 1289 
C 2246 1085 2246 715 2054 421 
C 1894 159 1645 25 1370 25 
C 947 25 518 320 403 814 
C 429 807 480 795 506 795 
C 589 795 749 840 749 1038 
C 749 1210 627 1280 506 1280 
C 358 1280 262 1190 262 1011 
C 262 454 704 -128 1382 -128 
C 2042 -128 2669 440 2669 1264 
C 2669 2030 2170 2624 1549 2624 
C 1222 2624 947 2503 730 2274 
L 730 3692 
z
" transform="scale(0.015625)"/>
       </defs>
       <use xlink:href="#CMSY10-0" transform="scale(0.996264)"/>
       <use xlink:href="#CMR17-30" transform="translate(77.487468 0) scale(0.996264)"/>
       <use xlink:href="#CMMI12-3a" transform="translate(123.177945 0) scale(0.996264)"/>
       <use xlink:href="#CMR17-30" transform="translate(150.275122 0) scale(0.996264)"/>
       <use xlink:href="#CMR17-37" transform="translate(195.965599 0) scale(0.996264)"/>
       <use xlink:href="#CMR17-35" transform="translate(241.656076 0) scale(0.996264)"/>
      </g>
     </g>
    </g>
    <g id="xtick_3">
     <g id="line2d_5">
      <path d="M 165.572411 304.594251 
L 165.572411 10.8 
" clip-path="url(#p8e53dbb111)" style="fill: none; stroke: #b0b0b0; stroke-width: 0.8; stroke-linecap: square"/>
     </g>
     <g id="line2d_6">
      <g>
       <use xlink:href="#m68bb6fc8ad" x="165.572411" y="304.594251" style="stroke: #000000; stroke-width: 0.8"/>
      </g>
     </g>
     <g id="text_3">
      <!-- $\mathdefault{−0.050}$ -->
      <g transform="translate(150.351665 318.512749) scale(0.1 -0.1)">
       <use xlink:href="#CMSY10-0" transform="scale(0.996264)"/>
       <use xlink:href="#CMR17-30" transform="translate(77.487468 0) scale(0.996264)"/>
       <use xlink:href="#CMMI12-3a" transform="translate(123.177945 0) scale(0.996264)"/>
       <use xlink:href="#CMR17-30" transform="translate(150.275122 0) scale(0.996264)"/>
       <use xlink:href="#CMR17-35" transform="translate(195.965599 0) scale(0.996264)"/>
       <use xlink:href="#CMR17-30" transform="translate(241.656076 0) scale(0.996264)"/>
      </g>
     </g>
    </g>
    <g id="xtick_4">
     <g id="line2d_7">
      <path d="M 210.014222 304.594251 
L 210.014222 10.8 
" clip-path="url(#p8e53dbb111)" style="fill: none; stroke: #b0b0b0; stroke-width: 0.8; stroke-linecap: square"/>
     </g>
     <g id="line2d_8">
      <g>
       <use xlink:href="#m68bb6fc8ad" x="210.014222" y="304.594251" style="stroke: #000000; stroke-width: 0.8"/>
      </g>
     </g>
     <g id="text_4">
      <!-- $\mathdefault{−0.025}$ -->
      <g transform="translate(194.793476 318.512749) scale(0.1 -0.1)">
       <defs>
        <path id="CMR17-32" d="M 2669 989 
L 2554 989 
C 2490 536 2438 459 2413 420 
C 2381 369 1920 369 1830 369 
L 602 369 
C 832 619 1280 1072 1824 1597 
C 2214 1967 2669 2402 2669 3035 
C 2669 3790 2067 4224 1395 4224 
C 691 4224 262 3604 262 3030 
C 262 2780 448 2748 525 2748 
C 589 2748 781 2787 781 3010 
C 781 3207 614 3264 525 3264 
C 486 3264 448 3258 422 3245 
C 544 3790 915 4058 1306 4058 
C 1862 4058 2227 3617 2227 3035 
C 2227 2479 1901 2000 1536 1584 
L 262 146 
L 262 0 
L 2515 0 
L 2669 989 
z
" transform="scale(0.015625)"/>
       </defs>
       <use xlink:href="#CMSY10-0" transform="scale(0.996264)"/>
       <use xlink:href="#CMR17-30" transform="translate(77.487468 0) scale(0.996264)"/>
       <use xlink:href="#CMMI12-3a" transform="translate(123.177945 0) scale(0.996264)"/>
       <use xlink:href="#CMR17-30" transform="translate(150.275122 0) scale(0.996264)"/>
       <use xlink:href="#CMR17-32" transform="translate(195.965599 0) scale(0.996264)"/>
       <use xlink:href="#CMR17-35" transform="translate(241.656076 0) scale(0.996264)"/>
      </g>
     </g>
    </g>
    <g id="xtick_5">
     <g id="line2d_9">
      <path d="M 254.456033 304.594251 
L 254.456033 10.8 
" clip-path="url(#p8e53dbb111)" style="fill: none; stroke: #b0b0b0; stroke-width: 0.8; stroke-linecap: square"/>
     </g>
     <g id="line2d_10">
      <g>
       <use xlink:href="#m68bb6fc8ad" x="254.456033" y="304.594251" style="stroke: #000000; stroke-width: 0.8"/>
      </g>
     </g>
     <g id="text_5">
      <!-- $\mathdefault{0.000}$ -->
      <g transform="translate(243.109658 318.512749) scale(0.1 -0.1)">
       <use xlink:href="#CMR17-30" transform="scale(0.996264)"/>
       <use xlink:href="#CMMI12-3a" transform="translate(45.690477 0) scale(0.996264)"/>
       <use xlink:href="#CMR17-30" transform="translate(72.787654 0) scale(0.996264)"/>
       <use xlink:href="#CMR17-30" transform="translate(118.478131 0) scale(0.996264)"/>
       <use xlink:href="#CMR17-30" transform="translate(164.168608 0) scale(0.996264)"/>
      </g>
     </g>
    </g>
    <g id="xtick_6">
     <g id="line2d_11">
      <path d="M 298.897844 304.594251 
L 298.897844 10.8 
" clip-path="url(#p8e53dbb111)" style="fill: none; stroke: #b0b0b0; stroke-width: 0.8; stroke-linecap: square"/>
     </g>
     <g id="line2d_12">
      <g>
       <use xlink:href="#m68bb6fc8ad" x="298.897844" y="304.594251" style="stroke: #000000; stroke-width: 0.8"/>
      </g>
     </g>
     <g id="text_6">
      <!-- $\mathdefault{0.025}$ -->
      <g transform="translate(287.551469 318.512749) scale(0.1 -0.1)">
       <use xlink:href="#CMR17-30" transform="scale(0.996264)"/>
       <use xlink:href="#CMMI12-3a" transform="translate(45.690477 0) scale(0.996264)"/>
       <use xlink:href="#CMR17-30" transform="translate(72.787654 0) scale(0.996264)"/>
       <use xlink:href="#CMR17-32" transform="translate(118.478131 0) scale(0.996264)"/>
       <use xlink:href="#CMR17-35" transform="translate(164.168608 0) scale(0.996264)"/>
      </g>
     </g>
    </g>
    <g id="xtick_7">
     <g id="line2d_13">
      <path d="M 343.339654 304.594251 
L 343.339654 10.8 
" clip-path="url(#p8e53dbb111)" style="fill: none; stroke: #b0b0b0; stroke-width: 0.8; stroke-linecap: square"/>
     </g>
     <g id="line2d_14">
      <g>
       <use xlink:href="#m68bb6fc8ad" x="343.339654" y="304.594251" style="stroke: #000000; stroke-width: 0.8"/>
      </g>
     </g>
     <g id="text_7">
      <!-- $\mathdefault{0.050}$ -->
      <g transform="translate(331.99328 318.512749) scale(0.1 -0.1)">
       <use xlink:href="#CMR17-30" transform="scale(0.996264)"/>
       <use xlink:href="#CMMI12-3a" transform="translate(45.690477 0) scale(0.996264)"/>
       <use xlink:href="#CMR17-30" transform="translate(72.787654 0) scale(0.996264)"/>
       <use xlink:href="#CMR17-35" transform="translate(118.478131 0) scale(0.996264)"/>
       <use xlink:href="#CMR17-30" transform="translate(164.168608 0) scale(0.996264)"/>
      </g>
     </g>
    </g>
    <g id="xtick_8">
     <g id="line2d_15">
      <path d="M 387.781465 304.594251 
L 387.781465 10.8 
" clip-path="url(#p8e53dbb111)" style="fill: none; stroke: #b0b0b0; stroke-width: 0.8; stroke-linecap: square"/>
     </g>
     <g id="line2d_16">
      <g>
       <use xlink:href="#m68bb6fc8ad" x="387.781465" y="304.594251" style="stroke: #000000; stroke-width: 0.8"/>
      </g>
     </g>
     <g id="text_8">
      <!-- $\mathdefault{0.075}$ -->
      <g transform="translate(376.43509 318.512749) scale(0.1 -0.1)">
       <use xlink:href="#CMR17-30" transform="scale(0.996264)"/>
       <use xlink:href="#CMMI12-3a" transform="translate(45.690477 0) scale(0.996264)"/>
       <use xlink:href="#CMR17-30" transform="translate(72.787654 0) scale(0.996264)"/>
       <use xlink:href="#CMR17-37" transform="translate(118.478131 0) scale(0.996264)"/>
       <use xlink:href="#CMR17-35" transform="translate(164.168608 0) scale(0.996264)"/>
      </g>
     </g>
    </g>
    <g id="xtick_9">
     <g id="line2d_17">
      <path d="M 432.223276 304.594251 
L 432.223276 10.8 
" clip-path="url(#p8e53dbb111)" style="fill: none; stroke: #b0b0b0; stroke-width: 0.8; stroke-linecap: square"/>
     </g>
     <g id="line2d_18">
      <g>
       <use xlink:href="#m68bb6fc8ad" x="432.223276" y="304.594251" style="stroke: #000000; stroke-width: 0.8"/>
      </g>
     </g>
     <g id="text_9">
      <!-- $\mathdefault{0.100}$ -->
      <g transform="translate(420.876901 318.512749) scale(0.1 -0.1)">
       <use xlink:href="#CMR17-30" transform="scale(0.996264)"/>
       <use xlink:href="#CMMI12-3a" transform="translate(45.690477 0) scale(0.996264)"/>
       <use xlink:href="#CMR17-31" transform="translate(72.787654 0) scale(0.996264)"/>
       <use xlink:href="#CMR17-30" transform="translate(118.478131 0) scale(0.996264)"/>
       <use xlink:href="#CMR17-30" transform="translate(164.168608 0) scale(0.996264)"/>
      </g>
     </g>
    </g>
    <g id="text_10">
     <!-- $\Tangential\ShiftStep$ in \unit{\meter} -->
     <g transform="translate(234.333532 331.257711) scale(0.1 -0.1)">
      <defs>
       <path id="CMR17-1" d="M 2598 4403 
C 2547 4512 2522 4512 2470 4512 
C 2394 4512 2387 4499 2342 4409 
L 269 109 
C 262 96 237 38 237 32 
C 237 6 243 0 358 0 
L 4576 0 
C 4691 0 4698 6 4698 32 
C 4698 38 4672 96 4666 109 
L 2598 4403 
z
M 2310 4038 
L 4083 358 
L 531 358 
L 2310 4038 
z
" transform="scale(0.015625)"/>
       <path id="CMMI12-73" d="M 1459 1280 
C 1568 1261 1741 1223 1779 1216 
C 1862 1192 2150 1090 2150 783 
C 2150 586 1971 70 1229 70 
C 1094 70 614 70 486 436 
C 742 404 870 603 870 745 
C 870 880 781 950 653 950 
C 512 950 326 841 326 552 
C 326 173 710 -64 1222 -64 
C 2195 -64 2483 651 2483 984 
C 2483 1079 2483 1258 2278 1462 
C 2118 1616 1965 1648 1619 1718 
C 1446 1756 1171 1814 1171 2101 
C 1171 2229 1286 2689 1894 2689 
C 2163 2689 2426 2589 2490 2368 
C 2208 2368 2195 2125 2195 2119 
C 2195 1984 2317 1946 2374 1946 
C 2464 1946 2643 2015 2643 2281 
C 2643 2545 2400 2816 1901 2816 
C 1062 2816 838 2160 838 1899 
C 838 1414 1312 1312 1459 1280 
z
" transform="scale(0.015625)"/>
       <path id="CMSY10-6b" d="M 1103 4582 
C 1103 4685 1103 4800 975 4800 
C 847 4800 847 4659 847 4563 
L 847 -1363 
C 847 -1466 847 -1600 975 -1600 
C 1103 -1600 1103 -1485 1103 -1382 
L 1103 4582 
z
M 2351 4563 
C 2351 4666 2351 4800 2223 4800 
C 2095 4800 2095 4685 2095 4582 
L 2095 -1382 
C 2095 -1485 2095 -1600 2223 -1600 
C 2351 -1600 2351 -1459 2351 -1363 
L 2351 4563 
z
" transform="scale(0.015625)"/>
       <path id="CMR17-69" d="M 992 3909 
C 992 4049 877 4170 730 4170 
C 589 4170 467 4056 467 3909 
C 467 3769 582 3648 730 3648 
C 870 3648 992 3763 992 3909 
z
M 243 2706 
L 243 2541 
C 602 2541 653 2502 653 2197 
L 653 427 
C 653 184 627 153 218 153 
L 218 -13 
C 371 0 646 0 806 0 
C 960 0 1222 0 1370 -13 
L 1370 153 
C 992 153 979 191 979 420 
L 979 2776 
L 243 2706 
z
" transform="scale(0.015625)"/>
       <path id="CMR17-6e" d="M 2656 1933 
C 2656 2259 2592 2790 1837 2790 
C 1331 2790 1069 2400 973 2144 
L 966 2144 
L 966 2790 
L 211 2720 
L 211 2554 
C 589 2554 646 2515 646 2208 
L 646 428 
C 646 184 621 153 211 153 
L 211 -13 
C 365 0 646 0 813 0 
C 979 0 1267 0 1421 -13 
L 1421 153 
C 1011 153 986 178 986 428 
L 986 1658 
C 986 2247 1344 2688 1792 2688 
C 2266 2688 2317 2266 2317 1958 
L 2317 428 
C 2317 184 2291 153 1882 153 
L 1882 -13 
C 2035 0 2317 0 2483 0 
C 2650 0 2938 0 3091 -13 
L 3091 153 
C 2682 153 2656 178 2656 428 
L 2656 1933 
z
" transform="scale(0.015625)"/>
       <path id="CMR17-6d" d="M 4326 1933 
C 4326 2252 4269 2790 3507 2790 
C 3072 2790 2771 2496 2656 2151 
L 2650 2151 
C 2573 2676 2195 2790 1837 2790 
C 1331 2790 1069 2400 973 2144 
L 966 2144 
L 966 2790 
L 211 2720 
L 211 2554 
C 589 2554 646 2515 646 2208 
L 646 428 
C 646 184 621 153 211 153 
L 211 -13 
C 365 0 646 0 813 0 
C 979 0 1267 0 1421 -13 
L 1421 153 
C 1011 153 986 178 986 428 
L 986 1658 
C 986 2247 1344 2688 1792 2688 
C 2266 2688 2317 2266 2317 1958 
L 2317 428 
C 2317 184 2291 153 1882 153 
L 1882 -13 
C 2035 0 2317 0 2483 0 
C 2650 0 2938 0 3091 -13 
L 3091 153 
C 2682 153 2656 178 2656 428 
L 2656 1658 
C 2656 2247 3014 2688 3462 2688 
C 3936 2688 3987 2266 3987 1958 
L 3987 428 
C 3987 184 3962 153 3552 153 
L 3552 -13 
C 3706 0 3987 0 4154 0 
C 4320 0 4608 0 4762 -13 
L 4762 153 
C 4352 153 4326 178 4326 428 
L 4326 1933 
z
" transform="scale(0.015625)"/>
      </defs>
      <use xlink:href="#CMR17-1" transform="scale(0.996264)"/>
      <use xlink:href="#CMMI12-73" transform="translate(71.384788 0) scale(0.996264)"/>
      <use xlink:href="#CMSY10-6b" transform="translate(117.334836 -17.987904) scale(0.697382)"/>
      <use xlink:href="#CMR17-69" transform="translate(182.778144 0) scale(0.996264)"/>
      <use xlink:href="#CMR17-6e" transform="translate(207.649202 0) scale(0.996264)"/>
      <use xlink:href="#CMR17-6d" transform="translate(288.620539 0) scale(0.996264)"/>
     </g>
    </g>
   </g>
   <g id="matplotlib.axis_2">
    <g id="ytick_1">
     <g id="line2d_19">
      <path d="M 58.912066 298.069521 
L 450 298.069521 
" clip-path="url(#p8e53dbb111)" style="fill: none; stroke: #b0b0b0; stroke-width: 0.8; stroke-linecap: square"/>
     </g>
     <g id="line2d_20">
      <defs>
       <path id="md6ce4993d1" d="M 0 0 
L -3.5 0 
" style="stroke: #000000; stroke-width: 0.8"/>
      </defs>
      <g>
       <use xlink:href="#md6ce4993d1" x="58.912066" y="298.069521" style="stroke: #000000; stroke-width: 0.8"/>
      </g>
     </g>
     <g id="text_11">
      <!-- $\mathdefault{−0.08}$ -->
      <g transform="translate(26.451908 301.528771) scale(0.1 -0.1)">
       <defs>
        <path id="CMR17-38" d="M 1741 2264 
C 2144 2467 2554 2773 2554 3263 
C 2554 3841 1990 4179 1472 4179 
C 890 4179 378 3759 378 3180 
C 378 3021 416 2747 666 2505 
C 730 2442 998 2251 1171 2130 
C 883 1983 211 1634 211 934 
C 211 279 838 -128 1459 -128 
C 2144 -128 2720 362 2720 1010 
C 2720 1590 2330 1857 2074 2029 
L 1741 2264 
z
M 902 2822 
C 851 2854 595 3051 595 3351 
C 595 3739 998 4032 1459 4032 
C 1965 4032 2336 3676 2336 3262 
C 2336 2669 1670 2331 1638 2331 
C 1632 2331 1626 2331 1574 2370 
L 902 2822 
z
M 2080 1519 
C 2176 1449 2483 1240 2483 851 
C 2483 381 2010 25 1472 25 
C 890 25 448 438 448 940 
C 448 1443 838 1862 1280 2060 
L 2080 1519 
z
" transform="scale(0.015625)"/>
       </defs>
       <use xlink:href="#CMSY10-0" transform="scale(0.996264)"/>
       <use xlink:href="#CMR17-30" transform="translate(77.487468 0) scale(0.996264)"/>
       <use xlink:href="#CMMI12-3a" transform="translate(123.177945 0) scale(0.996264)"/>
       <use xlink:href="#CMR17-30" transform="translate(150.275122 0) scale(0.996264)"/>
       <use xlink:href="#CMR17-38" transform="translate(195.965599 0) scale(0.996264)"/>
      </g>
     </g>
    </g>
    <g id="ytick_2">
     <g id="line2d_21">
      <path d="M 58.912066 258.884859 
L 450 258.884859 
" clip-path="url(#p8e53dbb111)" style="fill: none; stroke: #b0b0b0; stroke-width: 0.8; stroke-linecap: square"/>
     </g>
     <g id="line2d_22">
      <g>
       <use xlink:href="#md6ce4993d1" x="58.912066" y="258.884859" style="stroke: #000000; stroke-width: 0.8"/>
      </g>
     </g>
     <g id="text_12">
      <!-- $\mathdefault{−0.06}$ -->
      <g transform="translate(26.451908 262.344108) scale(0.1 -0.1)">
       <defs>
        <path id="CMR17-36" d="M 678 2176 
C 678 3690 1395 4032 1811 4032 
C 1946 4032 2272 4009 2400 3776 
C 2298 3776 2106 3776 2106 3553 
C 2106 3381 2246 3323 2336 3323 
C 2394 3323 2566 3348 2566 3560 
C 2566 3954 2246 4179 1805 4179 
C 1043 4179 243 3390 243 1984 
C 243 253 966 -128 1478 -128 
C 2099 -128 2688 427 2688 1283 
C 2688 2081 2170 2662 1517 2662 
C 1126 2662 838 2407 678 1960 
L 678 2176 
z
M 1478 25 
C 691 25 691 1200 691 1436 
C 691 1896 909 2560 1504 2560 
C 1613 2560 1926 2560 2138 2120 
C 2253 1870 2253 1609 2253 1289 
C 2253 944 2253 690 2118 434 
C 1978 171 1773 25 1478 25 
z
" transform="scale(0.015625)"/>
       </defs>
       <use xlink:href="#CMSY10-0" transform="scale(0.996264)"/>
       <use xlink:href="#CMR17-30" transform="translate(77.487468 0) scale(0.996264)"/>
       <use xlink:href="#CMMI12-3a" transform="translate(123.177945 0) scale(0.996264)"/>
       <use xlink:href="#CMR17-30" transform="translate(150.275122 0) scale(0.996264)"/>
       <use xlink:href="#CMR17-36" transform="translate(195.965599 0) scale(0.996264)"/>
      </g>
     </g>
    </g>
    <g id="ytick_3">
     <g id="line2d_23">
      <path d="M 58.912066 219.700196 
L 450 219.700196 
" clip-path="url(#p8e53dbb111)" style="fill: none; stroke: #b0b0b0; stroke-width: 0.8; stroke-linecap: square"/>
     </g>
     <g id="line2d_24">
      <g>
       <use xlink:href="#md6ce4993d1" x="58.912066" y="219.700196" style="stroke: #000000; stroke-width: 0.8"/>
      </g>
     </g>
     <g id="text_13">
      <!-- $\mathdefault{−0.04}$ -->
      <g transform="translate(26.451908 223.159445) scale(0.1 -0.1)">
       <defs>
        <path id="CMR17-34" d="M 2150 4122 
C 2150 4256 2144 4256 2029 4256 
L 128 1254 
L 128 1088 
L 1779 1088 
L 1779 457 
C 1779 224 1766 160 1318 160 
L 1197 160 
L 1197 0 
C 1402 0 1747 0 1965 0 
C 2182 0 2528 0 2733 0 
L 2733 160 
L 2611 160 
C 2163 160 2150 224 2150 457 
L 2150 1088 
L 2803 1088 
L 2803 1254 
L 2150 1254 
L 2150 4122 
z
M 1798 3703 
L 1798 1254 
L 256 1254 
L 1798 3703 
z
" transform="scale(0.015625)"/>
       </defs>
       <use xlink:href="#CMSY10-0" transform="scale(0.996264)"/>
       <use xlink:href="#CMR17-30" transform="translate(77.487468 0) scale(0.996264)"/>
       <use xlink:href="#CMMI12-3a" transform="translate(123.177945 0) scale(0.996264)"/>
       <use xlink:href="#CMR17-30" transform="translate(150.275122 0) scale(0.996264)"/>
       <use xlink:href="#CMR17-34" transform="translate(195.965599 0) scale(0.996264)"/>
      </g>
     </g>
    </g>
    <g id="ytick_4">
     <g id="line2d_25">
      <path d="M 58.912066 180.515533 
L 450 180.515533 
" clip-path="url(#p8e53dbb111)" style="fill: none; stroke: #b0b0b0; stroke-width: 0.8; stroke-linecap: square"/>
     </g>
     <g id="line2d_26">
      <g>
       <use xlink:href="#md6ce4993d1" x="58.912066" y="180.515533" style="stroke: #000000; stroke-width: 0.8"/>
      </g>
     </g>
     <g id="text_14">
      <!-- $\mathdefault{−0.02}$ -->
      <g transform="translate(26.451908 183.974782) scale(0.1 -0.1)">
       <use xlink:href="#CMSY10-0" transform="scale(0.996264)"/>
       <use xlink:href="#CMR17-30" transform="translate(77.487468 0) scale(0.996264)"/>
       <use xlink:href="#CMMI12-3a" transform="translate(123.177945 0) scale(0.996264)"/>
       <use xlink:href="#CMR17-30" transform="translate(150.275122 0) scale(0.996264)"/>
       <use xlink:href="#CMR17-32" transform="translate(195.965599 0) scale(0.996264)"/>
      </g>
     </g>
    </g>
    <g id="ytick_5">
     <g id="line2d_27">
      <path d="M 58.912066 141.33087 
L 450 141.33087 
" clip-path="url(#p8e53dbb111)" style="fill: none; stroke: #b0b0b0; stroke-width: 0.8; stroke-linecap: square"/>
     </g>
     <g id="line2d_28">
      <g>
       <use xlink:href="#md6ce4993d1" x="58.912066" y="141.33087" style="stroke: #000000; stroke-width: 0.8"/>
      </g>
     </g>
     <g id="text_15">
      <!-- $\mathdefault{0.00}$ -->
      <g transform="translate(34.200651 144.790119) scale(0.1 -0.1)">
       <use xlink:href="#CMR17-30" transform="scale(0.996264)"/>
       <use xlink:href="#CMMI12-3a" transform="translate(45.690477 0) scale(0.996264)"/>
       <use xlink:href="#CMR17-30" transform="translate(72.787654 0) scale(0.996264)"/>
       <use xlink:href="#CMR17-30" transform="translate(118.478131 0) scale(0.996264)"/>
      </g>
     </g>
    </g>
    <g id="ytick_6">
     <g id="line2d_29">
      <path d="M 58.912066 102.146208 
L 450 102.146208 
" clip-path="url(#p8e53dbb111)" style="fill: none; stroke: #b0b0b0; stroke-width: 0.8; stroke-linecap: square"/>
     </g>
     <g id="line2d_30">
      <g>
       <use xlink:href="#md6ce4993d1" x="58.912066" y="102.146208" style="stroke: #000000; stroke-width: 0.8"/>
      </g>
     </g>
     <g id="text_16">
      <!-- $\mathdefault{0.02}$ -->
      <g transform="translate(34.200651 105.605457) scale(0.1 -0.1)">
       <use xlink:href="#CMR17-30" transform="scale(0.996264)"/>
       <use xlink:href="#CMMI12-3a" transform="translate(45.690477 0) scale(0.996264)"/>
       <use xlink:href="#CMR17-30" transform="translate(72.787654 0) scale(0.996264)"/>
       <use xlink:href="#CMR17-32" transform="translate(118.478131 0) scale(0.996264)"/>
      </g>
     </g>
    </g>
    <g id="ytick_7">
     <g id="line2d_31">
      <path d="M 58.912066 62.961545 
L 450 62.961545 
" clip-path="url(#p8e53dbb111)" style="fill: none; stroke: #b0b0b0; stroke-width: 0.8; stroke-linecap: square"/>
     </g>
     <g id="line2d_32">
      <g>
       <use xlink:href="#md6ce4993d1" x="58.912066" y="62.961545" style="stroke: #000000; stroke-width: 0.8"/>
      </g>
     </g>
     <g id="text_17">
      <!-- $\mathdefault{0.04}$ -->
      <g transform="translate(34.200651 66.420794) scale(0.1 -0.1)">
       <use xlink:href="#CMR17-30" transform="scale(0.996264)"/>
       <use xlink:href="#CMMI12-3a" transform="translate(45.690477 0) scale(0.996264)"/>
       <use xlink:href="#CMR17-30" transform="translate(72.787654 0) scale(0.996264)"/>
       <use xlink:href="#CMR17-34" transform="translate(118.478131 0) scale(0.996264)"/>
      </g>
     </g>
    </g>
    <g id="ytick_8">
     <g id="line2d_33">
      <path d="M 58.912066 23.776882 
L 450 23.776882 
" clip-path="url(#p8e53dbb111)" style="fill: none; stroke: #b0b0b0; stroke-width: 0.8; stroke-linecap: square"/>
     </g>
     <g id="line2d_34">
      <g>
       <use xlink:href="#md6ce4993d1" x="58.912066" y="23.776882" style="stroke: #000000; stroke-width: 0.8"/>
      </g>
     </g>
     <g id="text_18">
      <!-- $\mathdefault{0.06}$ -->
      <g transform="translate(34.200651 27.236131) scale(0.1 -0.1)">
       <use xlink:href="#CMR17-30" transform="scale(0.996264)"/>
       <use xlink:href="#CMMI12-3a" transform="translate(45.690477 0) scale(0.996264)"/>
       <use xlink:href="#CMR17-30" transform="translate(72.787654 0) scale(0.996264)"/>
       <use xlink:href="#CMR17-36" transform="translate(118.478131 0) scale(0.996264)"/>
      </g>
     </g>
    </g>
    <g id="text_19">
     <!-- $\Tangential\GibbsEnergyStep$ in \unit{\joule\per\meter} -->
     <g transform="translate(18.909619 187.890191) rotate(-90) scale(0.1 -0.1)">
      <defs>
       <path id="CMMI12-47" d="M 4774 4423 
C 4774 4480 4730 4480 4717 4480 
C 4704 4480 4678 4480 4627 4416 
L 4186 3889 
C 4154 3940 4026 4163 3776 4309 
C 3501 4480 3226 4480 3130 4480 
C 1760 4480 320 3095 320 1595 
C 320 546 1050 -128 2010 -128 
C 2470 -128 3053 25 3373 427 
C 3443 185 3584 12 3629 12 
C 3661 12 3667 32 3674 32 
C 3680 44 3731 270 3763 385 
L 3866 797 
C 3917 1009 3942 1099 3987 1291 
C 4051 1536 4064 1536 4416 1536 
C 4442 1536 4518 1536 4518 1666 
C 4518 1734 4454 1734 4435 1734 
C 4326 1734 4205 1734 4090 1734 
L 3744 1734 
C 3475 1734 3194 1734 2931 1734 
C 2874 1734 2797 1734 2797 1611 
C 2797 1542 2848 1542 2848 1536 
L 3008 1536 
C 3514 1536 3514 1489 3514 1402 
C 3514 1395 3392 751 3270 561 
C 3027 204 2522 57 2144 57 
C 1651 57 851 312 851 1410 
C 851 1836 1005 2808 1626 3526 
C 2029 3984 2624 4295 3187 4295 
C 3942 4295 4211 3655 4211 3071 
C 4211 2970 4186 2831 4186 2742 
C 4186 2685 4250 2685 4269 2685 
C 4339 2685 4346 2691 4371 2805 
L 4774 4423 
z
" transform="scale(0.015625)"/>
       <path id="CMR17-4a" d="M 1888 910 
C 1888 324 1568 -26 1242 -26 
C 1075 -26 691 49 525 431 
C 550 425 582 418 608 418 
C 730 418 883 501 883 692 
C 883 845 774 960 614 960 
C 461 960 339 865 339 682 
C 339 258 730 -128 1254 -128 
C 1754 -128 2214 229 2291 764 
C 2298 809 2298 821 2298 1038 
L 2298 3715 
C 2298 3823 2298 4001 2310 4039 
C 2336 4160 2483 4160 2682 4160 
L 2682 4320 
C 2669 4320 2214 4320 2054 4320 
C 1786 4320 1491 4320 1222 4320 
L 1222 4160 
L 1376 4160 
C 1875 4160 1888 4090 1888 3861 
L 1888 910 
z
" transform="scale(0.015625)"/>
      </defs>
      <use xlink:href="#CMR17-1" transform="scale(0.996264)"/>
      <use xlink:href="#CMMI12-47" transform="translate(71.384788 0) scale(0.996264)"/>
      <use xlink:href="#CMSY10-6b" transform="translate(148.33165 -17.987904) scale(0.697382)"/>
      <use xlink:href="#CMR17-69" transform="translate(213.774958 0) scale(0.996264)"/>
      <use xlink:href="#CMR17-6e" transform="translate(238.646017 0) scale(0.996264)"/>
      <use xlink:href="#CMR17-4a" transform="translate(319.617353 0) scale(0.996264)"/>
      <use xlink:href="#CMR17-6d" transform="translate(383.193548 0) scale(0.996264)"/>
      <use xlink:href="#CMSY10-0" transform="translate(460.113138 36.153639) scale(0.697382)"/>
      <use xlink:href="#CMR17-31" transform="translate(514.354131 36.153639) scale(0.697382)"/>
     </g>
    </g>
   </g>
   <g id="line2d_35">
    <path d="M 76.68879 126.627655 
L 83.944596 127.804067 
L 91.200402 128.93136 
L 98.456207 130.009544 
L 105.712013 131.038633 
L 112.967819 132.018639 
L 120.223625 132.949572 
L 127.479431 133.831443 
L 134.735237 134.664263 
L 141.991042 135.448042 
L 149.246848 136.182788 
L 156.502654 136.868511 
L 163.75846 137.505218 
L 171.014266 138.092918 
L 178.270072 138.631618 
L 185.525877 139.121324 
L 192.781683 139.562042 
L 200.037489 139.953778 
L 207.293295 140.296536 
L 214.549101 140.590321 
L 221.804907 140.835136 
L 229.060712 141.030984 
L 236.316518 141.177868 
L 243.572324 141.27579 
L 250.82813 141.32475 
L 258.083936 141.32475 
L 265.339742 141.27579 
L 272.595547 141.177868 
L 279.851353 141.030984 
L 287.107159 140.835136 
L 294.362965 140.590321 
L 301.618771 140.296536 
L 308.874577 139.953778 
L 316.130382 139.562042 
L 323.386188 139.121324 
L 330.641994 138.631618 
L 337.8978 138.092918 
L 345.153606 137.505218 
L 352.409412 136.868511 
L 359.665217 136.182788 
L 366.921023 135.448042 
L 374.176829 134.664263 
L 381.432635 133.831443 
L 388.688441 132.949572 
L 395.944247 132.018639 
L 403.200052 131.038633 
L 410.455858 130.009544 
L 417.711664 128.93136 
L 424.96747 127.804067 
L 432.223276 126.627655 
" clip-path="url(#p8e53dbb111)" style="fill: none; stroke: #1f77b4; stroke-width: 1.5; stroke-linecap: square"/>
   </g>
   <g id="line2d_36">
    <path d="M 76.68879 141.33087 
L 83.944596 141.33087 
L 91.200402 141.33087 
L 98.456207 141.33087 
L 105.712013 141.33087 
L 112.967819 141.33087 
L 120.223625 141.33087 
L 127.479431 141.33087 
L 134.735237 141.33087 
L 141.991042 141.33087 
L 149.246848 141.33087 
L 156.502654 141.33087 
L 163.75846 141.33087 
L 171.014266 141.33087 
L 178.270072 141.33087 
L 185.525877 141.33087 
L 192.781683 141.33087 
L 200.037489 141.33087 
L 207.293295 141.33087 
L 214.549101 141.33087 
L 221.804907 141.33087 
L 229.060712 141.33087 
L 236.316518 141.33087 
L 243.572324 141.33087 
L 250.82813 141.33087 
L 258.083936 141.33087 
L 265.339742 141.33087 
L 272.595547 141.33087 
L 279.851353 141.33087 
L 287.107159 141.33087 
L 294.362965 141.33087 
L 301.618771 141.33087 
L 308.874577 141.33087 
L 316.130382 141.33087 
L 323.386188 141.33087 
L 330.641994 141.33087 
L 337.8978 141.33087 
L 345.153606 141.33087 
L 352.409412 141.33087 
L 359.665217 141.33087 
L 366.921023 141.33087 
L 374.176829 141.33087 
L 381.432635 141.33087 
L 388.688441 141.33087 
L 395.944247 141.33087 
L 403.200052 141.33087 
L 410.455858 141.33087 
L 417.711664 141.33087 
L 424.96747 141.33087 
L 432.223276 141.33087 
" clip-path="url(#p8e53dbb111)" style="fill: none; stroke-dasharray: 5.55,2.4; stroke-dashoffset: 0; stroke: #1f77b4; stroke-width: 1.5"/>
   </g>
   <g id="line2d_37">
    <path d="M 76.68879 21.680597 
L 83.944596 27.400695 
L 91.200402 33.050602 
L 98.456207 38.630189 
L 105.712013 44.13933 
L 112.967819 49.577896 
L 120.223625 54.945756 
L 127.479431 60.24278 
L 134.735237 65.468835 
L 141.991042 70.62379 
L 149.246848 75.70751 
L 156.502654 80.71986 
L 163.75846 85.660704 
L 171.014266 90.529905 
L 178.270072 95.327326 
L 185.525877 100.052826 
L 192.781683 104.706266 
L 200.037489 109.287504 
L 207.293295 113.7964 
L 214.549101 118.232809 
L 221.804907 122.596587 
L 229.060712 126.887589 
L 236.316518 131.10567 
L 243.572324 135.250681 
L 250.82813 139.322476 
L 258.083936 143.320905 
L 265.339742 147.245818 
L 272.595547 151.097064 
L 279.851353 154.874492 
L 287.107159 158.577949 
L 294.362965 162.207283 
L 301.618771 165.762337 
L 308.874577 169.242959 
L 316.130382 172.64899 
L 323.386188 175.980276 
L 330.641994 179.236659 
L 337.8978 182.41798 
L 345.153606 185.524081 
L 352.409412 188.554802 
L 359.665217 191.509983 
L 366.921023 194.389464 
L 374.176829 197.193083 
L 381.432635 199.920679 
L 388.688441 202.572089 
L 395.944247 205.14715 
L 403.200052 207.645699 
L 410.455858 210.067572 
L 417.711664 212.412606 
L 424.96747 214.680637 
L 432.223276 216.871498 
" clip-path="url(#p8e53dbb111)" style="fill: none; stroke: #ff7f0e; stroke-width: 1.5; stroke-linecap: square"/>
   </g>
   <g id="line2d_38">
    <path d="M 76.68879 43.369213 
L 83.944596 47.367648 
L 91.200402 51.366083 
L 98.456207 55.364518 
L 105.712013 59.362953 
L 112.967819 63.361388 
L 120.223625 67.359823 
L 127.479431 71.358258 
L 134.735237 75.356693 
L 141.991042 79.355128 
L 149.246848 83.353563 
L 156.502654 87.351998 
L 163.75846 91.350433 
L 171.014266 95.348868 
L 178.270072 99.347303 
L 185.525877 103.345738 
L 192.781683 107.344173 
L 200.037489 111.342608 
L 207.293295 115.341043 
L 214.549101 119.339478 
L 221.804907 123.337913 
L 229.060712 127.336348 
L 236.316518 131.334783 
L 243.572324 135.333218 
L 250.82813 139.331653 
L 258.083936 143.330088 
L 265.339742 147.328523 
L 272.595547 151.326958 
L 279.851353 155.325393 
L 287.107159 159.323828 
L 294.362965 163.322263 
L 301.618771 167.320698 
L 308.874577 171.319133 
L 316.130382 175.317568 
L 323.386188 179.316003 
L 330.641994 183.314438 
L 337.8978 187.312873 
L 345.153606 191.311308 
L 352.409412 195.309743 
L 359.665217 199.308177 
L 366.921023 203.306612 
L 374.176829 207.305047 
L 381.432635 211.303482 
L 388.688441 215.301917 
L 395.944247 219.300352 
L 403.200052 223.298787 
L 410.455858 227.297222 
L 417.711664 231.295657 
L 424.96747 235.294092 
L 432.223276 239.292527 
" clip-path="url(#p8e53dbb111)" style="fill: none; stroke-dasharray: 5.55,2.4; stroke-dashoffset: 0; stroke: #ff7f0e; stroke-width: 1.5"/>
   </g>
   <g id="line2d_39">
    <path d="M 76.68879 216.871498 
L 83.944596 214.680637 
L 91.200402 212.412606 
L 98.456207 210.067572 
L 105.712013 207.645699 
L 112.967819 205.14715 
L 120.223625 202.572089 
L 127.479431 199.920679 
L 134.735237 197.193083 
L 141.991042 194.389464 
L 149.246848 191.509983 
L 156.502654 188.554802 
L 163.75846 185.524081 
L 171.014266 182.41798 
L 178.270072 179.236659 
L 185.525877 175.980276 
L 192.781683 172.64899 
L 200.037489 169.242959 
L 207.293295 165.762337 
L 214.549101 162.207283 
L 221.804907 158.577949 
L 229.060712 154.874492 
L 236.316518 151.097064 
L 243.572324 147.245818 
L 250.82813 143.320905 
L 258.083936 139.322476 
L 265.339742 135.250681 
L 272.595547 131.10567 
L 279.851353 126.887589 
L 287.107159 122.596587 
L 294.362965 118.232809 
L 301.618771 113.7964 
L 308.874577 109.287504 
L 316.130382 104.706266 
L 323.386188 100.052826 
L 330.641994 95.327326 
L 337.8978 90.529905 
L 345.153606 85.660704 
L 352.409412 80.71986 
L 359.665217 75.70751 
L 366.921023 70.62379 
L 374.176829 65.468835 
L 381.432635 60.24278 
L 388.688441 54.945756 
L 395.944247 49.577896 
L 403.200052 44.13933 
L 410.455858 38.630189 
L 417.711664 33.050602 
L 424.96747 27.400695 
L 432.223276 21.680597 
" clip-path="url(#p8e53dbb111)" style="fill: none; stroke: #2ca02c; stroke-width: 1.5; stroke-linecap: square"/>
   </g>
   <g id="line2d_40">
    <path d="M 76.68879 239.292527 
L 83.944596 235.294092 
L 91.200402 231.295657 
L 98.456207 227.297222 
L 105.712013 223.298787 
L 112.967819 219.300352 
L 120.223625 215.301917 
L 127.479431 211.303482 
L 134.735237 207.305047 
L 141.991042 203.306612 
L 149.246848 199.308177 
L 156.502654 195.309743 
L 163.75846 191.311308 
L 171.014266 187.312873 
L 178.270072 183.314438 
L 185.525877 179.316003 
L 192.781683 175.317568 
L 200.037489 171.319133 
L 207.293295 167.320698 
L 214.549101 163.322263 
L 221.804907 159.323828 
L 229.060712 155.325393 
L 236.316518 151.326958 
L 243.572324 147.328523 
L 250.82813 143.330088 
L 258.083936 139.331653 
L 265.339742 135.333218 
L 272.595547 131.334783 
L 279.851353 127.336348 
L 287.107159 123.337913 
L 294.362965 119.339478 
L 301.618771 115.341043 
L 308.874577 111.342608 
L 316.130382 107.344173 
L 323.386188 103.345738 
L 330.641994 99.347303 
L 337.8978 95.348868 
L 345.153606 91.350433 
L 352.409412 87.351998 
L 359.665217 83.353563 
L 366.921023 79.355128 
L 374.176829 75.356693 
L 381.432635 71.358258 
L 388.688441 67.359823 
L 395.944247 63.361388 
L 403.200052 59.362953 
L 410.455858 55.364518 
L 417.711664 51.366083 
L 424.96747 47.367648 
L 432.223276 43.369213 
" clip-path="url(#p8e53dbb111)" style="fill: none; stroke-dasharray: 5.55,2.4; stroke-dashoffset: 0; stroke: #2ca02c; stroke-width: 1.5"/>
   </g>
   <g id="patch_3">
    <path d="M 58.912066 304.594251 
L 58.912066 10.8 
" style="fill: none; stroke: #000000; stroke-width: 0.8; stroke-linejoin: miter; stroke-linecap: square"/>
   </g>
   <g id="patch_4">
    <path d="M 450 304.594251 
L 450 10.8 
" style="fill: none; stroke: #000000; stroke-width: 0.8; stroke-linejoin: miter; stroke-linecap: square"/>
   </g>
   <g id="patch_5">
    <path d="M 58.912066 304.594251 
L 450 304.594251 
" style="fill: none; stroke: #000000; stroke-width: 0.8; stroke-linejoin: miter; stroke-linecap: square"/>
   </g>
   <g id="patch_6">
    <path d="M 58.912066 10.8 
L 450 10.8 
" style="fill: none; stroke: #000000; stroke-width: 0.8; stroke-linejoin: miter; stroke-linecap: square"/>
   </g>
   <g id="legend_1">
    <g id="patch_7">
     <path d="M 65.912066 299.594251 
L 254.423688 299.594251 
Q 256.423688 299.594251 256.423688 297.594251 
L 256.423688 219.15906 
Q 256.423688 217.15906 254.423688 217.15906 
L 65.912066 217.15906 
Q 63.912066 217.15906 63.912066 219.15906 
L 63.912066 297.594251 
Q 63.912066 299.594251 65.912066 299.594251 
z
" style="fill: #ffffff; opacity: 0.8; stroke: #cccccc; stroke-linejoin: miter"/>
    </g>
    <g id="line2d_41">
     <path d="M 67.912066 225.768679 
L 77.912066 225.768679 
L 87.912066 225.768679 
" style="fill: none; stroke: #1f77b4; stroke-width: 1.5; stroke-linecap: square"/>
    </g>
    <g id="text_20">
     <!-- $\Upper\InterfaceEnergy=\qty{1}{\joule\per\square\meter}, \Lower\InterfaceEnergy=\qty{1}{\joule\per\square\meter}, \Tangential\SurfaceRadiusAngle=\qty{60}{\degree}$ -->
     <g transform="translate(95.912066 229.268679) scale(0.1 -0.1)">
      <defs>
       <path id="CMMI12-d" d="M 2419 760 
C 2406 1071 2394 1561 2150 2133 
C 2022 2452 1805 2788 1338 2788 
C 550 2788 122 1790 122 1625 
C 122 1567 166 1567 186 1567 
C 243 1567 243 1580 275 1663 
C 410 2057 819 2368 1261 2368 
C 2150 2368 2278 1383 2278 754 
C 2278 352 2234 220 2195 92 
C 2074 -302 1862 -1090 1862 -1268 
C 1862 -1319 1882 -1376 1933 -1376 
C 2029 -1376 2086 -1166 2157 -912 
C 2310 -353 2349 -73 2381 181 
C 2400 334 2765 1384 3270 2382 
C 3315 2483 3405 2655 3405 2674 
C 3405 2680 3398 2725 3341 2725 
C 3328 2725 3296 2725 3283 2699 
C 3270 2687 3046 2254 2854 1822 
C 2758 1606 2630 1320 2419 760 
z
" transform="scale(0.015625)"/>
       <path id="CMR17-75" d="M 1882 2693 
L 1882 2528 
C 2259 2528 2317 2489 2317 2186 
L 2317 1032 
C 2317 500 2029 38 1555 38 
C 1030 38 986 348 986 678 
L 986 2763 
L 211 2693 
L 211 2528 
C 467 2528 640 2528 646 2274 
L 646 1058 
C 646 633 646 361 813 183 
C 896 101 1056 -64 1517 -64 
C 2061 -64 2272 377 2323 506 
L 2330 506 
L 2330 -63 
L 3091 -63 
L 3091 128 
C 2714 128 2656 166 2656 473 
L 2656 2763 
L 1882 2693 
z
" transform="scale(0.015625)"/>
       <path id="CMR17-3d" d="M 4115 2017 
C 4211 2017 4307 2017 4307 2125 
C 4307 2240 4198 2240 4090 2240 
L 512 2240 
C 403 2240 294 2240 294 2125 
C 294 2017 390 2017 486 2017 
L 4115 2017 
z
M 4090 896 
C 4198 896 4307 896 4307 1011 
C 4307 1119 4211 1119 4115 1119 
L 486 1119 
C 390 1119 294 1119 294 1011 
C 294 896 403 896 512 896 
L 4090 896 
z
" transform="scale(0.015625)"/>
       <path id="CMMI12-3b" d="M 1248 -31 
C 1248 343 1126 619 864 619 
C 659 619 557 453 557 313 
C 557 172 653 0 870 0 
C 954 0 1024 26 1082 83 
C 1094 96 1101 96 1107 96 
C 1120 96 1120 5 1120 -27 
C 1120 -240 1082 -659 710 -1080 
C 640 -1157 640 -1170 640 -1183 
C 640 -1216 672 -1248 704 -1248 
C 755 -1248 1248 -771 1248 -31 
z
" transform="scale(0.015625)"/>
       <path id="CMR17-6c" d="M 979 4396 
L 218 4326 
L 218 4160 
C 595 4160 653 4122 653 3817 
L 653 426 
C 653 184 627 153 218 153 
L 218 -13 
C 371 0 653 0 813 0 
C 979 0 1261 0 1414 -13 
L 1414 153 
C 1005 153 979 178 979 426 
L 979 4396 
z
" transform="scale(0.015625)"/>
       <path id="CMMI12-b" d="M 2963 1616 
C 2963 2235 2611 2815 1933 2815 
C 1094 2815 256 1902 256 996 
C 256 441 602 -64 1254 -64 
C 1651 -64 2125 89 2579 472 
C 2669 115 2867 -64 3142 -64 
C 3488 -64 3661 294 3661 377 
C 3661 434 3616 434 3597 434 
C 3546 434 3539 415 3520 364 
C 3462 204 3315 64 3162 64 
C 2963 64 2963 472 2963 862 
C 3616 1641 3770 2446 3770 2452 
C 3770 2510 3718 2510 3699 2510 
C 3642 2510 3635 2491 3610 2376 
C 3526 2095 3360 1597 2963 1073 
L 2963 1616 
z
M 2560 626 
C 1997 121 1491 64 1267 64 
C 813 64 685 466 685 766 
C 685 1040 826 1692 1024 2044 
C 1286 2491 1645 2688 1933 2688 
C 2554 2688 2554 1877 2554 1341 
C 2554 1182 2547 1016 2547 856 
C 2547 728 2554 696 2560 626 
z
" transform="scale(0.015625)"/>
       <path id="CMSY10-e" d="M 2842 1600 
C 2842 2277 2272 2828 1600 2828 
C 909 2828 352 2264 352 1600 
C 352 930 909 372 1600 372 
C 2272 372 2842 923 2842 1600 
z
M 1600 628 
C 1043 628 608 1070 608 1600 
C 608 2130 1050 2572 1600 2572 
C 2131 2572 2586 2142 2586 1600 
C 2586 1058 2131 628 1600 628 
z
" transform="scale(0.015625)"/>
      </defs>
      <use xlink:href="#CMMI12-d" transform="scale(0.996264)"/>
      <use xlink:href="#CMR17-75" transform="translate(50.599133 -14.943915) scale(0.697382)"/>
      <use xlink:href="#CMR17-3d" transform="translate(114.397882 0) scale(0.996264)"/>
      <use xlink:href="#CMR17-31" transform="translate(213.786679 0) scale(0.996264)"/>
      <use xlink:href="#CMR17-4a" transform="translate(276.081561 0) scale(0.996264)"/>
      <use xlink:href="#CMR17-6d" transform="translate(339.657756 0) scale(0.996264)"/>
      <use xlink:href="#CMSY10-0" transform="translate(416.577346 36.153639) scale(0.697382)"/>
      <use xlink:href="#CMR17-32" transform="translate(470.818339 36.153639) scale(0.697382)"/>
      <use xlink:href="#CMMI12-3b" transform="translate(503.299653 0) scale(0.996264)"/>
      <use xlink:href="#CMMI12-d" transform="translate(547.001236 0) scale(0.996264)"/>
      <use xlink:href="#CMR17-6c" transform="translate(597.600368 -14.943915) scale(0.697382)"/>
      <use xlink:href="#CMR17-3d" transform="translate(643.182168 0) scale(0.996264)"/>
      <use xlink:href="#CMR17-31" transform="translate(742.570965 0) scale(0.996264)"/>
      <use xlink:href="#CMR17-4a" transform="translate(804.865847 0) scale(0.996264)"/>
      <use xlink:href="#CMR17-6d" transform="translate(868.442042 0) scale(0.996264)"/>
      <use xlink:href="#CMSY10-0" transform="translate(945.361632 36.153639) scale(0.697382)"/>
      <use xlink:href="#CMR17-32" transform="translate(999.602625 36.153639) scale(0.697382)"/>
      <use xlink:href="#CMMI12-3b" transform="translate(1032.083939 0) scale(0.996264)"/>
      <use xlink:href="#CMMI12-b" transform="translate(1075.785522 0) scale(0.996264)"/>
      <use xlink:href="#CMSY10-6b" transform="translate(1137.83225 -17.987904) scale(0.697382)"/>
      <use xlink:href="#CMR17-3d" transform="translate(1200.873601 0) scale(0.996264)"/>
      <use xlink:href="#CMR17-36" transform="translate(1300.262398 0) scale(0.996264)"/>
      <use xlink:href="#CMR17-30" transform="translate(1345.952875 0) scale(0.996264)"/>
      <use xlink:href="#CMSY10-e" transform="translate(1391.643352 36.153639) scale(0.697382)"/>
     </g>
    </g>
    <g id="line2d_42">
     <path d="M 67.912066 242.420587 
L 77.912066 242.420587 
L 87.912066 242.420587 
" style="fill: none; stroke: #ff7f0e; stroke-width: 1.5; stroke-linecap: square"/>
    </g>
    <g id="text_21">
     <!-- $\Upper\InterfaceEnergy=\qty{2}{\joule\per\square\meter}, \Lower\InterfaceEnergy=\qty{1}{\joule\per\square\meter}, \Tangential\SurfaceRadiusAngle=\qty{60}{\degree}$ -->
     <g transform="translate(95.912066 245.920587) scale(0.1 -0.1)">
      <use xlink:href="#CMMI12-d" transform="scale(0.996264)"/>
      <use xlink:href="#CMR17-75" transform="translate(50.599133 -14.943915) scale(0.697382)"/>
      <use xlink:href="#CMR17-3d" transform="translate(114.397882 0) scale(0.996264)"/>
      <use xlink:href="#CMR17-32" transform="translate(213.786679 0) scale(0.996264)"/>
      <use xlink:href="#CMR17-4a" transform="translate(276.081561 0) scale(0.996264)"/>
      <use xlink:href="#CMR17-6d" transform="translate(339.657756 0) scale(0.996264)"/>
      <use xlink:href="#CMSY10-0" transform="translate(416.577346 36.153639) scale(0.697382)"/>
      <use xlink:href="#CMR17-32" transform="translate(470.818339 36.153639) scale(0.697382)"/>
      <use xlink:href="#CMMI12-3b" transform="translate(503.299653 0) scale(0.996264)"/>
      <use xlink:href="#CMMI12-d" transform="translate(547.001236 0) scale(0.996264)"/>
      <use xlink:href="#CMR17-6c" transform="translate(597.600368 -14.943915) scale(0.697382)"/>
      <use xlink:href="#CMR17-3d" transform="translate(643.182168 0) scale(0.996264)"/>
      <use xlink:href="#CMR17-31" transform="translate(742.570965 0) scale(0.996264)"/>
      <use xlink:href="#CMR17-4a" transform="translate(804.865847 0) scale(0.996264)"/>
      <use xlink:href="#CMR17-6d" transform="translate(868.442042 0) scale(0.996264)"/>
      <use xlink:href="#CMSY10-0" transform="translate(945.361632 36.153639) scale(0.697382)"/>
      <use xlink:href="#CMR17-32" transform="translate(999.602625 36.153639) scale(0.697382)"/>
      <use xlink:href="#CMMI12-3b" transform="translate(1032.083939 0) scale(0.996264)"/>
      <use xlink:href="#CMMI12-b" transform="translate(1075.785522 0) scale(0.996264)"/>
      <use xlink:href="#CMSY10-6b" transform="translate(1137.83225 -17.987904) scale(0.697382)"/>
      <use xlink:href="#CMR17-3d" transform="translate(1200.873601 0) scale(0.996264)"/>
      <use xlink:href="#CMR17-36" transform="translate(1300.262398 0) scale(0.996264)"/>
      <use xlink:href="#CMR17-30" transform="translate(1345.952875 0) scale(0.996264)"/>
      <use xlink:href="#CMSY10-e" transform="translate(1391.643352 36.153639) scale(0.697382)"/>
     </g>
    </g>
    <g id="line2d_43">
     <path d="M 67.912066 259.072494 
L 77.912066 259.072494 
L 87.912066 259.072494 
" style="fill: none; stroke: #2ca02c; stroke-width: 1.5; stroke-linecap: square"/>
    </g>
    <g id="text_22">
     <!-- $\Upper\InterfaceEnergy=\qty{1}{\joule\per\square\meter}, \Lower\InterfaceEnergy=\qty{2}{\joule\per\square\meter}, \Tangential\SurfaceRadiusAngle=\qty{60}{\degree}$ -->
     <g transform="translate(95.912066 262.572494) scale(0.1 -0.1)">
      <use xlink:href="#CMMI12-d" transform="scale(0.996264)"/>
      <use xlink:href="#CMR17-75" transform="translate(50.599133 -14.943915) scale(0.697382)"/>
      <use xlink:href="#CMR17-3d" transform="translate(114.397882 0) scale(0.996264)"/>
      <use xlink:href="#CMR17-31" transform="translate(213.786679 0) scale(0.996264)"/>
      <use xlink:href="#CMR17-4a" transform="translate(276.081561 0) scale(0.996264)"/>
      <use xlink:href="#CMR17-6d" transform="translate(339.657756 0) scale(0.996264)"/>
      <use xlink:href="#CMSY10-0" transform="translate(416.577346 36.153639) scale(0.697382)"/>
      <use xlink:href="#CMR17-32" transform="translate(470.818339 36.153639) scale(0.697382)"/>
      <use xlink:href="#CMMI12-3b" transform="translate(503.299653 0) scale(0.996264)"/>
      <use xlink:href="#CMMI12-d" transform="translate(547.001236 0) scale(0.996264)"/>
      <use xlink:href="#CMR17-6c" transform="translate(597.600368 -14.943915) scale(0.697382)"/>
      <use xlink:href="#CMR17-3d" transform="translate(643.182168 0) scale(0.996264)"/>
      <use xlink:href="#CMR17-32" transform="translate(742.570965 0) scale(0.996264)"/>
      <use xlink:href="#CMR17-4a" transform="translate(804.865847 0) scale(0.996264)"/>
      <use xlink:href="#CMR17-6d" transform="translate(868.442042 0) scale(0.996264)"/>
      <use xlink:href="#CMSY10-0" transform="translate(945.361632 36.153639) scale(0.697382)"/>
      <use xlink:href="#CMR17-32" transform="translate(999.602625 36.153639) scale(0.697382)"/>
      <use xlink:href="#CMMI12-3b" transform="translate(1032.083939 0) scale(0.996264)"/>
      <use xlink:href="#CMMI12-b" transform="translate(1075.785522 0) scale(0.996264)"/>
      <use xlink:href="#CMSY10-6b" transform="translate(1137.83225 -17.987904) scale(0.697382)"/>
      <use xlink:href="#CMR17-3d" transform="translate(1200.873601 0) scale(0.996264)"/>
      <use xlink:href="#CMR17-36" transform="translate(1300.262398 0) scale(0.996264)"/>
      <use xlink:href="#CMR17-30" transform="translate(1345.952875 0) scale(0.996264)"/>
      <use xlink:href="#CMSY10-e" transform="translate(1391.643352 36.153639) scale(0.697382)"/>
     </g>
    </g>
    <g id="line2d_44">
     <path d="M 67.912066 274.614783 
L 77.912066 274.614783 
L 87.912066 274.614783 
" style="fill: none; stroke: #000000; stroke-width: 1.5; stroke-linecap: square"/>
    </g>
    <g id="text_23">
     <!-- Exakt Solution -->
     <g transform="translate(95.912066 278.114783) scale(0.1 -0.1)">
      <defs>
       <path id="CMR17-45" d="M 3885 1615 
L 3770 1615 
C 3629 676 3546 166 2419 166 
L 1530 166 
C 1274 166 1261 197 1261 414 
L 1261 2176 
L 1862 2176 
C 2464 2176 2522 1960 2522 1430 
L 2637 1430 
L 2637 3081 
L 2522 3081 
C 2522 2557 2464 2342 1862 2342 
L 1261 2342 
L 1261 3913 
C 1261 4128 1274 4160 1530 4160 
L 2406 4160 
C 3398 4160 3514 3769 3603 2929 
L 3718 2929 
L 3565 4325 
L 326 4325 
L 326 4160 
C 768 4160 838 4160 838 3874 
L 838 451 
C 838 166 768 166 326 166 
L 326 0 
L 3654 0 
L 3885 1615 
z
" transform="scale(0.015625)"/>
       <path id="CMR17-78" d="M 1664 1477 
C 1856 1726 2074 2006 2253 2216 
C 2464 2458 2707 2560 2989 2560 
L 2989 2726 
C 2880 2726 2656 2726 2541 2726 
C 2368 2726 2170 2726 2022 2732 
L 2022 2566 
C 2112 2553 2163 2489 2163 2400 
C 2163 2285 2099 2215 2067 2171 
L 1594 1573 
L 1030 2306 
C 973 2376 973 2388 973 2420 
C 973 2497 1037 2560 1146 2560 
L 1146 2732 
C 992 2726 717 2726 557 2726 
C 384 2726 179 2726 38 2732 
L 38 2560 
C 384 2560 461 2534 614 2343 
L 1350 1395 
C 1363 1382 1395 1344 1395 1325 
C 1395 1299 838 619 768 530 
C 480 185 179 160 6 160 
L 6 0 
C 115 0 339 0 454 0 
C 582 0 864 0 979 -6 
L 979 160 
C 941 166 838 179 838 325 
C 838 440 890 510 947 586 
L 1478 1236 
L 2035 512 
C 2086 442 2163 346 2163 301 
C 2163 211 2086 160 1984 160 
L 1984 -6 
C 2138 0 2413 0 2573 0 
C 2746 0 2950 0 3091 -6 
L 3091 160 
C 2771 160 2675 172 2522 370 
L 1664 1477 
z
" transform="scale(0.015625)"/>
       <path id="CMR17-61" d="M 2304 1653 
C 2304 2072 2304 2294 2035 2543 
C 1798 2752 1523 2816 1306 2816 
C 800 2816 435 2407 435 1971 
C 435 1728 627 1728 666 1728 
C 749 1728 896 1778 896 1954 
C 896 2112 774 2181 666 2181 
C 640 2181 608 2174 589 2168 
C 723 2592 1069 2714 1293 2714 
C 1613 2714 1965 2429 1965 1885 
L 1965 1600 
C 1587 1600 1133 1549 774 1357 
C 371 1133 256 813 256 570 
C 256 77 832 -64 1171 -64 
C 1523 -64 1850 139 1990 511 
C 2003 233 2182 -18 2464 -18 
C 2598 -18 2938 70 2938 567 
L 2938 920 
L 2822 920 
L 2822 562 
C 2822 178 2650 128 2566 128 
C 2304 128 2304 458 2304 738 
L 2304 1653 
z
M 1965 870 
C 1965 317 1568 38 1216 38 
C 896 38 646 275 646 570 
C 646 761 730 1100 1101 1305 
C 1408 1478 1760 1504 1965 1504 
L 1965 870 
z
" transform="scale(0.015625)"/>
       <path id="CMR17-6b" d="M 1670 1673 
C 1664 1686 1632 1724 1632 1743 
C 1632 1756 2086 2171 2144 2222 
C 2509 2528 2739 2560 2906 2560 
L 2906 2733 
C 2867 2733 2854 2733 2848 2720 
L 2534 2720 
C 2355 2720 2080 2720 1907 2733 
L 1907 2566 
C 1997 2559 2061 2508 2061 2419 
C 2061 2291 1933 2170 1926 2170 
L 960 1289 
L 960 4396 
L 198 4326 
L 198 4160 
C 576 4160 634 4122 634 3817 
L 634 426 
C 634 184 608 153 198 153 
L 198 -13 
C 352 0 634 0 794 0 
C 954 0 1235 0 1389 -13 
L 1389 153 
C 979 153 954 178 954 428 
L 954 1130 
L 1395 1532 
L 2042 574 
C 2118 459 2182 369 2182 286 
C 2182 172 2067 153 1990 153 
L 1990 -13 
C 2144 0 2419 0 2579 0 
C 2694 0 2931 0 3040 0 
L 3040 153 
C 2739 153 2669 210 2477 491 
L 1670 1673 
z
" transform="scale(0.015625)"/>
       <path id="CMR17-74" d="M 966 2560 
L 1862 2560 
L 1862 2725 
L 966 2725 
L 966 3904 
L 851 3904 
C 838 3245 614 2668 70 2668 
L 70 2560 
L 627 2560 
L 627 771 
C 627 650 627 -64 1370 -64 
C 1747 -64 1965 306 1965 777 
L 1965 1140 
L 1850 1140 
L 1850 783 
C 1850 344 1677 51 1408 51 
C 1222 51 966 178 966 758 
L 966 2560 
z
" transform="scale(0.015625)"/>
       <path id="CMR17-53" d="M 2803 4290 
C 2803 4404 2797 4411 2758 4411 
C 2720 4411 2707 4385 2682 4328 
L 2490 3907 
C 2246 4257 1875 4416 1472 4416 
C 819 4416 294 3901 294 3253 
C 294 3056 339 2776 557 2510 
C 794 2218 1018 2167 1530 2033 
C 1722 1982 2042 1899 2106 1874 
C 2470 1722 2662 1341 2662 985 
C 2662 527 2336 38 1779 38 
C 1094 38 454 419 410 1311 
C 403 1413 397 1419 352 1419 
C 301 1419 294 1413 294 1285 
L 294 -1 
C 294 -115 301 -122 339 -122 
C 384 -122 397 -90 486 108 
C 493 127 493 140 614 381 
C 934 -39 1472 -128 1779 -128 
C 2477 -128 2970 451 2970 1124 
C 2970 1454 2848 1708 2778 1823 
C 2509 2230 2221 2306 1914 2382 
C 1869 2402 1856 2402 1498 2490 
C 1152 2579 1005 2624 845 2796 
C 666 2992 602 3196 602 3399 
C 602 3812 934 4263 1478 4263 
C 2157 4263 2579 3786 2675 2993 
C 2694 2878 2701 2872 2746 2872 
C 2803 2872 2803 2891 2803 2999 
L 2803 4290 
z
" transform="scale(0.015625)"/>
       <path id="CMR17-6f" d="M 2758 1356 
C 2758 2176 2163 2816 1466 2816 
C 768 2816 173 2176 173 1356 
C 173 551 768 -64 1466 -64 
C 2163 -64 2758 551 2758 1356 
z
M 1466 51 
C 1165 51 909 230 762 480 
C 602 767 582 1126 582 1408 
C 582 1677 595 2010 762 2298 
C 890 2509 1139 2714 1466 2714 
C 1754 2714 1997 2554 2150 2330 
C 2349 2029 2349 1607 2349 1408 
C 2349 1158 2336 775 2163 467 
C 1984 173 1709 51 1466 51 
z
" transform="scale(0.015625)"/>
      </defs>
      <use xlink:href="#CMR17-45" transform="scale(0.996264)"/>
      <use xlink:href="#CMR17-78" transform="translate(62.586301 0) scale(0.996264)"/>
      <use xlink:href="#CMR17-61" transform="translate(110.879216 0) scale(0.996264)"/>
      <use xlink:href="#CMR17-6b" transform="translate(156.569693 0) scale(0.996264)"/>
      <use xlink:href="#CMR17-74" transform="translate(204.862609 0) scale(0.996264)"/>
      <use xlink:href="#CMR17-53" transform="translate(270.219343 0) scale(0.996264)"/>
      <use xlink:href="#CMR17-6f" transform="translate(321.114713 0) scale(0.996264)"/>
      <use xlink:href="#CMR17-6c" transform="translate(366.80519 0) scale(0.996264)"/>
      <use xlink:href="#CMR17-75" transform="translate(391.676249 0) scale(0.996264)"/>
      <use xlink:href="#CMR17-74" transform="translate(442.571619 0) scale(0.996264)"/>
      <use xlink:href="#CMR17-69" transform="translate(477.852386 0) scale(0.996264)"/>
      <use xlink:href="#CMR17-6f" transform="translate(502.723445 0) scale(0.996264)"/>
      <use xlink:href="#CMR17-6e" transform="translate(548.413922 0) scale(0.996264)"/>
     </g>
    </g>
    <g id="line2d_45">
     <path d="M 67.912066 288.551962 
L 77.912066 288.551962 
L 87.912066 288.551962 
" style="fill: none; stroke-dasharray: 5.55,2.4; stroke-dashoffset: 0; stroke: #000000; stroke-width: 1.5"/>
    </g>
    <g id="text_24">
     <!-- Tangent in $\Tangential\ShiftStep=0$ -->
     <g transform="translate(95.912066 292.051962) scale(0.1 -0.1)">
      <defs>
       <path id="CMR17-54" d="M 3981 4326 
L 288 4326 
L 179 2918 
L 294 2918 
C 378 3976 467 4160 1453 4160 
C 1568 4160 1754 4160 1805 4154 
C 1926 4135 1926 4058 1926 3912 
L 1926 459 
C 1926 230 1907 160 1376 160 
L 1197 160 
L 1197 0 
C 1504 0 1824 0 2138 0 
C 2451 0 2771 0 3078 0 
L 3078 160 
L 2899 160 
C 2368 160 2349 230 2349 459 
L 2349 3912 
C 2349 4052 2349 4129 2464 4154 
C 2515 4160 2701 4160 2816 4160 
C 3795 4160 3891 3976 3974 2918 
L 4090 2918 
L 3981 4326 
z
" transform="scale(0.015625)"/>
       <path id="CMR17-67" d="M 710 1164 
C 832 1068 1043 960 1299 960 
C 1805 960 2240 1357 2240 1888 
C 2240 2054 2189 2310 1997 2509 
C 2176 2692 2438 2752 2586 2752 
C 2611 2752 2650 2752 2682 2734 
C 2656 2728 2598 2703 2598 2605 
C 2598 2527 2656 2471 2739 2471 
C 2835 2471 2886 2533 2886 2614 
C 2886 2731 2790 2854 2586 2854 
C 2330 2854 2106 2738 1926 2580 
C 1734 2753 1504 2816 1299 2816 
C 794 2816 358 2419 358 1888 
C 358 1522 570 1292 634 1228 
C 442 1004 442 743 442 711 
C 442 545 506 302 723 168 
C 390 85 128 -169 128 -486 
C 128 -943 736 -1280 1466 -1280 
C 2170 -1280 2803 -956 2803 -479 
C 2803 384 1856 384 1363 384 
C 1216 384 954 384 922 391 
C 723 423 589 602 589 826 
C 589 883 589 1024 710 1164 
z
M 1299 1068 
C 736 1068 736 1760 736 1889 
C 736 2016 736 2708 1299 2708 
C 1862 2708 1862 2016 1862 1889 
C 1862 1760 1862 1068 1299 1068 
z
M 1466 -1171 
C 826 -1171 384 -835 384 -486 
C 384 -289 493 -105 634 -4 
C 794 104 858 104 1293 104 
C 1818 104 2547 104 2547 -486 
C 2547 -835 2106 -1171 1466 -1171 
z
" transform="scale(0.015625)"/>
       <path id="CMR17-65" d="M 2438 1472 
C 2464 1498 2464 1511 2464 1576 
C 2464 2238 2118 2816 1389 2816 
C 710 2816 173 2169 173 1383 
C 173 551 781 -64 1459 -64 
C 2176 -64 2458 607 2458 740 
C 2458 784 2419 784 2406 784 
C 2362 784 2355 771 2330 696 
C 2189 265 1837 51 1504 51 
C 1229 51 954 203 781 480 
C 582 803 582 1176 582 1472 
L 2438 1472 
z
M 589 1568 
C 634 2505 1126 2714 1382 2714 
C 1818 2714 2112 2297 2118 1568 
L 589 1568 
z
" transform="scale(0.015625)"/>
      </defs>
      <use xlink:href="#CMR17-54" transform="scale(0.996264)"/>
      <use xlink:href="#CMR17-61" transform="translate(58.702625 0) scale(0.996264)"/>
      <use xlink:href="#CMR17-6e" transform="translate(104.393102 0) scale(0.996264)"/>
      <use xlink:href="#CMR17-67" transform="translate(155.288472 0) scale(0.996264)"/>
      <use xlink:href="#CMR17-65" transform="translate(200.978949 0) scale(0.996264)"/>
      <use xlink:href="#CMR17-6e" transform="translate(241.46461 0) scale(0.996264)"/>
      <use xlink:href="#CMR17-74" transform="translate(289.757525 0) scale(0.996264)"/>
      <use xlink:href="#CMR17-69" transform="translate(355.11426 0) scale(0.996264)"/>
      <use xlink:href="#CMR17-6e" transform="translate(379.985318 0) scale(0.996264)"/>
      <use xlink:href="#CMR17-1" transform="translate(460.956654 0) scale(0.996264)"/>
      <use xlink:href="#CMMI12-73" transform="translate(532.341442 0) scale(0.996264)"/>
      <use xlink:href="#CMSY10-6b" transform="translate(578.29149 -17.987904) scale(0.697382)"/>
      <use xlink:href="#CMR17-3d" transform="translate(641.332841 0) scale(0.996264)"/>
      <use xlink:href="#CMR17-30" transform="translate(740.721638 0) scale(0.996264)"/>
     </g>
    </g>
   </g>
  </g>
 </g>
 <defs>
  <clipPath id="p8e53dbb111">
   <rect x="58.912066" y="10.8" width="391.087934" height="293.794251"/>
  </clipPath>
 </defs>
</svg>
