<?xml version="1.0" encoding="utf-8" standalone="no"?>
<!DOCTYPE svg PUBLIC "-//W3C//DTD SVG 1.1//EN"
  "http://www.w3.org/Graphics/SVG/1.1/DTD/svg11.dtd">
<svg xmlns:xlink="http://www.w3.org/1999/xlink" width="432pt" height="288pt" viewBox="0 0 432 288" xmlns="http://www.w3.org/2000/svg" version="1.1">
 <metadata>
  <rdf:RDF xmlns:dc="http://purl.org/dc/elements/1.1/" xmlns:cc="http://creativecommons.org/ns#" xmlns:rdf="http://www.w3.org/1999/02/22-rdf-syntax-ns#">
   <cc:Work>
    <dc:type rdf:resource="http://purl.org/dc/dcmitype/StillImage"/>
    <dc:date>2023-10-11T13:29:12.956905</dc:date>
    <dc:format>image/svg+xml</dc:format>
    <dc:creator>
     <cc:Agent>
      <dc:title>Matplotlib v3.7.2, https://matplotlib.org/</dc:title>
     </cc:Agent>
    </dc:creator>
   </cc:Work>
  </rdf:RDF>
 </metadata>
 <defs>
  <style type="text/css">*{stroke-linejoin: round; stroke-linecap: butt}</style>
 </defs>
 <g id="figure_1">
  <g id="patch_1">
   <path d="M 0 288 
L 432 288 
L 432 0 
L 0 0 
z
" style="fill: #ffffff"/>
  </g>
  <g id="axes_1">
   <g id="patch_2">
    <path d="M 58.912066 246.994251 
L 421.2 246.994251 
L 421.2 10.8 
L 58.912066 10.8 
z
" style="fill: #ffffff"/>
   </g>
   <g id="matplotlib.axis_1">
    <g id="xtick_1">
     <g id="line2d_1">
      <path d="M 75.379699 246.994251 
L 75.379699 10.8 
" clip-path="url(#p1e0a7fd039)" style="fill: none; stroke: #b0b0b0; stroke-width: 0.8; stroke-linecap: square"/>
     </g>
     <g id="line2d_2">
      <defs>
       <path id="m8873fff46f" d="M 0 0 
L 0 3.5 
" style="stroke: #000000; stroke-width: 0.8"/>
      </defs>
      <g>
       <use xlink:href="#m8873fff46f" x="75.379699" y="246.994251" style="stroke: #000000; stroke-width: 0.8"/>
      </g>
     </g>
     <g id="text_1">
      <!-- $\mathdefault{−0.100}$ -->
      <g transform="translate(60.158952 260.912749) scale(0.1 -0.1)">
       <defs>
        <path id="CMSY10-0" d="M 4218 1472 
C 4326 1472 4442 1472 4442 1600 
C 4442 1728 4326 1728 4218 1728 
L 755 1728 
C 646 1728 531 1728 531 1600 
C 531 1472 646 1472 755 1472 
L 4218 1472 
z
" transform="scale(0.015625)"/>
        <path id="CMR17-30" d="M 2688 2025 
C 2688 2416 2682 3080 2413 3591 
C 2176 4039 1798 4198 1466 4198 
C 1158 4198 768 4058 525 3597 
C 269 3118 243 2524 243 2025 
C 243 1661 250 1106 448 619 
C 723 -39 1216 -128 1466 -128 
C 1760 -128 2208 -7 2470 600 
C 2662 1042 2688 1559 2688 2025 
z
M 1466 -26 
C 1056 -26 813 325 723 812 
C 653 1188 653 1738 653 2096 
C 653 2588 653 2997 736 3387 
C 858 3929 1216 4096 1466 4096 
C 1728 4096 2067 3923 2189 3400 
C 2272 3036 2278 2607 2278 2096 
C 2278 1680 2278 1169 2202 792 
C 2067 95 1690 -26 1466 -26 
z
" transform="scale(0.015625)"/>
        <path id="CMMI12-3a" d="M 1178 307 
C 1178 492 1024 619 870 619 
C 685 619 557 466 557 313 
C 557 128 710 0 864 0 
C 1050 0 1178 153 1178 307 
z
" transform="scale(0.015625)"/>
        <path id="CMR17-31" d="M 1702 4058 
C 1702 4192 1696 4192 1606 4192 
C 1357 3916 979 3827 621 3827 
C 602 3827 570 3827 563 3808 
C 557 3795 557 3782 557 3648 
C 755 3648 1088 3686 1344 3839 
L 1344 461 
C 1344 236 1331 160 781 160 
L 589 160 
L 589 0 
C 896 0 1216 0 1523 0 
C 1830 0 2150 0 2458 0 
L 2458 160 
L 2266 160 
C 1715 160 1702 230 1702 458 
L 1702 4058 
z
" transform="scale(0.015625)"/>
       </defs>
       <use xlink:href="#CMSY10-0" transform="scale(0.996264)"/>
       <use xlink:href="#CMR17-30" transform="translate(77.487468 0) scale(0.996264)"/>
       <use xlink:href="#CMMI12-3a" transform="translate(123.177945 0) scale(0.996264)"/>
       <use xlink:href="#CMR17-31" transform="translate(150.275122 0) scale(0.996264)"/>
       <use xlink:href="#CMR17-30" transform="translate(195.965599 0) scale(0.996264)"/>
       <use xlink:href="#CMR17-30" transform="translate(241.656076 0) scale(0.996264)"/>
      </g>
     </g>
    </g>
    <g id="xtick_2">
     <g id="line2d_3">
      <path d="M 116.548783 246.994251 
L 116.548783 10.8 
" clip-path="url(#p1e0a7fd039)" style="fill: none; stroke: #b0b0b0; stroke-width: 0.8; stroke-linecap: square"/>
     </g>
     <g id="line2d_4">
      <g>
       <use xlink:href="#m8873fff46f" x="116.548783" y="246.994251" style="stroke: #000000; stroke-width: 0.8"/>
      </g>
     </g>
     <g id="text_2">
      <!-- $\mathdefault{−0.075}$ -->
      <g transform="translate(101.328036 260.912749) scale(0.1 -0.1)">
       <defs>
        <path id="CMR17-37" d="M 2886 3941 
L 2886 4081 
L 1382 4081 
C 634 4081 621 4165 595 4288 
L 480 4288 
L 294 3094 
L 410 3094 
C 429 3215 474 3540 550 3661 
C 589 3712 1062 3712 1171 3712 
L 2579 3712 
L 1869 2661 
C 1395 1954 1069 999 1069 165 
C 1069 89 1069 -128 1299 -128 
C 1530 -128 1530 89 1530 171 
L 1530 465 
C 1530 1508 1709 2196 2003 2636 
L 2886 3941 
z
" transform="scale(0.015625)"/>
        <path id="CMR17-35" d="M 730 3692 
C 794 3666 1056 3584 1325 3584 
C 1920 3584 2246 3911 2432 4100 
C 2432 4157 2432 4192 2394 4192 
C 2387 4192 2374 4192 2323 4163 
C 2099 4058 1837 3973 1517 3973 
C 1325 3973 1037 3999 723 4139 
C 653 4171 640 4171 634 4171 
C 602 4171 595 4164 595 4037 
L 595 2203 
C 595 2089 595 2057 659 2057 
C 691 2057 704 2070 736 2114 
C 941 2401 1222 2522 1542 2522 
C 1766 2522 2246 2382 2246 1289 
C 2246 1085 2246 715 2054 421 
C 1894 159 1645 25 1370 25 
C 947 25 518 320 403 814 
C 429 807 480 795 506 795 
C 589 795 749 840 749 1038 
C 749 1210 627 1280 506 1280 
C 358 1280 262 1190 262 1011 
C 262 454 704 -128 1382 -128 
C 2042 -128 2669 440 2669 1264 
C 2669 2030 2170 2624 1549 2624 
C 1222 2624 947 2503 730 2274 
L 730 3692 
z
" transform="scale(0.015625)"/>
       </defs>
       <use xlink:href="#CMSY10-0" transform="scale(0.996264)"/>
       <use xlink:href="#CMR17-30" transform="translate(77.487468 0) scale(0.996264)"/>
       <use xlink:href="#CMMI12-3a" transform="translate(123.177945 0) scale(0.996264)"/>
       <use xlink:href="#CMR17-30" transform="translate(150.275122 0) scale(0.996264)"/>
       <use xlink:href="#CMR17-37" transform="translate(195.965599 0) scale(0.996264)"/>
       <use xlink:href="#CMR17-35" transform="translate(241.656076 0) scale(0.996264)"/>
      </g>
     </g>
    </g>
    <g id="xtick_3">
     <g id="line2d_5">
      <path d="M 157.717866 246.994251 
L 157.717866 10.8 
" clip-path="url(#p1e0a7fd039)" style="fill: none; stroke: #b0b0b0; stroke-width: 0.8; stroke-linecap: square"/>
     </g>
     <g id="line2d_6">
      <g>
       <use xlink:href="#m8873fff46f" x="157.717866" y="246.994251" style="stroke: #000000; stroke-width: 0.8"/>
      </g>
     </g>
     <g id="text_3">
      <!-- $\mathdefault{−0.050}$ -->
      <g transform="translate(142.497119 260.912749) scale(0.1 -0.1)">
       <use xlink:href="#CMSY10-0" transform="scale(0.996264)"/>
       <use xlink:href="#CMR17-30" transform="translate(77.487468 0) scale(0.996264)"/>
       <use xlink:href="#CMMI12-3a" transform="translate(123.177945 0) scale(0.996264)"/>
       <use xlink:href="#CMR17-30" transform="translate(150.275122 0) scale(0.996264)"/>
       <use xlink:href="#CMR17-35" transform="translate(195.965599 0) scale(0.996264)"/>
       <use xlink:href="#CMR17-30" transform="translate(241.656076 0) scale(0.996264)"/>
      </g>
     </g>
    </g>
    <g id="xtick_4">
     <g id="line2d_7">
      <path d="M 198.886949 246.994251 
L 198.886949 10.8 
" clip-path="url(#p1e0a7fd039)" style="fill: none; stroke: #b0b0b0; stroke-width: 0.8; stroke-linecap: square"/>
     </g>
     <g id="line2d_8">
      <g>
       <use xlink:href="#m8873fff46f" x="198.886949" y="246.994251" style="stroke: #000000; stroke-width: 0.8"/>
      </g>
     </g>
     <g id="text_4">
      <!-- $\mathdefault{−0.025}$ -->
      <g transform="translate(183.666203 260.912749) scale(0.1 -0.1)">
       <defs>
        <path id="CMR17-32" d="M 2669 989 
L 2554 989 
C 2490 536 2438 459 2413 420 
C 2381 369 1920 369 1830 369 
L 602 369 
C 832 619 1280 1072 1824 1597 
C 2214 1967 2669 2402 2669 3035 
C 2669 3790 2067 4224 1395 4224 
C 691 4224 262 3604 262 3030 
C 262 2780 448 2748 525 2748 
C 589 2748 781 2787 781 3010 
C 781 3207 614 3264 525 3264 
C 486 3264 448 3258 422 3245 
C 544 3790 915 4058 1306 4058 
C 1862 4058 2227 3617 2227 3035 
C 2227 2479 1901 2000 1536 1584 
L 262 146 
L 262 0 
L 2515 0 
L 2669 989 
z
" transform="scale(0.015625)"/>
       </defs>
       <use xlink:href="#CMSY10-0" transform="scale(0.996264)"/>
       <use xlink:href="#CMR17-30" transform="translate(77.487468 0) scale(0.996264)"/>
       <use xlink:href="#CMMI12-3a" transform="translate(123.177945 0) scale(0.996264)"/>
       <use xlink:href="#CMR17-30" transform="translate(150.275122 0) scale(0.996264)"/>
       <use xlink:href="#CMR17-32" transform="translate(195.965599 0) scale(0.996264)"/>
       <use xlink:href="#CMR17-35" transform="translate(241.656076 0) scale(0.996264)"/>
      </g>
     </g>
    </g>
    <g id="xtick_5">
     <g id="line2d_9">
      <path d="M 240.056033 246.994251 
L 240.056033 10.8 
" clip-path="url(#p1e0a7fd039)" style="fill: none; stroke: #b0b0b0; stroke-width: 0.8; stroke-linecap: square"/>
     </g>
     <g id="line2d_10">
      <g>
       <use xlink:href="#m8873fff46f" x="240.056033" y="246.994251" style="stroke: #000000; stroke-width: 0.8"/>
      </g>
     </g>
     <g id="text_5">
      <!-- $\mathdefault{0.000}$ -->
      <g transform="translate(228.709658 260.912749) scale(0.1 -0.1)">
       <use xlink:href="#CMR17-30" transform="scale(0.996264)"/>
       <use xlink:href="#CMMI12-3a" transform="translate(45.690477 0) scale(0.996264)"/>
       <use xlink:href="#CMR17-30" transform="translate(72.787654 0) scale(0.996264)"/>
       <use xlink:href="#CMR17-30" transform="translate(118.478131 0) scale(0.996264)"/>
       <use xlink:href="#CMR17-30" transform="translate(164.168608 0) scale(0.996264)"/>
      </g>
     </g>
    </g>
    <g id="xtick_6">
     <g id="line2d_11">
      <path d="M 281.225116 246.994251 
L 281.225116 10.8 
" clip-path="url(#p1e0a7fd039)" style="fill: none; stroke: #b0b0b0; stroke-width: 0.8; stroke-linecap: square"/>
     </g>
     <g id="line2d_12">
      <g>
       <use xlink:href="#m8873fff46f" x="281.225116" y="246.994251" style="stroke: #000000; stroke-width: 0.8"/>
      </g>
     </g>
     <g id="text_6">
      <!-- $\mathdefault{0.025}$ -->
      <g transform="translate(269.878742 260.912749) scale(0.1 -0.1)">
       <use xlink:href="#CMR17-30" transform="scale(0.996264)"/>
       <use xlink:href="#CMMI12-3a" transform="translate(45.690477 0) scale(0.996264)"/>
       <use xlink:href="#CMR17-30" transform="translate(72.787654 0) scale(0.996264)"/>
       <use xlink:href="#CMR17-32" transform="translate(118.478131 0) scale(0.996264)"/>
       <use xlink:href="#CMR17-35" transform="translate(164.168608 0) scale(0.996264)"/>
      </g>
     </g>
    </g>
    <g id="xtick_7">
     <g id="line2d_13">
      <path d="M 322.3942 246.994251 
L 322.3942 10.8 
" clip-path="url(#p1e0a7fd039)" style="fill: none; stroke: #b0b0b0; stroke-width: 0.8; stroke-linecap: square"/>
     </g>
     <g id="line2d_14">
      <g>
       <use xlink:href="#m8873fff46f" x="322.3942" y="246.994251" style="stroke: #000000; stroke-width: 0.8"/>
      </g>
     </g>
     <g id="text_7">
      <!-- $\mathdefault{0.050}$ -->
      <g transform="translate(311.047825 260.912749) scale(0.1 -0.1)">
       <use xlink:href="#CMR17-30" transform="scale(0.996264)"/>
       <use xlink:href="#CMMI12-3a" transform="translate(45.690477 0) scale(0.996264)"/>
       <use xlink:href="#CMR17-30" transform="translate(72.787654 0) scale(0.996264)"/>
       <use xlink:href="#CMR17-35" transform="translate(118.478131 0) scale(0.996264)"/>
       <use xlink:href="#CMR17-30" transform="translate(164.168608 0) scale(0.996264)"/>
      </g>
     </g>
    </g>
    <g id="xtick_8">
     <g id="line2d_15">
      <path d="M 363.563283 246.994251 
L 363.563283 10.8 
" clip-path="url(#p1e0a7fd039)" style="fill: none; stroke: #b0b0b0; stroke-width: 0.8; stroke-linecap: square"/>
     </g>
     <g id="line2d_16">
      <g>
       <use xlink:href="#m8873fff46f" x="363.563283" y="246.994251" style="stroke: #000000; stroke-width: 0.8"/>
      </g>
     </g>
     <g id="text_8">
      <!-- $\mathdefault{0.075}$ -->
      <g transform="translate(352.216908 260.912749) scale(0.1 -0.1)">
       <use xlink:href="#CMR17-30" transform="scale(0.996264)"/>
       <use xlink:href="#CMMI12-3a" transform="translate(45.690477 0) scale(0.996264)"/>
       <use xlink:href="#CMR17-30" transform="translate(72.787654 0) scale(0.996264)"/>
       <use xlink:href="#CMR17-37" transform="translate(118.478131 0) scale(0.996264)"/>
       <use xlink:href="#CMR17-35" transform="translate(164.168608 0) scale(0.996264)"/>
      </g>
     </g>
    </g>
    <g id="xtick_9">
     <g id="line2d_17">
      <path d="M 404.732367 246.994251 
L 404.732367 10.8 
" clip-path="url(#p1e0a7fd039)" style="fill: none; stroke: #b0b0b0; stroke-width: 0.8; stroke-linecap: square"/>
     </g>
     <g id="line2d_18">
      <g>
       <use xlink:href="#m8873fff46f" x="404.732367" y="246.994251" style="stroke: #000000; stroke-width: 0.8"/>
      </g>
     </g>
     <g id="text_9">
      <!-- $\mathdefault{0.100}$ -->
      <g transform="translate(393.385992 260.912749) scale(0.1 -0.1)">
       <use xlink:href="#CMR17-30" transform="scale(0.996264)"/>
       <use xlink:href="#CMMI12-3a" transform="translate(45.690477 0) scale(0.996264)"/>
       <use xlink:href="#CMR17-31" transform="translate(72.787654 0) scale(0.996264)"/>
       <use xlink:href="#CMR17-30" transform="translate(118.478131 0) scale(0.996264)"/>
       <use xlink:href="#CMR17-30" transform="translate(164.168608 0) scale(0.996264)"/>
      </g>
     </g>
    </g>
    <g id="text_10">
     <!-- $\Tangential\ShiftStep$ in \unit{\meter} -->
     <g transform="translate(219.933532 273.657711) scale(0.1 -0.1)">
      <defs>
       <path id="CMR17-1" d="M 2598 4403 
C 2547 4512 2522 4512 2470 4512 
C 2394 4512 2387 4499 2342 4409 
L 269 109 
C 262 96 237 38 237 32 
C 237 6 243 0 358 0 
L 4576 0 
C 4691 0 4698 6 4698 32 
C 4698 38 4672 96 4666 109 
L 2598 4403 
z
M 2310 4038 
L 4083 358 
L 531 358 
L 2310 4038 
z
" transform="scale(0.015625)"/>
       <path id="CMMI12-73" d="M 1459 1280 
C 1568 1261 1741 1223 1779 1216 
C 1862 1192 2150 1090 2150 783 
C 2150 586 1971 70 1229 70 
C 1094 70 614 70 486 436 
C 742 404 870 603 870 745 
C 870 880 781 950 653 950 
C 512 950 326 841 326 552 
C 326 173 710 -64 1222 -64 
C 2195 -64 2483 651 2483 984 
C 2483 1079 2483 1258 2278 1462 
C 2118 1616 1965 1648 1619 1718 
C 1446 1756 1171 1814 1171 2101 
C 1171 2229 1286 2689 1894 2689 
C 2163 2689 2426 2589 2490 2368 
C 2208 2368 2195 2125 2195 2119 
C 2195 1984 2317 1946 2374 1946 
C 2464 1946 2643 2015 2643 2281 
C 2643 2545 2400 2816 1901 2816 
C 1062 2816 838 2160 838 1899 
C 838 1414 1312 1312 1459 1280 
z
" transform="scale(0.015625)"/>
       <path id="CMSY10-6b" d="M 1103 4582 
C 1103 4685 1103 4800 975 4800 
C 847 4800 847 4659 847 4563 
L 847 -1363 
C 847 -1466 847 -1600 975 -1600 
C 1103 -1600 1103 -1485 1103 -1382 
L 1103 4582 
z
M 2351 4563 
C 2351 4666 2351 4800 2223 4800 
C 2095 4800 2095 4685 2095 4582 
L 2095 -1382 
C 2095 -1485 2095 -1600 2223 -1600 
C 2351 -1600 2351 -1459 2351 -1363 
L 2351 4563 
z
" transform="scale(0.015625)"/>
       <path id="CMR17-69" d="M 992 3909 
C 992 4049 877 4170 730 4170 
C 589 4170 467 4056 467 3909 
C 467 3769 582 3648 730 3648 
C 870 3648 992 3763 992 3909 
z
M 243 2706 
L 243 2541 
C 602 2541 653 2502 653 2197 
L 653 427 
C 653 184 627 153 218 153 
L 218 -13 
C 371 0 646 0 806 0 
C 960 0 1222 0 1370 -13 
L 1370 153 
C 992 153 979 191 979 420 
L 979 2776 
L 243 2706 
z
" transform="scale(0.015625)"/>
       <path id="CMR17-6e" d="M 2656 1933 
C 2656 2259 2592 2790 1837 2790 
C 1331 2790 1069 2400 973 2144 
L 966 2144 
L 966 2790 
L 211 2720 
L 211 2554 
C 589 2554 646 2515 646 2208 
L 646 428 
C 646 184 621 153 211 153 
L 211 -13 
C 365 0 646 0 813 0 
C 979 0 1267 0 1421 -13 
L 1421 153 
C 1011 153 986 178 986 428 
L 986 1658 
C 986 2247 1344 2688 1792 2688 
C 2266 2688 2317 2266 2317 1958 
L 2317 428 
C 2317 184 2291 153 1882 153 
L 1882 -13 
C 2035 0 2317 0 2483 0 
C 2650 0 2938 0 3091 -13 
L 3091 153 
C 2682 153 2656 178 2656 428 
L 2656 1933 
z
" transform="scale(0.015625)"/>
       <path id="CMR17-6d" d="M 4326 1933 
C 4326 2252 4269 2790 3507 2790 
C 3072 2790 2771 2496 2656 2151 
L 2650 2151 
C 2573 2676 2195 2790 1837 2790 
C 1331 2790 1069 2400 973 2144 
L 966 2144 
L 966 2790 
L 211 2720 
L 211 2554 
C 589 2554 646 2515 646 2208 
L 646 428 
C 646 184 621 153 211 153 
L 211 -13 
C 365 0 646 0 813 0 
C 979 0 1267 0 1421 -13 
L 1421 153 
C 1011 153 986 178 986 428 
L 986 1658 
C 986 2247 1344 2688 1792 2688 
C 2266 2688 2317 2266 2317 1958 
L 2317 428 
C 2317 184 2291 153 1882 153 
L 1882 -13 
C 2035 0 2317 0 2483 0 
C 2650 0 2938 0 3091 -13 
L 3091 153 
C 2682 153 2656 178 2656 428 
L 2656 1658 
C 2656 2247 3014 2688 3462 2688 
C 3936 2688 3987 2266 3987 1958 
L 3987 428 
C 3987 184 3962 153 3552 153 
L 3552 -13 
C 3706 0 3987 0 4154 0 
C 4320 0 4608 0 4762 -13 
L 4762 153 
C 4352 153 4326 178 4326 428 
L 4326 1933 
z
" transform="scale(0.015625)"/>
      </defs>
      <use xlink:href="#CMR17-1" transform="scale(0.996264)"/>
      <use xlink:href="#CMMI12-73" transform="translate(71.384788 0) scale(0.996264)"/>
      <use xlink:href="#CMSY10-6b" transform="translate(117.334836 -17.987904) scale(0.697382)"/>
      <use xlink:href="#CMR17-69" transform="translate(182.778144 0) scale(0.996264)"/>
      <use xlink:href="#CMR17-6e" transform="translate(207.649202 0) scale(0.996264)"/>
      <use xlink:href="#CMR17-6d" transform="translate(288.620539 0) scale(0.996264)"/>
     </g>
    </g>
   </g>
   <g id="matplotlib.axis_2">
    <g id="ytick_1">
     <g id="line2d_19">
      <path d="M 58.912066 241.748731 
L 421.2 241.748731 
" clip-path="url(#p1e0a7fd039)" style="fill: none; stroke: #b0b0b0; stroke-width: 0.8; stroke-linecap: square"/>
     </g>
     <g id="line2d_20">
      <defs>
       <path id="m690a31b607" d="M 0 0 
L -3.5 0 
" style="stroke: #000000; stroke-width: 0.8"/>
      </defs>
      <g>
       <use xlink:href="#m690a31b607" x="58.912066" y="241.748731" style="stroke: #000000; stroke-width: 0.8"/>
      </g>
     </g>
     <g id="text_11">
      <!-- $\mathdefault{−0.08}$ -->
      <g transform="translate(26.451908 245.20798) scale(0.1 -0.1)">
       <defs>
        <path id="CMR17-38" d="M 1741 2264 
C 2144 2467 2554 2773 2554 3263 
C 2554 3841 1990 4179 1472 4179 
C 890 4179 378 3759 378 3180 
C 378 3021 416 2747 666 2505 
C 730 2442 998 2251 1171 2130 
C 883 1983 211 1634 211 934 
C 211 279 838 -128 1459 -128 
C 2144 -128 2720 362 2720 1010 
C 2720 1590 2330 1857 2074 2029 
L 1741 2264 
z
M 902 2822 
C 851 2854 595 3051 595 3351 
C 595 3739 998 4032 1459 4032 
C 1965 4032 2336 3676 2336 3262 
C 2336 2669 1670 2331 1638 2331 
C 1632 2331 1626 2331 1574 2370 
L 902 2822 
z
M 2080 1519 
C 2176 1449 2483 1240 2483 851 
C 2483 381 2010 25 1472 25 
C 890 25 448 438 448 940 
C 448 1443 838 1862 1280 2060 
L 2080 1519 
z
" transform="scale(0.015625)"/>
       </defs>
       <use xlink:href="#CMSY10-0" transform="scale(0.996264)"/>
       <use xlink:href="#CMR17-30" transform="translate(77.487468 0) scale(0.996264)"/>
       <use xlink:href="#CMMI12-3a" transform="translate(123.177945 0) scale(0.996264)"/>
       <use xlink:href="#CMR17-30" transform="translate(150.275122 0) scale(0.996264)"/>
       <use xlink:href="#CMR17-38" transform="translate(195.965599 0) scale(0.996264)"/>
      </g>
     </g>
    </g>
    <g id="ytick_2">
     <g id="line2d_21">
      <path d="M 58.912066 210.24644 
L 421.2 210.24644 
" clip-path="url(#p1e0a7fd039)" style="fill: none; stroke: #b0b0b0; stroke-width: 0.8; stroke-linecap: square"/>
     </g>
     <g id="line2d_22">
      <g>
       <use xlink:href="#m690a31b607" x="58.912066" y="210.24644" style="stroke: #000000; stroke-width: 0.8"/>
      </g>
     </g>
     <g id="text_12">
      <!-- $\mathdefault{−0.06}$ -->
      <g transform="translate(26.451908 213.705689) scale(0.1 -0.1)">
       <defs>
        <path id="CMR17-36" d="M 678 2176 
C 678 3690 1395 4032 1811 4032 
C 1946 4032 2272 4009 2400 3776 
C 2298 3776 2106 3776 2106 3553 
C 2106 3381 2246 3323 2336 3323 
C 2394 3323 2566 3348 2566 3560 
C 2566 3954 2246 4179 1805 4179 
C 1043 4179 243 3390 243 1984 
C 243 253 966 -128 1478 -128 
C 2099 -128 2688 427 2688 1283 
C 2688 2081 2170 2662 1517 2662 
C 1126 2662 838 2407 678 1960 
L 678 2176 
z
M 1478 25 
C 691 25 691 1200 691 1436 
C 691 1896 909 2560 1504 2560 
C 1613 2560 1926 2560 2138 2120 
C 2253 1870 2253 1609 2253 1289 
C 2253 944 2253 690 2118 434 
C 1978 171 1773 25 1478 25 
z
" transform="scale(0.015625)"/>
       </defs>
       <use xlink:href="#CMSY10-0" transform="scale(0.996264)"/>
       <use xlink:href="#CMR17-30" transform="translate(77.487468 0) scale(0.996264)"/>
       <use xlink:href="#CMMI12-3a" transform="translate(123.177945 0) scale(0.996264)"/>
       <use xlink:href="#CMR17-30" transform="translate(150.275122 0) scale(0.996264)"/>
       <use xlink:href="#CMR17-36" transform="translate(195.965599 0) scale(0.996264)"/>
      </g>
     </g>
    </g>
    <g id="ytick_3">
     <g id="line2d_23">
      <path d="M 58.912066 178.744148 
L 421.2 178.744148 
" clip-path="url(#p1e0a7fd039)" style="fill: none; stroke: #b0b0b0; stroke-width: 0.8; stroke-linecap: square"/>
     </g>
     <g id="line2d_24">
      <g>
       <use xlink:href="#m690a31b607" x="58.912066" y="178.744148" style="stroke: #000000; stroke-width: 0.8"/>
      </g>
     </g>
     <g id="text_13">
      <!-- $\mathdefault{−0.04}$ -->
      <g transform="translate(26.451908 182.203398) scale(0.1 -0.1)">
       <defs>
        <path id="CMR17-34" d="M 2150 4122 
C 2150 4256 2144 4256 2029 4256 
L 128 1254 
L 128 1088 
L 1779 1088 
L 1779 457 
C 1779 224 1766 160 1318 160 
L 1197 160 
L 1197 0 
C 1402 0 1747 0 1965 0 
C 2182 0 2528 0 2733 0 
L 2733 160 
L 2611 160 
C 2163 160 2150 224 2150 457 
L 2150 1088 
L 2803 1088 
L 2803 1254 
L 2150 1254 
L 2150 4122 
z
M 1798 3703 
L 1798 1254 
L 256 1254 
L 1798 3703 
z
" transform="scale(0.015625)"/>
       </defs>
       <use xlink:href="#CMSY10-0" transform="scale(0.996264)"/>
       <use xlink:href="#CMR17-30" transform="translate(77.487468 0) scale(0.996264)"/>
       <use xlink:href="#CMMI12-3a" transform="translate(123.177945 0) scale(0.996264)"/>
       <use xlink:href="#CMR17-30" transform="translate(150.275122 0) scale(0.996264)"/>
       <use xlink:href="#CMR17-34" transform="translate(195.965599 0) scale(0.996264)"/>
      </g>
     </g>
    </g>
    <g id="ytick_4">
     <g id="line2d_25">
      <path d="M 58.912066 147.241857 
L 421.2 147.241857 
" clip-path="url(#p1e0a7fd039)" style="fill: none; stroke: #b0b0b0; stroke-width: 0.8; stroke-linecap: square"/>
     </g>
     <g id="line2d_26">
      <g>
       <use xlink:href="#m690a31b607" x="58.912066" y="147.241857" style="stroke: #000000; stroke-width: 0.8"/>
      </g>
     </g>
     <g id="text_14">
      <!-- $\mathdefault{−0.02}$ -->
      <g transform="translate(26.451908 150.701106) scale(0.1 -0.1)">
       <use xlink:href="#CMSY10-0" transform="scale(0.996264)"/>
       <use xlink:href="#CMR17-30" transform="translate(77.487468 0) scale(0.996264)"/>
       <use xlink:href="#CMMI12-3a" transform="translate(123.177945 0) scale(0.996264)"/>
       <use xlink:href="#CMR17-30" transform="translate(150.275122 0) scale(0.996264)"/>
       <use xlink:href="#CMR17-32" transform="translate(195.965599 0) scale(0.996264)"/>
      </g>
     </g>
    </g>
    <g id="ytick_5">
     <g id="line2d_27">
      <path d="M 58.912066 115.739566 
L 421.2 115.739566 
" clip-path="url(#p1e0a7fd039)" style="fill: none; stroke: #b0b0b0; stroke-width: 0.8; stroke-linecap: square"/>
     </g>
     <g id="line2d_28">
      <g>
       <use xlink:href="#m690a31b607" x="58.912066" y="115.739566" style="stroke: #000000; stroke-width: 0.8"/>
      </g>
     </g>
     <g id="text_15">
      <!-- $\mathdefault{0.00}$ -->
      <g transform="translate(34.200651 119.198815) scale(0.1 -0.1)">
       <use xlink:href="#CMR17-30" transform="scale(0.996264)"/>
       <use xlink:href="#CMMI12-3a" transform="translate(45.690477 0) scale(0.996264)"/>
       <use xlink:href="#CMR17-30" transform="translate(72.787654 0) scale(0.996264)"/>
       <use xlink:href="#CMR17-30" transform="translate(118.478131 0) scale(0.996264)"/>
      </g>
     </g>
    </g>
    <g id="ytick_6">
     <g id="line2d_29">
      <path d="M 58.912066 84.237274 
L 421.2 84.237274 
" clip-path="url(#p1e0a7fd039)" style="fill: none; stroke: #b0b0b0; stroke-width: 0.8; stroke-linecap: square"/>
     </g>
     <g id="line2d_30">
      <g>
       <use xlink:href="#m690a31b607" x="58.912066" y="84.237274" style="stroke: #000000; stroke-width: 0.8"/>
      </g>
     </g>
     <g id="text_16">
      <!-- $\mathdefault{0.02}$ -->
      <g transform="translate(34.200651 87.696524) scale(0.1 -0.1)">
       <use xlink:href="#CMR17-30" transform="scale(0.996264)"/>
       <use xlink:href="#CMMI12-3a" transform="translate(45.690477 0) scale(0.996264)"/>
       <use xlink:href="#CMR17-30" transform="translate(72.787654 0) scale(0.996264)"/>
       <use xlink:href="#CMR17-32" transform="translate(118.478131 0) scale(0.996264)"/>
      </g>
     </g>
    </g>
    <g id="ytick_7">
     <g id="line2d_31">
      <path d="M 58.912066 52.734983 
L 421.2 52.734983 
" clip-path="url(#p1e0a7fd039)" style="fill: none; stroke: #b0b0b0; stroke-width: 0.8; stroke-linecap: square"/>
     </g>
     <g id="line2d_32">
      <g>
       <use xlink:href="#m690a31b607" x="58.912066" y="52.734983" style="stroke: #000000; stroke-width: 0.8"/>
      </g>
     </g>
     <g id="text_17">
      <!-- $\mathdefault{0.04}$ -->
      <g transform="translate(34.200651 56.194232) scale(0.1 -0.1)">
       <use xlink:href="#CMR17-30" transform="scale(0.996264)"/>
       <use xlink:href="#CMMI12-3a" transform="translate(45.690477 0) scale(0.996264)"/>
       <use xlink:href="#CMR17-30" transform="translate(72.787654 0) scale(0.996264)"/>
       <use xlink:href="#CMR17-34" transform="translate(118.478131 0) scale(0.996264)"/>
      </g>
     </g>
    </g>
    <g id="ytick_8">
     <g id="line2d_33">
      <path d="M 58.912066 21.232692 
L 421.2 21.232692 
" clip-path="url(#p1e0a7fd039)" style="fill: none; stroke: #b0b0b0; stroke-width: 0.8; stroke-linecap: square"/>
     </g>
     <g id="line2d_34">
      <g>
       <use xlink:href="#m690a31b607" x="58.912066" y="21.232692" style="stroke: #000000; stroke-width: 0.8"/>
      </g>
     </g>
     <g id="text_18">
      <!-- $\mathdefault{0.06}$ -->
      <g transform="translate(34.200651 24.691941) scale(0.1 -0.1)">
       <use xlink:href="#CMR17-30" transform="scale(0.996264)"/>
       <use xlink:href="#CMMI12-3a" transform="translate(45.690477 0) scale(0.996264)"/>
       <use xlink:href="#CMR17-30" transform="translate(72.787654 0) scale(0.996264)"/>
       <use xlink:href="#CMR17-36" transform="translate(118.478131 0) scale(0.996264)"/>
      </g>
     </g>
    </g>
    <g id="text_19">
     <!-- $\Tangential\GibbsEnergyStep$ in \unit{\joule\per\meter} -->
     <g transform="translate(18.909619 159.090191) rotate(-90) scale(0.1 -0.1)">
      <defs>
       <path id="CMMI12-47" d="M 4774 4423 
C 4774 4480 4730 4480 4717 4480 
C 4704 4480 4678 4480 4627 4416 
L 4186 3889 
C 4154 3940 4026 4163 3776 4309 
C 3501 4480 3226 4480 3130 4480 
C 1760 4480 320 3095 320 1595 
C 320 546 1050 -128 2010 -128 
C 2470 -128 3053 25 3373 427 
C 3443 185 3584 12 3629 12 
C 3661 12 3667 32 3674 32 
C 3680 44 3731 270 3763 385 
L 3866 797 
C 3917 1009 3942 1099 3987 1291 
C 4051 1536 4064 1536 4416 1536 
C 4442 1536 4518 1536 4518 1666 
C 4518 1734 4454 1734 4435 1734 
C 4326 1734 4205 1734 4090 1734 
L 3744 1734 
C 3475 1734 3194 1734 2931 1734 
C 2874 1734 2797 1734 2797 1611 
C 2797 1542 2848 1542 2848 1536 
L 3008 1536 
C 3514 1536 3514 1489 3514 1402 
C 3514 1395 3392 751 3270 561 
C 3027 204 2522 57 2144 57 
C 1651 57 851 312 851 1410 
C 851 1836 1005 2808 1626 3526 
C 2029 3984 2624 4295 3187 4295 
C 3942 4295 4211 3655 4211 3071 
C 4211 2970 4186 2831 4186 2742 
C 4186 2685 4250 2685 4269 2685 
C 4339 2685 4346 2691 4371 2805 
L 4774 4423 
z
" transform="scale(0.015625)"/>
       <path id="CMR17-4a" d="M 1888 910 
C 1888 324 1568 -26 1242 -26 
C 1075 -26 691 49 525 431 
C 550 425 582 418 608 418 
C 730 418 883 501 883 692 
C 883 845 774 960 614 960 
C 461 960 339 865 339 682 
C 339 258 730 -128 1254 -128 
C 1754 -128 2214 229 2291 764 
C 2298 809 2298 821 2298 1038 
L 2298 3715 
C 2298 3823 2298 4001 2310 4039 
C 2336 4160 2483 4160 2682 4160 
L 2682 4320 
C 2669 4320 2214 4320 2054 4320 
C 1786 4320 1491 4320 1222 4320 
L 1222 4160 
L 1376 4160 
C 1875 4160 1888 4090 1888 3861 
L 1888 910 
z
" transform="scale(0.015625)"/>
      </defs>
      <use xlink:href="#CMR17-1" transform="scale(0.996264)"/>
      <use xlink:href="#CMMI12-47" transform="translate(71.384788 0) scale(0.996264)"/>
      <use xlink:href="#CMSY10-6b" transform="translate(148.33165 -17.987904) scale(0.697382)"/>
      <use xlink:href="#CMR17-69" transform="translate(213.774958 0) scale(0.996264)"/>
      <use xlink:href="#CMR17-6e" transform="translate(238.646017 0) scale(0.996264)"/>
      <use xlink:href="#CMR17-4a" transform="translate(319.617353 0) scale(0.996264)"/>
      <use xlink:href="#CMR17-6d" transform="translate(383.193548 0) scale(0.996264)"/>
      <use xlink:href="#CMSY10-0" transform="translate(460.113138 36.153639) scale(0.697382)"/>
      <use xlink:href="#CMR17-31" transform="translate(514.354131 36.153639) scale(0.697382)"/>
     </g>
    </g>
   </g>
   <g id="line2d_35">
    <path d="M 75.379699 103.918998 
L 82.101182 104.864768 
L 88.822665 105.771048 
L 95.544148 106.637849 
L 102.265631 107.465179 
L 108.987114 108.253049 
L 115.708597 109.001467 
L 122.43008 109.710443 
L 129.151563 110.379984 
L 135.873046 111.010098 
L 142.594529 111.600794 
L 149.316012 112.152077 
L 156.037495 112.663954 
L 162.758978 113.136432 
L 169.480461 113.569517 
L 176.201944 113.963213 
L 182.923427 114.317526 
L 189.64491 114.63246 
L 196.366393 114.908018 
L 203.087876 115.144205 
L 209.809359 115.341023 
L 216.530842 115.498474 
L 223.252325 115.61656 
L 229.973808 115.695284 
L 236.695291 115.734646 
L 243.416774 115.734646 
L 250.138257 115.695284 
L 256.85974 115.61656 
L 263.581223 115.498474 
L 270.302706 115.341023 
L 277.024189 115.144205 
L 283.745672 114.908018 
L 290.467155 114.63246 
L 297.188638 114.317526 
L 303.910121 113.963213 
L 310.631604 113.569517 
L 317.353087 113.136432 
L 324.07457 112.663954 
L 330.796054 112.152077 
L 337.517537 111.600794 
L 344.23902 111.010098 
L 350.960503 110.379984 
L 357.681986 109.710443 
L 364.403469 109.001467 
L 371.124952 108.253049 
L 377.846435 107.465179 
L 384.567918 106.637849 
L 391.289401 105.771048 
L 398.010884 104.864768 
L 404.732367 103.918998 
" clip-path="url(#p1e0a7fd039)" style="fill: none; stroke: #1f77b4; stroke-width: 1.5; stroke-linecap: square"/>
   </g>
   <g id="line2d_36">
    <path d="M 75.379699 115.739566 
L 82.101182 115.739566 
L 88.822665 115.739566 
L 95.544148 115.739566 
L 102.265631 115.739566 
L 108.987114 115.739566 
L 115.708597 115.739566 
L 122.43008 115.739566 
L 129.151563 115.739566 
L 135.873046 115.739566 
L 142.594529 115.739566 
L 149.316012 115.739566 
L 156.037495 115.739566 
L 162.758978 115.739566 
L 169.480461 115.739566 
L 176.201944 115.739566 
L 182.923427 115.739566 
L 189.64491 115.739566 
L 196.366393 115.739566 
L 203.087876 115.739566 
L 209.809359 115.739566 
L 216.530842 115.739566 
L 223.252325 115.739566 
L 229.973808 115.739566 
L 236.695291 115.739566 
L 243.416774 115.739566 
L 250.138257 115.739566 
L 256.85974 115.739566 
L 263.581223 115.739566 
L 270.302706 115.739566 
L 277.024189 115.739566 
L 283.745672 115.739566 
L 290.467155 115.739566 
L 297.188638 115.739566 
L 303.910121 115.739566 
L 310.631604 115.739566 
L 317.353087 115.739566 
L 324.07457 115.739566 
L 330.796054 115.739566 
L 337.517537 115.739566 
L 344.23902 115.739566 
L 350.960503 115.739566 
L 357.681986 115.739566 
L 364.403469 115.739566 
L 371.124952 115.739566 
L 377.846435 115.739566 
L 384.567918 115.739566 
L 391.289401 115.739566 
L 398.010884 115.739566 
L 404.732367 115.739566 
" clip-path="url(#p1e0a7fd039)" style="fill: none; stroke-dasharray: 5.55,2.4; stroke-dashoffset: 0; stroke: #1f77b4; stroke-width: 1.5"/>
   </g>
   <g id="line2d_37">
    <path d="M 75.379699 19.547395 
L 82.101182 24.146036 
L 88.822665 28.688247 
L 95.544148 33.173926 
L 102.265631 37.602969 
L 108.987114 41.975273 
L 115.708597 46.290734 
L 122.43008 50.549247 
L 129.151563 54.750706 
L 135.873046 58.895003 
L 142.594529 62.982031 
L 149.316012 67.011682 
L 156.037495 70.983846 
L 162.758978 74.898413 
L 169.480461 78.755272 
L 176.201944 82.554312 
L 182.923427 86.295419 
L 189.64491 89.97848 
L 196.366393 93.603382 
L 203.087876 97.170008 
L 209.809359 100.678243 
L 216.530842 104.12797 
L 223.252325 107.519073 
L 229.973808 110.851432 
L 236.695291 114.124928 
L 243.416774 117.339443 
L 250.138257 120.494855 
L 256.85974 123.591043 
L 263.581223 126.627885 
L 270.302706 129.605259 
L 277.024189 132.523041 
L 283.745672 135.381108 
L 290.467155 138.179334 
L 297.188638 140.917594 
L 303.910121 143.595763 
L 310.631604 146.213713 
L 317.353087 148.771319 
L 324.07457 151.268451 
L 330.796054 153.704982 
L 337.517537 156.080784 
L 344.23902 158.395727 
L 350.960503 160.649681 
L 357.681986 162.842516 
L 364.403469 164.974102 
L 371.124952 167.044308 
L 377.846435 169.053003 
L 384.567918 171.000054 
L 391.289401 172.885331 
L 398.010884 174.708702 
L 404.732367 176.470032 
" clip-path="url(#p1e0a7fd039)" style="fill: none; stroke: #ff7f0e; stroke-width: 1.5; stroke-linecap: square"/>
   </g>
   <g id="line2d_38">
    <path d="M 75.379699 36.983838 
L 82.101182 40.198357 
L 88.822665 43.412877 
L 95.544148 46.627396 
L 102.265631 49.841916 
L 108.987114 53.056435 
L 115.708597 56.270955 
L 122.43008 59.485474 
L 129.151563 62.699994 
L 135.873046 65.914513 
L 142.594529 69.129033 
L 149.316012 72.343552 
L 156.037495 75.558072 
L 162.758978 78.772591 
L 169.480461 81.987111 
L 176.201944 85.20163 
L 182.923427 88.41615 
L 189.64491 91.630669 
L 196.366393 94.845189 
L 203.087876 98.059708 
L 209.809359 101.274228 
L 216.530842 104.488747 
L 223.252325 107.703267 
L 229.973808 110.917787 
L 236.695291 114.132306 
L 243.416774 117.346826 
L 250.138257 120.561345 
L 256.85974 123.775865 
L 263.581223 126.990384 
L 270.302706 130.204904 
L 277.024189 133.419423 
L 283.745672 136.633943 
L 290.467155 139.848462 
L 297.188638 143.062982 
L 303.910121 146.277501 
L 310.631604 149.492021 
L 317.353087 152.70654 
L 324.07457 155.92106 
L 330.796054 159.135579 
L 337.517537 162.350099 
L 344.23902 165.564618 
L 350.960503 168.779138 
L 357.681986 171.993657 
L 364.403469 175.208177 
L 371.124952 178.422696 
L 377.846435 181.637216 
L 384.567918 184.851735 
L 391.289401 188.066255 
L 398.010884 191.280774 
L 404.732367 194.495294 
" clip-path="url(#p1e0a7fd039)" style="fill: none; stroke-dasharray: 5.55,2.4; stroke-dashoffset: 0; stroke: #ff7f0e; stroke-width: 1.5"/>
   </g>
   <g id="line2d_39">
    <path d="M 75.379699 176.470032 
L 82.101182 174.708702 
L 88.822665 172.885331 
L 95.544148 171.000054 
L 102.265631 169.053003 
L 108.987114 167.044308 
L 115.708597 164.974102 
L 122.43008 162.842516 
L 129.151563 160.649681 
L 135.873046 158.395727 
L 142.594529 156.080784 
L 149.316012 153.704982 
L 156.037495 151.268451 
L 162.758978 148.771319 
L 169.480461 146.213713 
L 176.201944 143.595763 
L 182.923427 140.917594 
L 189.64491 138.179334 
L 196.366393 135.381108 
L 203.087876 132.523041 
L 209.809359 129.605259 
L 216.530842 126.627885 
L 223.252325 123.591043 
L 229.973808 120.494855 
L 236.695291 117.339443 
L 243.416774 114.124928 
L 250.138257 110.851432 
L 256.85974 107.519073 
L 263.581223 104.12797 
L 270.302706 100.678243 
L 277.024189 97.170008 
L 283.745672 93.603382 
L 290.467155 89.97848 
L 297.188638 86.295419 
L 303.910121 82.554312 
L 310.631604 78.755272 
L 317.353087 74.898413 
L 324.07457 70.983846 
L 330.796054 67.011682 
L 337.517537 62.982031 
L 344.23902 58.895003 
L 350.960503 54.750706 
L 357.681986 50.549247 
L 364.403469 46.290734 
L 371.124952 41.975273 
L 377.846435 37.602969 
L 384.567918 33.173926 
L 391.289401 28.688247 
L 398.010884 24.146036 
L 404.732367 19.547395 
" clip-path="url(#p1e0a7fd039)" style="fill: none; stroke: #2ca02c; stroke-width: 1.5; stroke-linecap: square"/>
   </g>
   <g id="line2d_40">
    <path d="M 75.379699 194.495294 
L 82.101182 191.280774 
L 88.822665 188.066255 
L 95.544148 184.851735 
L 102.265631 181.637216 
L 108.987114 178.422696 
L 115.708597 175.208177 
L 122.43008 171.993657 
L 129.151563 168.779138 
L 135.873046 165.564618 
L 142.594529 162.350099 
L 149.316012 159.135579 
L 156.037495 155.92106 
L 162.758978 152.70654 
L 169.480461 149.492021 
L 176.201944 146.277501 
L 182.923427 143.062982 
L 189.64491 139.848462 
L 196.366393 136.633943 
L 203.087876 133.419423 
L 209.809359 130.204904 
L 216.530842 126.990384 
L 223.252325 123.775865 
L 229.973808 120.561345 
L 236.695291 117.346826 
L 243.416774 114.132306 
L 250.138257 110.917787 
L 256.85974 107.703267 
L 263.581223 104.488747 
L 270.302706 101.274228 
L 277.024189 98.059708 
L 283.745672 94.845189 
L 290.467155 91.630669 
L 297.188638 88.41615 
L 303.910121 85.20163 
L 310.631604 81.987111 
L 317.353087 78.772591 
L 324.07457 75.558072 
L 330.796054 72.343552 
L 337.517537 69.129033 
L 344.23902 65.914513 
L 350.960503 62.699994 
L 357.681986 59.485474 
L 364.403469 56.270955 
L 371.124952 53.056435 
L 377.846435 49.841916 
L 384.567918 46.627396 
L 391.289401 43.412877 
L 398.010884 40.198357 
L 404.732367 36.983838 
" clip-path="url(#p1e0a7fd039)" style="fill: none; stroke-dasharray: 5.55,2.4; stroke-dashoffset: 0; stroke: #2ca02c; stroke-width: 1.5"/>
   </g>
   <g id="patch_3">
    <path d="M 58.912066 246.994251 
L 58.912066 10.8 
" style="fill: none; stroke: #000000; stroke-width: 0.8; stroke-linejoin: miter; stroke-linecap: square"/>
   </g>
   <g id="patch_4">
    <path d="M 421.2 246.994251 
L 421.2 10.8 
" style="fill: none; stroke: #000000; stroke-width: 0.8; stroke-linejoin: miter; stroke-linecap: square"/>
   </g>
   <g id="patch_5">
    <path d="M 58.912066 246.994251 
L 421.2 246.994251 
" style="fill: none; stroke: #000000; stroke-width: 0.8; stroke-linejoin: miter; stroke-linecap: square"/>
   </g>
   <g id="patch_6">
    <path d="M 58.912066 10.8 
L 421.2 10.8 
" style="fill: none; stroke: #000000; stroke-width: 0.8; stroke-linejoin: miter; stroke-linecap: square"/>
   </g>
   <g id="legend_1">
    <g id="patch_7">
     <path d="M 65.912066 241.994251 
L 254.423688 241.994251 
Q 256.423688 241.994251 256.423688 239.994251 
L 256.423688 191.038527 
Q 256.423688 189.038527 254.423688 189.038527 
L 65.912066 189.038527 
Q 63.912066 189.038527 63.912066 191.038527 
L 63.912066 239.994251 
Q 63.912066 241.994251 65.912066 241.994251 
z
" style="fill: #ffffff; opacity: 0.8; stroke: #cccccc; stroke-linejoin: miter"/>
    </g>
    <g id="line2d_41">
     <path d="M 67.912066 197.648146 
L 77.912066 197.648146 
L 87.912066 197.648146 
" style="fill: none; stroke: #1f77b4; stroke-width: 1.5; stroke-linecap: square"/>
    </g>
    <g id="text_20">
     <!-- $\Upper\InterfaceEnergy=\qty{1}{\joule\per\square\meter}, \Lower\InterfaceEnergy=\qty{1}{\joule\per\square\meter}, \Tangential\SurfaceRadiusAngle=\qty{60}{\degree}$ -->
     <g transform="translate(95.912066 201.148146) scale(0.1 -0.1)">
      <defs>
       <path id="CMMI12-d" d="M 2419 760 
C 2406 1071 2394 1561 2150 2133 
C 2022 2452 1805 2788 1338 2788 
C 550 2788 122 1790 122 1625 
C 122 1567 166 1567 186 1567 
C 243 1567 243 1580 275 1663 
C 410 2057 819 2368 1261 2368 
C 2150 2368 2278 1383 2278 754 
C 2278 352 2234 220 2195 92 
C 2074 -302 1862 -1090 1862 -1268 
C 1862 -1319 1882 -1376 1933 -1376 
C 2029 -1376 2086 -1166 2157 -912 
C 2310 -353 2349 -73 2381 181 
C 2400 334 2765 1384 3270 2382 
C 3315 2483 3405 2655 3405 2674 
C 3405 2680 3398 2725 3341 2725 
C 3328 2725 3296 2725 3283 2699 
C 3270 2687 3046 2254 2854 1822 
C 2758 1606 2630 1320 2419 760 
z
" transform="scale(0.015625)"/>
       <path id="CMR17-75" d="M 1882 2693 
L 1882 2528 
C 2259 2528 2317 2489 2317 2186 
L 2317 1032 
C 2317 500 2029 38 1555 38 
C 1030 38 986 348 986 678 
L 986 2763 
L 211 2693 
L 211 2528 
C 467 2528 640 2528 646 2274 
L 646 1058 
C 646 633 646 361 813 183 
C 896 101 1056 -64 1517 -64 
C 2061 -64 2272 377 2323 506 
L 2330 506 
L 2330 -63 
L 3091 -63 
L 3091 128 
C 2714 128 2656 166 2656 473 
L 2656 2763 
L 1882 2693 
z
" transform="scale(0.015625)"/>
       <path id="CMR17-3d" d="M 4115 2017 
C 4211 2017 4307 2017 4307 2125 
C 4307 2240 4198 2240 4090 2240 
L 512 2240 
C 403 2240 294 2240 294 2125 
C 294 2017 390 2017 486 2017 
L 4115 2017 
z
M 4090 896 
C 4198 896 4307 896 4307 1011 
C 4307 1119 4211 1119 4115 1119 
L 486 1119 
C 390 1119 294 1119 294 1011 
C 294 896 403 896 512 896 
L 4090 896 
z
" transform="scale(0.015625)"/>
       <path id="CMMI12-3b" d="M 1248 -31 
C 1248 343 1126 619 864 619 
C 659 619 557 453 557 313 
C 557 172 653 0 870 0 
C 954 0 1024 26 1082 83 
C 1094 96 1101 96 1107 96 
C 1120 96 1120 5 1120 -27 
C 1120 -240 1082 -659 710 -1080 
C 640 -1157 640 -1170 640 -1183 
C 640 -1216 672 -1248 704 -1248 
C 755 -1248 1248 -771 1248 -31 
z
" transform="scale(0.015625)"/>
       <path id="CMR17-6c" d="M 979 4396 
L 218 4326 
L 218 4160 
C 595 4160 653 4122 653 3817 
L 653 426 
C 653 184 627 153 218 153 
L 218 -13 
C 371 0 653 0 813 0 
C 979 0 1261 0 1414 -13 
L 1414 153 
C 1005 153 979 178 979 426 
L 979 4396 
z
" transform="scale(0.015625)"/>
       <path id="CMMI12-b" d="M 2963 1616 
C 2963 2235 2611 2815 1933 2815 
C 1094 2815 256 1902 256 996 
C 256 441 602 -64 1254 -64 
C 1651 -64 2125 89 2579 472 
C 2669 115 2867 -64 3142 -64 
C 3488 -64 3661 294 3661 377 
C 3661 434 3616 434 3597 434 
C 3546 434 3539 415 3520 364 
C 3462 204 3315 64 3162 64 
C 2963 64 2963 472 2963 862 
C 3616 1641 3770 2446 3770 2452 
C 3770 2510 3718 2510 3699 2510 
C 3642 2510 3635 2491 3610 2376 
C 3526 2095 3360 1597 2963 1073 
L 2963 1616 
z
M 2560 626 
C 1997 121 1491 64 1267 64 
C 813 64 685 466 685 766 
C 685 1040 826 1692 1024 2044 
C 1286 2491 1645 2688 1933 2688 
C 2554 2688 2554 1877 2554 1341 
C 2554 1182 2547 1016 2547 856 
C 2547 728 2554 696 2560 626 
z
" transform="scale(0.015625)"/>
       <path id="CMSY10-e" d="M 2842 1600 
C 2842 2277 2272 2828 1600 2828 
C 909 2828 352 2264 352 1600 
C 352 930 909 372 1600 372 
C 2272 372 2842 923 2842 1600 
z
M 1600 628 
C 1043 628 608 1070 608 1600 
C 608 2130 1050 2572 1600 2572 
C 2131 2572 2586 2142 2586 1600 
C 2586 1058 2131 628 1600 628 
z
" transform="scale(0.015625)"/>
      </defs>
      <use xlink:href="#CMMI12-d" transform="scale(0.996264)"/>
      <use xlink:href="#CMR17-75" transform="translate(50.599133 -14.943915) scale(0.697382)"/>
      <use xlink:href="#CMR17-3d" transform="translate(114.397882 0) scale(0.996264)"/>
      <use xlink:href="#CMR17-31" transform="translate(213.786679 0) scale(0.996264)"/>
      <use xlink:href="#CMR17-4a" transform="translate(276.081561 0) scale(0.996264)"/>
      <use xlink:href="#CMR17-6d" transform="translate(339.657756 0) scale(0.996264)"/>
      <use xlink:href="#CMSY10-0" transform="translate(416.577346 36.153639) scale(0.697382)"/>
      <use xlink:href="#CMR17-32" transform="translate(470.818339 36.153639) scale(0.697382)"/>
      <use xlink:href="#CMMI12-3b" transform="translate(503.299653 0) scale(0.996264)"/>
      <use xlink:href="#CMMI12-d" transform="translate(547.001236 0) scale(0.996264)"/>
      <use xlink:href="#CMR17-6c" transform="translate(597.600368 -14.943915) scale(0.697382)"/>
      <use xlink:href="#CMR17-3d" transform="translate(643.182168 0) scale(0.996264)"/>
      <use xlink:href="#CMR17-31" transform="translate(742.570965 0) scale(0.996264)"/>
      <use xlink:href="#CMR17-4a" transform="translate(804.865847 0) scale(0.996264)"/>
      <use xlink:href="#CMR17-6d" transform="translate(868.442042 0) scale(0.996264)"/>
      <use xlink:href="#CMSY10-0" transform="translate(945.361632 36.153639) scale(0.697382)"/>
      <use xlink:href="#CMR17-32" transform="translate(999.602625 36.153639) scale(0.697382)"/>
      <use xlink:href="#CMMI12-3b" transform="translate(1032.083939 0) scale(0.996264)"/>
      <use xlink:href="#CMMI12-b" transform="translate(1075.785522 0) scale(0.996264)"/>
      <use xlink:href="#CMSY10-6b" transform="translate(1137.83225 -17.987904) scale(0.697382)"/>
      <use xlink:href="#CMR17-3d" transform="translate(1200.873601 0) scale(0.996264)"/>
      <use xlink:href="#CMR17-36" transform="translate(1300.262398 0) scale(0.996264)"/>
      <use xlink:href="#CMR17-30" transform="translate(1345.952875 0) scale(0.996264)"/>
      <use xlink:href="#CMSY10-e" transform="translate(1391.643352 36.153639) scale(0.697382)"/>
     </g>
    </g>
    <g id="line2d_42">
     <path d="M 67.912066 214.300054 
L 77.912066 214.300054 
L 87.912066 214.300054 
" style="fill: none; stroke: #ff7f0e; stroke-width: 1.5; stroke-linecap: square"/>
    </g>
    <g id="text_21">
     <!-- $\Upper\InterfaceEnergy=\qty{2}{\joule\per\square\meter}, \Lower\InterfaceEnergy=\qty{1}{\joule\per\square\meter}, \Tangential\SurfaceRadiusAngle=\qty{60}{\degree}$ -->
     <g transform="translate(95.912066 217.800054) scale(0.1 -0.1)">
      <use xlink:href="#CMMI12-d" transform="scale(0.996264)"/>
      <use xlink:href="#CMR17-75" transform="translate(50.599133 -14.943915) scale(0.697382)"/>
      <use xlink:href="#CMR17-3d" transform="translate(114.397882 0) scale(0.996264)"/>
      <use xlink:href="#CMR17-32" transform="translate(213.786679 0) scale(0.996264)"/>
      <use xlink:href="#CMR17-4a" transform="translate(276.081561 0) scale(0.996264)"/>
      <use xlink:href="#CMR17-6d" transform="translate(339.657756 0) scale(0.996264)"/>
      <use xlink:href="#CMSY10-0" transform="translate(416.577346 36.153639) scale(0.697382)"/>
      <use xlink:href="#CMR17-32" transform="translate(470.818339 36.153639) scale(0.697382)"/>
      <use xlink:href="#CMMI12-3b" transform="translate(503.299653 0) scale(0.996264)"/>
      <use xlink:href="#CMMI12-d" transform="translate(547.001236 0) scale(0.996264)"/>
      <use xlink:href="#CMR17-6c" transform="translate(597.600368 -14.943915) scale(0.697382)"/>
      <use xlink:href="#CMR17-3d" transform="translate(643.182168 0) scale(0.996264)"/>
      <use xlink:href="#CMR17-31" transform="translate(742.570965 0) scale(0.996264)"/>
      <use xlink:href="#CMR17-4a" transform="translate(804.865847 0) scale(0.996264)"/>
      <use xlink:href="#CMR17-6d" transform="translate(868.442042 0) scale(0.996264)"/>
      <use xlink:href="#CMSY10-0" transform="translate(945.361632 36.153639) scale(0.697382)"/>
      <use xlink:href="#CMR17-32" transform="translate(999.602625 36.153639) scale(0.697382)"/>
      <use xlink:href="#CMMI12-3b" transform="translate(1032.083939 0) scale(0.996264)"/>
      <use xlink:href="#CMMI12-b" transform="translate(1075.785522 0) scale(0.996264)"/>
      <use xlink:href="#CMSY10-6b" transform="translate(1137.83225 -17.987904) scale(0.697382)"/>
      <use xlink:href="#CMR17-3d" transform="translate(1200.873601 0) scale(0.996264)"/>
      <use xlink:href="#CMR17-36" transform="translate(1300.262398 0) scale(0.996264)"/>
      <use xlink:href="#CMR17-30" transform="translate(1345.952875 0) scale(0.996264)"/>
      <use xlink:href="#CMSY10-e" transform="translate(1391.643352 36.153639) scale(0.697382)"/>
     </g>
    </g>
    <g id="line2d_43">
     <path d="M 67.912066 230.951962 
L 77.912066 230.951962 
L 87.912066 230.951962 
" style="fill: none; stroke: #2ca02c; stroke-width: 1.5; stroke-linecap: square"/>
    </g>
    <g id="text_22">
     <!-- $\Upper\InterfaceEnergy=\qty{1}{\joule\per\square\meter}, \Lower\InterfaceEnergy=\qty{2}{\joule\per\square\meter}, \Tangential\SurfaceRadiusAngle=\qty{60}{\degree}$ -->
     <g transform="translate(95.912066 234.451962) scale(0.1 -0.1)">
      <use xlink:href="#CMMI12-d" transform="scale(0.996264)"/>
      <use xlink:href="#CMR17-75" transform="translate(50.599133 -14.943915) scale(0.697382)"/>
      <use xlink:href="#CMR17-3d" transform="translate(114.397882 0) scale(0.996264)"/>
      <use xlink:href="#CMR17-31" transform="translate(213.786679 0) scale(0.996264)"/>
      <use xlink:href="#CMR17-4a" transform="translate(276.081561 0) scale(0.996264)"/>
      <use xlink:href="#CMR17-6d" transform="translate(339.657756 0) scale(0.996264)"/>
      <use xlink:href="#CMSY10-0" transform="translate(416.577346 36.153639) scale(0.697382)"/>
      <use xlink:href="#CMR17-32" transform="translate(470.818339 36.153639) scale(0.697382)"/>
      <use xlink:href="#CMMI12-3b" transform="translate(503.299653 0) scale(0.996264)"/>
      <use xlink:href="#CMMI12-d" transform="translate(547.001236 0) scale(0.996264)"/>
      <use xlink:href="#CMR17-6c" transform="translate(597.600368 -14.943915) scale(0.697382)"/>
      <use xlink:href="#CMR17-3d" transform="translate(643.182168 0) scale(0.996264)"/>
      <use xlink:href="#CMR17-32" transform="translate(742.570965 0) scale(0.996264)"/>
      <use xlink:href="#CMR17-4a" transform="translate(804.865847 0) scale(0.996264)"/>
      <use xlink:href="#CMR17-6d" transform="translate(868.442042 0) scale(0.996264)"/>
      <use xlink:href="#CMSY10-0" transform="translate(945.361632 36.153639) scale(0.697382)"/>
      <use xlink:href="#CMR17-32" transform="translate(999.602625 36.153639) scale(0.697382)"/>
      <use xlink:href="#CMMI12-3b" transform="translate(1032.083939 0) scale(0.996264)"/>
      <use xlink:href="#CMMI12-b" transform="translate(1075.785522 0) scale(0.996264)"/>
      <use xlink:href="#CMSY10-6b" transform="translate(1137.83225 -17.987904) scale(0.697382)"/>
      <use xlink:href="#CMR17-3d" transform="translate(1200.873601 0) scale(0.996264)"/>
      <use xlink:href="#CMR17-36" transform="translate(1300.262398 0) scale(0.996264)"/>
      <use xlink:href="#CMR17-30" transform="translate(1345.952875 0) scale(0.996264)"/>
      <use xlink:href="#CMSY10-e" transform="translate(1391.643352 36.153639) scale(0.697382)"/>
     </g>
    </g>
   </g>
  </g>
 </g>
 <defs>
  <clipPath id="p1e0a7fd039">
   <rect x="58.912066" y="10.8" width="362.287934" height="236.194251"/>
  </clipPath>
 </defs>
</svg>
