<?xml version="1.0" encoding="utf-8" standalone="no"?>
<!DOCTYPE svg PUBLIC "-//W3C//DTD SVG 1.1//EN"
  "http://www.w3.org/Graphics/SVG/1.1/DTD/svg11.dtd">
<svg xmlns:xlink="http://www.w3.org/1999/xlink" width="460.8pt" height="345.6pt" viewBox="0 0 460.8 345.6" xmlns="http://www.w3.org/2000/svg" version="1.1">
 <metadata>
  <rdf:RDF xmlns:dc="http://purl.org/dc/elements/1.1/" xmlns:cc="http://creativecommons.org/ns#" xmlns:rdf="http://www.w3.org/1999/02/22-rdf-syntax-ns#">
   <cc:Work>
    <dc:type rdf:resource="http://purl.org/dc/dcmitype/StillImage"/>
    <dc:date>2023-10-11T10:57:45.702576</dc:date>
    <dc:format>image/svg+xml</dc:format>
    <dc:creator>
     <cc:Agent>
      <dc:title>Matplotlib v3.7.2, https://matplotlib.org/</dc:title>
     </cc:Agent>
    </dc:creator>
   </cc:Work>
  </rdf:RDF>
 </metadata>
 <defs>
  <style type="text/css">*{stroke-linejoin: round; stroke-linecap: butt}</style>
 </defs>
 <g id="figure_1">
  <g id="patch_1">
   <path d="M 0 345.6 
L 460.8 345.6 
L 460.8 0 
L 0 0 
z
" style="fill: #ffffff"/>
  </g>
  <g id="axes_1">
   <g id="patch_2">
    <path d="M 56.864158 306.088647 
L 450 306.088647 
L 450 10.8 
L 56.864158 10.8 
z
" style="fill: #ffffff"/>
   </g>
   <g id="matplotlib.axis_1">
    <g id="xtick_1">
     <g id="line2d_1">
      <path d="M 74.733969 306.088647 
L 74.733969 10.8 
" clip-path="url(#p92b669ab93)" style="fill: none; stroke: #b0b0b0; stroke-width: 0.8; stroke-linecap: square"/>
     </g>
     <g id="line2d_2">
      <defs>
       <path id="m3a9721375f" d="M 0 0 
L 0 3.5 
" style="stroke: #000000; stroke-width: 0.8"/>
      </defs>
      <g>
       <use xlink:href="#m3a9721375f" x="74.733969" y="306.088647" style="stroke: #000000; stroke-width: 0.8"/>
      </g>
     </g>
     <g id="text_1">
      <!-- $\mathdefault{−0.100}$ -->
      <g transform="translate(59.513222 320.007145) scale(0.1 -0.1)">
       <defs>
        <path id="CMSY10-0" d="M 4218 1472 
C 4326 1472 4442 1472 4442 1600 
C 4442 1728 4326 1728 4218 1728 
L 755 1728 
C 646 1728 531 1728 531 1600 
C 531 1472 646 1472 755 1472 
L 4218 1472 
z
" transform="scale(0.015625)"/>
        <path id="CMR17-30" d="M 2688 2025 
C 2688 2416 2682 3080 2413 3591 
C 2176 4039 1798 4198 1466 4198 
C 1158 4198 768 4058 525 3597 
C 269 3118 243 2524 243 2025 
C 243 1661 250 1106 448 619 
C 723 -39 1216 -128 1466 -128 
C 1760 -128 2208 -7 2470 600 
C 2662 1042 2688 1559 2688 2025 
z
M 1466 -26 
C 1056 -26 813 325 723 812 
C 653 1188 653 1738 653 2096 
C 653 2588 653 2997 736 3387 
C 858 3929 1216 4096 1466 4096 
C 1728 4096 2067 3923 2189 3400 
C 2272 3036 2278 2607 2278 2096 
C 2278 1680 2278 1169 2202 792 
C 2067 95 1690 -26 1466 -26 
z
" transform="scale(0.015625)"/>
        <path id="CMMI12-3a" d="M 1178 307 
C 1178 492 1024 619 870 619 
C 685 619 557 466 557 313 
C 557 128 710 0 864 0 
C 1050 0 1178 153 1178 307 
z
" transform="scale(0.015625)"/>
        <path id="CMR17-31" d="M 1702 4058 
C 1702 4192 1696 4192 1606 4192 
C 1357 3916 979 3827 621 3827 
C 602 3827 570 3827 563 3808 
C 557 3795 557 3782 557 3648 
C 755 3648 1088 3686 1344 3839 
L 1344 461 
C 1344 236 1331 160 781 160 
L 589 160 
L 589 0 
C 896 0 1216 0 1523 0 
C 1830 0 2150 0 2458 0 
L 2458 160 
L 2266 160 
C 1715 160 1702 230 1702 458 
L 1702 4058 
z
" transform="scale(0.015625)"/>
       </defs>
       <use xlink:href="#CMSY10-0" transform="scale(0.996264)"/>
       <use xlink:href="#CMR17-30" transform="translate(77.487468 0) scale(0.996264)"/>
       <use xlink:href="#CMMI12-3a" transform="translate(123.177945 0) scale(0.996264)"/>
       <use xlink:href="#CMR17-31" transform="translate(150.275122 0) scale(0.996264)"/>
       <use xlink:href="#CMR17-30" transform="translate(195.965599 0) scale(0.996264)"/>
       <use xlink:href="#CMR17-30" transform="translate(241.656076 0) scale(0.996264)"/>
      </g>
     </g>
    </g>
    <g id="xtick_2">
     <g id="line2d_3">
      <path d="M 119.408496 306.088647 
L 119.408496 10.8 
" clip-path="url(#p92b669ab93)" style="fill: none; stroke: #b0b0b0; stroke-width: 0.8; stroke-linecap: square"/>
     </g>
     <g id="line2d_4">
      <g>
       <use xlink:href="#m3a9721375f" x="119.408496" y="306.088647" style="stroke: #000000; stroke-width: 0.8"/>
      </g>
     </g>
     <g id="text_2">
      <!-- $\mathdefault{−0.075}$ -->
      <g transform="translate(104.18775 320.007145) scale(0.1 -0.1)">
       <defs>
        <path id="CMR17-37" d="M 2886 3941 
L 2886 4081 
L 1382 4081 
C 634 4081 621 4165 595 4288 
L 480 4288 
L 294 3094 
L 410 3094 
C 429 3215 474 3540 550 3661 
C 589 3712 1062 3712 1171 3712 
L 2579 3712 
L 1869 2661 
C 1395 1954 1069 999 1069 165 
C 1069 89 1069 -128 1299 -128 
C 1530 -128 1530 89 1530 171 
L 1530 465 
C 1530 1508 1709 2196 2003 2636 
L 2886 3941 
z
" transform="scale(0.015625)"/>
        <path id="CMR17-35" d="M 730 3692 
C 794 3666 1056 3584 1325 3584 
C 1920 3584 2246 3911 2432 4100 
C 2432 4157 2432 4192 2394 4192 
C 2387 4192 2374 4192 2323 4163 
C 2099 4058 1837 3973 1517 3973 
C 1325 3973 1037 3999 723 4139 
C 653 4171 640 4171 634 4171 
C 602 4171 595 4164 595 4037 
L 595 2203 
C 595 2089 595 2057 659 2057 
C 691 2057 704 2070 736 2114 
C 941 2401 1222 2522 1542 2522 
C 1766 2522 2246 2382 2246 1289 
C 2246 1085 2246 715 2054 421 
C 1894 159 1645 25 1370 25 
C 947 25 518 320 403 814 
C 429 807 480 795 506 795 
C 589 795 749 840 749 1038 
C 749 1210 627 1280 506 1280 
C 358 1280 262 1190 262 1011 
C 262 454 704 -128 1382 -128 
C 2042 -128 2669 440 2669 1264 
C 2669 2030 2170 2624 1549 2624 
C 1222 2624 947 2503 730 2274 
L 730 3692 
z
" transform="scale(0.015625)"/>
       </defs>
       <use xlink:href="#CMSY10-0" transform="scale(0.996264)"/>
       <use xlink:href="#CMR17-30" transform="translate(77.487468 0) scale(0.996264)"/>
       <use xlink:href="#CMMI12-3a" transform="translate(123.177945 0) scale(0.996264)"/>
       <use xlink:href="#CMR17-30" transform="translate(150.275122 0) scale(0.996264)"/>
       <use xlink:href="#CMR17-37" transform="translate(195.965599 0) scale(0.996264)"/>
       <use xlink:href="#CMR17-35" transform="translate(241.656076 0) scale(0.996264)"/>
      </g>
     </g>
    </g>
    <g id="xtick_3">
     <g id="line2d_5">
      <path d="M 164.083024 306.088647 
L 164.083024 10.8 
" clip-path="url(#p92b669ab93)" style="fill: none; stroke: #b0b0b0; stroke-width: 0.8; stroke-linecap: square"/>
     </g>
     <g id="line2d_6">
      <g>
       <use xlink:href="#m3a9721375f" x="164.083024" y="306.088647" style="stroke: #000000; stroke-width: 0.8"/>
      </g>
     </g>
     <g id="text_3">
      <!-- $\mathdefault{−0.050}$ -->
      <g transform="translate(148.862277 320.007145) scale(0.1 -0.1)">
       <use xlink:href="#CMSY10-0" transform="scale(0.996264)"/>
       <use xlink:href="#CMR17-30" transform="translate(77.487468 0) scale(0.996264)"/>
       <use xlink:href="#CMMI12-3a" transform="translate(123.177945 0) scale(0.996264)"/>
       <use xlink:href="#CMR17-30" transform="translate(150.275122 0) scale(0.996264)"/>
       <use xlink:href="#CMR17-35" transform="translate(195.965599 0) scale(0.996264)"/>
       <use xlink:href="#CMR17-30" transform="translate(241.656076 0) scale(0.996264)"/>
      </g>
     </g>
    </g>
    <g id="xtick_4">
     <g id="line2d_7">
      <path d="M 208.757551 306.088647 
L 208.757551 10.8 
" clip-path="url(#p92b669ab93)" style="fill: none; stroke: #b0b0b0; stroke-width: 0.8; stroke-linecap: square"/>
     </g>
     <g id="line2d_8">
      <g>
       <use xlink:href="#m3a9721375f" x="208.757551" y="306.088647" style="stroke: #000000; stroke-width: 0.8"/>
      </g>
     </g>
     <g id="text_4">
      <!-- $\mathdefault{−0.025}$ -->
      <g transform="translate(193.536805 320.007145) scale(0.1 -0.1)">
       <defs>
        <path id="CMR17-32" d="M 2669 989 
L 2554 989 
C 2490 536 2438 459 2413 420 
C 2381 369 1920 369 1830 369 
L 602 369 
C 832 619 1280 1072 1824 1597 
C 2214 1967 2669 2402 2669 3035 
C 2669 3790 2067 4224 1395 4224 
C 691 4224 262 3604 262 3030 
C 262 2780 448 2748 525 2748 
C 589 2748 781 2787 781 3010 
C 781 3207 614 3264 525 3264 
C 486 3264 448 3258 422 3245 
C 544 3790 915 4058 1306 4058 
C 1862 4058 2227 3617 2227 3035 
C 2227 2479 1901 2000 1536 1584 
L 262 146 
L 262 0 
L 2515 0 
L 2669 989 
z
" transform="scale(0.015625)"/>
       </defs>
       <use xlink:href="#CMSY10-0" transform="scale(0.996264)"/>
       <use xlink:href="#CMR17-30" transform="translate(77.487468 0) scale(0.996264)"/>
       <use xlink:href="#CMMI12-3a" transform="translate(123.177945 0) scale(0.996264)"/>
       <use xlink:href="#CMR17-30" transform="translate(150.275122 0) scale(0.996264)"/>
       <use xlink:href="#CMR17-32" transform="translate(195.965599 0) scale(0.996264)"/>
       <use xlink:href="#CMR17-35" transform="translate(241.656076 0) scale(0.996264)"/>
      </g>
     </g>
    </g>
    <g id="xtick_5">
     <g id="line2d_9">
      <path d="M 253.432079 306.088647 
L 253.432079 10.8 
" clip-path="url(#p92b669ab93)" style="fill: none; stroke: #b0b0b0; stroke-width: 0.8; stroke-linecap: square"/>
     </g>
     <g id="line2d_10">
      <g>
       <use xlink:href="#m3a9721375f" x="253.432079" y="306.088647" style="stroke: #000000; stroke-width: 0.8"/>
      </g>
     </g>
     <g id="text_5">
      <!-- $\mathdefault{0.000}$ -->
      <g transform="translate(242.085704 320.007145) scale(0.1 -0.1)">
       <use xlink:href="#CMR17-30" transform="scale(0.996264)"/>
       <use xlink:href="#CMMI12-3a" transform="translate(45.690477 0) scale(0.996264)"/>
       <use xlink:href="#CMR17-30" transform="translate(72.787654 0) scale(0.996264)"/>
       <use xlink:href="#CMR17-30" transform="translate(118.478131 0) scale(0.996264)"/>
       <use xlink:href="#CMR17-30" transform="translate(164.168608 0) scale(0.996264)"/>
      </g>
     </g>
    </g>
    <g id="xtick_6">
     <g id="line2d_11">
      <path d="M 298.106606 306.088647 
L 298.106606 10.8 
" clip-path="url(#p92b669ab93)" style="fill: none; stroke: #b0b0b0; stroke-width: 0.8; stroke-linecap: square"/>
     </g>
     <g id="line2d_12">
      <g>
       <use xlink:href="#m3a9721375f" x="298.106606" y="306.088647" style="stroke: #000000; stroke-width: 0.8"/>
      </g>
     </g>
     <g id="text_6">
      <!-- $\mathdefault{0.025}$ -->
      <g transform="translate(286.760232 320.007145) scale(0.1 -0.1)">
       <use xlink:href="#CMR17-30" transform="scale(0.996264)"/>
       <use xlink:href="#CMMI12-3a" transform="translate(45.690477 0) scale(0.996264)"/>
       <use xlink:href="#CMR17-30" transform="translate(72.787654 0) scale(0.996264)"/>
       <use xlink:href="#CMR17-32" transform="translate(118.478131 0) scale(0.996264)"/>
       <use xlink:href="#CMR17-35" transform="translate(164.168608 0) scale(0.996264)"/>
      </g>
     </g>
    </g>
    <g id="xtick_7">
     <g id="line2d_13">
      <path d="M 342.781134 306.088647 
L 342.781134 10.8 
" clip-path="url(#p92b669ab93)" style="fill: none; stroke: #b0b0b0; stroke-width: 0.8; stroke-linecap: square"/>
     </g>
     <g id="line2d_14">
      <g>
       <use xlink:href="#m3a9721375f" x="342.781134" y="306.088647" style="stroke: #000000; stroke-width: 0.8"/>
      </g>
     </g>
     <g id="text_7">
      <!-- $\mathdefault{0.050}$ -->
      <g transform="translate(331.434759 320.007145) scale(0.1 -0.1)">
       <use xlink:href="#CMR17-30" transform="scale(0.996264)"/>
       <use xlink:href="#CMMI12-3a" transform="translate(45.690477 0) scale(0.996264)"/>
       <use xlink:href="#CMR17-30" transform="translate(72.787654 0) scale(0.996264)"/>
       <use xlink:href="#CMR17-35" transform="translate(118.478131 0) scale(0.996264)"/>
       <use xlink:href="#CMR17-30" transform="translate(164.168608 0) scale(0.996264)"/>
      </g>
     </g>
    </g>
    <g id="xtick_8">
     <g id="line2d_15">
      <path d="M 387.455661 306.088647 
L 387.455661 10.8 
" clip-path="url(#p92b669ab93)" style="fill: none; stroke: #b0b0b0; stroke-width: 0.8; stroke-linecap: square"/>
     </g>
     <g id="line2d_16">
      <g>
       <use xlink:href="#m3a9721375f" x="387.455661" y="306.088647" style="stroke: #000000; stroke-width: 0.8"/>
      </g>
     </g>
     <g id="text_8">
      <!-- $\mathdefault{0.075}$ -->
      <g transform="translate(376.109287 320.007145) scale(0.1 -0.1)">
       <use xlink:href="#CMR17-30" transform="scale(0.996264)"/>
       <use xlink:href="#CMMI12-3a" transform="translate(45.690477 0) scale(0.996264)"/>
       <use xlink:href="#CMR17-30" transform="translate(72.787654 0) scale(0.996264)"/>
       <use xlink:href="#CMR17-37" transform="translate(118.478131 0) scale(0.996264)"/>
       <use xlink:href="#CMR17-35" transform="translate(164.168608 0) scale(0.996264)"/>
      </g>
     </g>
    </g>
    <g id="xtick_9">
     <g id="line2d_17">
      <path d="M 432.130189 306.088647 
L 432.130189 10.8 
" clip-path="url(#p92b669ab93)" style="fill: none; stroke: #b0b0b0; stroke-width: 0.8; stroke-linecap: square"/>
     </g>
     <g id="line2d_18">
      <g>
       <use xlink:href="#m3a9721375f" x="432.130189" y="306.088647" style="stroke: #000000; stroke-width: 0.8"/>
      </g>
     </g>
     <g id="text_9">
      <!-- $\mathdefault{0.100}$ -->
      <g transform="translate(420.783814 320.007145) scale(0.1 -0.1)">
       <use xlink:href="#CMR17-30" transform="scale(0.996264)"/>
       <use xlink:href="#CMMI12-3a" transform="translate(45.690477 0) scale(0.996264)"/>
       <use xlink:href="#CMR17-31" transform="translate(72.787654 0) scale(0.996264)"/>
       <use xlink:href="#CMR17-30" transform="translate(118.478131 0) scale(0.996264)"/>
       <use xlink:href="#CMR17-30" transform="translate(164.168608 0) scale(0.996264)"/>
      </g>
     </g>
    </g>
    <g id="text_10">
     <!-- $\Normal\ShiftStep$ in \unit{\meter} -->
     <g transform="translate(232.237207 332.862822) scale(0.1 -0.1)">
      <defs>
       <path id="CMR17-1" d="M 2598 4403 
C 2547 4512 2522 4512 2470 4512 
C 2394 4512 2387 4499 2342 4409 
L 269 109 
C 262 96 237 38 237 32 
C 237 6 243 0 358 0 
L 4576 0 
C 4691 0 4698 6 4698 32 
C 4698 38 4672 96 4666 109 
L 2598 4403 
z
M 2310 4038 
L 4083 358 
L 531 358 
L 2310 4038 
z
" transform="scale(0.015625)"/>
       <path id="CMMI12-73" d="M 1459 1280 
C 1568 1261 1741 1223 1779 1216 
C 1862 1192 2150 1090 2150 783 
C 2150 586 1971 70 1229 70 
C 1094 70 614 70 486 436 
C 742 404 870 603 870 745 
C 870 880 781 950 653 950 
C 512 950 326 841 326 552 
C 326 173 710 -64 1222 -64 
C 2195 -64 2483 651 2483 984 
C 2483 1079 2483 1258 2278 1462 
C 2118 1616 1965 1648 1619 1718 
C 1446 1756 1171 1814 1171 2101 
C 1171 2229 1286 2689 1894 2689 
C 2163 2689 2426 2589 2490 2368 
C 2208 2368 2195 2125 2195 2119 
C 2195 1984 2317 1946 2374 1946 
C 2464 1946 2643 2015 2643 2281 
C 2643 2545 2400 2816 1901 2816 
C 1062 2816 838 2160 838 1899 
C 838 1414 1312 1312 1459 1280 
z
" transform="scale(0.015625)"/>
       <path id="CMSY10-3f" d="M 2618 4045 
C 2618 4160 2618 4275 2490 4275 
C 2362 4275 2362 4141 2362 4045 
L 2362 256 
L 582 256 
C 486 256 352 256 352 128 
C 352 0 486 0 582 0 
L 4403 0 
C 4512 0 4627 0 4627 128 
C 4627 256 4512 256 4403 256 
L 2618 256 
L 2618 4045 
z
" transform="scale(0.015625)"/>
       <path id="CMR17-69" d="M 992 3909 
C 992 4049 877 4170 730 4170 
C 589 4170 467 4056 467 3909 
C 467 3769 582 3648 730 3648 
C 870 3648 992 3763 992 3909 
z
M 243 2706 
L 243 2541 
C 602 2541 653 2502 653 2197 
L 653 427 
C 653 184 627 153 218 153 
L 218 -13 
C 371 0 646 0 806 0 
C 960 0 1222 0 1370 -13 
L 1370 153 
C 992 153 979 191 979 420 
L 979 2776 
L 243 2706 
z
" transform="scale(0.015625)"/>
       <path id="CMR17-6e" d="M 2656 1933 
C 2656 2259 2592 2790 1837 2790 
C 1331 2790 1069 2400 973 2144 
L 966 2144 
L 966 2790 
L 211 2720 
L 211 2554 
C 589 2554 646 2515 646 2208 
L 646 428 
C 646 184 621 153 211 153 
L 211 -13 
C 365 0 646 0 813 0 
C 979 0 1267 0 1421 -13 
L 1421 153 
C 1011 153 986 178 986 428 
L 986 1658 
C 986 2247 1344 2688 1792 2688 
C 2266 2688 2317 2266 2317 1958 
L 2317 428 
C 2317 184 2291 153 1882 153 
L 1882 -13 
C 2035 0 2317 0 2483 0 
C 2650 0 2938 0 3091 -13 
L 3091 153 
C 2682 153 2656 178 2656 428 
L 2656 1933 
z
" transform="scale(0.015625)"/>
       <path id="CMR17-6d" d="M 4326 1933 
C 4326 2252 4269 2790 3507 2790 
C 3072 2790 2771 2496 2656 2151 
L 2650 2151 
C 2573 2676 2195 2790 1837 2790 
C 1331 2790 1069 2400 973 2144 
L 966 2144 
L 966 2790 
L 211 2720 
L 211 2554 
C 589 2554 646 2515 646 2208 
L 646 428 
C 646 184 621 153 211 153 
L 211 -13 
C 365 0 646 0 813 0 
C 979 0 1267 0 1421 -13 
L 1421 153 
C 1011 153 986 178 986 428 
L 986 1658 
C 986 2247 1344 2688 1792 2688 
C 2266 2688 2317 2266 2317 1958 
L 2317 428 
C 2317 184 2291 153 1882 153 
L 1882 -13 
C 2035 0 2317 0 2483 0 
C 2650 0 2938 0 3091 -13 
L 3091 153 
C 2682 153 2656 178 2656 428 
L 2656 1658 
C 2656 2247 3014 2688 3462 2688 
C 3936 2688 3987 2266 3987 1958 
L 3987 428 
C 3987 184 3962 153 3552 153 
L 3552 -13 
C 3706 0 3987 0 4154 0 
C 4320 0 4608 0 4762 -13 
L 4762 153 
C 4352 153 4326 178 4326 428 
L 4326 1933 
z
" transform="scale(0.015625)"/>
      </defs>
      <use xlink:href="#CMR17-1" transform="scale(0.996264)"/>
      <use xlink:href="#CMMI12-73" transform="translate(71.384788 0) scale(0.996264)"/>
      <use xlink:href="#CMSY10-3f" transform="translate(117.334836 -14.943915) scale(0.697382)"/>
      <use xlink:href="#CMR17-69" transform="translate(202.149927 0) scale(0.996264)"/>
      <use xlink:href="#CMR17-6e" transform="translate(227.020986 0) scale(0.996264)"/>
      <use xlink:href="#CMR17-6d" transform="translate(307.992322 0) scale(0.996264)"/>
     </g>
    </g>
   </g>
   <g id="matplotlib.axis_2">
    <g id="ytick_1">
     <g id="line2d_19">
      <path d="M 56.864158 272.491519 
L 450 272.491519 
" clip-path="url(#p92b669ab93)" style="fill: none; stroke: #b0b0b0; stroke-width: 0.8; stroke-linecap: square"/>
     </g>
     <g id="line2d_20">
      <defs>
       <path id="ma0a387bb70" d="M 0 0 
L -3.5 0 
" style="stroke: #000000; stroke-width: 0.8"/>
      </defs>
      <g>
       <use xlink:href="#ma0a387bb70" x="56.864158" y="272.491519" style="stroke: #000000; stroke-width: 0.8"/>
      </g>
     </g>
     <g id="text_11">
      <!-- $\mathdefault{−0.20}$ -->
      <g transform="translate(24.404 275.950768) scale(0.1 -0.1)">
       <use xlink:href="#CMSY10-0" transform="scale(0.996264)"/>
       <use xlink:href="#CMR17-30" transform="translate(77.487468 0) scale(0.996264)"/>
       <use xlink:href="#CMMI12-3a" transform="translate(123.177945 0) scale(0.996264)"/>
       <use xlink:href="#CMR17-32" transform="translate(150.275122 0) scale(0.996264)"/>
       <use xlink:href="#CMR17-30" transform="translate(195.965599 0) scale(0.996264)"/>
      </g>
     </g>
    </g>
    <g id="ytick_2">
     <g id="line2d_21">
      <path d="M 56.864158 237.713475 
L 450 237.713475 
" clip-path="url(#p92b669ab93)" style="fill: none; stroke: #b0b0b0; stroke-width: 0.8; stroke-linecap: square"/>
     </g>
     <g id="line2d_22">
      <g>
       <use xlink:href="#ma0a387bb70" x="56.864158" y="237.713475" style="stroke: #000000; stroke-width: 0.8"/>
      </g>
     </g>
     <g id="text_12">
      <!-- $\mathdefault{−0.15}$ -->
      <g transform="translate(24.404 241.172724) scale(0.1 -0.1)">
       <use xlink:href="#CMSY10-0" transform="scale(0.996264)"/>
       <use xlink:href="#CMR17-30" transform="translate(77.487468 0) scale(0.996264)"/>
       <use xlink:href="#CMMI12-3a" transform="translate(123.177945 0) scale(0.996264)"/>
       <use xlink:href="#CMR17-31" transform="translate(150.275122 0) scale(0.996264)"/>
       <use xlink:href="#CMR17-35" transform="translate(195.965599 0) scale(0.996264)"/>
      </g>
     </g>
    </g>
    <g id="ytick_3">
     <g id="line2d_23">
      <path d="M 56.864158 202.935431 
L 450 202.935431 
" clip-path="url(#p92b669ab93)" style="fill: none; stroke: #b0b0b0; stroke-width: 0.8; stroke-linecap: square"/>
     </g>
     <g id="line2d_24">
      <g>
       <use xlink:href="#ma0a387bb70" x="56.864158" y="202.935431" style="stroke: #000000; stroke-width: 0.8"/>
      </g>
     </g>
     <g id="text_13">
      <!-- $\mathdefault{−0.10}$ -->
      <g transform="translate(24.404 206.39468) scale(0.1 -0.1)">
       <use xlink:href="#CMSY10-0" transform="scale(0.996264)"/>
       <use xlink:href="#CMR17-30" transform="translate(77.487468 0) scale(0.996264)"/>
       <use xlink:href="#CMMI12-3a" transform="translate(123.177945 0) scale(0.996264)"/>
       <use xlink:href="#CMR17-31" transform="translate(150.275122 0) scale(0.996264)"/>
       <use xlink:href="#CMR17-30" transform="translate(195.965599 0) scale(0.996264)"/>
      </g>
     </g>
    </g>
    <g id="ytick_4">
     <g id="line2d_25">
      <path d="M 56.864158 168.157387 
L 450 168.157387 
" clip-path="url(#p92b669ab93)" style="fill: none; stroke: #b0b0b0; stroke-width: 0.8; stroke-linecap: square"/>
     </g>
     <g id="line2d_26">
      <g>
       <use xlink:href="#ma0a387bb70" x="56.864158" y="168.157387" style="stroke: #000000; stroke-width: 0.8"/>
      </g>
     </g>
     <g id="text_14">
      <!-- $\mathdefault{−0.05}$ -->
      <g transform="translate(24.404 171.616636) scale(0.1 -0.1)">
       <use xlink:href="#CMSY10-0" transform="scale(0.996264)"/>
       <use xlink:href="#CMR17-30" transform="translate(77.487468 0) scale(0.996264)"/>
       <use xlink:href="#CMMI12-3a" transform="translate(123.177945 0) scale(0.996264)"/>
       <use xlink:href="#CMR17-30" transform="translate(150.275122 0) scale(0.996264)"/>
       <use xlink:href="#CMR17-35" transform="translate(195.965599 0) scale(0.996264)"/>
      </g>
     </g>
    </g>
    <g id="ytick_5">
     <g id="line2d_27">
      <path d="M 56.864158 133.379343 
L 450 133.379343 
" clip-path="url(#p92b669ab93)" style="fill: none; stroke: #b0b0b0; stroke-width: 0.8; stroke-linecap: square"/>
     </g>
     <g id="line2d_28">
      <g>
       <use xlink:href="#ma0a387bb70" x="56.864158" y="133.379343" style="stroke: #000000; stroke-width: 0.8"/>
      </g>
     </g>
     <g id="text_15">
      <!-- $\mathdefault{0.00}$ -->
      <g transform="translate(32.152743 136.838592) scale(0.1 -0.1)">
       <use xlink:href="#CMR17-30" transform="scale(0.996264)"/>
       <use xlink:href="#CMMI12-3a" transform="translate(45.690477 0) scale(0.996264)"/>
       <use xlink:href="#CMR17-30" transform="translate(72.787654 0) scale(0.996264)"/>
       <use xlink:href="#CMR17-30" transform="translate(118.478131 0) scale(0.996264)"/>
      </g>
     </g>
    </g>
    <g id="ytick_6">
     <g id="line2d_29">
      <path d="M 56.864158 98.601299 
L 450 98.601299 
" clip-path="url(#p92b669ab93)" style="fill: none; stroke: #b0b0b0; stroke-width: 0.8; stroke-linecap: square"/>
     </g>
     <g id="line2d_30">
      <g>
       <use xlink:href="#ma0a387bb70" x="56.864158" y="98.601299" style="stroke: #000000; stroke-width: 0.8"/>
      </g>
     </g>
     <g id="text_16">
      <!-- $\mathdefault{0.05}$ -->
      <g transform="translate(32.152743 102.060548) scale(0.1 -0.1)">
       <use xlink:href="#CMR17-30" transform="scale(0.996264)"/>
       <use xlink:href="#CMMI12-3a" transform="translate(45.690477 0) scale(0.996264)"/>
       <use xlink:href="#CMR17-30" transform="translate(72.787654 0) scale(0.996264)"/>
       <use xlink:href="#CMR17-35" transform="translate(118.478131 0) scale(0.996264)"/>
      </g>
     </g>
    </g>
    <g id="ytick_7">
     <g id="line2d_31">
      <path d="M 56.864158 63.823254 
L 450 63.823254 
" clip-path="url(#p92b669ab93)" style="fill: none; stroke: #b0b0b0; stroke-width: 0.8; stroke-linecap: square"/>
     </g>
     <g id="line2d_32">
      <g>
       <use xlink:href="#ma0a387bb70" x="56.864158" y="63.823254" style="stroke: #000000; stroke-width: 0.8"/>
      </g>
     </g>
     <g id="text_17">
      <!-- $\mathdefault{0.10}$ -->
      <g transform="translate(32.152743 67.282504) scale(0.1 -0.1)">
       <use xlink:href="#CMR17-30" transform="scale(0.996264)"/>
       <use xlink:href="#CMMI12-3a" transform="translate(45.690477 0) scale(0.996264)"/>
       <use xlink:href="#CMR17-31" transform="translate(72.787654 0) scale(0.996264)"/>
       <use xlink:href="#CMR17-30" transform="translate(118.478131 0) scale(0.996264)"/>
      </g>
     </g>
    </g>
    <g id="ytick_8">
     <g id="line2d_33">
      <path d="M 56.864158 29.04521 
L 450 29.04521 
" clip-path="url(#p92b669ab93)" style="fill: none; stroke: #b0b0b0; stroke-width: 0.8; stroke-linecap: square"/>
     </g>
     <g id="line2d_34">
      <g>
       <use xlink:href="#ma0a387bb70" x="56.864158" y="29.04521" style="stroke: #000000; stroke-width: 0.8"/>
      </g>
     </g>
     <g id="text_18">
      <!-- $\mathdefault{0.15}$ -->
      <g transform="translate(32.152743 32.50446) scale(0.1 -0.1)">
       <use xlink:href="#CMR17-30" transform="scale(0.996264)"/>
       <use xlink:href="#CMMI12-3a" transform="translate(45.690477 0) scale(0.996264)"/>
       <use xlink:href="#CMR17-31" transform="translate(72.787654 0) scale(0.996264)"/>
       <use xlink:href="#CMR17-35" transform="translate(118.478131 0) scale(0.996264)"/>
      </g>
     </g>
    </g>
    <g id="text_19">
     <!-- $\Normal\GibbsEnergyStep$ in \unit{\joule\per\meter} -->
     <g transform="translate(18.466821 189.709761) rotate(-90) scale(0.1 -0.1)">
      <defs>
       <path id="CMMI12-47" d="M 4774 4423 
C 4774 4480 4730 4480 4717 4480 
C 4704 4480 4678 4480 4627 4416 
L 4186 3889 
C 4154 3940 4026 4163 3776 4309 
C 3501 4480 3226 4480 3130 4480 
C 1760 4480 320 3095 320 1595 
C 320 546 1050 -128 2010 -128 
C 2470 -128 3053 25 3373 427 
C 3443 185 3584 12 3629 12 
C 3661 12 3667 32 3674 32 
C 3680 44 3731 270 3763 385 
L 3866 797 
C 3917 1009 3942 1099 3987 1291 
C 4051 1536 4064 1536 4416 1536 
C 4442 1536 4518 1536 4518 1666 
C 4518 1734 4454 1734 4435 1734 
C 4326 1734 4205 1734 4090 1734 
L 3744 1734 
C 3475 1734 3194 1734 2931 1734 
C 2874 1734 2797 1734 2797 1611 
C 2797 1542 2848 1542 2848 1536 
L 3008 1536 
C 3514 1536 3514 1489 3514 1402 
C 3514 1395 3392 751 3270 561 
C 3027 204 2522 57 2144 57 
C 1651 57 851 312 851 1410 
C 851 1836 1005 2808 1626 3526 
C 2029 3984 2624 4295 3187 4295 
C 3942 4295 4211 3655 4211 3071 
C 4211 2970 4186 2831 4186 2742 
C 4186 2685 4250 2685 4269 2685 
C 4339 2685 4346 2691 4371 2805 
L 4774 4423 
z
" transform="scale(0.015625)"/>
       <path id="CMR17-4a" d="M 1888 910 
C 1888 324 1568 -26 1242 -26 
C 1075 -26 691 49 525 431 
C 550 425 582 418 608 418 
C 730 418 883 501 883 692 
C 883 845 774 960 614 960 
C 461 960 339 865 339 682 
C 339 258 730 -128 1254 -128 
C 1754 -128 2214 229 2291 764 
C 2298 809 2298 821 2298 1038 
L 2298 3715 
C 2298 3823 2298 4001 2310 4039 
C 2336 4160 2483 4160 2682 4160 
L 2682 4320 
C 2669 4320 2214 4320 2054 4320 
C 1786 4320 1491 4320 1222 4320 
L 1222 4160 
L 1376 4160 
C 1875 4160 1888 4090 1888 3861 
L 1888 910 
z
" transform="scale(0.015625)"/>
      </defs>
      <use xlink:href="#CMR17-1" transform="scale(0.996264)"/>
      <use xlink:href="#CMMI12-47" transform="translate(71.384788 0) scale(0.996264)"/>
      <use xlink:href="#CMSY10-3f" transform="translate(148.33165 -14.943915) scale(0.697382)"/>
      <use xlink:href="#CMR17-69" transform="translate(233.146742 0) scale(0.996264)"/>
      <use xlink:href="#CMR17-6e" transform="translate(258.0178 0) scale(0.996264)"/>
      <use xlink:href="#CMR17-4a" transform="translate(338.989136 0) scale(0.996264)"/>
      <use xlink:href="#CMR17-6d" transform="translate(402.565331 0) scale(0.996264)"/>
      <use xlink:href="#CMSY10-0" transform="translate(479.484921 36.153639) scale(0.697382)"/>
      <use xlink:href="#CMR17-31" transform="translate(533.725914 36.153639) scale(0.697382)"/>
     </g>
    </g>
   </g>
   <g id="line2d_35">
    <path d="M 74.733969 58.863383 
L 82.027769 62.089554 
L 89.321569 65.300763 
L 96.61537 68.496912 
L 103.90917 71.6779 
L 111.202971 74.843628 
L 118.496771 77.993996 
L 125.790572 81.128904 
L 133.084372 84.24825 
L 140.378172 87.351933 
L 147.671973 90.439851 
L 154.965773 93.511903 
L 162.259574 96.567985 
L 169.553374 99.607995 
L 176.847174 102.631831 
L 184.140975 105.639388 
L 191.434775 108.630563 
L 198.728576 111.605252 
L 206.022376 114.56335 
L 213.316177 117.504753 
L 220.609977 120.429356 
L 227.903777 123.337054 
L 235.197578 126.227741 
L 242.491378 129.101312 
L 249.785179 131.95766 
L 257.078979 134.79668 
L 264.372779 137.618264 
L 271.66658 140.422307 
L 278.96038 143.208702 
L 286.254181 145.97734 
L 293.547981 148.728117 
L 300.841782 151.460923 
L 308.135582 154.175651 
L 315.429382 156.872195 
L 322.723183 159.550445 
L 330.016983 162.210294 
L 337.310784 164.851635 
L 344.604584 167.474358 
L 351.898384 170.078357 
L 359.192185 172.663522 
L 366.485985 175.229745 
L 373.779786 177.776919 
L 381.073586 180.304934 
L 388.367386 182.813684 
L 395.661187 185.303058 
L 402.954987 187.772949 
L 410.248788 190.223249 
L 417.542588 192.65385 
L 424.836389 195.064644 
L 432.130189 197.455522 
" clip-path="url(#p92b669ab93)" style="fill: none; stroke: #1f77b4; stroke-width: 1.5; stroke-linecap: square"/>
   </g>
   <g id="line2d_36">
    <path d="M 74.733969 63.823254 
L 82.027769 66.662278 
L 89.321569 69.501302 
L 96.61537 72.340326 
L 103.90917 75.17935 
L 111.202971 78.018374 
L 118.496771 80.857398 
L 125.790572 83.696423 
L 133.084372 86.535447 
L 140.378172 89.374471 
L 147.671973 92.213495 
L 154.965773 95.052519 
L 162.259574 97.891543 
L 169.553374 100.730567 
L 176.847174 103.569591 
L 184.140975 106.408615 
L 191.434775 109.247639 
L 198.728576 112.086663 
L 206.022376 114.925687 
L 213.316177 117.764711 
L 220.609977 120.603735 
L 227.903777 123.442759 
L 235.197578 126.281783 
L 242.491378 129.120807 
L 249.785179 131.959831 
L 257.078979 134.798855 
L 264.372779 137.637879 
L 271.66658 140.476903 
L 278.96038 143.315927 
L 286.254181 146.154951 
L 293.547981 148.993975 
L 300.841782 151.832999 
L 308.135582 154.672023 
L 315.429382 157.511047 
L 322.723183 160.350071 
L 330.016983 163.189095 
L 337.310784 166.028119 
L 344.604584 168.867143 
L 351.898384 171.706167 
L 359.192185 174.545191 
L 366.485985 177.384215 
L 373.779786 180.223239 
L 381.073586 183.062263 
L 388.367386 185.901287 
L 395.661187 188.740311 
L 402.954987 191.579335 
L 410.248788 194.418359 
L 417.542588 197.257383 
L 424.836389 200.096407 
L 432.130189 202.935431 
" clip-path="url(#p92b669ab93)" style="fill: none; stroke-dasharray: 5.55,2.4; stroke-dashoffset: 0; stroke: #1f77b4; stroke-width: 1.5"/>
   </g>
   <g id="line2d_37">
    <path d="M 74.733969 21.605404 
L 82.027769 26.44466 
L 89.321569 31.261473 
L 96.61537 36.055696 
L 103.90917 40.827178 
L 111.202971 45.575771 
L 118.496771 50.301323 
L 125.790572 55.003685 
L 133.084372 59.682703 
L 140.378172 64.338228 
L 147.671973 68.970105 
L 154.965773 73.578182 
L 162.259574 78.162306 
L 169.553374 82.722322 
L 176.847174 87.258075 
L 184.140975 91.769411 
L 191.434775 96.256173 
L 198.728576 100.718206 
L 206.022376 105.155354 
L 213.316177 109.567459 
L 220.609977 113.954363 
L 227.903777 118.31591 
L 235.197578 122.651941 
L 242.491378 126.962297 
L 249.785179 131.246819 
L 257.078979 135.505348 
L 264.372779 139.737725 
L 271.66658 143.943789 
L 278.96038 148.123381 
L 286.254181 152.276339 
L 293.547981 156.402504 
L 300.841782 160.501713 
L 308.135582 164.573806 
L 315.429382 168.61862 
L 322.723183 172.635996 
L 330.016983 176.62577 
L 337.310784 180.587781 
L 344.604584 184.521866 
L 351.898384 188.427864 
L 359.192185 192.305611 
L 366.485985 196.154947 
L 373.779786 199.975707 
L 381.073586 203.76773 
L 388.367386 207.530854 
L 395.661187 211.264915 
L 402.954987 214.969752 
L 410.248788 218.645203 
L 417.542588 222.291104 
L 424.836389 225.907294 
L 432.130189 229.493612 
" clip-path="url(#p92b669ab93)" style="fill: none; stroke: #ff7f0e; stroke-width: 1.5; stroke-linecap: square"/>
   </g>
   <g id="line2d_38">
    <path d="M 74.733969 29.04521 
L 82.027769 33.303746 
L 89.321569 37.562282 
L 96.61537 41.820818 
L 103.90917 46.079354 
L 111.202971 50.33789 
L 118.496771 54.596426 
L 125.790572 58.854962 
L 133.084372 63.113498 
L 140.378172 67.372034 
L 147.671973 71.63057 
L 154.965773 75.889106 
L 162.259574 80.147642 
L 169.553374 84.406179 
L 176.847174 88.664715 
L 184.140975 92.923251 
L 191.434775 97.181787 
L 198.728576 101.440323 
L 206.022376 105.698859 
L 213.316177 109.957395 
L 220.609977 114.215931 
L 227.903777 118.474467 
L 235.197578 122.733003 
L 242.491378 126.991539 
L 249.785179 131.250075 
L 257.078979 135.508611 
L 264.372779 139.767147 
L 271.66658 144.025683 
L 278.96038 148.284219 
L 286.254181 152.542755 
L 293.547981 156.801291 
L 300.841782 161.059827 
L 308.135582 165.318363 
L 315.429382 169.576899 
L 322.723183 173.835435 
L 330.016983 178.093971 
L 337.310784 182.352507 
L 344.604584 186.611043 
L 351.898384 190.869579 
L 359.192185 195.128115 
L 366.485985 199.386651 
L 373.779786 203.645187 
L 381.073586 207.903723 
L 388.367386 212.162259 
L 395.661187 216.420795 
L 402.954987 220.679331 
L 410.248788 224.937867 
L 417.542588 229.196403 
L 424.836389 233.454939 
L 432.130189 237.713475 
" clip-path="url(#p92b669ab93)" style="fill: none; stroke-dasharray: 5.55,2.4; stroke-dashoffset: 0; stroke: #ff7f0e; stroke-width: 1.5"/>
   </g>
   <g id="line2d_39">
    <path d="M 74.733969 197.455522 
L 82.027769 195.064644 
L 89.321569 192.65385 
L 96.61537 190.223249 
L 103.90917 187.772949 
L 111.202971 185.303058 
L 118.496771 182.813684 
L 125.790572 180.304934 
L 133.084372 177.776919 
L 140.378172 175.229745 
L 147.671973 172.663522 
L 154.965773 170.078357 
L 162.259574 167.474358 
L 169.553374 164.851635 
L 176.847174 162.210294 
L 184.140975 159.550445 
L 191.434775 156.872195 
L 198.728576 154.175651 
L 206.022376 151.460923 
L 213.316177 148.728117 
L 220.609977 145.97734 
L 227.903777 143.208702 
L 235.197578 140.422307 
L 242.491378 137.618264 
L 249.785179 134.79668 
L 257.078979 131.95766 
L 264.372779 129.101312 
L 271.66658 126.227741 
L 278.96038 123.337054 
L 286.254181 120.429356 
L 293.547981 117.504753 
L 300.841782 114.56335 
L 308.135582 111.605252 
L 315.429382 108.630563 
L 322.723183 105.639388 
L 330.016983 102.631831 
L 337.310784 99.607995 
L 344.604584 96.567985 
L 351.898384 93.511903 
L 359.192185 90.439851 
L 366.485985 87.351933 
L 373.779786 84.24825 
L 381.073586 81.128904 
L 388.367386 77.993996 
L 395.661187 74.843628 
L 402.954987 71.6779 
L 410.248788 68.496912 
L 417.542588 65.300763 
L 424.836389 62.089554 
L 432.130189 58.863383 
" clip-path="url(#p92b669ab93)" style="fill: none; stroke: #2ca02c; stroke-width: 1.5; stroke-linecap: square"/>
   </g>
   <g id="line2d_40">
    <path d="M 74.733969 202.935431 
L 82.027769 200.096407 
L 89.321569 197.257383 
L 96.61537 194.418359 
L 103.90917 191.579335 
L 111.202971 188.740311 
L 118.496771 185.901287 
L 125.790572 183.062263 
L 133.084372 180.223239 
L 140.378172 177.384215 
L 147.671973 174.545191 
L 154.965773 171.706167 
L 162.259574 168.867143 
L 169.553374 166.028119 
L 176.847174 163.189095 
L 184.140975 160.350071 
L 191.434775 157.511047 
L 198.728576 154.672023 
L 206.022376 151.832999 
L 213.316177 148.993975 
L 220.609977 146.154951 
L 227.903777 143.315927 
L 235.197578 140.476903 
L 242.491378 137.637879 
L 249.785179 134.798855 
L 257.078979 131.959831 
L 264.372779 129.120807 
L 271.66658 126.281783 
L 278.96038 123.442759 
L 286.254181 120.603735 
L 293.547981 117.764711 
L 300.841782 114.925687 
L 308.135582 112.086663 
L 315.429382 109.247639 
L 322.723183 106.408615 
L 330.016983 103.569591 
L 337.310784 100.730567 
L 344.604584 97.891543 
L 351.898384 95.052519 
L 359.192185 92.213495 
L 366.485985 89.374471 
L 373.779786 86.535447 
L 381.073586 83.696423 
L 388.367386 80.857398 
L 395.661187 78.018374 
L 402.954987 75.17935 
L 410.248788 72.340326 
L 417.542588 69.501302 
L 424.836389 66.662278 
L 432.130189 63.823254 
" clip-path="url(#p92b669ab93)" style="fill: none; stroke-dasharray: 5.55,2.4; stroke-dashoffset: 0; stroke: #2ca02c; stroke-width: 1.5"/>
   </g>
   <g id="patch_3">
    <path d="M 56.864158 306.088647 
L 56.864158 10.8 
" style="fill: none; stroke: #000000; stroke-width: 0.8; stroke-linejoin: miter; stroke-linecap: square"/>
   </g>
   <g id="patch_4">
    <path d="M 450 306.088647 
L 450 10.8 
" style="fill: none; stroke: #000000; stroke-width: 0.8; stroke-linejoin: miter; stroke-linecap: square"/>
   </g>
   <g id="patch_5">
    <path d="M 56.864158 306.088647 
L 450 306.088647 
" style="fill: none; stroke: #000000; stroke-width: 0.8; stroke-linejoin: miter; stroke-linecap: square"/>
   </g>
   <g id="patch_6">
    <path d="M 56.864158 10.8 
L 450 10.8 
" style="fill: none; stroke: #000000; stroke-width: 0.8; stroke-linejoin: miter; stroke-linecap: square"/>
   </g>
   <g id="legend_1">
    <g id="patch_7">
     <path d="M 63.864158 301.088647 
L 259.501859 301.088647 
Q 261.501859 301.088647 261.501859 299.088647 
L 261.501859 227.073898 
Q 261.501859 225.073898 259.501859 225.073898 
L 63.864158 225.073898 
Q 61.864158 225.073898 61.864158 227.073898 
L 61.864158 299.088647 
Q 61.864158 301.088647 63.864158 301.088647 
z
" style="fill: #ffffff; opacity: 0.8; stroke: #cccccc; stroke-linejoin: miter"/>
    </g>
    <g id="line2d_41">
     <path d="M 65.864158 233.683517 
L 75.864158 233.683517 
L 85.864158 233.683517 
" style="fill: none; stroke: #1f77b4; stroke-width: 1.5; stroke-linecap: square"/>
    </g>
    <g id="text_20">
     <!-- $\Upper\InterfaceEnergy=\qty{1}{\joule\per\square\meter}, \Lower\InterfaceEnergy=\qty{1}{\joule\per\square\meter}, \Normal\SurfaceRadiusAngle=\qty{60}{\degree}$ -->
     <g transform="translate(93.864158 237.183517) scale(0.1 -0.1)">
      <defs>
       <path id="CMMI12-d" d="M 2419 760 
C 2406 1071 2394 1561 2150 2133 
C 2022 2452 1805 2788 1338 2788 
C 550 2788 122 1790 122 1625 
C 122 1567 166 1567 186 1567 
C 243 1567 243 1580 275 1663 
C 410 2057 819 2368 1261 2368 
C 2150 2368 2278 1383 2278 754 
C 2278 352 2234 220 2195 92 
C 2074 -302 1862 -1090 1862 -1268 
C 1862 -1319 1882 -1376 1933 -1376 
C 2029 -1376 2086 -1166 2157 -912 
C 2310 -353 2349 -73 2381 181 
C 2400 334 2765 1384 3270 2382 
C 3315 2483 3405 2655 3405 2674 
C 3405 2680 3398 2725 3341 2725 
C 3328 2725 3296 2725 3283 2699 
C 3270 2687 3046 2254 2854 1822 
C 2758 1606 2630 1320 2419 760 
z
" transform="scale(0.015625)"/>
       <path id="CMR17-75" d="M 1882 2693 
L 1882 2528 
C 2259 2528 2317 2489 2317 2186 
L 2317 1032 
C 2317 500 2029 38 1555 38 
C 1030 38 986 348 986 678 
L 986 2763 
L 211 2693 
L 211 2528 
C 467 2528 640 2528 646 2274 
L 646 1058 
C 646 633 646 361 813 183 
C 896 101 1056 -64 1517 -64 
C 2061 -64 2272 377 2323 506 
L 2330 506 
L 2330 -63 
L 3091 -63 
L 3091 128 
C 2714 128 2656 166 2656 473 
L 2656 2763 
L 1882 2693 
z
" transform="scale(0.015625)"/>
       <path id="CMR17-3d" d="M 4115 2017 
C 4211 2017 4307 2017 4307 2125 
C 4307 2240 4198 2240 4090 2240 
L 512 2240 
C 403 2240 294 2240 294 2125 
C 294 2017 390 2017 486 2017 
L 4115 2017 
z
M 4090 896 
C 4198 896 4307 896 4307 1011 
C 4307 1119 4211 1119 4115 1119 
L 486 1119 
C 390 1119 294 1119 294 1011 
C 294 896 403 896 512 896 
L 4090 896 
z
" transform="scale(0.015625)"/>
       <path id="CMMI12-3b" d="M 1248 -31 
C 1248 343 1126 619 864 619 
C 659 619 557 453 557 313 
C 557 172 653 0 870 0 
C 954 0 1024 26 1082 83 
C 1094 96 1101 96 1107 96 
C 1120 96 1120 5 1120 -27 
C 1120 -240 1082 -659 710 -1080 
C 640 -1157 640 -1170 640 -1183 
C 640 -1216 672 -1248 704 -1248 
C 755 -1248 1248 -771 1248 -31 
z
" transform="scale(0.015625)"/>
       <path id="CMR17-6c" d="M 979 4396 
L 218 4326 
L 218 4160 
C 595 4160 653 4122 653 3817 
L 653 426 
C 653 184 627 153 218 153 
L 218 -13 
C 371 0 653 0 813 0 
C 979 0 1261 0 1414 -13 
L 1414 153 
C 1005 153 979 178 979 426 
L 979 4396 
z
" transform="scale(0.015625)"/>
       <path id="CMMI12-b" d="M 2963 1616 
C 2963 2235 2611 2815 1933 2815 
C 1094 2815 256 1902 256 996 
C 256 441 602 -64 1254 -64 
C 1651 -64 2125 89 2579 472 
C 2669 115 2867 -64 3142 -64 
C 3488 -64 3661 294 3661 377 
C 3661 434 3616 434 3597 434 
C 3546 434 3539 415 3520 364 
C 3462 204 3315 64 3162 64 
C 2963 64 2963 472 2963 862 
C 3616 1641 3770 2446 3770 2452 
C 3770 2510 3718 2510 3699 2510 
C 3642 2510 3635 2491 3610 2376 
C 3526 2095 3360 1597 2963 1073 
L 2963 1616 
z
M 2560 626 
C 1997 121 1491 64 1267 64 
C 813 64 685 466 685 766 
C 685 1040 826 1692 1024 2044 
C 1286 2491 1645 2688 1933 2688 
C 2554 2688 2554 1877 2554 1341 
C 2554 1182 2547 1016 2547 856 
C 2547 728 2554 696 2560 626 
z
" transform="scale(0.015625)"/>
       <path id="CMR17-36" d="M 678 2176 
C 678 3690 1395 4032 1811 4032 
C 1946 4032 2272 4009 2400 3776 
C 2298 3776 2106 3776 2106 3553 
C 2106 3381 2246 3323 2336 3323 
C 2394 3323 2566 3348 2566 3560 
C 2566 3954 2246 4179 1805 4179 
C 1043 4179 243 3390 243 1984 
C 243 253 966 -128 1478 -128 
C 2099 -128 2688 427 2688 1283 
C 2688 2081 2170 2662 1517 2662 
C 1126 2662 838 2407 678 1960 
L 678 2176 
z
M 1478 25 
C 691 25 691 1200 691 1436 
C 691 1896 909 2560 1504 2560 
C 1613 2560 1926 2560 2138 2120 
C 2253 1870 2253 1609 2253 1289 
C 2253 944 2253 690 2118 434 
C 1978 171 1773 25 1478 25 
z
" transform="scale(0.015625)"/>
       <path id="CMSY10-e" d="M 2842 1600 
C 2842 2277 2272 2828 1600 2828 
C 909 2828 352 2264 352 1600 
C 352 930 909 372 1600 372 
C 2272 372 2842 923 2842 1600 
z
M 1600 628 
C 1043 628 608 1070 608 1600 
C 608 2130 1050 2572 1600 2572 
C 2131 2572 2586 2142 2586 1600 
C 2586 1058 2131 628 1600 628 
z
" transform="scale(0.015625)"/>
      </defs>
      <use xlink:href="#CMMI12-d" transform="scale(0.996264)"/>
      <use xlink:href="#CMR17-75" transform="translate(50.599133 -14.943915) scale(0.697382)"/>
      <use xlink:href="#CMR17-3d" transform="translate(114.397882 0) scale(0.996264)"/>
      <use xlink:href="#CMR17-31" transform="translate(213.786679 0) scale(0.996264)"/>
      <use xlink:href="#CMR17-4a" transform="translate(276.081561 0) scale(0.996264)"/>
      <use xlink:href="#CMR17-6d" transform="translate(339.657756 0) scale(0.996264)"/>
      <use xlink:href="#CMSY10-0" transform="translate(416.577346 36.153639) scale(0.697382)"/>
      <use xlink:href="#CMR17-32" transform="translate(470.818339 36.153639) scale(0.697382)"/>
      <use xlink:href="#CMMI12-3b" transform="translate(503.299653 0) scale(0.996264)"/>
      <use xlink:href="#CMMI12-d" transform="translate(547.001236 0) scale(0.996264)"/>
      <use xlink:href="#CMR17-6c" transform="translate(597.600368 -14.943915) scale(0.697382)"/>
      <use xlink:href="#CMR17-3d" transform="translate(643.182168 0) scale(0.996264)"/>
      <use xlink:href="#CMR17-31" transform="translate(742.570965 0) scale(0.996264)"/>
      <use xlink:href="#CMR17-4a" transform="translate(804.865847 0) scale(0.996264)"/>
      <use xlink:href="#CMR17-6d" transform="translate(868.442042 0) scale(0.996264)"/>
      <use xlink:href="#CMSY10-0" transform="translate(945.361632 36.153639) scale(0.697382)"/>
      <use xlink:href="#CMR17-32" transform="translate(999.602625 36.153639) scale(0.697382)"/>
      <use xlink:href="#CMMI12-3b" transform="translate(1032.083939 0) scale(0.996264)"/>
      <use xlink:href="#CMMI12-b" transform="translate(1075.785522 0) scale(0.996264)"/>
      <use xlink:href="#CMSY10-3f" transform="translate(1137.83225 -14.943915) scale(0.697382)"/>
      <use xlink:href="#CMR17-3d" transform="translate(1220.245384 0) scale(0.996264)"/>
      <use xlink:href="#CMR17-36" transform="translate(1319.634181 0) scale(0.996264)"/>
      <use xlink:href="#CMR17-30" transform="translate(1365.324658 0) scale(0.996264)"/>
      <use xlink:href="#CMSY10-e" transform="translate(1411.015136 36.153639) scale(0.697382)"/>
     </g>
    </g>
    <g id="line2d_42">
     <path d="M 65.864158 248.730314 
L 75.864158 248.730314 
L 85.864158 248.730314 
" style="fill: none; stroke: #ff7f0e; stroke-width: 1.5; stroke-linecap: square"/>
    </g>
    <g id="text_21">
     <!-- $\Upper\InterfaceEnergy=\qty{2}{\joule\per\square\meter}, \Lower\InterfaceEnergy=\qty{1}{\joule\per\square\meter}, \Normal\SurfaceRadiusAngle=\qty{60}{\degree}$ -->
     <g transform="translate(93.864158 252.230314) scale(0.1 -0.1)">
      <use xlink:href="#CMMI12-d" transform="scale(0.996264)"/>
      <use xlink:href="#CMR17-75" transform="translate(50.599133 -14.943915) scale(0.697382)"/>
      <use xlink:href="#CMR17-3d" transform="translate(114.397882 0) scale(0.996264)"/>
      <use xlink:href="#CMR17-32" transform="translate(213.786679 0) scale(0.996264)"/>
      <use xlink:href="#CMR17-4a" transform="translate(276.081561 0) scale(0.996264)"/>
      <use xlink:href="#CMR17-6d" transform="translate(339.657756 0) scale(0.996264)"/>
      <use xlink:href="#CMSY10-0" transform="translate(416.577346 36.153639) scale(0.697382)"/>
      <use xlink:href="#CMR17-32" transform="translate(470.818339 36.153639) scale(0.697382)"/>
      <use xlink:href="#CMMI12-3b" transform="translate(503.299653 0) scale(0.996264)"/>
      <use xlink:href="#CMMI12-d" transform="translate(547.001236 0) scale(0.996264)"/>
      <use xlink:href="#CMR17-6c" transform="translate(597.600368 -14.943915) scale(0.697382)"/>
      <use xlink:href="#CMR17-3d" transform="translate(643.182168 0) scale(0.996264)"/>
      <use xlink:href="#CMR17-31" transform="translate(742.570965 0) scale(0.996264)"/>
      <use xlink:href="#CMR17-4a" transform="translate(804.865847 0) scale(0.996264)"/>
      <use xlink:href="#CMR17-6d" transform="translate(868.442042 0) scale(0.996264)"/>
      <use xlink:href="#CMSY10-0" transform="translate(945.361632 36.153639) scale(0.697382)"/>
      <use xlink:href="#CMR17-32" transform="translate(999.602625 36.153639) scale(0.697382)"/>
      <use xlink:href="#CMMI12-3b" transform="translate(1032.083939 0) scale(0.996264)"/>
      <use xlink:href="#CMMI12-b" transform="translate(1075.785522 0) scale(0.996264)"/>
      <use xlink:href="#CMSY10-3f" transform="translate(1137.83225 -14.943915) scale(0.697382)"/>
      <use xlink:href="#CMR17-3d" transform="translate(1220.245384 0) scale(0.996264)"/>
      <use xlink:href="#CMR17-36" transform="translate(1319.634181 0) scale(0.996264)"/>
      <use xlink:href="#CMR17-30" transform="translate(1365.324658 0) scale(0.996264)"/>
      <use xlink:href="#CMSY10-e" transform="translate(1411.015136 36.153639) scale(0.697382)"/>
     </g>
    </g>
    <g id="line2d_43">
     <path d="M 65.864158 263.777112 
L 75.864158 263.777112 
L 85.864158 263.777112 
" style="fill: none; stroke: #2ca02c; stroke-width: 1.5; stroke-linecap: square"/>
    </g>
    <g id="text_22">
     <!-- $\Upper\InterfaceEnergy=\qty{1}{\joule\per\square\meter}, \Lower\InterfaceEnergy=\qty{1}{\joule\per\square\meter}, \Normal\SurfaceRadiusAngle=\qty{120}{\degree}$ -->
     <g transform="translate(93.864158 267.277112) scale(0.1 -0.1)">
      <use xlink:href="#CMMI12-d" transform="scale(0.996264)"/>
      <use xlink:href="#CMR17-75" transform="translate(50.599133 -14.943915) scale(0.697382)"/>
      <use xlink:href="#CMR17-3d" transform="translate(114.397882 0) scale(0.996264)"/>
      <use xlink:href="#CMR17-31" transform="translate(213.786679 0) scale(0.996264)"/>
      <use xlink:href="#CMR17-4a" transform="translate(276.081561 0) scale(0.996264)"/>
      <use xlink:href="#CMR17-6d" transform="translate(339.657756 0) scale(0.996264)"/>
      <use xlink:href="#CMSY10-0" transform="translate(416.577346 36.153639) scale(0.697382)"/>
      <use xlink:href="#CMR17-32" transform="translate(470.818339 36.153639) scale(0.697382)"/>
      <use xlink:href="#CMMI12-3b" transform="translate(503.299653 0) scale(0.996264)"/>
      <use xlink:href="#CMMI12-d" transform="translate(547.001236 0) scale(0.996264)"/>
      <use xlink:href="#CMR17-6c" transform="translate(597.600368 -14.943915) scale(0.697382)"/>
      <use xlink:href="#CMR17-3d" transform="translate(643.182168 0) scale(0.996264)"/>
      <use xlink:href="#CMR17-31" transform="translate(742.570965 0) scale(0.996264)"/>
      <use xlink:href="#CMR17-4a" transform="translate(804.865847 0) scale(0.996264)"/>
      <use xlink:href="#CMR17-6d" transform="translate(868.442042 0) scale(0.996264)"/>
      <use xlink:href="#CMSY10-0" transform="translate(945.361632 36.153639) scale(0.697382)"/>
      <use xlink:href="#CMR17-32" transform="translate(999.602625 36.153639) scale(0.697382)"/>
      <use xlink:href="#CMMI12-3b" transform="translate(1032.083939 0) scale(0.996264)"/>
      <use xlink:href="#CMMI12-b" transform="translate(1075.785522 0) scale(0.996264)"/>
      <use xlink:href="#CMSY10-3f" transform="translate(1137.83225 -14.943915) scale(0.697382)"/>
      <use xlink:href="#CMR17-3d" transform="translate(1220.245384 0) scale(0.996264)"/>
      <use xlink:href="#CMR17-31" transform="translate(1319.634181 0) scale(0.996264)"/>
      <use xlink:href="#CMR17-32" transform="translate(1365.324658 0) scale(0.996264)"/>
      <use xlink:href="#CMR17-30" transform="translate(1411.015136 0) scale(0.996264)"/>
      <use xlink:href="#CMSY10-e" transform="translate(1456.705613 36.153639) scale(0.697382)"/>
     </g>
    </g>
    <g id="line2d_44">
     <path d="M 65.864158 277.71429 
L 75.864158 277.71429 
L 85.864158 277.71429 
" style="fill: none; stroke: #000000; stroke-width: 1.5; stroke-linecap: square"/>
    </g>
    <g id="text_23">
     <!-- Exakt Solution -->
     <g transform="translate(93.864158 281.21429) scale(0.1 -0.1)">
      <defs>
       <path id="CMR17-45" d="M 3885 1615 
L 3770 1615 
C 3629 676 3546 166 2419 166 
L 1530 166 
C 1274 166 1261 197 1261 414 
L 1261 2176 
L 1862 2176 
C 2464 2176 2522 1960 2522 1430 
L 2637 1430 
L 2637 3081 
L 2522 3081 
C 2522 2557 2464 2342 1862 2342 
L 1261 2342 
L 1261 3913 
C 1261 4128 1274 4160 1530 4160 
L 2406 4160 
C 3398 4160 3514 3769 3603 2929 
L 3718 2929 
L 3565 4325 
L 326 4325 
L 326 4160 
C 768 4160 838 4160 838 3874 
L 838 451 
C 838 166 768 166 326 166 
L 326 0 
L 3654 0 
L 3885 1615 
z
" transform="scale(0.015625)"/>
       <path id="CMR17-78" d="M 1664 1477 
C 1856 1726 2074 2006 2253 2216 
C 2464 2458 2707 2560 2989 2560 
L 2989 2726 
C 2880 2726 2656 2726 2541 2726 
C 2368 2726 2170 2726 2022 2732 
L 2022 2566 
C 2112 2553 2163 2489 2163 2400 
C 2163 2285 2099 2215 2067 2171 
L 1594 1573 
L 1030 2306 
C 973 2376 973 2388 973 2420 
C 973 2497 1037 2560 1146 2560 
L 1146 2732 
C 992 2726 717 2726 557 2726 
C 384 2726 179 2726 38 2732 
L 38 2560 
C 384 2560 461 2534 614 2343 
L 1350 1395 
C 1363 1382 1395 1344 1395 1325 
C 1395 1299 838 619 768 530 
C 480 185 179 160 6 160 
L 6 0 
C 115 0 339 0 454 0 
C 582 0 864 0 979 -6 
L 979 160 
C 941 166 838 179 838 325 
C 838 440 890 510 947 586 
L 1478 1236 
L 2035 512 
C 2086 442 2163 346 2163 301 
C 2163 211 2086 160 1984 160 
L 1984 -6 
C 2138 0 2413 0 2573 0 
C 2746 0 2950 0 3091 -6 
L 3091 160 
C 2771 160 2675 172 2522 370 
L 1664 1477 
z
" transform="scale(0.015625)"/>
       <path id="CMR17-61" d="M 2304 1653 
C 2304 2072 2304 2294 2035 2543 
C 1798 2752 1523 2816 1306 2816 
C 800 2816 435 2407 435 1971 
C 435 1728 627 1728 666 1728 
C 749 1728 896 1778 896 1954 
C 896 2112 774 2181 666 2181 
C 640 2181 608 2174 589 2168 
C 723 2592 1069 2714 1293 2714 
C 1613 2714 1965 2429 1965 1885 
L 1965 1600 
C 1587 1600 1133 1549 774 1357 
C 371 1133 256 813 256 570 
C 256 77 832 -64 1171 -64 
C 1523 -64 1850 139 1990 511 
C 2003 233 2182 -18 2464 -18 
C 2598 -18 2938 70 2938 567 
L 2938 920 
L 2822 920 
L 2822 562 
C 2822 178 2650 128 2566 128 
C 2304 128 2304 458 2304 738 
L 2304 1653 
z
M 1965 870 
C 1965 317 1568 38 1216 38 
C 896 38 646 275 646 570 
C 646 761 730 1100 1101 1305 
C 1408 1478 1760 1504 1965 1504 
L 1965 870 
z
" transform="scale(0.015625)"/>
       <path id="CMR17-6b" d="M 1670 1673 
C 1664 1686 1632 1724 1632 1743 
C 1632 1756 2086 2171 2144 2222 
C 2509 2528 2739 2560 2906 2560 
L 2906 2733 
C 2867 2733 2854 2733 2848 2720 
L 2534 2720 
C 2355 2720 2080 2720 1907 2733 
L 1907 2566 
C 1997 2559 2061 2508 2061 2419 
C 2061 2291 1933 2170 1926 2170 
L 960 1289 
L 960 4396 
L 198 4326 
L 198 4160 
C 576 4160 634 4122 634 3817 
L 634 426 
C 634 184 608 153 198 153 
L 198 -13 
C 352 0 634 0 794 0 
C 954 0 1235 0 1389 -13 
L 1389 153 
C 979 153 954 178 954 428 
L 954 1130 
L 1395 1532 
L 2042 574 
C 2118 459 2182 369 2182 286 
C 2182 172 2067 153 1990 153 
L 1990 -13 
C 2144 0 2419 0 2579 0 
C 2694 0 2931 0 3040 0 
L 3040 153 
C 2739 153 2669 210 2477 491 
L 1670 1673 
z
" transform="scale(0.015625)"/>
       <path id="CMR17-74" d="M 966 2560 
L 1862 2560 
L 1862 2725 
L 966 2725 
L 966 3904 
L 851 3904 
C 838 3245 614 2668 70 2668 
L 70 2560 
L 627 2560 
L 627 771 
C 627 650 627 -64 1370 -64 
C 1747 -64 1965 306 1965 777 
L 1965 1140 
L 1850 1140 
L 1850 783 
C 1850 344 1677 51 1408 51 
C 1222 51 966 178 966 758 
L 966 2560 
z
" transform="scale(0.015625)"/>
       <path id="CMR17-53" d="M 2803 4290 
C 2803 4404 2797 4411 2758 4411 
C 2720 4411 2707 4385 2682 4328 
L 2490 3907 
C 2246 4257 1875 4416 1472 4416 
C 819 4416 294 3901 294 3253 
C 294 3056 339 2776 557 2510 
C 794 2218 1018 2167 1530 2033 
C 1722 1982 2042 1899 2106 1874 
C 2470 1722 2662 1341 2662 985 
C 2662 527 2336 38 1779 38 
C 1094 38 454 419 410 1311 
C 403 1413 397 1419 352 1419 
C 301 1419 294 1413 294 1285 
L 294 -1 
C 294 -115 301 -122 339 -122 
C 384 -122 397 -90 486 108 
C 493 127 493 140 614 381 
C 934 -39 1472 -128 1779 -128 
C 2477 -128 2970 451 2970 1124 
C 2970 1454 2848 1708 2778 1823 
C 2509 2230 2221 2306 1914 2382 
C 1869 2402 1856 2402 1498 2490 
C 1152 2579 1005 2624 845 2796 
C 666 2992 602 3196 602 3399 
C 602 3812 934 4263 1478 4263 
C 2157 4263 2579 3786 2675 2993 
C 2694 2878 2701 2872 2746 2872 
C 2803 2872 2803 2891 2803 2999 
L 2803 4290 
z
" transform="scale(0.015625)"/>
       <path id="CMR17-6f" d="M 2758 1356 
C 2758 2176 2163 2816 1466 2816 
C 768 2816 173 2176 173 1356 
C 173 551 768 -64 1466 -64 
C 2163 -64 2758 551 2758 1356 
z
M 1466 51 
C 1165 51 909 230 762 480 
C 602 767 582 1126 582 1408 
C 582 1677 595 2010 762 2298 
C 890 2509 1139 2714 1466 2714 
C 1754 2714 1997 2554 2150 2330 
C 2349 2029 2349 1607 2349 1408 
C 2349 1158 2336 775 2163 467 
C 1984 173 1709 51 1466 51 
z
" transform="scale(0.015625)"/>
      </defs>
      <use xlink:href="#CMR17-45" transform="scale(0.996264)"/>
      <use xlink:href="#CMR17-78" transform="translate(62.586301 0) scale(0.996264)"/>
      <use xlink:href="#CMR17-61" transform="translate(110.879216 0) scale(0.996264)"/>
      <use xlink:href="#CMR17-6b" transform="translate(156.569693 0) scale(0.996264)"/>
      <use xlink:href="#CMR17-74" transform="translate(204.862609 0) scale(0.996264)"/>
      <use xlink:href="#CMR17-53" transform="translate(270.219343 0) scale(0.996264)"/>
      <use xlink:href="#CMR17-6f" transform="translate(321.114713 0) scale(0.996264)"/>
      <use xlink:href="#CMR17-6c" transform="translate(366.80519 0) scale(0.996264)"/>
      <use xlink:href="#CMR17-75" transform="translate(391.676249 0) scale(0.996264)"/>
      <use xlink:href="#CMR17-74" transform="translate(442.571619 0) scale(0.996264)"/>
      <use xlink:href="#CMR17-69" transform="translate(477.852386 0) scale(0.996264)"/>
      <use xlink:href="#CMR17-6f" transform="translate(502.723445 0) scale(0.996264)"/>
      <use xlink:href="#CMR17-6e" transform="translate(548.413922 0) scale(0.996264)"/>
     </g>
    </g>
    <g id="line2d_45">
     <path d="M 65.864158 291.651468 
L 75.864158 291.651468 
L 85.864158 291.651468 
" style="fill: none; stroke-dasharray: 5.55,2.4; stroke-dashoffset: 0; stroke: #000000; stroke-width: 1.5"/>
    </g>
    <g id="text_24">
     <!-- Tangent in $\Normal\ShiftStep=0$ -->
     <g transform="translate(93.864158 295.151468) scale(0.1 -0.1)">
      <defs>
       <path id="CMR17-54" d="M 3981 4326 
L 288 4326 
L 179 2918 
L 294 2918 
C 378 3976 467 4160 1453 4160 
C 1568 4160 1754 4160 1805 4154 
C 1926 4135 1926 4058 1926 3912 
L 1926 459 
C 1926 230 1907 160 1376 160 
L 1197 160 
L 1197 0 
C 1504 0 1824 0 2138 0 
C 2451 0 2771 0 3078 0 
L 3078 160 
L 2899 160 
C 2368 160 2349 230 2349 459 
L 2349 3912 
C 2349 4052 2349 4129 2464 4154 
C 2515 4160 2701 4160 2816 4160 
C 3795 4160 3891 3976 3974 2918 
L 4090 2918 
L 3981 4326 
z
" transform="scale(0.015625)"/>
       <path id="CMR17-67" d="M 710 1164 
C 832 1068 1043 960 1299 960 
C 1805 960 2240 1357 2240 1888 
C 2240 2054 2189 2310 1997 2509 
C 2176 2692 2438 2752 2586 2752 
C 2611 2752 2650 2752 2682 2734 
C 2656 2728 2598 2703 2598 2605 
C 2598 2527 2656 2471 2739 2471 
C 2835 2471 2886 2533 2886 2614 
C 2886 2731 2790 2854 2586 2854 
C 2330 2854 2106 2738 1926 2580 
C 1734 2753 1504 2816 1299 2816 
C 794 2816 358 2419 358 1888 
C 358 1522 570 1292 634 1228 
C 442 1004 442 743 442 711 
C 442 545 506 302 723 168 
C 390 85 128 -169 128 -486 
C 128 -943 736 -1280 1466 -1280 
C 2170 -1280 2803 -956 2803 -479 
C 2803 384 1856 384 1363 384 
C 1216 384 954 384 922 391 
C 723 423 589 602 589 826 
C 589 883 589 1024 710 1164 
z
M 1299 1068 
C 736 1068 736 1760 736 1889 
C 736 2016 736 2708 1299 2708 
C 1862 2708 1862 2016 1862 1889 
C 1862 1760 1862 1068 1299 1068 
z
M 1466 -1171 
C 826 -1171 384 -835 384 -486 
C 384 -289 493 -105 634 -4 
C 794 104 858 104 1293 104 
C 1818 104 2547 104 2547 -486 
C 2547 -835 2106 -1171 1466 -1171 
z
" transform="scale(0.015625)"/>
       <path id="CMR17-65" d="M 2438 1472 
C 2464 1498 2464 1511 2464 1576 
C 2464 2238 2118 2816 1389 2816 
C 710 2816 173 2169 173 1383 
C 173 551 781 -64 1459 -64 
C 2176 -64 2458 607 2458 740 
C 2458 784 2419 784 2406 784 
C 2362 784 2355 771 2330 696 
C 2189 265 1837 51 1504 51 
C 1229 51 954 203 781 480 
C 582 803 582 1176 582 1472 
L 2438 1472 
z
M 589 1568 
C 634 2505 1126 2714 1382 2714 
C 1818 2714 2112 2297 2118 1568 
L 589 1568 
z
" transform="scale(0.015625)"/>
      </defs>
      <use xlink:href="#CMR17-54" transform="scale(0.996264)"/>
      <use xlink:href="#CMR17-61" transform="translate(58.702625 0) scale(0.996264)"/>
      <use xlink:href="#CMR17-6e" transform="translate(104.393102 0) scale(0.996264)"/>
      <use xlink:href="#CMR17-67" transform="translate(155.288472 0) scale(0.996264)"/>
      <use xlink:href="#CMR17-65" transform="translate(200.978949 0) scale(0.996264)"/>
      <use xlink:href="#CMR17-6e" transform="translate(241.46461 0) scale(0.996264)"/>
      <use xlink:href="#CMR17-74" transform="translate(289.757525 0) scale(0.996264)"/>
      <use xlink:href="#CMR17-69" transform="translate(355.11426 0) scale(0.996264)"/>
      <use xlink:href="#CMR17-6e" transform="translate(379.985318 0) scale(0.996264)"/>
      <use xlink:href="#CMR17-1" transform="translate(460.956654 0) scale(0.996264)"/>
      <use xlink:href="#CMMI12-73" transform="translate(532.341442 0) scale(0.996264)"/>
      <use xlink:href="#CMSY10-3f" transform="translate(578.29149 -14.943915) scale(0.697382)"/>
      <use xlink:href="#CMR17-3d" transform="translate(660.704624 0) scale(0.996264)"/>
      <use xlink:href="#CMR17-30" transform="translate(760.093421 0) scale(0.996264)"/>
     </g>
    </g>
   </g>
  </g>
 </g>
 <defs>
  <clipPath id="p92b669ab93">
   <rect x="56.864158" y="10.8" width="393.135842" height="295.288647"/>
  </clipPath>
 </defs>
</svg>
