999
dxflib 3.17.0.0
  0
SECTION
  2
HEADER
  9
$ACADVER
  1
AC1015
  9
$HANDSEED
  5
FFFF
  9
$DIMADEC
 70
0
  9
$DIMASZ
 40
2.5
  9
$DIMAUNIT
 70
0
  9
$DIMAZIN
 70
2
  9
$DIMDEC
 70
2
  9
$DIMDLI
 40
5.0
  9
$DIMDSEP
 70
46
  9
$DIMEXE
 40
1.25
  9
$DIMEXO
 40
0.625
  9
$DIMGAP
 40
0.625
  9
$DIMLUNIT
 70
2
  9
$DIMSCALE
 40
1.0
  9
$DIMTSZ
 40
0.0
  9
$DIMTXT
 40
2.5
  9
$DIMZIN
 70
8
  9
$DWGCODEPAGE
  3
ANSI_1252
  9
$INSUNITS
 70
4
  9
$LTSCALE
 40
1.0
  9
$MAXACTVP
 70
64
  9
$MEASUREMENT
 70
1
  9
$MIRRTEXT
 70
0
  9
$PDMODE
 70
0
  9
$PDSIZE
 40
0.0
  0
ENDSEC
  0
SECTION
  2
TABLES
  0
TABLE
  2
VPORT
  5
8
100
AcDbSymbolTable
 70
1
  0
VPORT
  5
30
100
AcDbSymbolTableRecord
100
AcDbViewportTableRecord
  2
*Active
 70
0
 10
0.0
 20
0.0
 11
1.0
 21
1.0
 12
286.3055555555554861
 22
148.5
 13
0.0
 23
0.0
 14
10.0
 24
10.0
 15
10.0
 25
10.0
 16
0.0
 26
0.0
 36
1.0
 17
0.0
 27
0.0
 37
0.0
 40
297.0
 41
1.92798353909465
 42
50.0
 43
0.0
 44
0.0
 50
0.0
 51
0.0
 71
0
 72
100
 73
1
 74
3
 75
1
 76
1
 77
0
 78
0
281
0
 65
1
110
0.0
120
0.0
130
0.0
111
1.0
121
0.0
131
0.0
112
0.0
122
1.0
132
0.0
 79
0
146
0.0
  0
ENDTAB
  0
TABLE
  2
LTYPE
  5
5
100
AcDbSymbolTable
 70
41
  0
LTYPE
  5
16
100
AcDbSymbolTableRecord
100
AcDbLinetypeTableRecord
  2
Continuous
 70
0
  3
Solid line
 72
65
 73
0
 40
0.0
  0
LTYPE
  5
31
100
AcDbSymbolTableRecord
100
AcDbLinetypeTableRecord
  2
ACAD_ISO09W100
 70
0
  3
ISO long-dash double-short-dash ____ __ __ ____
 72
65
 73
6
 40
45.0
 49
24.0
 74
0
 49
-3.0
 74
0
 49
6.0
 74
0
 49
-3.0
 74
0
 49
6.0
 74
0
 49
-3.0
 74
0
  0
LTYPE
  5
32
100
AcDbSymbolTableRecord
100
AcDbLinetypeTableRecord
  2
HIDDEN2
 70
0
  3
Hidden (.5x) _ _ _ _ _ _ _ _ _ _ _ _ _ _ _ _ _ 
 72
65
 73
2
 40
4.7624999999999993
 49
3.1749999999999998
 74
0
 49
-1.5874999999999999
 74
0
  0
LTYPE
  5
33
100
AcDbSymbolTableRecord
100
AcDbLinetypeTableRecord
  2
CENTER
 70
0
  3
Center ____ _ ____ _ ____ _ ____ _ ____ _ ____
 72
65
 73
4
 40
50.8000000000000043
 49
31.75
 74
0
 49
-6.3499999999999996
 74
0
 49
6.3499999999999996
 74
0
 49
-6.3499999999999996
 74
0
  0
LTYPE
  5
34
100
AcDbSymbolTableRecord
100
AcDbLinetypeTableRecord
  2
ACAD_ISO05W100
 70
0
  3
ISO long-dash double-dot ____ .. ____ .. ____ . 
 72
65
 73
6
 40
33.0000000000000071
 49
24.0
 74
0
 49
-2.9500000000000002
 74
0
 49
0.1
 74
0
 49
-2.9000000000000004
 74
0
 49
0.1
 74
0
 49
-2.9500000000000002
 74
0
  0
LTYPE
  5
35
100
AcDbSymbolTableRecord
100
AcDbLinetypeTableRecord
  2
BORDER2
 70
0
  3
Border (.5x) __.__.__.__.__.__.__.__.__.__.__.
 72
65
 73
6
 40
22.2250000000000014
 49
6.3499999999999996
 74
0
 49
-3.1749999999999998
 74
0
 49
6.3499999999999996
 74
0
 49
-3.125
 74
0
 49
0.1
 74
0
 49
-3.125
 74
0
  0
LTYPE
  5
36
100
AcDbSymbolTableRecord
100
AcDbLinetypeTableRecord
  2
DASHED
 70
0
  3
Dashed __ __ __ __ __ __ __ __ __ __ __ __ __ _
 72
65
 73
2
 40
19.0499999999999972
 49
12.6999999999999993
 74
0
 49
-6.3499999999999996
 74
0
  0
LTYPE
  5
37
100
AcDbSymbolTableRecord
100
AcDbLinetypeTableRecord
  2
DIVIDEX2
 70
0
  3
Divide (2x) ________  .  .  ________  .  .  _
 72
65
 73
6
 40
63.5
 49
25.3999999999999986
 74
0
 49
-12.6499999999999986
 74
0
 49
0.1
 74
0
 49
-12.5999999999999979
 74
0
 49
0.1
 74
0
 49
-12.6499999999999986
 74
0
  0
LTYPE
  5
38
100
AcDbSymbolTableRecord
100
AcDbLinetypeTableRecord
  2
DOT2
 70
0
  3
Dot (.5x) ........................................
 72
65
 73
2
 40
3.1749999999999998
 49
0.1
 74
0
 49
-3.0749999999999997
 74
0
  0
LTYPE
  5
39
100
AcDbSymbolTableRecord
100
AcDbLinetypeTableRecord
  2
DASHDOTX2
 70
0
  3
Dash dot (2x) ____  .  ____  .  ____  .  ___
 72
65
 73
4
 40
50.7999999999999972
 49
25.3999999999999986
 74
0
 49
-12.6499999999999986
 74
0
 49
0.1
 74
0
 49
-12.6499999999999986
 74
0
  0
LTYPE
  5
3A
100
AcDbSymbolTableRecord
100
AcDbLinetypeTableRecord
  2
DIVIDE2
 70
0
  3
Divide (.5x) __..__..__..__..__..__..__..__.._
 72
65
 73
6
 40
15.8749999999999982
 49
6.3499999999999996
 74
0
 49
-3.125
 74
0
 49
0.1
 74
0
 49
-3.0750000000000002
 74
0
 49
0.1
 74
0
 49
-3.125
 74
0
  0
LTYPE
  5
3B
100
AcDbSymbolTableRecord
100
AcDbLinetypeTableRecord
  2
ACAD_ISO11W100
 70
0
  3
ISO double-dash dot __ __ . __ __ . __ __ . __ _
 72
65
 73
6
 40
33.0
 49
12.0
 74
0
 49
-3.0
 74
0
 49
12.0
 74
0
 49
-2.9500000000000002
 74
0
 49
0.1
 74
0
 49
-2.9500000000000002
 74
0
  0
LTYPE
  5
3C
100
AcDbSymbolTableRecord
100
AcDbLinetypeTableRecord
  2
ACAD_ISO15W100
 70
0
  3
ISO double-dash triple-dot __ __ . . . __ __ . .
 72
65
 73
10
 40
39.0000000000000071
 49
12.0
 74
0
 49
-3.0
 74
0
 49
12.0
 74
0
 49
-2.9500000000000002
 74
0
 49
0.1
 74
0
 49
-2.9000000000000004
 74
0
 49
0.1
 74
0
 49
-2.9000000000000004
 74
0
 49
0.1
 74
0
 49
-2.9500000000000002
 74
0
  0
LTYPE
  5
3D
100
AcDbSymbolTableRecord
100
AcDbLinetypeTableRecord
  2
PHANTOM
 70
0
  3
Phantom ______  __  __  ______  __  __  ______ 
 72
65
 73
6
 40
63.5000000000000071
 49
31.75
 74
0
 49
-6.3499999999999996
 74
0
 49
6.3499999999999996
 74
0
 49
-6.3499999999999996
 74
0
 49
6.3499999999999996
 74
0
 49
-6.3499999999999996
 74
0
  0
LTYPE
  5
3E
100
AcDbSymbolTableRecord
100
AcDbLinetypeTableRecord
  2
DOTX2
 70
0
  3
Dot (2x) .  .  .  .  .  .  .  .  .  .  .  .  .  .
 72
65
 73
2
 40
12.6999999999999993
 49
0.1
 74
0
 49
-12.5999999999999996
 74
0
  0
LTYPE
  5
15
100
AcDbSymbolTableRecord
100
AcDbLinetypeTableRecord
  2
BYLAYER
 70
0
  3

 72
65
 73
0
 40
0.0
  0
LTYPE
  5
3F
100
AcDbSymbolTableRecord
100
AcDbLinetypeTableRecord
  2
DASHDOT2
 70
0
  3
Dash dot (.5x) _._._._._._._._._._._._._._._.
 72
65
 73
4
 40
12.6999999999999993
 49
6.3499999999999996
 74
0
 49
-3.125
 74
0
 49
0.1
 74
0
 49
-3.125
 74
0
  0
LTYPE
  5
14
100
AcDbSymbolTableRecord
100
AcDbLinetypeTableRecord
  2
BYBLOCK
 70
0
  3

 72
65
 73
0
 40
0.0
  0
LTYPE
  5
40
100
AcDbSymbolTableRecord
100
AcDbLinetypeTableRecord
  2
ACAD_ISO12W100
 70
0
  3
ISO dash double-dot __ . . __ . . __ . . __ . . 
 72
65
 73
6
 40
21.0
 49
12.0
 74
0
 49
-2.9500000000000002
 74
0
 49
0.1
 74
0
 49
-2.9000000000000004
 74
0
 49
0.1
 74
0
 49
-2.9500000000000002
 74
0
  0
LTYPE
  5
41
100
AcDbSymbolTableRecord
100
AcDbLinetypeTableRecord
  2
ACAD_ISO03W100
 70
0
  3
ISO dash space __    __    __    __    __    __
 72
65
 73
2
 40
30.0
 49
12.0
 74
0
 49
-18.0
 74
0
  0
LTYPE
  5
42
100
AcDbSymbolTableRecord
100
AcDbLinetypeTableRecord
  2
ACAD_ISO13W100
 70
0
  3
ISO double-dash double-dot __ __ . . __ __ . . _
 72
65
 73
8
 40
36.0000000000000071
 49
12.0
 74
0
 49
-3.0
 74
0
 49
12.0
 74
0
 49
-2.9500000000000002
 74
0
 49
0.1
 74
0
 49
-2.9000000000000004
 74
0
 49
0.1
 74
0
 49
-2.9500000000000002
 74
0
  0
LTYPE
  5
43
100
AcDbSymbolTableRecord
100
AcDbLinetypeTableRecord
  2
DOT
 70
0
  3
Dot . . . . . . . . . . . . . . . . . . . . . . . .
 72
65
 73
2
 40
6.3499999999999996
 49
0.1
 74
0
 49
-6.25
 74
0
  0
LTYPE
  5
44
100
AcDbSymbolTableRecord
100
AcDbLinetypeTableRecord
  2
DASHDOT
 70
0
  3
Dash dot __ . __ . __ . __ . __ . __ . __ . __
 72
65
 73
4
 40
25.4000000000000021
 49
12.6999999999999993
 74
0
 49
-6.2999999999999998
 74
0
 49
0.1
 74
0
 49
-6.2999999999999998
 74
0
  0
LTYPE
  5
45
100
AcDbSymbolTableRecord
100
AcDbLinetypeTableRecord
  2
PHANTOMX2
 70
0
  3
Phantom (2x) ____________    ____    ____   _
 72
65
 73
6
 40
127.0000000000000142
 49
63.5
 74
0
 49
-12.6999999999999993
 74
0
 49
12.6999999999999993
 74
0
 49
-12.6999999999999993
 74
0
 49
12.6999999999999993
 74
0
 49
-12.6999999999999993
 74
0
  0
LTYPE
  5
46
100
AcDbSymbolTableRecord
100
AcDbLinetypeTableRecord
  2
HIDDENX2
 70
0
  3
Hidden (2x) ____ ____ ____ ____ ____ ____ ____ 
 72
65
 73
2
 40
19.0499999999999972
 49
12.6999999999999993
 74
0
 49
-6.3499999999999996
 74
0
  0
LTYPE
  5
47
100
AcDbSymbolTableRecord
100
AcDbLinetypeTableRecord
  2
ACAD_ISO08W100
 70
0
  3
ISO long-dash short-dash ____ __ ____ __ ____ _
 72
65
 73
4
 40
36.0
 49
24.0
 74
0
 49
-3.0
 74
0
 49
6.0
 74
0
 49
-3.0
 74
0
  0
LTYPE
  5
48
100
AcDbSymbolTableRecord
100
AcDbLinetypeTableRecord
  2
CENTERX2
 70
0
  3
Center (2x) ________  __  ________  __  _____
 72
65
 73
4
 40
101.6000000000000085
 49
63.5
 74
0
 49
-12.6999999999999993
 74
0
 49
12.6999999999999993
 74
0
 49
-12.6999999999999993
 74
0
  0
LTYPE
  5
49
100
AcDbSymbolTableRecord
100
AcDbLinetypeTableRecord
  2
DIVIDE
 70
0
  3
Divide ____ . . ____ . . ____ . . ____ . . ____
 72
65
 73
6
 40
31.7500000000000036
 49
12.6999999999999993
 74
0
 49
-6.2999999999999998
 74
0
 49
0.1
 74
0
 49
-6.25
 74
0
 49
0.1
 74
0
 49
-6.2999999999999998
 74
0
  0
LTYPE
  5
4A
100
AcDbSymbolTableRecord
100
AcDbLinetypeTableRecord
  2
ACAD_ISO04W100
 70
0
  3
ISO long-dash dot ____ . ____ . ____ . ____ . _
 72
65
 73
4
 40
30.0
 49
24.0
 74
0
 49
-2.9500000000000002
 74
0
 49
0.1
 74
0
 49
-2.9500000000000002
 74
0
  0
LTYPE
  5
4B
100
AcDbSymbolTableRecord
100
AcDbLinetypeTableRecord
  2
ACAD_ISO07W100
 70
0
  3
ISO dot . . . . . . . . . . . . . . . . . . . . 
 72
65
 73
2
 40
3.0
 49
0.1
 74
0
 49
-2.8999999999999999
 74
0
  0
LTYPE
  5
4C
100
AcDbSymbolTableRecord
100
AcDbLinetypeTableRecord
  2
CENTER2
 70
0
  3
Center (.5x) ___ _ ___ _ ___ _ ___ _ ___ _ ___
 72
65
 73
4
 40
28.5750000000000028
 49
19.0500000000000007
 74
0
 49
-3.1749999999999998
 74
0
 49
3.1749999999999998
 74
0
 49
-3.1749999999999998
 74
0
  0
LTYPE
  5
4D
100
AcDbSymbolTableRecord
100
AcDbLinetypeTableRecord
  2
ACAD_ISO14W100
 70
0
  3
ISO dash triple-dot __ . . . __ . . . __ . . . _
 72
65
 73
8
 40
24.0000000000000036
 49
12.0
 74
0
 49
-2.9500000000000002
 74
0
 49
0.1
 74
0
 49
-2.9000000000000004
 74
0
 49
0.1
 74
0
 49
-2.9000000000000004
 74
0
 49
0.1
 74
0
 49
-2.9500000000000002
 74
0
  0
LTYPE
  5
4E
100
AcDbSymbolTableRecord
100
AcDbLinetypeTableRecord
  2
PHANTOM2
 70
0
  3
Phantom (.5x) ___ _ _ ___ _ _ ___ _ _ ___ _ _
 72
65
 73
6
 40
31.7500000000000036
 49
15.875
 74
0
 49
-3.1749999999999998
 74
0
 49
3.1749999999999998
 74
0
 49
-3.1749999999999998
 74
0
 49
3.1749999999999998
 74
0
 49
-3.1749999999999998
 74
0
  0
LTYPE
  5
4F
100
AcDbSymbolTableRecord
100
AcDbLinetypeTableRecord
  2
DASHED2
 70
0
  3
Dashed (.5x) _ _ _ _ _ _ _ _ _ _ _ _ _ _ _ _ _ 
 72
65
 73
2
 40
9.5249999999999986
 49
6.3499999999999996
 74
0
 49
-3.1749999999999998
 74
0
  0
LTYPE
  5
50
100
AcDbSymbolTableRecord
100
AcDbLinetypeTableRecord
  2
ACAD_ISO02W100
 70
0
  3
ISO dash __ __ __ __ __ __ __ __ __ __ __ __ __
 72
65
 73
2
 40
15.0
 49
12.0
 74
0
 49
-3.0
 74
0
  0
LTYPE
  5
51
100
AcDbSymbolTableRecord
100
AcDbLinetypeTableRecord
  2
BORDER
 70
0
  3
Border __ __ . __ __ . __ __ . __ __ . __ __ .
 72
65
 73
6
 40
44.4499999999999957
 49
12.6999999999999993
 74
0
 49
-6.3499999999999996
 74
0
 49
12.6999999999999993
 74
0
 49
-6.2999999999999998
 74
0
 49
0.1
 74
0
 49
-6.2999999999999998
 74
0
  0
LTYPE
  5
52
100
AcDbSymbolTableRecord
100
AcDbLinetypeTableRecord
  2
HIDDEN
 70
0
  3
Hidden __ __ __ __ __ __ __ __ __ __ __ __ __ __
 72
65
 73
2
 40
9.5249999999999986
 49
6.3499999999999996
 74
0
 49
-3.1749999999999998
 74
0
  0
LTYPE
  5
53
100
AcDbSymbolTableRecord
100
AcDbLinetypeTableRecord
  2
DASHEDX2
 70
0
  3
Dashed (2x) ____  ____  ____  ____  ____  ___
 72
65
 73
2
 40
38.0999999999999943
 49
25.3999999999999986
 74
0
 49
-12.6999999999999993
 74
0
  0
LTYPE
  5
54
100
AcDbSymbolTableRecord
100
AcDbLinetypeTableRecord
  2
BORDERX2
 70
0
  3
Border (2x) ____  ____  .  ____  ____  .  ___
 72
65
 73
6
 40
88.8999999999999773
 49
25.3999999999999986
 74
0
 49
-12.6999999999999993
 74
0
 49
25.3999999999999986
 74
0
 49
-12.6499999999999986
 74
0
 49
0.1
 74
0
 49
-12.6499999999999986
 74
0
  0
LTYPE
  5
55
100
AcDbSymbolTableRecord
100
AcDbLinetypeTableRecord
  2
ACAD_ISO06W100
 70
0
  3
ISO long-dash triple-dot ____ ... ____ ... ____
 72
65
 73
8
 40
36.0000000000000071
 49
24.0
 74
0
 49
-2.9500000000000002
 74
0
 49
0.1
 74
0
 49
-2.9000000000000004
 74
0
 49
0.1
 74
0
 49
-2.9000000000000004
 74
0
 49
0.1
 74
0
 49
-2.9500000000000002
 74
0
  0
LTYPE
  5
56
100
AcDbSymbolTableRecord
100
AcDbLinetypeTableRecord
  2
ACAD_ISO10W100
 70
0
  3
ISO dash dot __ . __ . __ . __ . __ . __ . __ . 
 72
65
 73
4
 40
18.0
 49
12.0
 74
0
 49
-2.9500000000000002
 74
0
 49
0.1
 74
0
 49
-2.9500000000000002
 74
0
  0
ENDTAB
  0
TABLE
  2
LAYER
  5
2
100
AcDbSymbolTable
 70
9
  0
LAYER
  5
10
100
AcDbSymbolTableRecord
100
AcDbLayerTableRecord
  2
0
 70
0
 62
7
420
0
  6
Continuous
370
35
390
F
  0
LAYER
  5
57
100
AcDbSymbolTableRecord
100
AcDbLayerTableRecord
  2
marker_gb
 70
0
 62
5
420
255
  6
Continuous
370
35
390
F
  0
LAYER
  5
58
100
AcDbSymbolTableRecord
100
AcDbLayerTableRecord
  2
hilfe
 70
0
 62
6
420
16711935
  6
Continuous
370
13
390
F
  0
LAYER
  5
59
100
AcDbSymbolTableRecord
100
AcDbLayerTableRecord
  2
marker_neck
 70
0
 62
1
420
16711680
  6
Continuous
370
35
390
F
  0
LAYER
  5
5A
100
AcDbSymbolTableRecord
100
AcDbLayerTableRecord
  2
alt
 70
1
 62
252
420
10526884
  6
ACAD_ISO03W100
370
35
390
F
  0
LAYER
  5
5B
100
AcDbSymbolTableRecord
100
AcDbLayerTableRecord
  2
vol_schr
 70
0
 62
94
420
32768
  6
Continuous
370
13
390
F
  0
LAYER
  5
5C
100
AcDbSymbolTableRecord
100
AcDbLayerTableRecord
  2
mass
 70
0
 62
7
420
0
  6
Continuous
370
13
390
F
  0
LAYER
  5
5D
100
AcDbSymbolTableRecord
100
AcDbLayerTableRecord
  2
vol
 70
0
 62
94
420
32768
  6
Continuous
370
35
390
F
  0
LAYER
  5
5E
100
AcDbSymbolTableRecord
100
AcDbLayerTableRecord
  2
vol_mass
 70
0
 62
94
420
32768
  6
Continuous
370
13
390
F
  0
ENDTAB
  0
TABLE
  2
STYLE
  5
3
100
AcDbSymbolTable
 70
2
  0
STYLE
  5
5F
100
AcDbSymbolTableRecord
100
AcDbTextStyleTableRecord
  2
Standard
 70
0
 40
0.0
 41
1.0
 50
0.0
 71
0
 42
2.5
  3

  4

1001
ACAD
1000
txt
1071
0
  0
STYLE
  5
60
100
AcDbSymbolTableRecord
100
AcDbTextStyleTableRecord
  2
textstyle0
 70
0
 40
0.0
 41
1.0
 50
0.0
 71
0
 42
1.0
  3

  4

1001
ACAD
1000
Liberation Sans
1071
0
  0
ENDTAB
  0
TABLE
  2
VIEW
  5
6
100
AcDbSymbolTable
 70
0
  0
ENDTAB
  0
TABLE
  2
UCS
  5
7
100
AcDbSymbolTable
 70
0
  0
ENDTAB
  0
TABLE
  2
APPID
  5
9
100
AcDbSymbolTable
 70
1
  0
APPID
  5
12
100
AcDbSymbolTableRecord
100
AcDbRegAppTableRecord
  2
ACAD
 70
0
  0
APPID
  5
61
100
AcDbSymbolTableRecord
100
AcDbRegAppTableRecord
  2
QCAD
 70
0
  0
ENDTAB
  0
TABLE
  2
DIMSTYLE
  5
A
100
AcDbSymbolTable
 70
1
100
AcDbDimStyleTable
 71
0
  0
DIMSTYLE
105
27
100
AcDbSymbolTableRecord
100
AcDbDimStyleTableRecord
  2
Standard
 41
2.5
 42
0.625
 43
3.75
 44
1.25
 70
0
 73
0
 74
0
 77
1
 78
8
140
2.5
141
2.5
143
0.03937007874016
147
0.625
171
3
172
1
271
2
272
2
274
3
278
44
283
0
284
8
340
5F
  0
ENDTAB
  0
TABLE
  2
BLOCK_RECORD
  5
1
100
AcDbSymbolTable
 70
1
  0
BLOCK_RECORD
  5
1F
100
AcDbSymbolTableRecord
100
AcDbBlockTableRecord
  2
*Model_Space
340
22
  0
BLOCK_RECORD
  5
1B
100
AcDbSymbolTableRecord
100
AcDbBlockTableRecord
  2
*Paper_Space
340
1E
  0
BLOCK_RECORD
  5
23
100
AcDbSymbolTableRecord
100
AcDbBlockTableRecord
  2
*Paper_Space0
340
26
  0
ENDTAB
  0
ENDSEC
  0
SECTION
  2
BLOCKS
  0
BLOCK
  5
20
100
AcDbEntity
  8
0
100
AcDbBlockBegin
  2
*Model_Space
 70
0
 10
0.0
 20
0.0
 30
0.0
  3
*Model_Space
  1

  0
ENDBLK
  5
21
100
AcDbEntity
  8
0
100
AcDbBlockEnd
  0
BLOCK
  5
1C
100
AcDbEntity
 67
1
  8
0
100
AcDbBlockBegin
  2
*Paper_Space
 70
0
 10
0.0
 20
0.0
 30
0.0
  3
*Paper_Space
  1

  0
ENDBLK
  5
1D
100
AcDbEntity
 67
1
  8
0
100
AcDbBlockEnd
  0
BLOCK
  5
24
100
AcDbEntity
  8
0
100
AcDbBlockBegin
  2
*Paper_Space0
 70
0
 10
0.0
 20
0.0
 30
0.0
  3
*Paper_Space0
  1

  0
ENDBLK
  5
25
100
AcDbEntity
  8
0
100
AcDbBlockEnd
  0
ENDSEC
  0
SECTION
  2
ENTITIES
  0
LINE
  5
62
100
AcDbEntity
  8
alt
 62
256
370
-1
 48
1.0
  6
BYLAYER
100
AcDbLine
 10
600.0
 20
0.0
 30
0.0
 11
280.0
 21
160.0
 31
0.0
  0
DIMENSION
  5
63
100
AcDbEntity
  8
vol_mass
 62
256
370
-1
 48
1.0
  6
BYLAYER
100
AcDbDimension
 10
62.719999999999871
 20
46.5615490287346248
 30
0.0
 11
40.0
 21
20.0
 31
0.0
 70
130
 71
8
 72
2
 74
0
 75
0
 41
1.0
 42
0.0
  1
d\U+03c6\S^ L;
  3
Standard
100
AcDb2LineAngularDimension
 13
57.8199999999999719
 23
46.5615490287346816
 33
0.0
 14
-0.0
 24
-0.0
 34
0.0
 15
-0.0
 25
-0.0
 35
0.0
 16
33.6117227636836375
 26
25.820926096604655
 36
0.0
  0
HATCH
  5
64
100
AcDbEntity
  8
vol_schr
 62
256
370
-1
 48
1.0
  6
BYLAYER
100
AcDbHatch
 10
0.0
 20
0.0
 30
0.0
210
0.0
220
0.0
230
1.0
  2
ANSI31
 70
0
 71
0
 91
1
 92
1
 93
4
 72
1
 10
57.8199999999999505
 20
46.5615490287346887
 11
62.7199999999999989
 21
14.3359999999999985
 72
1
 10
62.7199999999999989
 20
14.3359999999999985
 11
62.7199999999999633
 21
46.5615490287346603
 72
1
 10
62.7199999999999704
 20
46.5615490287346887
 11
38.5485001481481575
 21
60.6412799999999521
 72
1
 10
38.5485001481481504
 20
60.6412799999999734
 11
57.8199999999999719
 21
46.5615490287346816
 97
0
 75
0
 76
1
 52
0.0
 41
0.5
 77
0
 78
1
 53
45.0
 43
0.0
 44
0.0
 45
-0.0883883476483184
 46
0.0883883476483185
 79
0
 98
0
1001
ACAD
1010
0.0
1020
0.0
1030
0
  0
LINE
  5
65
100
AcDbEntity
  8
alt
 62
256
370
-1
 48
1.0
  6
BYLAYER
100
AcDbLine
 10
280.0
 20
160.0
 30
0.0
 11
0.0
 21
0.0
 31
0.0
  0
LINE
  5
66
100
AcDbEntity
  8
alt
 62
256
370
-1
 48
1.0
  6
BYLAYER
100
AcDbLine
 10
172.0915185185185123
 20
270.7199999999998568
 30
0.0
 11
280.0
 21
160.0
 31
0.0
  0
LINE
  5
67
100
AcDbEntity
  8
alt
 62
256
370
-1
 48
1.0
  6
BYLAYER
100
AcDbLine
 10
280.0000000000001137
 20
160.0000000000000284
 30
0.0
 11
381.7555185185185564
 21
250.559999999999917
 31
0.0
  0
LINE
  5
68
100
AcDbEntity
  8
0
 62
256
370
-1
 48
1.0
  6
BYLAYER
100
AcDbLine
 10
0.0
 20
0.0
 30
0.0
 11
62.7199999999999989
 21
14.3359999999999985
 31
0.0
  0
LINE
  5
69
100
AcDbEntity
  8
0
 62
256
370
-1
 48
1.0
  6
BYLAYER
100
AcDbLine
 10
62.7199999999999989
 20
14.3359999999999985
 30
0.0
 11
134.4000000000000057
 21
0.0
 31
0.0
  0
DIMENSION
  5
6A
100
AcDbEntity
  8
vol_mass
 62
256
370
-1
 48
1.0
  6
BYLAYER
100
AcDbDimension
 10
62.7199999999999989
 20
14.3359999999999985
 30
0.0
 11
55.0
 21
30.0
 31
0.0
 70
130
 71
8
 72
2
 74
0
 75
0
 41
1.0
 42
0.0
  1
\U+03c0/2
  3
Standard
100
AcDb2LineAngularDimension
 13
57.8199999999998298
 23
46.5615490287346248
 33
0.0
 14
62.0949999999999704
 24
46.5615490287346887
 34
0.0
 15
62.7199999999999633
 25
46.5615490287346603
 35
0.0
 16
57.0
 26
27.0
 36
0.0
  0
LINE
  5
6B
100
AcDbEntity
  8
0
 62
256
370
-1
 48
1.0
  6
BYLAYER
100
AcDbLine
 10
62.7199999999999633
 20
46.5615490287346603
 30
0.0
 11
62.7199999999999989
 21
14.3359999999999985
 31
0.0
  0
LINE
  5
6C
100
AcDbEntity
  8
0
 62
256
370
-1
 48
1.0
  6
BYLAYER
100
AcDbLine
 10
38.5485001481481575
 20
60.6412799999999876
 30
0.0
 11
0.0
 21
0.0
 31
0.0
  0
LINE
  5
6D
100
AcDbEntity
  8
0
 62
256
370
-1
 48
1.0
  6
BYLAYER
100
AcDbLine
 10
85.5132361481481524
 20
56.1254399999999976
 30
0.0
 11
134.4000000000000057
 21
0.0
 31
0.0
  0
LINE
  5
6E
100
AcDbEntity
  8
0
 62
256
370
-1
 48
1.0
  6
BYLAYER
100
AcDbLine
 10
62.719999999999871
 20
46.5615490287346248
 30
0.0
 11
-0.0
 21
-0.0
 31
0.0
  0
DIMENSION
  5
6F
100
AcDbEntity
  8
mass
 62
256
370
-1
 48
1.0
  6
BYLAYER
100
AcDbDimension
 10
1.3511134928158399
 20
-5.9111215310693073
 30
0.0
 11
32.293316989999326
 21
3.0847381687529434
 31
0.0
 70
1
 71
8
 72
2
 74
0
 75
0
 41
1.0
 42
0.0
  1
r\S^ Ll;
  3
Standard
100
AcDbAlignedDimension
 13
-0.0
 23
-0.0
 33
0.0
 14
62.7199999999999989
 24
14.3359999999999985
 34
0.0
1001
ACAD
1000
DSTYLE
1002
{
1070
144
1040
1.0
1070
40
1040
1.0
1002
}
  0
DIMENSION
  5
70
100
AcDbEntity
  8
mass
 62
256
370
-1
 48
1.0
  6
BYLAYER
100
AcDbDimension
 10
2.6127479457711535
 20
-3.519460898039203
 30
0.0
 11
32.8551115059775682
 21
21.2668081491795249
 31
0.0
 70
1
 71
8
 72
2
 74
0
 75
0
 41
1.0
 42
0.0
  1
r\S^ L;
  3
Standard
100
AcDbAlignedDimension
 13
-0.0
 23
-0.0
 33
0.0
 14
62.7199999999999989
 24
46.5615490287346105
 34
0.0
1001
ACAD
1000
DSTYLE
1002
{
1070
144
1040
1.0
1070
40
1040
1.0
1002
}
  0
DIMENSION
  5
71
100
AcDbEntity
  8
mass
 62
256
370
-1
 48
1.0
  6
BYLAYER
100
AcDbDimension
 10
33.3002641545037221
 20
63.9774830943034019
 30
0.0
 11
12.443659612491885
 21
34.6627155205075042
 31
0.0
 70
1
 71
8
 72
2
 74
0
 75
0
 41
1.0
 42
0.0
  1
r\S^ L;
  3
Standard
100
AcDbAlignedDimension
 13
38.5485001481482925
 23
60.6412799999998953
 33
0.0
 14
-0.0
 24
-0.0
 34
0.0
1001
ACAD
1000
DSTYLE
1002
{
1070
144
1040
1.0
1070
40
1040
1.0
1002
}
  0
DIMENSION
  5
72
100
AcDbEntity
  8
mass
 62
256
370
-1
 48
1.0
  6
BYLAYER
100
AcDbDimension
 10
91.0464016406366596
 20
60.9449755757478471
 30
0.0
 11
116.9036451852606575
 21
34.1137669736538953
 31
0.0
 70
1
 71
8
 72
2
 74
0
 75
0
 41
1.0
 42
0.0
  1
r\S^ Rl;
  3
Standard
100
AcDbAlignedDimension
 13
85.513236148148124
 23
56.1254399999999691
 33
0.0
 14
134.3999999999999773
 24
0.0000000000000259
 34
0.0
1001
ACAD
1000
DSTYLE
1002
{
1070
144
1040
1.0
1070
40
1040
1.0
1002
}
  0
DIMENSION
  5
73
100
AcDbEntity
  8
mass
 62
256
370
-1
 48
1.0
  6
BYLAYER
100
AcDbDimension
 10
61.0397066483193385
 20
5.9345332415967338
 30
0.0
 11
97.247424401703455
 21
0.6051220085172095
 31
0.0
 70
1
 71
8
 72
2
 74
0
 75
0
 41
1.0
 42
0.0
  1
r\S^ Ru;
  3
Standard
100
AcDbAlignedDimension
 13
62.7199999999999989
 23
14.3359999999999985
 33
0.0
 14
134.4000000000000341
 24
-0.0
 34
0.0
1001
ACAD
1000
DSTYLE
1002
{
1070
144
1040
1.0
1070
40
1040
1.0
1002
}
  0
DIMENSION
  5
74
100
AcDbEntity
  8
mass
 62
256
370
-1
 48
1.0
  6
BYLAYER
100
AcDbDimension
 10
64.8791337596516087
 20
49.8854656749854186
 30
0.0
 11
101.7405172906606481
 21
28.1770780985514655
 31
0.0
 70
1
 71
8
 72
2
 74
0
 75
0
 41
1.0
 42
0.0
  1
r\S^ R;
  3
Standard
100
AcDbAlignedDimension
 13
62.719999999999942
 23
46.5615490287346745
 33
0.0
 14
134.3999999999999488
 24
0.0
 34
0.0
1001
ACAD
1000
DSTYLE
1002
{
1070
144
1040
1.0
1070
40
1040
1.0
1002
}
  0
DIMENSION
  5
75
100
AcDbEntity
  8
mass
 62
256
370
-1
 48
1.0
  6
BYLAYER
100
AcDbDimension
 10
41.3504818118560422
 20
65.4516062418454538
 30
0.0
 11
54.3799739740565684
 21
60.0319183981617712
 31
0.0
 70
1
 71
8
 72
2
 74
0
 75
0
 41
1.0
 42
0.0
  1
a\S^ Lu;
  3
Standard
100
AcDbAlignedDimension
 13
38.5485001481482925
 23
60.6412799999998953
 33
0.0
 14
62.7199999999999633
 24
46.5615490287346461
 34
0.0
1001
ACAD
1000
DSTYLE
1002
{
1070
144
1040
1.0
1070
40
1040
1.0
1002
}
  0
LINE
  5
76
100
AcDbEntity
  8
vol
 62
256
370
-1
 48
1.0
  6
BYLAYER
100
AcDbLine
 10
56.82000000000005
 20
47.5615490287346248
 30
0.0
 11
58.82000000000005
 21
45.5615490287346248
 31
0.0
  0
LINE
  5
77
100
AcDbEntity
  8
0
 62
256
370
-1
 48
1.0
  6
BYLAYER
100
AcDbLine
 10
37.5485001481481362
 20
61.6412799999999592
 30
0.0
 11
39.5485001481481362
 21
59.6412799999999592
 31
0.0
  0
LINE
  5
78
100
AcDbEntity
  8
0
 62
256
370
-1
 48
1.0
  6
BYLAYER
100
AcDbLine
 10
84.5132361481480245
 20
57.1254399999999265
 30
0.0
 11
86.5132361481480245
 21
55.1254399999999265
 31
0.0
  0
DIMENSION
  5
79
100
AcDbEntity
  8
mass
 62
256
370
-1
 48
1.0
  6
BYLAYER
100
AcDbDimension
 10
68.0
 20
46.5615490287346887
 30
0.0
 11
66.1250000000000142
 21
30.4487745143673436
 31
0.0
 70
1
 71
8
 72
2
 74
0
 75
0
 41
1.0
 42
0.0
  1
a\S^ Ll; = a\S^ Ru;
  3
Standard
100
AcDbAlignedDimension
 13
62.7199999999999704
 23
46.5615490287346887
 33
0.0
 14
62.7199999999999989
 24
14.3359999999999985
 34
0.0
1001
ACAD
1000
DSTYLE
1002
{
1070
144
1040
1.0
1070
40
1040
1.0
1002
}
  0
DIMENSION
  5
7A
100
AcDbEntity
  8
mass
 62
256
370
-1
 48
1.0
  6
BYLAYER
100
AcDbDimension
 10
60.0157038110899279
 20
53.0065892151566871
 30
0.0
 11
70.6868586356655584
 21
59.5175020439243028
 31
0.0
 70
1
 71
8
 72
2
 74
0
 75
0
 41
1.0
 42
0.0
  1
a\S^ Rl;
  3
Standard
100
AcDbAlignedDimension
 13
62.7199999999999704
 23
46.5615490287346603
 33
0.0
 14
85.513236148148124
 24
56.1254399999999691
 34
0.0
1001
ACAD
1000
DSTYLE
1002
{
1070
144
1040
1.0
1070
40
1040
1.0
1002
}
  0
LINE
  5
7B
100
AcDbEntity
  8
alt
 62
256
370
-1
 48
1.0
  6
BYLAYER
100
AcDbLine
 10
280.0
 20
160.0
 30
0.0
 11
280.0000000000001137
 21
160.0000000000000284
 31
0.0
  0
LINE
  5
7C
100
AcDbEntity
  8
vol
 62
256
370
-1
 48
1.0
  6
BYLAYER
100
AcDbLine
 10
38.5485001481481504
 20
60.6412799999999734
 30
0.0
 11
57.8199999999999719
 21
46.5615490287346816
 31
0.0
  0
LINE
  5
7D
100
AcDbEntity
  8
vol
 62
256
370
-1
 48
1.0
  6
BYLAYER
100
AcDbLine
 10
56.82000000000005
 20
45.5615490287346248
 30
0.0
 11
58.82000000000005
 21
47.5615490287346248
 31
0.0
  0
LINE
  5
7E
100
AcDbEntity
  8
0
 62
256
370
-1
 48
1.0
  6
BYLAYER
100
AcDbLine
 10
37.5485001481481362
 20
59.6412799999999592
 30
0.0
 11
39.5485001481481362
 21
61.6412799999999592
 31
0.0
  0
LINE
  5
7F
100
AcDbEntity
  8
0
 62
256
370
-1
 48
1.0
  6
BYLAYER
100
AcDbLine
 10
84.5132361481480245
 20
55.1254399999999265
 30
0.0
 11
86.5132361481480245
 21
57.1254399999999265
 31
0.0
  0
LINE
  5
80
100
AcDbEntity
  8
vol
 62
256
370
-1
 48
1.0
  6
BYLAYER
100
AcDbLine
 10
57.8199999999999719
 20
46.5615490287346816
 30
0.0
 11
-0.0
 21
-0.0
 31
0.0
  0
LINE
  5
81
100
AcDbEntity
  8
vol
 62
256
370
-1
 48
1.0
  6
BYLAYER
100
AcDbLine
 10
57.8199999999999719
 20
46.5615490287346816
 30
0.0
 11
85.5132361481481666
 21
56.1254399999999833
 31
0.0
  0
LINE
  5
82
100
AcDbEntity
  8
vol
 62
256
370
-1
 48
1.0
  6
BYLAYER
100
AcDbLine
 10
57.8199999999999719
 20
46.5615490287346816
 30
0.0
 11
134.3999999999999488
 21
0.000000000000024
 31
0.0
  0
LINE
  5
83
100
AcDbEntity
  8
vol
 62
256
370
-1
 48
1.0
  6
BYLAYER
100
AcDbLine
 10
57.8199999999999505
 20
46.5615490287346887
 30
0.0
 11
62.7199999999999989
 21
14.3359999999999985
 31
0.0
  0
DIMENSION
  5
84
100
AcDbEntity
  8
vol_mass
 62
256
370
-1
 48
1.0
  6
BYLAYER
100
AcDbDimension
 10
57.8199999999999932
 20
66.399999999998883
 30
0.0
 11
60.2699999999990297
 21
68.2749999999994799
 31
0.0
 70
1
 71
8
 72
2
 74
0
 75
0
 41
1.0
 42
0.0
  1
ds
  3
Standard
100
AcDbAlignedDimension
 13
57.8199999999999932
 23
46.5615490287346248
 33
0.0
 14
62.7199999999980662
 24
46.5615490287358185
 34
0.0
1001
ACAD
1000
DSTYLE
1002
{
1070
144
1040
1.0
1070
40
1040
1.0
1002
}
  0
DIMENSION
  5
85
100
AcDbEntity
  8
vol_mass
 62
256
370
-1
 48
1.0
  6
BYLAYER
100
AcDbDimension
 10
62.719999999999871
 20
46.5615490287346248
 30
0.0
 11
93.0
 21
35.0
 31
0.0
 70
130
 71
8
 72
2
 74
0
 75
0
 41
1.0
 42
0.0
  1
d\U+03c6\S^ R;
  3
Standard
100
AcDb2LineAngularDimension
 13
57.8199999999999719
 23
46.5615490287346816
 33
0.0
 14
134.3999999999999488
 24
0.000000000000024
 34
0.0
 15
134.3999999999999773
 25
0.0000000000000259
 35
0.0
 16
90.2743105867882889
 26
28.2404070089289405
 36
0.0
  0
DIMENSION
  5
86
100
AcDbEntity
  8
vol_mass
 62
256
370
-1
 48
1.0
  6
BYLAYER
100
AcDbDimension
 10
-3.1971023918148025
 20
3.970152715079367
 30
0.0
 11
24.5368948111338447
 21
28.711284179417266
 31
0.0
 70
1
 71
8
 72
2
 74
0
 75
0
 41
1.0
 42
0.0
  1
r\S^ L;+dr\S^ L;
  3
Standard
100
AcDbAlignedDimension
 13
-0.0
 23
-0.0
 33
0.0
 14
57.8199999999999932
 24
46.5615490287346248
 34
0.0
1001
ACAD
1000
DSTYLE
1002
{
1070
144
1040
1.0
1070
40
1040
1.0
1002
}
  0
DIMENSION
  5
87
100
AcDbEntity
  8
vol_mass
 62
256
370
-1
 48
1.0
  6
BYLAYER
100
AcDbDimension
 10
54.7467954967209778
 20
41.5070350408975912
 30
0.0
 11
94.0108965687316243
 21
19.8283691687601049
 31
0.0
 70
1
 71
8
 72
2
 74
0
 75
0
 41
1.0
 42
0.0
  1
r\S^ R;+dr\S^ R;
  3
Standard
100
AcDbAlignedDimension
 13
57.8199999999999505
 23
46.5615490287347171
 33
0.0
 14
134.4000000000005173
 24
-0.000000000000367
 34
0.0
1001
ACAD
1000
DSTYLE
1002
{
1070
144
1040
1.0
1070
40
1040
1.0
1002
}
  0
LINE
  5
88
100
AcDbEntity
  8
vol
 62
256
370
-1
 48
1.0
  6
BYLAYER
100
AcDbLine
 10
57.8199999999999932
 20
46.5615490287346248
 30
0.0
 11
62.7199999999999633
 21
46.5615490287345821
 31
0.0
  0
DIMENSION
  5
89
100
AcDbEntity
  8
vol_mass
 62
256
370
-1
 48
1.0
  6
BYLAYER
100
AcDbDimension
 10
38.5485001481481575
 20
60.6412799999999521
 30
0.0
 11
43.2739941391773755
 21
51.8122169311164029
 31
0.0
 70
2
 71
8
 72
2
 74
0
 75
0
 41
1.0
 42
0.0
  1
\U+03b4
  3
Standard
100
AcDb2LineAngularDimension
 13
57.8199999999999505
 23
46.5615490287347029
 33
0.0
 14
62.0949999999999704
 24
46.5615490287346887
 34
0.0
 15
62.7199999999999704
 25
46.5615490287346887
 35
0.0
 16
45.0
 26
51.0
 36
0.0
  0
DIMENSION
  5
8A
100
AcDbEntity
  8
mass
 62
256
370
-1
 48
1.0
  6
BYLAYER
100
AcDbDimension
 10
85.513236148148124
 20
56.1254399999999691
 30
0.0
 11
81.1112946736313489
 21
44.9130264426024937
 31
0.0
 70
2
 71
8
 72
2
 74
0
 75
0
 41
1.0
 42
0.0
  1
\U+03b1\S^ Rl;
  3
Standard
100
AcDb2LineAngularDimension
 13
134.3999999999999773
 23
0.0000000000000259
 33
0.0
 14
62.719999999999871
 24
46.5615490287346248
 34
0.0
 15
62.719999999999871
 25
46.5615490287346248
 35
0.0
 16
83.0
 26
45.0
 36
0.0
  0
DIMENSION
  5
8B
100
AcDbEntity
  8
mass
 62
256
370
-1
 48
1.0
  6
BYLAYER
100
AcDbDimension
 10
134.3999999999999773
 20
0.0000000000000259
 30
0.0
 11
72.905439554050389
 21
27.7996662702749546
 31
0.0
 70
2
 71
8
 72
2
 74
0
 75
0
 41
1.0
 42
0.0
  1
\U+03b1\S^ Ru;
  3
Standard
100
AcDb2LineAngularDimension
 13
62.7199999999999989
 23
14.3359999999999985
 33
0.0
 14
62.7199999999999633
 24
46.5615490287346603
 34
0.0
 15
62.719999999999871
 25
46.5615490287346248
 35
0.0
 16
79.0
 26
30.0
 36
0.0
  0
DIMENSION
  5
8C
100
AcDbEntity
  8
mass
 62
256
370
-1
 48
1.0
  6
BYLAYER
100
AcDbDimension
 10
33.0283524023872559
 20
24.51931201725262
 30
0.0
 11
37.8678405025433662
 21
45.1789195526251177
 31
0.0
 70
2
 71
8
 72
2
 74
0
 75
0
 41
1.0
 42
0.0
  1
\U+03b1\S^ Lu;
  3
Standard
100
AcDb2LineAngularDimension
 13
39.0885593621311429
 23
60.3266992545750682
 33
0.0
 14
48.0153459888561542
 24
55.1269079750716742
 34
0.0
 15
62.2181684890493685
 25
46.1890035488034556
 35
0.0
 16
36.0
 26
45.0
 36
0.0
  0
DIMENSION
  5
8D
100
AcDbEntity
  8
mass
 62
256
370
-1
 48
1.0
  6
BYLAYER
100
AcDbDimension
 10
62.7199999999999989
 20
14.3359999999999985
 30
0.0
 11
51.8495827269525336
 21
24.953229544857944
 31
0.0
 70
2
 71
8
 72
2
 74
0
 75
0
 41
1.0
 42
0.0
  1
\U+03b1\S^ Ll;
  3
Standard
100
AcDb2LineAngularDimension
 13
33.53018391333773
 23
24.8918574971838282
 33
0.0
 14
42.2327562582148985
 24
31.3524003688692403
 34
0.0
 15
62.7199999999999633
 25
46.5615490287346603
 35
0.0
 16
54.0
 26
22.0
 36
0.0
  0
LINE
  5
8E
100
AcDbEntity
  8
0
 62
256
370
-1
 48
1.0
  6
BYLAYER
100
AcDbLine
 10
38.5485001481481575
 20
60.6412799999999521
 30
0.0
 11
62.7199999999999704
 21
46.5615490287346887
 31
0.0
  0
LINE
  5
8F
100
AcDbEntity
  8
0
 62
256
370
-1
 48
1.0
  6
BYLAYER
100
AcDbLine
 10
62.719999999999871
 20
46.5615490287346248
 30
0.0
 11
85.513236148148124
 21
56.1254399999999691
 31
0.0
  0
LINE
  5
90
100
AcDbEntity
  8
0
 62
256
370
-1
 48
1.0
  6
BYLAYER
100
AcDbLine
 10
134.3999999999999773
 20
0.0000000000000259
 30
0.0
 11
62.719999999999871
 21
46.5615490287346248
 31
0.0
  0
LEADER
  5
91
100
AcDbEntity
  8
vol_mass
 62
256
370
-1
 48
1.0
  6
BYLAYER
100
AcDbLeader
  3
Standard
 71
1
 72
0
 73
3
 74
0
 75
0
 40
1.0
 41
10.0
 76
3
 10
52.0
 20
52.0
 10
48.0
 20
70.0
 10
44.0
 20
70.0
1001
ACAD
1000
DSTYLE
1002
{
1070
40
1040
1.0
1002
}
  0
MTEXT
  5
92
100
AcDbEntity
  8
vol_mass
 62
256
370
-1
 48
1.0
  6
BYLAYER
100
AcDbMText
 10
44.0
 20
70.0
 30
0.0
 40
1.0
 41
0.0
 71
9
 72
1
  1
\H2;\U+0394V
  7
textstyle0
 50
0.0
 73
2
 44
1.0
  0
LINE
  5
93
100
AcDbEntity
  8
0
 62
256
370
-1
 48
1.0
  6
BYLAYER
100
AcDbLine
 10
61.7199999999999918
 20
15.3359999999999665
 30
0.0
 11
63.7199999999999918
 21
13.3359999999999665
 31
0.0
  0
LINE
  5
94
100
AcDbEntity
  8
0
 62
256
370
-1
 48
1.0
  6
BYLAYER
100
AcDbLine
 10
61.7199999999999918
 20
13.3359999999999665
 30
0.0
 11
63.7199999999999918
 21
15.3359999999999665
 31
0.0
  0
CIRCLE
  5
95
100
AcDbEntity
  8
marker_gb
 62
256
370
-1
 48
1.0
  6
BYLAYER
100
AcDbCircle
 10
62.719999999999942
 20
14.3360000000000056
 30
0.0
 40
1.4142135623731027
  0
LINE
  5
96
100
AcDbEntity
  8
0
 62
256
370
-1
 48
1.0
  6
BYLAYER
100
AcDbLine
 10
61.7200000000001481
 20
47.5615490287345821
 30
0.0
 11
63.7200000000001481
 21
45.5615490287345821
 31
0.0
  0
LINE
  5
97
100
AcDbEntity
  8
0
 62
256
370
-1
 48
1.0
  6
BYLAYER
100
AcDbLine
 10
61.7200000000001481
 20
45.5615490287345821
 30
0.0
 11
63.7200000000001481
 21
47.5615490287345821
 31
0.0
  0
CIRCLE
  5
98
100
AcDbEntity
  8
marker_neck
 62
256
370
-1
 48
1.0
  6
BYLAYER
100
AcDbCircle
 10
62.7200000000011144
 20
46.5615490287355485
 30
0.0
 40
1.4142135623717285
  0
ENDSEC
  0
SECTION
  2
OBJECTS
  0
DICTIONARY
  5
C
100
AcDbDictionary
280
0
281
1
  3
ACAD_GROUP
350
D
  3
ACAD_LAYOUT
350
1A
  3
ACAD_MLINESTYLE
350
17
  3
ACAD_PLOTSETTINGS
350
19
  3
ACAD_PLOTSTYLENAME
350
E
  3
AcDbVariableDictionary
350
99
  3
QCAD_OBJECTS
350
9A
  0
DICTIONARY
  5
D
100
AcDbDictionary
280
0
281
1
  0
ACDBDICTIONARYWDFLT
  5
E
100
AcDbDictionary
281
1
  3
Normal
350
F
100
AcDbDictionaryWithDefault
340
F
  0
ACDBPLACEHOLDER
  5
F
  0
DICTIONARY
  5
17
100
AcDbDictionary
280
0
281
1
  3
Standard
350
18
  0
MLINESTYLE
  5
18
100
AcDbMlineStyle
  2
STANDARD
 70
0
  3

 62
256
 51
90.0
 52
90.0
 71
2
 49
0.5
 62
256
  6
BYLAYER
 49
-0.5
 62
256
  6
BYLAYER
  0
DICTIONARY
  5
19
100
AcDbDictionary
280
0
281
1
  0
DICTIONARY
  5
1A
100
AcDbDictionary
281
1
  3
Layout1
350
1E
  3
Layout2
350
26
  3
Model
350
22
  0
LAYOUT
  5
1E
100
AcDbPlotSettings
  1

  2
none_device
  4

  6

 40
0.0
 41
0.0
 42
0.0
 43
0.0
 44
0.0
 45
0.0
 46
0.0
 47
0.0
 48
0.0
 49
0.0
140
0.0
141
0.0
142
1.0
143
1.0
 70
688
 72
0
 73
0
 74
5
  7

 75
16
147
1.0
148
0.0
149
0.0
100
AcDbLayout
  1
Layout1
 70
1
 71
1
 10
0.0
 20
0.0
 11
420.0
 21
297.0
 12
0.0
 22
0.0
 32
0.0
 14
100000000000000000000.0
 24
100000000000000000000.0
 34
100000000000000000000.0
 15
-100000000000000000000.0
 25
-100000000000000000000.0
 35
-100000000000000000000.0
146
0.0
 13
0.0
 23
0.0
 33
0.0
 16
1.0
 26
0.0
 36
0.0
 17
0.0
 27
1.0
 37
0.0
 76
0
330
1B
  0
LAYOUT
  5
22
100
AcDbPlotSettings
  1

  2
none_device
  4

  6

 40
0.0
 41
0.0
 42
0.0
 43
0.0
 44
0.0
 45
0.0
 46
0.0
 47
0.0
 48
0.0
 49
0.0
140
0.0
141
0.0
142
1.0
143
1.0
 70
1712
 72
0
 73
0
 74
0
  7

 75
0
147
1.0
148
0.0
149
0.0
100
AcDbLayout
  1
Model
 70
1
 71
0
 10
0.0
 20
0.0
 11
12.0
 21
9.0
 12
0.0
 22
0.0
 32
0.0
 14
0.0
 24
0.0
 34
0.0
 15
0.0
 25
0.0
 35
0.0
146
0.0
 13
0.0
 23
0.0
 33
0.0
 16
1.0
 26
0.0
 36
0.0
 17
0.0
 27
1.0
 37
0.0
 76
0
330
1F
  0
LAYOUT
  5
26
100
AcDbPlotSettings
  1

  2
none_device
  4

  6

 40
0.0
 41
0.0
 42
0.0
 43
0.0
 44
0.0
 45
0.0
 46
0.0
 47
0.0
 48
0.0
 49
0.0
140
0.0
141
0.0
142
1.0
143
1.0
 70
688
 72
0
 73
0
 74
5
  7

 75
16
147
1.0
148
0.0
149
0.0
100
AcDbLayout
  1
Layout2
 70
1
 71
2
 10
0.0
 20
0.0
 11
12.0
 21
9.0
 12
0.0
 22
0.0
 32
0.0
 14
0.0
 24
0.0
 34
0.0
 15
0.0
 25
0.0
 35
0.0
146
0.0
 13
0.0
 23
0.0
 33
0.0
 16
1.0
 26
0.0
 36
0.0
 17
0.0
 27
1.0
 37
0.0
 76
0
330
23
  0
DICTIONARY
  5
99
100
AcDbDictionary
281
1
  3
DIMASSOC
350
9C
  3
HIDETEXT
350
9B
  0
DICTIONARYVAR
  5
9B
100
DictionaryVariables
280
0
  1
2
  0
DICTIONARYVAR
  5
9C
100
DictionaryVariables
280
0
  1
1
  0
DICTIONARY
  5
9A
100
AcDbDictionary
281
1
  3
ColorSettings/BackgroundColor
350
9D
  3
ColorSettings/ColorMode
350
9E
  3
DimensionSettings/AngularFormat
350
9F
  3
DimensionSettings/AngularPrecision
350
A0
  3
DimensionSettings/DecimalPoint
350
A1
  3
DimensionSettings/DimensionFont
350
A2
  3
DimensionSettings/DimensionTextColor
350
A3
  3
DimensionSettings/KeepProportions
350
A4
  3
DimensionSettings/LinearFormat
350
A5
  3
DimensionSettings/LinearPrecision
350
A6
  3
Grid/DisplayGrid00
350
A7
  3
Grid/DisplayGrid01
350
A8
  3
Grid/DisplayGrid02
350
A9
  3
Grid/DisplayGrid03
350
AA
  3
Grid/GridSpacingX00
350
AB
  3
Grid/GridSpacingX01
350
AC
  3
Grid/GridSpacingX02
350
AD
  3
Grid/GridSpacingX03
350
AE
  3
Grid/GridSpacingY00
350
AF
  3
Grid/GridSpacingY01
350
B0
  3
Grid/GridSpacingY02
350
B1
  3
Grid/GridSpacingY03
350
B2
  3
Grid/IsometricGrid00
350
B3
  3
Grid/IsometricGrid01
350
B4
  3
Grid/IsometricGrid02
350
B5
  3
Grid/IsometricGrid03
350
B6
  3
Grid/IsometricProjection00
350
B7
  3
Grid/IsometricProjection01
350
B8
  3
Grid/IsometricProjection02
350
B9
  3
Grid/IsometricProjection03
350
BA
  3
Grid/MetaGridSpacingX00
350
BB
  3
Grid/MetaGridSpacingX01
350
BC
  3
Grid/MetaGridSpacingX02
350
BD
  3
Grid/MetaGridSpacingX03
350
BE
  3
Grid/MetaGridSpacingY00
350
BF
  3
Grid/MetaGridSpacingY01
350
C0
  3
Grid/MetaGridSpacingY02
350
C1
  3
Grid/MetaGridSpacingY03
350
C2
  3
LinetypeSettings/PSLTSCALE
350
C3
  3
MultiPageSettings/Columns
350
C4
  3
MultiPageSettings/GlueMarginsBottom
350
C5
  3
MultiPageSettings/GlueMarginsLeft
350
C6
  3
MultiPageSettings/GlueMarginsRight
350
C7
  3
MultiPageSettings/GlueMarginsTop
350
C8
  3
MultiPageSettings/PrintCropMarks
350
C9
  3
MultiPageSettings/Rows
350
CA
  3
PageSettings/OffsetX
350
CB
  3
PageSettings/OffsetY
350
CC
  3
PageSettings/PageOrientation
350
CD
  3
PageSettings/PaperHeight
350
CE
  3
PageSettings/PaperSizeName
350
CF
  3
PageSettings/PaperWidth
350
D0
  3
PageSettings/PointSize
350
D1
  3
PageSettings/Scale
350
D2
  3
PageSettings/ShowPaperBorders
350
D3
  3
PageTagSettings/EnablePageTags
350
D4
  3
PageTagSettings/TagAlignment
350
D5
  3
PageTagSettings/TagFont
350
D6
  3
PageTagSettings/TagPosition
350
D7
  3
QCADVersion
350
D8
  3
UnitSettings/PaperUnit
350
D9
  3
ViewportCenter
350
DA
  3
ViewportHeight
350
DB
  3
ViewportWidth
350
DC
  0
XRECORD
  5
9D
330
9A
100
AcDbXrecord
280
1
1000
Weiss
  0
XRECORD
  5
9E
330
9A
100
AcDbXrecord
280
1
1000
FullColor
  0
XRECORD
  5
9F
330
9A
100
AcDbXrecord
280
1
 90
0
  0
XRECORD
  5
A0
330
9A
100
AcDbXrecord
280
1
 90
0
  0
XRECORD
  5
A1
330
9A
100
AcDbXrecord
280
1
 90
46
  0
XRECORD
  5
A2
330
9A
100
AcDbXrecord
280
1
1000
Noto Sans
  0
XRECORD
  5
A3
330
9A
100
AcDbXrecord
280
1
1000
Von Layer
  0
XRECORD
  5
A4
330
9A
100
AcDbXrecord
280
1
290
1
  0
XRECORD
  5
A5
330
9A
100
AcDbXrecord
280
1
 90
2
  0
XRECORD
  5
A6
330
9A
100
AcDbXrecord
280
1
 90
2
  0
XRECORD
  5
A7
330
9A
100
AcDbXrecord
280
1
290
1
  0
XRECORD
  5
A8
330
9A
100
AcDbXrecord
280
1
290
1
  0
XRECORD
  5
A9
330
9A
100
AcDbXrecord
280
1
290
1
  0
XRECORD
  5
AA
330
9A
100
AcDbXrecord
280
1
290
1
  0
XRECORD
  5
AB
330
9A
100
AcDbXrecord
280
1
1000
auto
  0
XRECORD
  5
AC
330
9A
100
AcDbXrecord
280
1
1000
auto
  0
XRECORD
  5
AD
330
9A
100
AcDbXrecord
280
1
1000
auto
  0
XRECORD
  5
AE
330
9A
100
AcDbXrecord
280
1
1000
auto
  0
XRECORD
  5
AF
330
9A
100
AcDbXrecord
280
1
1000
auto
  0
XRECORD
  5
B0
330
9A
100
AcDbXrecord
280
1
1000
auto
  0
XRECORD
  5
B1
330
9A
100
AcDbXrecord
280
1
1000
auto
  0
XRECORD
  5
B2
330
9A
100
AcDbXrecord
280
1
1000
auto
  0
XRECORD
  5
B3
330
9A
100
AcDbXrecord
280
1
290
0
  0
XRECORD
  5
B4
330
9A
100
AcDbXrecord
280
1
290
0
  0
XRECORD
  5
B5
330
9A
100
AcDbXrecord
280
1
290
0
  0
XRECORD
  5
B6
330
9A
100
AcDbXrecord
280
1
290
0
  0
XRECORD
  5
B7
330
9A
100
AcDbXrecord
280
1
 90
65537
  0
XRECORD
  5
B8
330
9A
100
AcDbXrecord
280
1
 90
65537
  0
XRECORD
  5
B9
330
9A
100
AcDbXrecord
280
1
 90
65537
  0
XRECORD
  5
BA
330
9A
100
AcDbXrecord
280
1
 90
65537
  0
XRECORD
  5
BB
330
9A
100
AcDbXrecord
280
1
1000
auto
  0
XRECORD
  5
BC
330
9A
100
AcDbXrecord
280
1
1000
auto
  0
XRECORD
  5
BD
330
9A
100
AcDbXrecord
280
1
1000
auto
  0
XRECORD
  5
BE
330
9A
100
AcDbXrecord
280
1
1000
auto
  0
XRECORD
  5
BF
330
9A
100
AcDbXrecord
280
1
1000
auto
  0
XRECORD
  5
C0
330
9A
100
AcDbXrecord
280
1
1000
auto
  0
XRECORD
  5
C1
330
9A
100
AcDbXrecord
280
1
1000
auto
  0
XRECORD
  5
C2
330
9A
100
AcDbXrecord
280
1
1000
auto
  0
XRECORD
  5
C3
330
9A
100
AcDbXrecord
280
1
290
0
  0
XRECORD
  5
C4
330
9A
100
AcDbXrecord
280
1
 90
1
  0
XRECORD
  5
C5
330
9A
100
AcDbXrecord
280
1
 40
10.0
  0
XRECORD
  5
C6
330
9A
100
AcDbXrecord
280
1
 40
10.0
  0
XRECORD
  5
C7
330
9A
100
AcDbXrecord
280
1
 40
10.0
  0
XRECORD
  5
C8
330
9A
100
AcDbXrecord
280
1
 40
10.0
  0
XRECORD
  5
C9
330
9A
100
AcDbXrecord
280
1
290
0
  0
XRECORD
  5
CA
330
9A
100
AcDbXrecord
280
1
 90
1
  0
XRECORD
  5
CB
330
9A
100
AcDbXrecord
280
1
 40
-38.0237582481920739
  0
XRECORD
  5
CC
330
9A
100
AcDbXrecord
280
1
 40
-117.0562810832812914
  0
XRECORD
  5
CD
330
9A
100
AcDbXrecord
280
1
1000
Portrait
  0
XRECORD
  5
CE
330
9A
100
AcDbXrecord
280
1
 40
297.0
  0
XRECORD
  5
CF
330
9A
100
AcDbXrecord
280
1
1000
ISO A4
  0
XRECORD
  5
D0
330
9A
100
AcDbXrecord
280
1
 40
210.0
  0
XRECORD
  5
D1
330
9A
100
AcDbXrecord
280
1
1000
0.5
  0
XRECORD
  5
D2
330
9A
100
AcDbXrecord
280
1
1000
1:1
  0
XRECORD
  5
D3
330
9A
100
AcDbXrecord
280
1
290
1
  0
XRECORD
  5
D4
330
9A
100
AcDbXrecord
280
1
290
0
  0
XRECORD
  5
D5
330
9A
100
AcDbXrecord
280
1
1000
Inside
  0
XRECORD
  5
D6
330
9A
100
AcDbXrecord
280
1
1000
Arial,10,-1,5,50,0,0,0,0,0
  0
XRECORD
  5
D7
330
9A
100
AcDbXrecord
280
1
1000
TopLeft
  0
XRECORD
  5
D8
330
9A
100
AcDbXrecord
280
1
1000
3.26.4.2
  0
XRECORD
  5
D9
330
9A
100
AcDbXrecord
280
1
 90
4
  0
XRECORD
  5
DB
330
9A
100
AcDbXrecord
280
1
 40
88.4730081817028804
  0
XRECORD
  5
DC
330
9A
100
AcDbXrecord
280
1
 40
169.0211213574088731
  0
ENDSEC
  0
EOF
